<?xml version="1.0" encoding="utf-8"?>
<!-- Generator: Adobe Illustrator 23.0.3, SVG Export Plug-In . SVG Version: 6.00 Build 0)  -->
<svg version="1.1" id="Layer_1" xmlns="http://www.w3.org/2000/svg" xmlns:xlink="http://www.w3.org/1999/xlink" x="0px" y="0px"
	 viewBox="0 0 192 192" style="enable-background:new 0 0 192 192;" xml:space="preserve">
<style type="text/css">
	.st0{fill:#6D6E70;}
</style>
<g>
	<path class="st0" d="M99.4,9.5c4.1,1,8.5,1.5,12.4,3.1c15.3,6.2,24.8,17.5,27.3,33.8c2.7,17.8-3.8,32.1-18.2,42.7
		c-13,9.6-32.7,10.3-46.6,2C63,84.4,55.8,74.6,53.1,61.7C48.4,38.1,63.9,15,87.5,10.3c1.7-0.3,3.4-0.6,5-0.8
		C94.9,9.5,97.1,9.5,99.4,9.5z"/>
	<path class="st0" d="M94.6,184.7c-20.8-0.2-40.3-7.7-57.1-21.9c-5.1-4.3-9.5-9.3-14.2-14.1c-0.4-0.4-0.7-1.3-0.6-2
		c3.2-20.2,12-37.4,28.4-50.2c2.4-1.9,5.1-3.4,7.6-5.2c0.9-0.7,1.5-0.5,2.3,0.3c5.5,5.7,11.8,10.1,19.4,12.4
		c17.7,5.5,33.6,2.3,47.7-9.8c0.8-0.7,1.7-1.4,2.3-2.3c1-1.3,1.8-1.3,3.3-0.4c18.7,11.3,29.6,28.1,34.4,49.1
		c0.4,1.9,0.8,3.9,1.1,5.9c0.1,0.6-0.1,1.5-0.5,2c-10,11.9-21.9,21.6-36.2,28.1C121,182,108.7,184.6,94.6,184.7z"/>
</g>
</svg>
