<?xml version="1.0" encoding="utf-8"?>
<!-- Generator: Adobe Illustrator 23.0.3, SVG Export Plug-In . SVG Version: 6.00 Build 0)  -->
<svg version="1.1" id="Layer_1" xmlns="http://www.w3.org/2000/svg" xmlns:xlink="http://www.w3.org/1999/xlink" x="0px" y="0px"
	 viewBox="0 0 192 192" style="enable-background:new 0 0 192 192;" xml:space="preserve">
<style type="text/css">
	.st0{fill:#007BBA;}
	.st1{fill:#ED2D2F;}
	.st2{fill:#00B7E8;}
	.st3{fill:#235A9C;}
	.st4{fill:#37B34A;}
	.st5{fill:#FAAF40;}
	.st6{fill:#EC1C24;}
	.st7{fill:#1B75BB;}
	.st8{fill:#2B388F;}
	.st9{fill:#019147;}
	.st10{fill:#2C2C2B;}
	.st11{fill:#FFFFFF;}
	.st12{fill:none;}
	.st13{fill:#006838;}
	.st14{fill:#EE4036;}
	.st15{fill:#F05A28;}
	.st16{fill-rule:evenodd;clip-rule:evenodd;fill:#FFFFFF;}
	.st17{fill:url(#SVGID_1_);}
	.st18{fill:#03A94B;}
	.st19{fill:#1AAD4B;}
	.st20{fill:#DF1F26;}
	.st21{fill:#2B3678;}
	.st22{fill:#A4A1BF;}
	.st23{fill:#73709D;}
	.st24{fill:#293577;}
	.st25{fill:#DF2127;}
	.st26{fill:#DE1F27;}
	.st27{fill:#EC3338;}
	.st28{fill:#144B99;}
	.st29{fill:#E5232C;}
	.st30{fill:#D02027;}
	.st31{clip-path:url(#SVGID_3_);}
	.st32{fill:#88888A;}
	.st33{fill:#F5AA5E;}
	.st34{fill:#E96027;}
	.st35{fill:none;stroke:#2C2C2B;stroke-width:0.216;}
	.st36{fill-rule:evenodd;clip-rule:evenodd;fill:#C9C8C8;}
	.st37{fill-rule:evenodd;clip-rule:evenodd;fill:#911D25;}
	.st38{fill-rule:evenodd;clip-rule:evenodd;fill:#70161F;}
	.st39{fill-rule:evenodd;clip-rule:evenodd;fill:#D4242B;}
	.st40{fill-rule:evenodd;clip-rule:evenodd;fill:#A02024;}
	.st41{fill-rule:evenodd;clip-rule:evenodd;fill:#E5E5E4;}
	.st42{fill-rule:evenodd;clip-rule:evenodd;fill:#B3B2B3;}
	.st43{fill-rule:evenodd;clip-rule:evenodd;fill:#979797;}
	.st44{fill-rule:evenodd;clip-rule:evenodd;fill:#E22028;}
	.st45{fill-rule:evenodd;clip-rule:evenodd;}
	.st46{fill:#EA242B;}
	.st47{fill:#B3B3B3;}
	.st48{fill:#DBB79B;}
	.st49{fill:#EDA885;}
	.st50{fill:#C38B71;}
	.st51{fill:#204496;}
	.st52{fill:#EDD2B6;}
	.st53{fill:#444445;}
	.st54{fill:#434243;}
	.st55{fill:#D1D2D2;}
	.st56{fill:#22363F;}
	.st57{fill:#4F7485;stroke:#588AA1;stroke-width:5;stroke-miterlimit:10;}
	.st58{fill:#204856;}
	.st59{fill:#072830;}
	.st60{opacity:0.6;fill:#FFFFFF;}
	.st61{fill:#4F7485;}
	.st62{fill:#BB2030;}
	.st63{fill:#919395;}
	.st64{opacity:0.3;fill:#919395;}
	.st65{fill:#C3E6EA;}
	.st66{fill:#95D5D3;}
	.st67{fill:#A9D1D7;}
	.st68{fill:#80C4C2;}
	.st69{fill:#67BD65;}
	.st70{fill:#3DB34A;}
	.st71{fill:#754D29;}
	.st72{fill:#3A2416;}
	.st73{fill:#A67D4F;}
	.st74{fill:#026938;}
	.st75{fill:#C0966B;}
	.st76{fill:#25A9E0;}
	.st77{fill:#8BC53F;}
	.st78{fill:#3BBFC7;}
	.st79{fill:#6D6E70;}
	.st80{fill:#808285;}
	.st81{fill:#808184;}
	.st82{fill:#D0D2D3;}
	.st83{fill:#404041;}
	.st84{fill:#754C28;}
	.st85{fill:#3B2314;}
	.st86{fill:#EA2127;}
	.st87{fill:#6D6F70;}
	.st88{fill:#F1F1F1;}
	.st89{fill:#BBBDBF;}
	.st90{fill:#E6E7E8;}
	.st91{fill:#557DBE;}
	.st92{fill:#35A552;}
	.st93{fill:#F8BA16;}
	.st94{fill:#E84435;}
	.st95{fill:#1E91CF;}
	.st96{fill-rule:evenodd;clip-rule:evenodd;fill:#F1F1F2;}
	.st97{fill-rule:evenodd;clip-rule:evenodd;fill:#6D6E70;}
	.st98{fill:#4D4D4D;}
	.st99{fill:#808083;}
	.st100{fill:#3FBAC2;}
	.st101{fill:#318A8C;}
	.st102{fill:#016938;}
	.st103{fill:#F89C41;}
	.st104{fill:#F8C115;}
	.st105{fill:#1B75BA;}
	.st106{fill:#2C5871;}
	.st107{fill:#FDC63A;}
	.st108{fill:#A77C4F;}
	.st109{fill:#895D3B;}
	.st110{fill:#C1976B;}
	.st111{fill:#2A3B8E;}
	.st112{fill:#F9AD42;}
	.st113{fill:#F9AE42;}
	.st114{fill:#FAC211;}
	.st115{fill:#6E6F71;}
</style>
<g>
	<path class="st79" d="M140.93,88.32l-34.58,16.47c-2.72,2.61-6.25,3.93-9.79,3.92c-0.15,0-0.3-0.01-0.45-0.02
		c-0.04,0.01-0.08,0.01-0.12,0.02c-0.04-0.01-0.08-0.01-0.12-0.02c-0.15,0-0.3,0.02-0.45,0.02c-3.54,0-7.07-1.32-9.79-3.92
		L51.07,88.32L11.44,70.65l-2.62-1.17v65.21c0,6.3,5.11,11.41,11.41,11.41H96h75.77c6.3,0,11.41-5.11,11.41-11.41V69.48l-2.62,1.17
		L140.93,88.32z"/>
	<path class="st79" d="M171.77,39.33H96H20.23c-6.3,0-11.41,5.11-11.41,11.41v8.92L54.3,81.32l39.28,17.52l0.71,0.33
		c0.82,0.26,0.95,0.37,1.71,0.37s1.1-0.01,1.91-0.44l0.51-0.26l39.28-17.52l45.47-21.67v-8.92
		C183.18,44.44,178.07,39.33,171.77,39.33z"/>
</g>
</svg>
