<?xml version="1.0" encoding="utf-8"?>
<!-- Generator: Adobe Illustrator 23.0.3, SVG Export Plug-In . SVG Version: 6.00 Build 0)  -->
<svg version="1.1" id="Layer_1" xmlns="http://www.w3.org/2000/svg" xmlns:xlink="http://www.w3.org/1999/xlink" x="0px" y="0px"
	 viewBox="0 0 192 192" style="enable-background:new 0 0 192 192;" xml:space="preserve">
<style type="text/css">
	.st0{fill:#6D6E70;}
</style>
<g>
	<path class="st0" d="M48.8,78.4c0-7.9,0-15.7,0-23.4c0-23.1,15.1-41.3,37.9-44.7c15.3-2.3,29.9-0.2,41.9,10.9
		C138.2,30,143.1,41,143.2,54c0,8.1,0,16.2,0,24.4c0.6,0.2,1.1,0.4,1.7,0.5c8.9,2.2,14.1,8.7,14.1,17.8c0.1,12.6,0,25.2,0,37.8
		c0,10.5,0,20.9,0,31.4c0,11.5-7.4,18.8-18.9,18.8c-29.4,0-58.9,0-88.3,0c-11.5,0-18.8-7.3-18.8-18.9c0-22.7,0-45.4,0-68.2
		c0-10.2,4.7-16.3,14.6-18.9C47.9,78.7,48.2,78.6,48.8,78.4z M125.5,78.4c0-8.5,0.1-16.8,0-25c-0.2-12.3-9-23-21.2-25.3
		c-3.7-0.7-7.5-0.6-11.2-0.6c-15,0.1-26.4,11.7-26.5,26.7c0,7.3,0,14.5,0,21.8c0,0.8,0.1,1.6,0.2,2.4
		C86.3,78.4,105.7,78.4,125.5,78.4z M111.4,156.5c-1.4-3.6-2.7-7-4-10.4c-1.3-3.5-2.7-7-4-10.4c9-6.9,10.6-16.8,4.1-24
		c-6-6.6-16.3-6.9-22.5-0.5c-7,7.1-5.6,16.8,3.6,24.5c-2.6,6.8-5.2,13.7-7.9,20.8C91,156.5,101,156.5,111.4,156.5z"/>
</g>
</svg>
