<?xml version="1.0" encoding="utf-8"?>
<!-- Generator: Adobe Illustrator 23.0.3, SVG Export Plug-In . SVG Version: 6.00 Build 0)  -->
<svg version="1.1" id="Layer_1" xmlns="http://www.w3.org/2000/svg" xmlns:xlink="http://www.w3.org/1999/xlink" x="0px" y="0px"
	 viewBox="0 0 192 192" style="enable-background:new 0 0 192 192;" xml:space="preserve">
<style type="text/css">
	.st0{fill:#DDDDDD;}
</style>
<g>
	<path class="st0" d="M70,149.9c-6.5,0-11.7,5.1-12,11.5c0,0.1,0,0.3,0,0.5c0,6.6,5.3,12,12,12s12-5.4,12-12c0-0.2,0-0.3,0-0.5
		C81.7,155,76.4,149.9,70,149.9z"/>
	<path class="st0" d="M144.1,149.9c-6.4,0-11.7,5.1-11.9,11.4c0,0.2,0,0.3,0,0.5c0,6.6,5.4,12,12,12s12-5.4,12-12c0-0.2,0-0.3,0-0.5
		C155.8,155,150.5,149.9,144.1,149.9z"/>
	<g>
		<path class="st0" d="M165.3,131H72.5l0,0h-15L38.1,50.3l0,0l-1.8-7.7H20.1c-4.2,0-7.6,3.4-7.6,7.6s3.4,7.6,7.6,7.6h6.5L33,84.4
			l14,58.2l0,0l0.4,1.6l0.3,1.1h10.5l0,0H82h50.2H156h5.6h3.6c3.8,0,6.9-3.2,6.9-7.2C172.2,134.2,169.1,131,165.3,131z"/>
	</g>
	<g>
		<path class="st0" d="M172.2,57.3h-125l0,0h-0.3l4.5,18.8c0.5,2.5,3.2,14.5,5.6,24.8l0,0l0,0c0,0.1,0,0.1,0,0.1l0,0v0.1
			c1.5,6.6,2.9,12.4,3.4,14.6h0.3h14.8h0.2v-0.1H76l54.6-0.2l0,0c4.7-0.1,9.3-0.2,14-0.3c16.5-0.6,23.7-11.4,26.6-26.9
			c1.3-6.8,0.8-13.9,1-20.9C172.3,64.1,172.2,60.7,172.2,57.3z"/>
	</g>
</g>
</svg>
