<?xml version="1.0" encoding="utf-8"?>
<!-- Generator: Adobe Illustrator 23.0.3, SVG Export Plug-In . SVG Version: 6.00 Build 0)  -->
<svg version="1.1" id="Layer_1" xmlns="http://www.w3.org/2000/svg" xmlns:xlink="http://www.w3.org/1999/xlink" x="0px" y="0px"
	 viewBox="0 0 242.6 153" style="enable-background:new 0 0 242.6 153;" xml:space="preserve">
<style type="text/css">
	.st0{fill:#88CBE9;}
	.st1{fill:#1C5C86;}
	.st2{fill:#F9BB8D;}
	.st3{fill:#259DAB;}
	.st4{fill:#C5D2DB;}
	.st5{fill:#D99870;}
	.st6{fill:#E5D7D8;}
	.st7{fill:#F0E8E4;}
	.st8{fill:#3D2216;}
	.st9{opacity:0.5;}
	.st10{fill:#FFFFFF;}
	.st11{fill:#AFAAA8;}
	.st12{fill:#EFEFEF;}
	.st13{fill:#F9B027;}
	.st14{fill:#604721;}
	.st15{fill:#413E3F;}
	.st16{fill:#F9F9F9;}
	.st17{fill:#2C5BA6;}
	.st18{fill:#4E4A46;}
	.st19{fill:#DA8A4F;}
	.st20{fill:#FCCA30;}
	.st21{fill:#F9C833;}
	.st22{fill:#625C53;}
	.st23{fill:#2BA45F;}
	.st24{fill:#F2C439;}
	.st25{fill:#6F685D;}
	.st26{fill:#F6C736;}
	.st27{fill:#3A3738;}
	.st28{fill:#847B64;}
	.st29{fill:#454344;}
</style>
<g>
	<path class="st0" d="M234.4,153H8.3c-4.6,0-8.3-3.7-8.3-8.3V8.3C0,3.7,3.7,0,8.3,0h226.1c4.6,0,8.3,3.7,8.3,8.3v136.5
		C242.6,149.3,238.9,153,234.4,153z"/>
	<rect x="163.5" y="31.7" class="st1" width="56.7" height="70.7"/>
	<rect x="49.1" y="6.2" class="st1" width="144.5" height="9.2"/>
	<rect x="60.5" y="17.5" class="st1" width="121.6" height="5.5"/>
	<rect x="10.4" y="31.7" class="st1" width="12.8" height="9.2"/>
	<g>
		<rect x="10.4" y="49.3" class="st1" width="19.7" height="5.5"/>
		<rect x="10.4" y="57.3" class="st1" width="27" height="5.5"/>
		<rect x="10.4" y="65.2" class="st1" width="23.4" height="5.5"/>
		<rect x="10.4" y="73.1" class="st1" width="20.7" height="5.5"/>
		<rect x="23.6" y="81.1" class="st1" width="13.8" height="5.5"/>
		<rect x="23.6" y="89" class="st1" width="19.1" height="5.5"/>
		<rect x="23.6" y="96.9" class="st1" width="25.2" height="5.5"/>
		<rect x="10.4" y="104.9" class="st1" width="19.7" height="5.5"/>
		<rect x="10.4" y="112.8" class="st1" width="42.1" height="5.5"/>
		<rect x="10.4" y="120.7" class="st1" width="24.2" height="5.5"/>
		<rect x="10.4" y="128.7" class="st1" width="37" height="5.5"/>
		<rect x="10.4" y="136.6" class="st1" width="32.2" height="5.5"/>
	</g>
	<g>
		<rect x="62" y="49.3" class="st1" width="91.5" height="5.5"/>
		<rect x="62" y="57.3" class="st1" width="75.5" height="5.5"/>
		<rect x="62" y="65.2" class="st1" width="47.1" height="5.5"/>
		<rect x="62" y="73.1" class="st1" width="37.7" height="5.5"/>
		<rect x="62" y="81.1" class="st1" width="30.6" height="5.5"/>
		<rect x="62" y="89" class="st1" width="64.5" height="5.5"/>
		<rect x="62" y="96.9" class="st1" width="47.1" height="5.5"/>
		<rect x="62" y="104.9" class="st1" width="30.6" height="5.5"/>
		<rect x="62" y="112.8" class="st1" width="37.7" height="5.5"/>
		<rect x="62" y="120.7" class="st1" width="64.5" height="5.5"/>
		<rect x="62" y="128.7" class="st1" width="30.6" height="5.5"/>
		<rect x="62" y="136.6" class="st1" width="37.7" height="5.5"/>
	</g>
	<g>
		<g>
			<path class="st1" d="M63.2,38.9h-1.1v-6.6L61,33v-1.1l1.1-0.7h1.1V38.9z"/>
			<path class="st1" d="M64.9,37.9l2.7-3.6c0.2-0.2,0.3-0.4,0.4-0.6c0.1-0.2,0.1-0.4,0.1-0.6v0c0-0.3-0.1-0.6-0.3-0.7S67.4,32,67,32
				c-0.3,0-0.6,0.1-0.8,0.3c-0.2,0.2-0.3,0.5-0.4,0.8v0h-1.1v0c0.1-0.4,0.2-0.8,0.4-1.1c0.2-0.3,0.5-0.6,0.8-0.7
				c0.3-0.2,0.7-0.3,1.1-0.3c0.5,0,0.9,0.1,1.2,0.2s0.6,0.4,0.8,0.7c0.2,0.3,0.3,0.7,0.3,1.1v0c0,0.3-0.1,0.6-0.2,0.9
				s-0.3,0.6-0.5,0.9l-2.3,3.1h3v1h-4.4V37.9z"/>
			<path class="st1" d="M72,39c0,0-0.2-0.1-0.5-0.2c-0.3-0.2-0.6-0.4-0.8-0.7c-0.2-0.3-0.3-0.7-0.4-1.1h1.1c0,0.2,0.1,0.4,0.2,0.5
				s0.2,0.3,0.4,0.3c0.2,0.1,0.4,0.1,0.6,0.1c0.4,0,0.6-0.1,0.8-0.3c0.2-0.2,0.3-0.5,0.3-0.8v-0.2c0-0.4-0.1-0.7-0.3-0.9
				s-0.5-0.3-0.8-0.3h-0.6v-1h0.6c0.3,0,0.5-0.1,0.7-0.3s0.3-0.4,0.3-0.8V33c0-0.3-0.1-0.5-0.3-0.7c-0.2-0.2-0.4-0.3-0.8-0.3
				c-0.2,0-0.4,0-0.5,0.1c-0.1,0.1-0.3,0.2-0.4,0.3c-0.1,0.1-0.2,0.3-0.2,0.5h-1.1c0.1-0.4,0.2-0.8,0.4-1.1c0.2-0.3,0.5-0.5,0.8-0.7
				c0.3-0.2,0.7-0.2,1-0.2c0.7,0,1.2,0.2,1.6,0.5s0.6,0.9,0.6,1.5v0.1c0,0.4-0.1,0.7-0.3,1c-0.2,0.3-0.5,0.5-0.9,0.6
				c0.4,0.1,0.8,0.3,1,0.6s0.4,0.7,0.4,1.2v0.1c0,0.5-0.1,0.8-0.3,1.2s-0.4,0.6-0.8,0.7c-0.3,0.2-0.7,0.3-1.2,0.3
				C72.2,39,72,39,72,39z"/>
			<path class="st1" d="M76.4,36.7l2.6-5.7h1.1l-2.6,5.6h3.8v1h-5V36.7z M79.7,34.3h1.1v4.6h-1.1V34.3z"/>
			<path class="st1" d="M83.9,38.7c-0.3-0.2-0.6-0.4-0.7-0.7c-0.2-0.3-0.3-0.6-0.4-1.1v0h1.1v0c0,0.3,0.2,0.5,0.3,0.7
				s0.4,0.2,0.7,0.2c0.4,0,0.6-0.1,0.8-0.4s0.3-0.6,0.3-1v-0.7c0-0.4-0.1-0.8-0.3-1s-0.5-0.4-0.8-0.4c-0.2,0-0.4,0.1-0.5,0.2
				S84,35,83.9,35.2h-1v-4.1h4v1H84v1.8c0.1-0.1,0.3-0.2,0.5-0.3c0.2-0.1,0.3-0.1,0.5-0.1c0.5,0,0.8,0.1,1.2,0.3s0.6,0.5,0.7,0.8
				c0.2,0.4,0.3,0.8,0.3,1.3v0.7c0,0.5-0.1,0.9-0.3,1.3s-0.4,0.6-0.8,0.8c-0.3,0.2-0.7,0.3-1.2,0.3C84.5,39,84.2,38.9,83.9,38.7z"/>
			<path class="st1" d="M89.6,38.7c-0.3-0.2-0.6-0.5-0.7-0.8s-0.3-0.8-0.3-1.3v0c0-0.3,0-0.6,0.1-0.9c0.1-0.3,0.2-0.6,0.3-0.9
				c0-0.1,0-0.1,0.1-0.2c0-0.1,0.1-0.1,0.1-0.2l1.7-3.4H92L90,35l0-0.2c0.1-0.2,0.2-0.3,0.4-0.4s0.4-0.1,0.6-0.1
				c0.4,0,0.8,0.1,1,0.3c0.3,0.2,0.5,0.4,0.7,0.8c0.2,0.3,0.2,0.8,0.2,1.3v0c0,0.5-0.1,0.9-0.3,1.3c-0.2,0.4-0.4,0.6-0.7,0.8
				c-0.3,0.2-0.7,0.3-1.2,0.3C90.3,39,89.9,38.9,89.6,38.7z M91.5,37.6c0.2-0.2,0.3-0.5,0.3-0.9v0c0-0.4-0.1-0.8-0.3-1
				s-0.5-0.4-0.8-0.4c-0.3,0-0.6,0.1-0.8,0.4c-0.2,0.2-0.3,0.6-0.3,1v0c0,0.4,0.1,0.7,0.3,0.9c0.2,0.2,0.5,0.3,0.8,0.3
				C91.1,37.9,91.4,37.8,91.5,37.6z"/>
			<path class="st1" d="M98.4,32.1l-2,6.8h-1.2l2-6.8h-2v1.1h-1.1v-2.2h4.2V32.1z"/>
			<path class="st1" d="M100.9,38.7c-0.4-0.2-0.6-0.4-0.8-0.8c-0.2-0.3-0.3-0.7-0.3-1.1v-0.1c0-0.4,0.1-0.8,0.3-1.1s0.5-0.6,0.8-0.8
				c-0.3-0.2-0.5-0.4-0.7-0.7c-0.2-0.3-0.2-0.6-0.2-0.9v-0.2c0-0.4,0.1-0.8,0.3-1.1s0.4-0.5,0.8-0.7s0.7-0.3,1.2-0.3
				s0.8,0.1,1.2,0.3s0.6,0.4,0.8,0.7s0.3,0.7,0.3,1.1v0.2c0,0.3-0.1,0.6-0.3,0.9c-0.2,0.3-0.4,0.5-0.7,0.6c0.3,0.2,0.6,0.4,0.8,0.8
				c0.2,0.3,0.3,0.7,0.3,1.1v0.1c0,0.4-0.1,0.8-0.3,1.1c-0.2,0.3-0.5,0.6-0.8,0.8c-0.4,0.2-0.8,0.3-1.2,0.3S101.3,38.9,100.9,38.7z
				 M102.9,37.8c0.2-0.1,0.3-0.2,0.4-0.4s0.2-0.4,0.2-0.6v-0.1c0-0.2-0.1-0.5-0.2-0.6s-0.3-0.3-0.4-0.4s-0.4-0.2-0.7-0.2
				s-0.5,0-0.7,0.2s-0.3,0.2-0.4,0.4c-0.1,0.2-0.2,0.4-0.2,0.6v0.1c0,0.2,0.1,0.4,0.2,0.6s0.3,0.3,0.4,0.4s0.4,0.1,0.7,0.1
				S102.7,37.9,102.9,37.8z M102.8,34.3c0.2-0.1,0.3-0.2,0.4-0.4c0.1-0.2,0.1-0.4,0.1-0.6v-0.1c0-0.2,0-0.4-0.1-0.6
				c-0.1-0.2-0.2-0.3-0.4-0.4c-0.2-0.1-0.4-0.1-0.6-0.1s-0.4,0-0.6,0.1c-0.2,0.1-0.3,0.2-0.4,0.4c-0.1,0.2-0.1,0.4-0.1,0.6v0.1
				c0,0.2,0,0.4,0.1,0.6c0.1,0.2,0.2,0.3,0.4,0.4s0.4,0.1,0.6,0.1S102.6,34.3,102.8,34.3z"/>
			<path class="st1" d="M108.9,35l0,0.2c-0.1,0.2-0.2,0.3-0.4,0.4s-0.4,0.1-0.6,0.1c-0.4,0-0.7-0.1-1-0.3s-0.5-0.5-0.7-0.8
				c-0.2-0.3-0.2-0.7-0.2-1.2v0c0-0.5,0.1-0.9,0.3-1.3c0.2-0.4,0.4-0.6,0.7-0.8c0.3-0.2,0.7-0.3,1.2-0.3s0.9,0.1,1.2,0.3
				c0.3,0.2,0.6,0.5,0.7,0.8s0.3,0.8,0.3,1.3v0c0,0.3,0,0.6-0.1,0.9c-0.1,0.3-0.2,0.6-0.3,0.9c0,0,0,0.1-0.1,0.1c0,0,0,0.1-0.1,0.1
				l-1.7,3.3h-1.2L108.9,35z M108.9,34.3c0.2-0.2,0.3-0.6,0.3-1v0c0-0.4-0.1-0.7-0.3-1c-0.2-0.2-0.5-0.3-0.8-0.3
				c-0.3,0-0.6,0.1-0.8,0.3c-0.2,0.2-0.3,0.5-0.3,1v0c0,0.4,0.1,0.7,0.3,1c0.2,0.2,0.5,0.3,0.8,0.3
				C108.5,34.7,108.7,34.6,108.9,34.3z"/>
			<path class="st1" d="M112.3,38.4c-0.4-0.4-0.6-0.9-0.6-1.6v-3.5c0-0.7,0.2-1.2,0.6-1.6s0.9-0.6,1.7-0.6c0.7,0,1.3,0.2,1.7,0.6
				s0.6,0.9,0.6,1.6v3.5c0,0.7-0.2,1.2-0.6,1.6S114.7,39,114,39C113.2,39,112.7,38.8,112.3,38.4z M114.8,37.6
				c0.2-0.2,0.3-0.5,0.3-0.9v-3.5c0-0.4-0.1-0.7-0.3-0.9c-0.2-0.2-0.5-0.3-0.9-0.3c-0.4,0-0.7,0.1-0.9,0.3c-0.2,0.2-0.3,0.5-0.3,0.9
				v3.5c0,0.4,0.1,0.7,0.3,0.9s0.5,0.3,0.9,0.3S114.6,37.8,114.8,37.6z"/>
			<path class="st1" d="M118.4,38.4c-0.4-0.4-0.6-0.9-0.6-1.6v-3.5c0-0.7,0.2-1.2,0.6-1.6s0.9-0.6,1.7-0.6c0.7,0,1.3,0.2,1.7,0.6
				c0.4,0.4,0.6,0.9,0.6,1.6v3.5c0,0.7-0.2,1.2-0.6,1.6c-0.4,0.4-0.9,0.6-1.7,0.6C119.3,39,118.8,38.8,118.4,38.4z M120.9,37.6
				c0.2-0.2,0.3-0.5,0.3-0.9v-3.5c0-0.4-0.1-0.7-0.3-0.9c-0.2-0.2-0.5-0.3-0.9-0.3c-0.4,0-0.7,0.1-0.9,0.3c-0.2,0.2-0.3,0.5-0.3,0.9
				v3.5c0,0.4,0.1,0.7,0.3,0.9s0.5,0.3,0.9,0.3S120.7,37.8,120.9,37.6z"/>
			<path class="st1" d="M124.4,38.4c-0.4-0.4-0.6-0.9-0.6-1.6v-3.5c0-0.7,0.2-1.2,0.6-1.6s0.9-0.6,1.7-0.6c0.7,0,1.3,0.2,1.7,0.6
				s0.6,0.9,0.6,1.6v3.5c0,0.7-0.2,1.2-0.6,1.6s-0.9,0.6-1.7,0.6C125.4,39,124.8,38.8,124.4,38.4z M127,37.6
				c0.2-0.2,0.3-0.5,0.3-0.9v-3.5c0-0.4-0.1-0.7-0.3-0.9c-0.2-0.2-0.5-0.3-0.9-0.3c-0.4,0-0.7,0.1-0.9,0.3c-0.2,0.2-0.3,0.5-0.3,0.9
				v3.5c0,0.4,0.1,0.7,0.3,0.9s0.5,0.3,0.9,0.3S126.8,37.8,127,37.6z"/>
			<path class="st1" d="M130.5,38.4c-0.4-0.4-0.6-0.9-0.6-1.6v-3.5c0-0.7,0.2-1.2,0.6-1.6s0.9-0.6,1.7-0.6c0.7,0,1.3,0.2,1.7,0.6
				s0.6,0.9,0.6,1.6v3.5c0,0.7-0.2,1.2-0.6,1.6s-0.9,0.6-1.7,0.6C131.4,39,130.9,38.8,130.5,38.4z M133,37.6
				c0.2-0.2,0.3-0.5,0.3-0.9v-3.5c0-0.4-0.1-0.7-0.3-0.9c-0.2-0.2-0.5-0.3-0.9-0.3c-0.4,0-0.7,0.1-0.9,0.3c-0.2,0.2-0.3,0.5-0.3,0.9
				v3.5c0,0.4,0.1,0.7,0.3,0.9s0.5,0.3,0.9,0.3S132.8,37.8,133,37.6z"/>
			<path class="st1" d="M136.6,38.4c-0.4-0.4-0.6-0.9-0.6-1.6v-3.5c0-0.7,0.2-1.2,0.6-1.6s0.9-0.6,1.7-0.6c0.7,0,1.3,0.2,1.7,0.6
				s0.6,0.9,0.6,1.6v3.5c0,0.7-0.2,1.2-0.6,1.6S139,39,138.2,39C137.5,39,137,38.8,136.6,38.4z M139.1,37.6c0.2-0.2,0.3-0.5,0.3-0.9
				v-3.5c0-0.4-0.1-0.7-0.3-0.9c-0.2-0.2-0.5-0.3-0.9-0.3c-0.4,0-0.7,0.1-0.9,0.3c-0.2,0.2-0.3,0.5-0.3,0.9v3.5
				c0,0.4,0.1,0.7,0.3,0.9s0.5,0.3,0.9,0.3S138.9,37.8,139.1,37.6z"/>
			<path class="st1" d="M142.7,38.4c-0.4-0.4-0.6-0.9-0.6-1.6v-3.5c0-0.7,0.2-1.2,0.6-1.6s0.9-0.6,1.7-0.6c0.7,0,1.3,0.2,1.7,0.6
				s0.6,0.9,0.6,1.6v3.5c0,0.7-0.2,1.2-0.6,1.6S145,39,144.3,39C143.6,39,143,38.8,142.7,38.4z M145.2,37.6c0.2-0.2,0.3-0.5,0.3-0.9
				v-3.5c0-0.4-0.1-0.7-0.3-0.9c-0.2-0.2-0.5-0.3-0.9-0.3c-0.4,0-0.7,0.1-0.9,0.3c-0.2,0.2-0.3,0.5-0.3,0.9v3.5
				c0,0.4,0.1,0.7,0.3,0.9s0.5,0.3,0.9,0.3S145,37.8,145.2,37.6z"/>
			<path class="st1" d="M148.7,38.4c-0.4-0.4-0.6-0.9-0.6-1.6v-3.5c0-0.7,0.2-1.2,0.6-1.6s0.9-0.6,1.7-0.6c0.7,0,1.3,0.2,1.7,0.6
				s0.6,0.9,0.6,1.6v3.5c0,0.7-0.2,1.2-0.6,1.6s-0.9,0.6-1.7,0.6C149.7,39,149.1,38.8,148.7,38.4z M151.2,37.6
				c0.2-0.2,0.3-0.5,0.3-0.9v-3.5c0-0.4-0.1-0.7-0.3-0.9c-0.2-0.2-0.5-0.3-0.9-0.3c-0.4,0-0.7,0.1-0.9,0.3c-0.2,0.2-0.3,0.5-0.3,0.9
				v3.5c0,0.4,0.1,0.7,0.3,0.9s0.5,0.3,0.9,0.3S151.1,37.8,151.2,37.6z"/>
		</g>
	</g>
	
		<rect x="176.6" y="112.5" transform="matrix(-1 -1.224647e-16 1.224647e-16 -1 383.7567 230.5213)" class="st1" width="30.6" height="5.5"/>
	
		<rect x="173" y="104.6" transform="matrix(-1 -1.224647e-16 1.224647e-16 -1 383.7567 214.6489)" class="st1" width="37.7" height="5.5"/>
	<g>
		<g>
			<path d="M179.6,130.9c6.1-0.6,11.6,1.6,17.7-0.7c2.2-0.8,6.4-3,4.5-6c-0.1-0.2-0.3-0.3-0.5-0.3c-2.4,0.3-8.6,1.4-9.8,3.7
				c-1.6,3,5,7.4,2.7,9.6c-0.3,0.3-0.2,0.8,0.1,1c0.3,0.3,0.7,0.5,1,0.8c0.6,0.5,1.3-0.6,0.6-1.1c-0.1,0,0.3-2.6,0.1-3.2
				c-1.1-3.4-6.3-5.2-0.7-7.8c1-0.3,1.9-0.6,2.9-0.9c2.6-1.1,2.2-0.1-1.2,3c-1.4,0.9-4.1,1.1-5.6,1.2c-4,0.3-7.8-0.9-11.7-0.6
				C178.8,129.7,178.8,130.9,179.6,130.9L179.6,130.9z"/>
		</g>
	</g>
	<g>
		<path class="st2" d="M180.8,60c-0.3-1.4-1.6-2.7-3.4-2.3c-1.8,0.4-1.8,2.1-1.5,3.5c0,0.1,0.9,3.8,1.4,4.6c0.5,0.8,1.3,2.3,2.5,1.9
			c0.8-0.3,1.3-1.8,1.5-2.9C181.6,63.7,180.8,60,180.8,60z"/>
		<path class="st2" d="M203.8,59.9c0.3-1.4,1.6-2.7,3.4-2.3c1.8,0.4,2,2.1,1.7,3.5c0,0.1-1,3.5-1.4,4.6c-0.4,0.9-1.4,2.4-2.7,1.9
			c-0.8-0.3-1.4-1.9-1.6-2.9C203,63.6,203.8,59.9,203.8,59.9z"/>
		<path class="st3" d="M164.2,102.3h56c0,0-1.1-13.8-2.9-15.8c-1.8-2.1-15.8-6.7-15.8-6.7l-18.3-0.1c0,0-14.7,4.3-15.7,6.7
			C166.4,88.9,164.2,102.3,164.2,102.3z"/>
		<path class="st4" d="M190.4,79.8l-7.3,0c0,0-14.7,4.3-15.7,6.7c-1,2.4-3.2,15.8-3.2,15.8h7.4c0,0,2.2-13.4,3.2-15.8
			C175.7,84.1,189.4,80.1,190.4,79.8z"/>
		<path class="st5" d="M185.1,78.8c0,0,4.6,3.8,7.2,3.8c2.6,0,7.2-3.8,7.2-3.8s-2-2.3-0.6-5.3c1.3-3-15-2.7-13.1,0
			C187.7,76.3,185.1,78.8,185.1,78.8z"/>
		<path class="st6" d="M189.9,81.9c0.3-0.9,1-1.9,2.1-2.7c1.1-0.8,1.8-0.1,6.4-2.8c-0.1-0.8-0.1-1.8,0.4-2.9c1.3-3-15-2.7-13.1,0
			c1.9,2.7-0.7,5.3-0.7,5.3S187.6,80.8,189.9,81.9z"/>
		<path class="st4" d="M184.2,78.6l-1.1,1.2c0,0,3.2,7.9,6,8.9c0.8,0.3,2.6-3.6,3.2-3.6c0.3,0,2.7,4.1,3,4.1
			c2.8-0.6,6.1-9.3,6.1-9.3l-1.2-0.9l-7.9,5L184.2,78.6z"/>
		<path class="st2" d="M205.5,49.6c0-6-3.7-12-13.6-12c-9.8,0-13.4,6.6-13.4,12.6c0,0.3,0,16.6,1.9,20.4c1.9,3.7,7.2,7.6,11.9,7.6
			c5.1,0,9.8-3.3,11.9-7.6C206.4,66.2,205.5,49.6,205.5,49.6z"/>
		<path class="st7" d="M182.3,50.9c0.1,0.1,0.2,0.1,0.3,0.2c0.3,0.3-1.1,3.3-0.7,3.3c2,0.4,4.3-3.8,6.2-3.2c3.4,1,9.7,9.5,15.9,9.3
			c1.6-1.6,1.6-10.9,1.6-10.9c0-6-3.7-12-13.6-12c-8.2,0-12,4.5-13.1,9.5C180.4,47.7,181.7,48.9,182.3,50.9z"/>
		<path class="st7" d="M196.2,73.8c-4.7,0-10-3.8-11.9-7.6c-1.9-3.7-1.9-20.1-1.9-20.4c0-2.1,0.4-4.2,1.4-6.2
			c-3.8,2.4-5.3,6.6-5.3,10.5c0,0.3,0,16.6,1.9,20.4c1.9,3.7,7.2,7.6,11.9,7.6c4.9,0,9.2-2.9,11.5-6.9
			C201.7,72.8,199,73.8,196.2,73.8z"/>
		<g>
			<path class="st7" d="M203.8,71.3C203.8,71.3,203.8,71.2,203.8,71.3c0,0-0.2,0.1-0.3,0.1C203.6,71.4,203.7,71.3,203.8,71.3z"/>
			<path class="st7" d="M194.5,76.8c-4.7,0-10-3.8-11.9-7.6c-1.9-3.7-1.9-20.1-1.9-20.4c0-2.7,0.7-5.5,2.4-7.8
				c0.2-0.5,0.4-1,0.6-1.4c-3.8,2.4-5.3,6.6-5.3,10.5c0,0.3,0,16.6,1.9,20.4c1.9,3.7,7.2,7.6,11.9,7.6c2.7,0,5.2-0.9,7.3-2.3
				C198,76.4,196.3,76.8,194.5,76.8z"/>
		</g>
		<path class="st8" d="M207.7,48.1c-1.2-6.6-6.6-11.4-15.4-11.3c-8.8,0.1-14.6,5.4-15.7,11.6c-0.5,2.6-0.9,7.6-0.7,10.6
			c1.5-1.2,2.1-1.4,2.8-1.1c0.5,5.4,1.7,5.3,1.7,5.3s0.1-3.7,0.3-6.1c0.2-2.4,4.2-2.9,6.2-7c6.3-0.3,10.2,7.8,17.1,8.2
			c-0.7,4,0.8,5.6,0.8,5.6s0.2-3.3,0.7-4.8c0.5-1.4,1.9-1.4,2.6-0.8C208.6,55.7,208.4,51.8,207.7,48.1z"/>
		<g class="st9">
			<path class="st10" d="M207.7,48.1c-1.2-6.6-6.6-11.4-15.4-11.3c-7.7,0-13.1,4.2-15.1,9.4c2.5-4.2,7.4-7.4,14.2-7.5
				c8.8-0.1,14.2,4.7,15.4,11.3c0.5,2.7,0.7,5.5,0.7,7.8c0.3,0.1,0.6,0.2,0.8,0.3C208.6,55.7,208.4,51.8,207.7,48.1z"/>
		</g>
		<g>
			<path class="st11" d="M186.9,46.8c-2,4.2-8.4,8.1-11,8.9c0-0.1,0-0.3,0-0.4c0,1.3-0.1,2.6,0,3.6c1.5-1.2,2.1-1.4,2.8-1.1
				c0.5,5.4,1.7,5.3,1.7,5.3s0.1-3.7,0.3-6.1c0.2-2.4,4.2-2.9,6.2-7c6.3-0.3,10.2,7.7,17,8.2C198.9,56.4,193.2,46.6,186.9,46.8z"/>
		</g>
		<path class="st10" d="M184.2,76.7l-1.1,3c0,0,3.2,6,6,7c0.8,0.3,2.6-3.6,3.2-3.6c0.3,0,2.7,4.1,3,4.1c2.8-0.6,6.1-7.4,6.1-7.4
			l-1.2-2.8l-7.9,5L184.2,76.7z"/>
	</g>
</g>
</svg>
