<?xml version="1.0" encoding="utf-8"?>
<!-- Generator: Adobe Illustrator 23.0.3, SVG Export Plug-In . SVG Version: 6.00 Build 0)  -->
<svg version="1.1" id="Layer_1" xmlns="http://www.w3.org/2000/svg" xmlns:xlink="http://www.w3.org/1999/xlink" x="0px" y="0px"
	 viewBox="0 0 242.6 153" style="enable-background:new 0 0 242.6 153;" xml:space="preserve">
<style type="text/css">
	.st0{fill:#88CBE9;}
	.st1{fill:#1C5C86;}
	.st2{fill:#F9BB8D;}
	.st3{fill:#259DAB;}
	.st4{fill:#C5D2DB;}
	.st5{fill:#D99870;}
	.st6{fill:#E5D7D8;}
	.st7{fill:#F0E8E4;}
	.st8{fill:#3D2216;}
	.st9{opacity:0.5;}
	.st10{fill:#FFFFFF;}
	.st11{fill:#AFAAA8;}
	.st12{fill:#EFEFEF;}
	.st13{fill:#F9B027;}
	.st14{fill:#604721;}
	.st15{fill:#413E3F;}
	.st16{fill:#F9F9F9;}
	.st17{fill:#2C5BA6;}
	.st18{fill:#4E4A46;}
	.st19{fill:#DA8A4F;}
	.st20{fill:#FCCA30;}
	.st21{fill:#F9C833;}
	.st22{fill:#625C53;}
	.st23{fill:#2BA45F;}
	.st24{fill:#F2C439;}
	.st25{fill:#6F685D;}
	.st26{fill:#F6C736;}
	.st27{fill:#3A3738;}
	.st28{fill:#847B64;}
	.st29{fill:#454344;}
	.st30{clip-path:url(#SVGID_2_);fill:#F9B027;}
	.st31{clip-path:url(#SVGID_2_);}
	.st32{fill:#E78B7D;}
	.st33{fill:#F39886;}
	.st34{fill:#181F38;}
	.st35{fill:#1B7F84;}
</style>
<g>
	<defs>
		<rect id="SVGID_1_" y="0" width="242.6" height="153"/>
	</defs>
	<clipPath id="SVGID_2_">
		<use xlink:href="#SVGID_1_"  style="overflow:visible;"/>
	</clipPath>
	<rect y="0" class="st30" width="242.6" height="153"/>
	<g class="st31">
		<path class="st3" d="M173.6,281.2l0-123.4l5.1-45.9c0-5.3-4.7-8.7-9.6-10.7c-8.1-3.3-26.6-10.7-26.6-10.7s-1.9,11.6-12.4,11.6
			c-9.6,0-12.2-11.6-12.2-11.6s-19.7,6.7-26.6,10.7c-4.6,2.6-10.1,6.2-10.1,8.7l6.1,47.5l-0.6,123.8H173.6z"/>
		<path class="st32" d="M142.4,90.5c0,0-1.4,11.8-12.5,11.8c-10.3,0-12.1-11.8-12.1-11.8V78.5h24.6V90.5z"/>
		<path class="st33" d="M156.3,64.6c0,9.3-12.4,22.1-26.2,22.1c-13.3,0-26.2-11-26.2-22.1l-1-20.5c0-15.1,12.2-27.3,27.3-27.3l0,0
			c15.1,0,27.3,12.2,27.3,27.3L156.3,64.6z"/>
		<path class="st34" d="M157.3,52.3c0.6-3.1,0.8-5.3,0.8-12.6c0-12.1-5.2-26.9-28.1-26.9C112.9,12.9,102,26.6,102,42
			c0,4.7,0.4,7.5,1.5,14.3c0,0,1.6-17.6,5.2-17.6c4.3,0.1,4.2,4.3,16.7,4.1c14.8-0.3,15.8-6.2,20.9-6.3c2.8,0,3.8,1.3,4.5,4.9
			c1.2,6.1-0.1,10.4,4.3,15.4C155,56.8,156.7,56.1,157.3,52.3z"/>
		<path class="st3" d="M191.7,131.1c4,17.9,11.9,136.1,11.9,136.1h-18.3l-4.5-65c0,0-7.3-28.5-7.2-46.8c0.1-30.7,0-51.9,0-51.9
			S186.8,109.7,191.7,131.1z"/>
		<path class="st35" d="M53.6,180.1c-0.6,5.7,0.5,10.4,7.7,14.1c5.1,2.6,13.8-3.8,15.8-9.2c3-8.3,9.2-32.6,9.2-32.6
			c0.6-1.8-0.7-48.6-1.9-46.9C70.9,125.3,53.6,180.1,53.6,180.1z"/>
		<path class="st33" d="M160.6,56.6c-0.1,3.2-2.1,5.7-4.5,5.6c-2.4-0.1-4.2-2.7-4.1-5.9c0.1-3.2,2.1-5.7,4.4-5.6
			C158.8,50.8,160.7,53.4,160.6,56.6z"/>
		<g>
			<g>
				<path class="st0" d="M101.3,122.9H41c-0.8,0-1.4-0.6-1.4-1.4v-37c0-0.8,0.6-1.4,1.4-1.4h60.4c0.8,0,1.4,0.6,1.4,1.4v37
					C102.7,122.3,102.1,122.9,101.3,122.9z"/>
			</g>
			<g>
				<rect x="82.1" y="91.3" class="st1" width="14.8" height="18.4"/>
			</g>
			<g>
				<rect x="52.3" y="84.7" class="st1" width="37.6" height="2.4"/>
			</g>
			<g>
				<rect x="55.3" y="87.6" class="st1" width="31.6" height="1.4"/>
			</g>
			<g>
				<rect x="42.3" y="91.3" class="st1" width="3.3" height="2.4"/>
			</g>
			<g>
				<g>
					<rect x="42.3" y="95.9" class="st1" width="5.1" height="1.4"/>
				</g>
				<g>
					<rect x="42.3" y="98" class="st1" width="7" height="1.4"/>
				</g>
				<g>
					<rect x="42.3" y="100" class="st1" width="6.1" height="1.4"/>
				</g>
				<g>
					<rect x="42.3" y="102.1" class="st1" width="5.4" height="1.4"/>
				</g>
				<g>
					<rect x="45.7" y="104.2" class="st1" width="3.6" height="1.4"/>
				</g>
				<g>
					<rect x="45.7" y="106.2" class="st1" width="5" height="1.4"/>
				</g>
				<g>
					<rect x="45.7" y="108.3" class="st1" width="6.6" height="1.4"/>
				</g>
				<g>
					<rect x="42.3" y="110.4" class="st1" width="5.1" height="1.4"/>
				</g>
				<g>
					<rect x="42.3" y="112.4" class="st1" width="11" height="1.4"/>
				</g>
				<g>
					<rect x="42.3" y="114.5" class="st1" width="6.3" height="1.4"/>
				</g>
				<g>
					<rect x="42.3" y="116.6" class="st1" width="9.6" height="1.4"/>
				</g>
				<g>
					<rect x="42.3" y="118.6" class="st1" width="8.4" height="1.4"/>
				</g>
			</g>
			<g>
				<g>
					<rect x="55.7" y="95.9" class="st1" width="23.8" height="1.4"/>
				</g>
				<g>
					<rect x="55.7" y="98" class="st1" width="19.6" height="1.4"/>
				</g>
				<g>
					<rect x="55.7" y="100" class="st1" width="12.3" height="1.4"/>
				</g>
				<g>
					<rect x="55.7" y="102.1" class="st1" width="9.8" height="1.4"/>
				</g>
				<g>
					<rect x="55.7" y="104.2" class="st1" width="8" height="1.4"/>
				</g>
				<g>
					<rect x="55.7" y="106.2" class="st1" width="16.8" height="1.4"/>
				</g>
				<g>
					<rect x="55.7" y="108.3" class="st1" width="12.3" height="1.4"/>
				</g>
				<g>
					<rect x="55.7" y="110.4" class="st1" width="8" height="1.4"/>
				</g>
				<g>
					<rect x="55.7" y="112.4" class="st1" width="9.8" height="1.4"/>
				</g>
				<g>
					<rect x="55.7" y="114.5" class="st1" width="16.8" height="1.4"/>
				</g>
				<g>
					<rect x="55.7" y="116.6" class="st1" width="8" height="1.4"/>
				</g>
				<g>
					<rect x="55.7" y="118.6" class="st1" width="9.8" height="1.4"/>
				</g>
			</g>
			<g>
				<path class="st1" d="M56,93.2h-0.3v-1.7l-0.3,0.2v-0.3l0.3-0.2H56V93.2z"/>
				<path class="st1" d="M56.4,93l0.7-0.9c0-0.1,0.1-0.1,0.1-0.2c0-0.1,0-0.1,0-0.2v0c0-0.1,0-0.1-0.1-0.2s-0.1-0.1-0.2-0.1
					c-0.1,0-0.2,0-0.2,0.1c-0.1,0-0.1,0.1-0.1,0.2v0h-0.3v0c0-0.1,0.1-0.2,0.1-0.3c0.1-0.1,0.1-0.1,0.2-0.2c0.1,0,0.2-0.1,0.3-0.1
					c0.1,0,0.2,0,0.3,0.1c0.1,0,0.2,0.1,0.2,0.2c0,0.1,0.1,0.2,0.1,0.3v0c0,0.1,0,0.1,0,0.2c0,0.1-0.1,0.2-0.1,0.2l-0.6,0.8h0.8v0.3
					h-1.1V93z"/>
				<path class="st1" d="M58.3,93.2c0,0,0,0-0.1-0.1c-0.1,0-0.2-0.1-0.2-0.2c-0.1-0.1-0.1-0.2-0.1-0.3h0.3c0,0.1,0,0.1,0.1,0.1
					c0,0,0.1,0.1,0.1,0.1c0,0,0.1,0,0.2,0c0.1,0,0.2,0,0.2-0.1c0.1-0.1,0.1-0.1,0.1-0.2v-0.1c0-0.1,0-0.2-0.1-0.2
					c0-0.1-0.1-0.1-0.2-0.1h-0.1V92h0.1c0.1,0,0.1,0,0.2-0.1s0.1-0.1,0.1-0.2v-0.1c0-0.1,0-0.1-0.1-0.2c0,0-0.1-0.1-0.2-0.1
					c0,0-0.1,0-0.1,0c0,0-0.1,0-0.1,0.1c0,0,0,0.1-0.1,0.1h-0.3c0-0.1,0.1-0.2,0.1-0.3c0.1-0.1,0.1-0.1,0.2-0.2
					c0.1,0,0.2-0.1,0.3-0.1c0.2,0,0.3,0,0.4,0.1c0.1,0.1,0.1,0.2,0.1,0.4v0c0,0.1,0,0.2-0.1,0.3c-0.1,0.1-0.1,0.1-0.2,0.2
					c0.1,0,0.2,0.1,0.3,0.2c0.1,0.1,0.1,0.2,0.1,0.3v0c0,0.1,0,0.2-0.1,0.3c0,0.1-0.1,0.1-0.2,0.2c-0.1,0-0.2,0.1-0.3,0.1
					C58.4,93.2,58.3,93.2,58.3,93.2z"/>
				<path class="st1" d="M59.4,92.6l0.7-1.5h0.3l-0.7,1.5h1v0.3h-1.3V92.6z M60.3,92h0.3v1.2h-0.3V92z"/>
				<path class="st1" d="M61.4,93.2c-0.1,0-0.1-0.1-0.2-0.2c0-0.1-0.1-0.2-0.1-0.3v0h0.3v0c0,0.1,0,0.1,0.1,0.2c0,0,0.1,0.1,0.2,0.1
					c0.1,0,0.2,0,0.2-0.1c0-0.1,0.1-0.1,0.1-0.3v-0.2c0-0.1,0-0.2-0.1-0.3c0-0.1-0.1-0.1-0.2-0.1c0,0-0.1,0-0.1,0
					c0,0-0.1,0.1-0.1,0.1h-0.3v-1.1h1v0.3h-0.8v0.5c0,0,0.1-0.1,0.1-0.1c0,0,0.1,0,0.1,0c0.1,0,0.2,0,0.3,0.1s0.1,0.1,0.2,0.2
					c0,0.1,0.1,0.2,0.1,0.3v0.2c0,0.1,0,0.2-0.1,0.3c0,0.1-0.1,0.2-0.2,0.2c-0.1,0-0.2,0.1-0.3,0.1C61.6,93.2,61.5,93.2,61.4,93.2z"
					/>
				<path class="st1" d="M62.9,93.2c-0.1,0-0.1-0.1-0.2-0.2c0-0.1-0.1-0.2-0.1-0.3v0c0-0.1,0-0.2,0-0.2c0-0.1,0-0.2,0.1-0.2
					c0,0,0,0,0,0c0,0,0,0,0,0l0.4-0.9h0.3l-0.5,1l0-0.1c0,0,0.1-0.1,0.1-0.1c0,0,0.1,0,0.2,0c0.1,0,0.2,0,0.3,0.1
					c0.1,0,0.1,0.1,0.2,0.2c0,0.1,0.1,0.2,0.1,0.3v0c0,0.1,0,0.2-0.1,0.3c0,0.1-0.1,0.2-0.2,0.2c-0.1,0-0.2,0.1-0.3,0.1
					C63.1,93.2,63,93.2,62.9,93.2z M63.4,92.9c0-0.1,0.1-0.1,0.1-0.2v0c0-0.1,0-0.2-0.1-0.3c-0.1-0.1-0.1-0.1-0.2-0.1
					c-0.1,0-0.2,0-0.2,0.1c0,0.1-0.1,0.2-0.1,0.3v0c0,0.1,0,0.2,0.1,0.2c0,0.1,0.1,0.1,0.2,0.1C63.3,93,63.3,92.9,63.4,92.9z"/>
				<path class="st1" d="M65.2,91.4l-0.5,1.8h-0.3l0.5-1.8h-0.5v0.3h-0.3v-0.6h1.1V91.4z"/>
				<path class="st1" d="M65.8,93.2c-0.1,0-0.2-0.1-0.2-0.2c-0.1-0.1-0.1-0.2-0.1-0.3v0c0-0.1,0-0.2,0.1-0.3s0.1-0.2,0.2-0.2
					c-0.1,0-0.1-0.1-0.2-0.2c0-0.1-0.1-0.2-0.1-0.2v0c0-0.1,0-0.2,0.1-0.3c0-0.1,0.1-0.1,0.2-0.2s0.2-0.1,0.3-0.1
					c0.1,0,0.2,0,0.3,0.1c0.1,0,0.2,0.1,0.2,0.2c0,0.1,0.1,0.2,0.1,0.3v0c0,0.1,0,0.2-0.1,0.2c0,0.1-0.1,0.1-0.2,0.2
					c0.1,0,0.2,0.1,0.2,0.2c0.1,0.1,0.1,0.2,0.1,0.3v0c0,0.1,0,0.2-0.1,0.3c-0.1,0.1-0.1,0.2-0.2,0.2c-0.1,0-0.2,0.1-0.3,0.1
					C66,93.2,65.9,93.2,65.8,93.2z M66.3,92.9c0.1,0,0.1-0.1,0.1-0.1c0,0,0-0.1,0-0.2v0c0-0.1,0-0.1,0-0.2c0,0-0.1-0.1-0.1-0.1
					c-0.1,0-0.1,0-0.2,0c-0.1,0-0.1,0-0.2,0c-0.1,0-0.1,0.1-0.1,0.1c0,0,0,0.1,0,0.2v0c0,0.1,0,0.1,0,0.2c0,0,0.1,0.1,0.1,0.1
					c0.1,0,0.1,0,0.2,0C66.2,93,66.3,92.9,66.3,92.9z M66.3,92c0,0,0.1-0.1,0.1-0.1c0,0,0-0.1,0-0.2v0c0-0.1,0-0.1,0-0.2
					c0,0-0.1-0.1-0.1-0.1c0,0-0.1,0-0.2,0c-0.1,0-0.1,0-0.2,0c0,0-0.1,0.1-0.1,0.1c0,0,0,0.1,0,0.2v0c0,0.1,0,0.1,0,0.2
					c0,0,0.1,0.1,0.1,0.1c0,0,0.1,0,0.2,0C66.2,92,66.3,92,66.3,92z"/>
				<path class="st1" d="M67.9,92.2L67.9,92.2c0,0.1-0.1,0.1-0.1,0.1c0,0-0.1,0-0.2,0c-0.1,0-0.2,0-0.3-0.1c-0.1,0-0.1-0.1-0.2-0.2
					c0-0.1-0.1-0.2-0.1-0.3v0c0-0.1,0-0.2,0.1-0.3c0-0.1,0.1-0.2,0.2-0.2c0.1,0,0.2-0.1,0.3-0.1s0.2,0,0.3,0.1
					c0.1,0,0.1,0.1,0.2,0.2s0.1,0.2,0.1,0.3v0c0,0.1,0,0.2,0,0.2c0,0.1,0,0.2-0.1,0.2c0,0,0,0,0,0c0,0,0,0,0,0l-0.4,0.9h-0.3
					L67.9,92.2z M67.9,92c0-0.1,0.1-0.1,0.1-0.3v0c0-0.1,0-0.2-0.1-0.2c0-0.1-0.1-0.1-0.2-0.1c-0.1,0-0.2,0-0.2,0.1
					c0,0.1-0.1,0.1-0.1,0.3v0c0,0.1,0,0.2,0.1,0.3c0,0.1,0.1,0.1,0.2,0.1C67.8,92.1,67.9,92.1,67.9,92z"/>
				<path class="st1" d="M68.8,93.1c-0.1-0.1-0.1-0.2-0.1-0.4v-0.9c0-0.2,0-0.3,0.1-0.4c0.1-0.1,0.2-0.2,0.4-0.2
					c0.2,0,0.3,0.1,0.4,0.2c0.1,0.1,0.1,0.2,0.1,0.4v0.9c0,0.2,0,0.3-0.1,0.4c-0.1,0.1-0.2,0.2-0.4,0.2C69,93.2,68.9,93.2,68.8,93.1
					z M69.4,92.9c0-0.1,0.1-0.1,0.1-0.2v-0.9c0-0.1,0-0.2-0.1-0.2c0-0.1-0.1-0.1-0.2-0.1c-0.1,0-0.2,0-0.2,0.1
					c0,0.1-0.1,0.1-0.1,0.2v0.9c0,0.1,0,0.2,0.1,0.2c0,0.1,0.1,0.1,0.2,0.1C69.3,93,69.4,92.9,69.4,92.9z"/>
				<path class="st1" d="M70.3,93.1c-0.1-0.1-0.1-0.2-0.1-0.4v-0.9c0-0.2,0-0.3,0.1-0.4c0.1-0.1,0.2-0.2,0.4-0.2
					c0.2,0,0.3,0.1,0.4,0.2s0.1,0.2,0.1,0.4v0.9c0,0.2,0,0.3-0.1,0.4c-0.1,0.1-0.2,0.2-0.4,0.2C70.6,93.2,70.4,93.2,70.3,93.1z
					 M71,92.9c0-0.1,0.1-0.1,0.1-0.2v-0.9c0-0.1,0-0.2-0.1-0.2c0-0.1-0.1-0.1-0.2-0.1c-0.1,0-0.2,0-0.2,0.1c0,0.1-0.1,0.1-0.1,0.2
					v0.9c0,0.1,0,0.2,0.1,0.2c0,0.1,0.1,0.1,0.2,0.1S70.9,92.9,71,92.9z"/>
				<path class="st1" d="M71.8,93.1c-0.1-0.1-0.1-0.2-0.1-0.4v-0.9c0-0.2,0-0.3,0.1-0.4c0.1-0.1,0.2-0.2,0.4-0.2
					c0.2,0,0.3,0.1,0.4,0.2s0.1,0.2,0.1,0.4v0.9c0,0.2,0,0.3-0.1,0.4c-0.1,0.1-0.2,0.2-0.4,0.2C72.1,93.2,71.9,93.2,71.8,93.1z
					 M72.5,92.9c0-0.1,0.1-0.1,0.1-0.2v-0.9c0-0.1,0-0.2-0.1-0.2c0-0.1-0.1-0.1-0.2-0.1c-0.1,0-0.2,0-0.2,0.1c0,0.1-0.1,0.1-0.1,0.2
					v0.9c0,0.1,0,0.2,0.1,0.2s0.1,0.1,0.2,0.1C72.4,93,72.4,92.9,72.5,92.9z"/>
				<path class="st1" d="M73.4,93.1c-0.1-0.1-0.1-0.2-0.1-0.4v-0.9c0-0.2,0-0.3,0.1-0.4c0.1-0.1,0.2-0.2,0.4-0.2
					c0.2,0,0.3,0.1,0.4,0.2s0.1,0.2,0.1,0.4v0.9c0,0.2,0,0.3-0.1,0.4c-0.1,0.1-0.2,0.2-0.4,0.2C73.6,93.2,73.5,93.2,73.4,93.1z
					 M74,92.9c0-0.1,0.1-0.1,0.1-0.2v-0.9c0-0.1,0-0.2-0.1-0.2c0-0.1-0.1-0.1-0.2-0.1c-0.1,0-0.2,0-0.2,0.1c0,0.1-0.1,0.1-0.1,0.2
					v0.9c0,0.1,0,0.2,0.1,0.2c0,0.1,0.1,0.1,0.2,0.1S74,92.9,74,92.9z"/>
				<path class="st1" d="M74.9,93.1c-0.1-0.1-0.1-0.2-0.1-0.4v-0.9c0-0.2,0-0.3,0.1-0.4c0.1-0.1,0.2-0.2,0.4-0.2
					c0.2,0,0.3,0.1,0.4,0.2s0.1,0.2,0.1,0.4v0.9c0,0.2,0,0.3-0.1,0.4c-0.1,0.1-0.2,0.2-0.4,0.2C75.1,93.2,75,93.2,74.9,93.1z
					 M75.5,92.9c0-0.1,0.1-0.1,0.1-0.2v-0.9c0-0.1,0-0.2-0.1-0.2c0-0.1-0.1-0.1-0.2-0.1c-0.1,0-0.2,0-0.2,0.1c0,0.1-0.1,0.1-0.1,0.2
					v0.9c0,0.1,0,0.2,0.1,0.2s0.1,0.1,0.2,0.1S75.5,92.9,75.5,92.9z"/>
				<path class="st1" d="M76.4,93.1c-0.1-0.1-0.1-0.2-0.1-0.4v-0.9c0-0.2,0-0.3,0.1-0.4c0.1-0.1,0.2-0.2,0.4-0.2
					c0.2,0,0.3,0.1,0.4,0.2s0.1,0.2,0.1,0.4v0.9c0,0.2,0,0.3-0.1,0.4c-0.1,0.1-0.2,0.2-0.4,0.2C76.6,93.2,76.5,93.2,76.4,93.1z
					 M77.1,92.9c0-0.1,0.1-0.1,0.1-0.2v-0.9c0-0.1,0-0.2-0.1-0.2c0-0.1-0.1-0.1-0.2-0.1c-0.1,0-0.2,0-0.2,0.1c0,0.1-0.1,0.1-0.1,0.2
					v0.9c0,0.1,0,0.2,0.1,0.2c0,0.1,0.1,0.1,0.2,0.1S77,92.9,77.1,92.9z"/>
				<path class="st1" d="M77.9,93.1c-0.1-0.1-0.1-0.2-0.1-0.4v-0.9c0-0.2,0-0.3,0.1-0.4c0.1-0.1,0.2-0.2,0.4-0.2
					c0.2,0,0.3,0.1,0.4,0.2s0.1,0.2,0.1,0.4v0.9c0,0.2,0,0.3-0.1,0.4c-0.1,0.1-0.2,0.2-0.4,0.2C78.2,93.2,78,93.2,77.9,93.1z
					 M78.6,92.9c0-0.1,0.1-0.1,0.1-0.2v-0.9c0-0.1,0-0.2-0.1-0.2c0-0.1-0.1-0.1-0.2-0.1c-0.1,0-0.2,0-0.2,0.1c0,0.1-0.1,0.1-0.1,0.2
					v0.9c0,0.1,0,0.2,0.1,0.2c0,0.1,0.1,0.1,0.2,0.1S78.5,92.9,78.6,92.9z"/>
			</g>
			<g>
				
					<rect x="85.5" y="112.4" transform="matrix(-1 -1.224647e-16 1.224647e-16 -1 178.9882 226.1524)" class="st1" width="8" height="1.4"/>
			</g>
			<g>
				
					<rect x="84.6" y="110.3" transform="matrix(-1 -1.224647e-16 1.224647e-16 -1 178.9882 222.0225)" class="st1" width="9.8" height="1.4"/>
			</g>
			<g>
				<g>
					<path d="M86.3,117.1c1.6-0.1,3,0.4,4.6-0.2c0.6-0.2,1.7-0.8,1.2-1.6c0,0-0.1-0.1-0.1-0.1c-0.6,0.1-2.2,0.4-2.6,1
						c-0.4,0.8,1.3,1.9,0.7,2.5c-0.1,0.1,0,0.2,0,0.3c0.1,0.1,0.2,0.1,0.3,0.2c0.2,0.1,0.3-0.2,0.2-0.3c0,0,0.1-0.7,0-0.8
						c-0.3-0.9-1.6-1.3-0.2-2c0.2-0.1,0.5-0.2,0.7-0.2c0.7-0.3,0.6,0-0.3,0.8c-0.4,0.2-1.1,0.3-1.5,0.3c-1,0.1-2-0.2-3.1-0.2
						C86.1,116.8,86.1,117.2,86.3,117.1L86.3,117.1z"/>
				</g>
			</g>
			<g>
				<g>
					<path class="st2" d="M86.6,98.7c-0.1-0.4-0.4-0.7-0.9-0.6c-0.5,0.1-0.5,0.5-0.4,0.9c0,0,0.2,1,0.4,1.2c0.1,0.2,0.3,0.6,0.7,0.5
						c0.2-0.1,0.3-0.5,0.4-0.7C86.8,99.7,86.6,98.7,86.6,98.7z"/>
				</g>
				<g>
					<path class="st2" d="M92.6,98.7c0.1-0.4,0.4-0.7,0.9-0.6c0.5,0.1,0.5,0.6,0.4,0.9c0,0-0.3,0.9-0.4,1.2
						c-0.1,0.2-0.4,0.6-0.7,0.5c-0.2-0.1-0.4-0.5-0.4-0.8C92.4,99.6,92.6,98.7,92.6,98.7z"/>
				</g>
				<g>
					<path class="st3" d="M82.3,109.7h14.6c0,0-0.3-3.6-0.8-4.1c-0.5-0.5-4.1-1.7-4.1-1.7l-4.8,0c0,0-3.8,1.1-4.1,1.7
						C82.9,106.2,82.3,109.7,82.3,109.7z"/>
				</g>
				<g>
					<path class="st4" d="M89.1,103.8l-1.9,0c0,0-3.8,1.1-4.1,1.7c-0.3,0.6-0.8,4.1-0.8,4.1h1.9c0,0,0.6-3.5,0.8-4.1
						C85.3,105,88.8,103.9,89.1,103.8z"/>
				</g>
				<g>
					<path class="st5" d="M87.7,103.6c0,0,1.2,1,1.9,1c0.7,0,1.9-1,1.9-1s-0.5-0.6-0.2-1.4c0.4-0.8-3.9-0.7-3.4,0
						C88.4,102.9,87.7,103.6,87.7,103.6z"/>
				</g>
				<g>
					<path class="st6" d="M89,104.4c0.1-0.2,0.3-0.5,0.6-0.7c0.3-0.2,0.5,0,1.7-0.7c0-0.2,0-0.5,0.1-0.8c0.4-0.8-3.9-0.7-3.4,0
						c0.5,0.7-0.2,1.4-0.2,1.4S88.4,104.1,89,104.4z"/>
				</g>
				<g>
					<path class="st4" d="M87.5,103.5l-0.3,0.3c0,0,0.8,2,1.6,2.3c0.2,0.1,0.7-0.9,0.8-0.9c0.1,0,0.7,1.1,0.8,1.1
						c0.7-0.2,1.6-2.4,1.6-2.4l-0.3-0.2l-2.1,1.3L87.5,103.5z"/>
				</g>
				<g>
					<path class="st2" d="M93,96c0-1.6-1-3.1-3.5-3.1S86,94.6,86,96.1c0,0.1,0,4.3,0.5,5.3c0.5,1,1.9,2,3.1,2c1.3,0,2.5-0.9,3.1-2
						C93.3,100.3,93,96,93,96z"/>
				</g>
				<g>
					<path class="st7" d="M87,96.3C87,96.3,87.1,96.4,87,96.3c0.1,0.1-0.2,0.9-0.1,0.9c0.5,0.1,1.1-1,1.6-0.8
						c0.9,0.3,2.5,2.5,4.1,2.4C93.1,98.4,93,96,93,96c0-1.6-1-3.1-3.5-3.1c-2.1,0-3.1,1.2-3.4,2.5C86.5,95.5,86.8,95.8,87,96.3z"/>
				</g>
				<g>
					<path class="st7" d="M90.6,102.3c-1.2,0-2.6-1-3.1-2C87,99.3,87,95.1,87,95c0-0.5,0.1-1.1,0.4-1.6c-1,0.6-1.4,1.7-1.4,2.7
						c0,0.1,0,4.3,0.5,5.3c0.5,1,1.9,2,3.1,2c1.3,0,2.4-0.8,3-1.8C92,102,91.3,102.3,90.6,102.3z"/>
				</g>
				<g>
					<g>
						<path class="st7" d="M92.6,101.6C92.6,101.6,92.6,101.6,92.6,101.6C92.6,101.6,92.6,101.7,92.6,101.6
							C92.5,101.7,92.6,101.6,92.6,101.6z"/>
					</g>
					<g>
						<path class="st7" d="M90.2,103.1c-1.2,0-2.6-1-3.1-2c-0.5-1-0.5-5.2-0.5-5.3c0-0.7,0.2-1.4,0.6-2c0-0.1,0.1-0.3,0.2-0.4
							c-1,0.6-1.4,1.7-1.4,2.7c0,0.1,0,4.3,0.5,5.3c0.5,1,1.9,2,3.1,2c0.7,0,1.3-0.2,1.9-0.6C91.1,103,90.6,103.1,90.2,103.1z"/>
					</g>
				</g>
				<g>
					<path class="st8" d="M93.6,95.6c-0.3-1.7-1.7-3-4-3c-2.3,0-3.8,1.4-4.1,3c-0.1,0.7-0.2,2-0.2,2.7c0.4-0.3,0.5-0.4,0.7-0.3
						c0.1,1.4,0.4,1.4,0.4,1.4s0-1,0.1-1.6c0.1-0.6,1.1-0.7,1.6-1.8c1.6-0.1,2.7,2,4.5,2.1c-0.2,1,0.2,1.4,0.2,1.4s0-0.9,0.2-1.3
						c0.1-0.4,0.5-0.4,0.7-0.2C93.8,97.6,93.8,96.6,93.6,95.6z"/>
				</g>
				<g class="st9">
					<g>
						<path class="st10" d="M93.6,95.6c-0.3-1.7-1.7-3-4-3c-2,0-3.4,1.1-3.9,2.4c0.6-1.1,1.9-1.9,3.7-1.9c2.3,0,3.7,1.2,4,3
							c0.1,0.7,0.2,1.4,0.2,2c0.1,0,0.1,0,0.2,0.1C93.8,97.6,93.8,96.6,93.6,95.6z"/>
					</g>
				</g>
				<g>
					<g>
						<path class="st11" d="M88.2,95.3c-0.5,1.1-2.2,2.1-2.9,2.3c0,0,0-0.1,0-0.1c0,0.3,0,0.7,0,0.9c0.4-0.3,0.5-0.4,0.7-0.3
							c0.1,1.4,0.4,1.4,0.4,1.4s0-1,0.1-1.6c0.1-0.6,1.1-0.7,1.6-1.8c1.6-0.1,2.7,2,4.4,2.1C91.3,97.8,89.8,95.2,88.2,95.3z"/>
					</g>
				</g>
				<g>
					<path class="st10" d="M87.5,103l-0.3,0.8c0,0,0.8,1.6,1.6,1.8c0.2,0.1,0.7-0.9,0.8-0.9c0.1,0,0.7,1.1,0.8,1.1
						c0.7-0.2,1.6-1.9,1.6-1.9l-0.3-0.7l-2.1,1.3L87.5,103z"/>
				</g>
			</g>
		</g>
		<path class="st33" d="M42.7,135.5l0.8,3.9h12.9c-1.8-5-2.8-8.7-2.4-9.7c0.9-2.2,2.7-11.3,2.9-13.3c1.3-11.6-11.2-20.4-17.5,0.9
			c-1.4,4.7,1.5,11.4,2.4,14.1C42.5,133.2,42.7,135.5,42.7,135.5z"/>
		<path class="st3" d="M74.1,182c0,0-13.3-31.3-18.1-45.7H41.9l11.7,50.2c1.2,5.6,6.3,9.4,12.6,7.9C71.8,193.1,75.4,187.6,74.1,182z
			"/>
		<g>
			<path class="st2" d="M106.2,53.2c-0.6-2.9-3.3-5.6-7.1-4.8c-3.8,0.8-3.8,4.3-3.2,7.2c0,0.1,1.9,8,3,9.6c1.1,1.6,2.7,4.8,5.3,3.9
				c1.8-0.6,2.8-3.7,3.2-6C107.8,60.9,106.2,53.2,106.2,53.2z"/>
			<path class="st2" d="M154.2,53c0.6-2.9,3.3-5.6,7.1-4.8c3.8,0.8,4.1,4.4,3.6,7.3c0,0.2-2,7.4-3,9.6c-0.8,1.8-2.9,5.1-5.6,3.9
				c-1.7-0.7-2.9-3.9-3.3-6.1C152.5,60.8,154.2,53,154.2,53z"/>
			<path class="st5" d="M115.2,92.5c0,0,9.6,7.9,15,7.9c5.4,0,15-7.9,15-7.9s-4.1-4.7-1.3-11c2.8-6.2-31.3-5.7-27.4,0
				C120.6,87.3,115.2,92.5,115.2,92.5z"/>
			<path class="st6" d="M125.2,99c0.7-2,2.2-4,4.5-5.6c2.3-1.7,3.7-0.2,13.5-5.8c-0.3-1.7-0.2-3.8,0.9-6c2.8-6.2-31.3-5.7-27.4,0
				c4,5.7-1.4,11-1.4,11S120.3,96.7,125.2,99z"/>
			<path class="st4" d="M113.3,92l-2.2,2.4c0,0,6.7,16.4,12.4,18.5c1.8,0.6,5.4-7.5,6.7-7.5c0.6,0,5.6,8.6,6.3,8.5
				c5.9-1.4,12.7-19.4,12.7-19.4l-2.5-1.9l-16.5,10.4L113.3,92z"/>
			<path class="st2" d="M157.8,31.4c0-12.5-7.8-25.1-28.3-25.1c-20.6,0-28,13.8-28,26.3c0,0.7-0.1,34.7,3.9,42.6
				c4,7.8,15,15.8,24.8,15.8c10.7,0,20.4-6.8,24.9-15.8C159.6,66.2,157.8,31.4,157.8,31.4z"/>
			<path class="st7" d="M109.4,34.2c0.2,0.1,0.3,0.2,0.5,0.4c0.6,0.5-2.3,6.8-1.4,6.9c4.1,0.9,9-8,12.9-6.7
				c7,2.2,20.2,19.8,33.1,19.5c3.4-3.3,3.3-22.8,3.3-22.8c0-12.5-7.8-25.1-28.3-25.1c-17,0-25,9.4-27.3,19.8
				C105.4,27.5,108.1,30.1,109.4,34.2z"/>
			<path class="st7" d="M138.3,82c-9.8,0-20.8-8-24.8-15.8c-4-7.8-3.9-41.9-3.9-42.6c0-4.4,0.9-8.8,3-12.9c-7.8,5.1-11,13.7-11,21.8
				c0,0.7-0.1,34.7,3.9,42.6c4,7.8,15,15.8,24.8,15.8c10.1,0,19.3-6.1,24.1-14.4C149.7,80,144.2,82.1,138.3,82z"/>
			<g>
				<path class="st7" d="M154.2,76.8c0-0.1,0.1-0.1,0.1-0.2c-0.2,0.2-0.5,0.3-0.7,0.5C153.8,77,154,76.9,154.2,76.8z"/>
				<path class="st7" d="M134.9,88.4c-9.8,0-20.8-8-24.8-15.8c-4-7.8-3.9-41.9-3.9-42.6c0-5.6,1.6-11.4,5.1-16.2c0.4-1,0.8-2,1.3-3
					c-7.8,5.1-11,13.7-11,21.8c0,0.7-0.1,34.7,3.9,42.6c4,7.8,15,15.8,24.8,15.8c5.6,0,10.8-1.9,15.2-4.9
					C142.2,87.6,138.6,88.4,134.9,88.4z"/>
			</g>
			<path class="st8" d="M162.4,28.4c-2.5-13.8-13.8-23.8-32.2-23.7c-18.4,0.1-30.4,11.4-32.8,24.1c-1,5.5-1.8,15.9-1.4,22.1
				c3.1-2.6,4.4-2.9,5.9-2.3c1,11.3,3.5,11.1,3.5,11.1s0.2-7.7,0.7-12.7c0.5-5.1,8.8-6,12.9-14.7c13.1-0.6,21.4,16.2,35.7,17.1
				c-1.4,8.3,1.7,11.6,1.7,11.6s0.3-6.9,1.5-10.1c1-2.8,4-2.8,5.5-1.6C164.2,44.2,163.8,36.1,162.4,28.4z"/>
			<g class="st9">
				<path class="st10" d="M162.4,28.4c-2.5-13.8-13.8-23.8-32.2-23.7c-16.1,0.1-27.4,8.8-31.5,19.5c5.2-8.8,15.5-15.5,29.6-15.6
					c18.4-0.1,29.7,9.9,32.2,23.7c1,5.6,1.5,11.5,1.4,16.3c0.6,0.1,1.2,0.3,1.6,0.7C164.2,44.2,163.8,36.1,162.4,28.4z"/>
			</g>
			<g>
				<path class="st11" d="M119,25.8c-4.1,8.7-17.5,17-23,18.6c0-0.3,0-0.6,0-0.9c-0.1,2.7-0.1,5.4,0,7.5c3.1-2.6,4.4-2.9,5.9-2.3
					c1,11.3,3.5,11.1,3.5,11.1s0.2-7.7,0.7-12.7c0.5-5.1,8.8-6,12.9-14.7c13-0.6,21.3,16.1,35.6,17.1C144,45.8,132.1,25.2,119,25.8z
					"/>
			</g>
			<path class="st10" d="M113.3,88.1l-2.2,6.3c0,0,6.7,12.5,12.4,14.6c1.8,0.6,5.4-7.5,6.7-7.5c0.6,0,5.6,8.6,6.3,8.5
				c5.9-1.4,12.7-15.5,12.7-15.5l-2.5-5.8l-16.5,10.4L113.3,88.1z"/>
		</g>
	</g>
</g>
</svg>
