<?xml version="1.0" encoding="utf-8"?>
<!-- Generator: Adobe Illustrator 23.0.3, SVG Export Plug-In . SVG Version: 6.00 Build 0)  -->
<svg version="1.1" id="Layer_1" xmlns="http://www.w3.org/2000/svg" xmlns:xlink="http://www.w3.org/1999/xlink" x="0px" y="0px"
	 viewBox="0 0 242.6 153" style="enable-background:new 0 0 242.6 153;" xml:space="preserve">
<style type="text/css">
	.st0{fill:#88CBE9;}
	.st1{fill:#1C5C86;}
	.st2{fill:#F9BB8D;}
	.st3{fill:#259DAB;}
	.st4{fill:#C5D2DB;}
	.st5{fill:#D99870;}
	.st6{fill:#E5D7D8;}
	.st7{fill:#F0E8E4;}
	.st8{fill:#3D2216;}
	.st9{opacity:0.5;}
	.st10{fill:#FFFFFF;}
	.st11{fill:#AFAAA8;}
	.st12{fill:#EFEFEF;}
	.st13{fill:#F9B027;}
	.st14{fill:#604721;}
	.st15{fill:#413E3F;}
	.st16{fill:#F9F9F9;}
	.st17{fill:#2C5BA6;}
	.st18{fill:#4E4A46;}
	.st19{fill:#DA8A4F;}
	.st20{fill:#FCCA30;}
	.st21{fill:#F9C833;}
	.st22{fill:#625C53;}
	.st23{fill:#2BA45F;}
	.st24{fill:#F2C439;}
	.st25{fill:#6F685D;}
	.st26{fill:#F6C736;}
	.st27{fill:#3A3738;}
	.st28{fill:#847B64;}
	.st29{fill:#454344;}
</style>
<g>
	<path class="st12" d="M234.4,153.2H8.3c-4.6,0-8.3-3.7-8.3-8.3V8.4c0-4.6,3.7-8.3,8.3-8.3h226.1c4.6,0,8.3,3.7,8.3,8.3v136.5
		C242.6,149.5,238.9,153.2,234.4,153.2z"/>
	<g>
		<path class="st13" d="M242.6,8.4c0-4.6-3.7-8.3-8.3-8.3H8.3C3.7,0.2,0,3.9,0,8.4V39h242.6V8.4z"/>
	</g>
	<rect x="54.5" y="9.1" class="st14" width="144.5" height="9.2"/>
	<rect x="65.9" y="22.4" class="st14" width="121.6" height="9.2"/>
	<rect x="54.3" y="52.1" class="st14" width="133.3" height="10"/>
	<rect x="15.6" y="66.6" class="st14" width="172" height="10"/>
	<g>
		<g>
			<path d="M15.9,52.2h1.8l2.9,6l-0.1,0.1v-6.1h1.4V60h-1.8l-2.9-5.9l0.1-0.1v6h-1.4V52.2z"/>
			<path d="M23.6,52.2h1.5V60h-1.5V52.2z M24.3,55.6h2.5c0.2,0,0.3,0,0.5-0.1c0.1-0.1,0.2-0.2,0.3-0.3c0.1-0.1,0.1-0.3,0.1-0.5
				c0-0.2,0-0.4-0.1-0.5s-0.2-0.3-0.3-0.3c-0.1-0.1-0.3-0.1-0.5-0.1h-2.5v-1.4h2.5c0.5,0,0.9,0.1,1.3,0.3c0.4,0.2,0.7,0.5,0.9,0.8
				c0.2,0.4,0.3,0.8,0.3,1.3s-0.1,0.9-0.3,1.3c-0.2,0.4-0.5,0.6-0.9,0.8c-0.4,0.2-0.8,0.3-1.3,0.3h-2.5V55.6z"/>
			<path d="M33.7,52.2h1.2l1.5,5.2l1-5.2h1.5L37.1,60h-1.4l-1.4-5.5L32.8,60h-1.4l-1.8-7.8h1.5l1,5.2L33.7,52.2z"/>
			<path d="M39.8,52.2h1.5V60h-1.5V52.2z M40.5,55.6h2.5c0.2,0,0.3,0,0.5-0.1c0.1-0.1,0.2-0.2,0.3-0.3c0.1-0.1,0.1-0.3,0.1-0.5
				c0-0.2,0-0.4-0.1-0.5s-0.2-0.3-0.3-0.3c-0.1-0.1-0.3-0.1-0.5-0.1h-2.5v-1.4h2.5c0.5,0,0.9,0.1,1.3,0.3c0.4,0.2,0.7,0.5,0.9,0.8
				c0.2,0.4,0.3,0.8,0.3,1.3s-0.1,0.9-0.3,1.3c-0.2,0.4-0.5,0.6-0.9,0.8c-0.4,0.2-0.8,0.3-1.3,0.3h-2.5V55.6z"/>
			<path d="M49.2,54.5h1.5V56h-1.5V54.5z M49.2,58.5h1.5V60h-1.5V58.5z"/>
		</g>
	</g>
	<g>
		<path class="st15" d="M29.2,33c-2.8,0-5.6,0-8.4,0c-0.2,0-0.3,0-0.4-0.3c-1.7-5.4-3.5-10.7-5.2-16.1c-0.1-0.2,0-0.3,0.1-0.4
			c4.6-3.3,9.1-6.6,13.7-10c0.2-0.1,0.3-0.1,0.5,0c4.6,3.3,9.1,6.7,13.7,10c0.1,0.1,0.2,0.2,0.1,0.4C41.5,22,39.7,27.4,38,32.8
			C37.9,33,37.8,33,37.7,33C34.8,33,32,33,29.2,33z M29.2,32.8c2.8,0,5.6,0,8.4,0c0.2,0,0.3,0,0.3-0.2c1.7-5.3,3.4-10.6,5.2-15.9
			c0.1-0.2,0-0.3-0.1-0.4c-4.5-3.3-9-6.6-13.6-9.9c-0.1-0.1-0.2-0.1-0.4,0c-4.5,3.3-9,6.6-13.5,9.8c-0.2,0.1-0.2,0.2-0.2,0.5
			c1.7,5.3,3.4,10.6,5.2,15.8c0.1,0.2,0.2,0.3,0.4,0.3C23.6,32.8,26.4,32.8,29.2,32.8z"/>
		<path class="st16" d="M29.2,32.8c-2.8,0-5.5,0-8.3,0c-0.2,0-0.3,0-0.4-0.3C18.7,27.3,17,22,15.3,16.7c-0.1-0.2,0-0.3,0.2-0.5
			C20,13,24.5,9.7,29,6.4c0.1-0.1,0.2-0.1,0.4,0c4.5,3.3,9,6.6,13.6,9.9c0.2,0.1,0.2,0.2,0.1,0.4c-1.7,5.3-3.5,10.6-5.2,15.9
			c-0.1,0.2-0.2,0.2-0.3,0.2C34.7,32.8,31.9,32.8,29.2,32.8z M29.2,32.6c2.7,0,5.5,0,8.2,0c0.2,0,0.2,0,0.3-0.2
			c1.7-5.2,3.4-10.4,5.1-15.6c0.1-0.2,0-0.3-0.1-0.4c-4.4-3.2-8.8-6.4-13.2-9.6c-0.2-0.1-0.3-0.1-0.5,0c-4.4,3.2-8.8,6.4-13.2,9.6
			c-0.2,0.1-0.2,0.2-0.1,0.4c1.7,5.2,3.4,10.4,5,15.5c0.1,0.2,0.1,0.3,0.3,0.3C23.7,32.6,26.4,32.6,29.2,32.6z"/>
		<path class="st15" d="M29.2,32.6c-2.7,0-5.4,0-8.2,0c-0.2,0-0.3-0.1-0.3-0.3c-1.7-5.2-3.4-10.4-5-15.5c-0.1-0.2,0-0.3,0.1-0.4
			c4.4-3.2,8.8-6.4,13.2-9.6c0.2-0.1,0.3-0.2,0.5,0c4.4,3.2,8.8,6.4,13.2,9.6c0.2,0.1,0.2,0.2,0.1,0.4C41,22,39.3,27.2,37.6,32.4
			c-0.1,0.2-0.2,0.2-0.3,0.2C34.6,32.6,31.9,32.6,29.2,32.6z M29.1,32.4c2.7,0,5.4,0,8.1,0c0.2,0,0.3-0.1,0.3-0.2
			c1.7-5.1,3.3-10.2,5-15.3c0.1-0.2,0-0.3-0.1-0.4c-4.3-3.1-8.7-6.3-13-9.4c-0.2-0.1-0.3-0.1-0.5,0c-4.3,3.1-8.6,6.3-13,9.4
			c-0.2,0.1-0.2,0.2-0.1,0.4c1.7,5.1,3.3,10.2,5,15.3c0.1,0.2,0.1,0.2,0.3,0.2C23.8,32.4,26.5,32.4,29.1,32.4z"/>
		<path class="st16" d="M29.1,32.4c-2.7,0-5.3,0-8,0c-0.2,0-0.3-0.1-0.3-0.2c-1.7-5.1-3.3-10.2-5-15.3c-0.1-0.2,0-0.3,0.1-0.4
			c4.3-3.1,8.7-6.3,13-9.4c0.2-0.1,0.3-0.2,0.5,0c4.3,3.2,8.6,6.3,13,9.4c0.2,0.1,0.2,0.2,0.1,0.4c-1.7,5.1-3.3,10.2-5,15.3
			c-0.1,0.2-0.1,0.2-0.3,0.2C34.5,32.4,31.8,32.4,29.1,32.4z M29.1,32c2.6,0,5.2,0,7.8,0c0.2,0,0.3-0.1,0.3-0.2
			c1.6-4.9,3.2-9.9,4.8-14.8c0.1-0.2,0-0.2-0.1-0.3c-4.2-3.1-8.4-6.1-12.6-9.2c-0.1-0.1-0.2-0.1-0.4,0c-4.2,3.1-8.4,6.1-12.6,9.2
			c-0.1,0.1-0.2,0.2-0.1,0.4c1.6,4.9,3.2,9.8,4.8,14.8c0.1,0.2,0.2,0.3,0.4,0.3C24,32,26.6,32,29.1,32z"/>
		<path class="st17" d="M29.1,32c-2.6,0-5.1,0-7.7,0c-0.2,0-0.3-0.1-0.4-0.3c-1.6-4.9-3.2-9.8-4.8-14.8c-0.1-0.2,0-0.3,0.1-0.4
			c4.2-3.1,8.4-6.1,12.6-9.2c0.1-0.1,0.2-0.1,0.4,0c4.2,3.1,8.4,6.1,12.6,9.2c0.1,0.1,0.2,0.2,0.1,0.3c-1.6,4.9-3.2,9.9-4.8,14.8
			C37.2,32,37.1,32,37,32C34.4,32,31.8,32,29.1,32z M27.9,12.7C27.9,12.7,27.9,12.8,27.9,12.7c-0.1,0.1-0.1,0.1-0.1,0.1
			c-0.2,0.2-0.2,0.4-0.2,0.6c0,0,0,0.1,0,0.1c0,0,0,0-0.1,0c0,0,0,0-0.1,0c-0.2,0.2-0.2,0.4,0,0.6c0,0,0.1,0.1,0.1,0.1
			c0,0,0,0.1,0,0.1c0,0.2,0.1,0.4,0.2,0.6c0,0.1,0,0.1,0,0.2l0,0c-0.1,0-0.1,0-0.1,0.1l0,0c-0.1,0-0.1,0-0.1,0.1l0,0
			c-0.1,0.1-0.1,0.2,0.1,0.3l0,0c0,0.2-0.1,0.4,0,0.6c0,0,0,0.1,0.1,0.1c0,0,0,0.1,0,0.1c-0.1,0.2-0.1,0.3,0,0.5c0,0.1,0,0.1,0,0.2
			l0,0c-0.1,0.2-0.1,0.3,0.1,0.4l0,0c0,0.2-0.1,0.4,0,0.5c0,0.1,0,0.1,0,0.2c-0.1,0.1,0,0.2,0,0.2c0,0,0,0.1,0.1,0.1
			c-0.1,0.2,0,0.5,0.1,0.7c-0.1,0.1,0,0.2,0,0.3c0,0.1,0,0.2,0,0.2c0,0.3,0.1,0.5,0.1,0.8c0.1,0.2-0.1,0.4,0.1,0.6
			c0,0.1-0.1,0.3,0,0.4c0.1,0.2,0,0.4,0.1,0.6c0,0.1-0.1,0.1-0.1,0.1l0,0c-0.1,0-0.1,0-0.1,0.1c-0.4,0.2-0.6,0.5-0.8,0.9
			c0-0.3-0.1-0.6-0.1-0.9c0-0.1,0-0.2,0.1-0.2c0.4-0.1,0.7-0.5,0.9-0.8c0-0.1,0.1-0.2,0-0.2c-0.1-0.1-0.2,0-0.2,0
			c-0.3,0.2-0.6,0.4-0.7,0.8C27,21.7,27,21.4,27,21c0,0,0,0,0.1-0.1c0.4-0.2,0.6-0.5,0.8-0.8c0-0.1,0.1-0.2,0-0.2
			c-0.1-0.1-0.2,0-0.2,0.1c-0.3,0.2-0.5,0.5-0.7,0.8c-0.1-0.2-0.1-0.5-0.2-0.7c0-0.1-0.1-0.2,0-0.3c0.4-0.2,0.6-0.5,0.8-0.9
			c0-0.1,0.1-0.2,0-0.2c-0.1-0.1-0.1,0-0.2,0c-0.2,0.1-0.4,0.3-0.6,0.6c0,0,0,0,0,0.1l0,0l0,0c0,0,0,0,0,0c0,0,0,0.1,0,0.1
			c-0.2-0.3-0.2-0.7-0.2-1c0.4-0.1,0.6-0.4,0.7-0.8c0-0.1,0.1-0.2,0-0.2c-0.1-0.1-0.2,0-0.2,0.1c-0.3,0.2-0.5,0.4-0.6,0.8
			c-0.1-0.4-0.2-0.7-0.1-1.1c0.4-0.1,0.6-0.5,0.7-0.9c0,0,0-0.1,0-0.1c0-0.1-0.1,0-0.1,0c-0.3,0.2-0.5,0.4-0.6,0.7
			c-0.2-0.3-0.2-0.7-0.2-1c0.4-0.2,0.7-0.6,0.7-1c-0.4,0.2-0.6,0.4-0.7,0.8c-0.2-0.2-0.1-0.5-0.2-0.8c0-0.1,0-0.3,0.1-0.3
			c0.3-0.1,0.4-0.4,0.6-0.7c0-0.1,0.1-0.2,0-0.2c-0.1-0.1-0.2,0-0.2,0.1c-0.1,0.1-0.2,0.2-0.3,0.4c0,0,0,0,0,0.1l0,0c0,0,0,0,0,0.1
			c0,0,0,0,0,0c-0.1,0.1-0.1,0.1-0.1,0c0-0.2-0.1-0.5-0.1-0.7c0.2-0.4,0.1-0.8-0.1-1.2c0-0.1-0.1-0.1-0.1-0.1
			c-0.1,0-0.1,0.1-0.1,0.2c0,0.4-0.1,0.8,0.2,1.1c0,0,0,0,0,0c0,0,0,0,0,0c0,0.1,0,0.2,0,0.3c0,0.1,0.1,0.2,0,0.4
			c-0.2-0.3-0.5-0.6-0.9-0.7c0.2,0.5,0.4,0.7,0.8,0.9c0.1,0,0.2,0.1,0.2,0.1c0.1,0.3,0.2,0.6,0.1,1c0,0,0,0,0-0.1l0,0l0,0
			c-0.2-0.3-0.4-0.5-0.7-0.6c-0.1,0-0.1-0.1-0.2,0c-0.1,0.1,0,0.1,0,0.2c0.2,0.4,0.5,0.6,1,0.7c0.1,0.3,0.1,0.6,0.2,0.9
			c0,0.1,0,0.1-0.1,0.2c-0.2-0.3-0.4-0.5-0.7-0.6c-0.1,0-0.2-0.1-0.3,0c-0.1,0.1,0,0.2,0.1,0.2c0.2,0.2,0.4,0.4,0.6,0.5c0,0,0,0,0,0
			c0,0,0.1,0,0.1,0c0.1,0.1,0.3,0,0.3,0.2c0,0.3,0.1,0.6,0.1,0.9c-0.1,0-0.1-0.1-0.1-0.1c-0.2-0.2-0.4-0.4-0.7-0.5
			c-0.1,0-0.2-0.1-0.2,0c-0.1,0.1,0,0.2,0.1,0.2c0.2,0.2,0.4,0.4,0.7,0.5c0,0,0,0,0,0c0,0,0.1,0,0.1,0c0.1,0,0.1,0.1,0.2,0
			c0,0,0,0,0,0c0.2,0.3,0.2,0.6,0.2,1c-0.1,0-0.1-0.1-0.2-0.1c-0.3-0.2-0.6-0.4-1-0.4c0.2,0.5,0.6,0.8,1.2,0.9
			c0.2,0.3,0.2,0.7,0.2,1c0,0-0.1,0-0.1,0c-0.2-0.3-0.5-0.5-0.9-0.6c-0.1,0-0.1-0.1-0.2,0c0,0.1,0,0.1,0,0.2c0.2,0.4,0.6,0.6,1,0.7
			c0.2,0,0.3,0.1,0.3,0.3c0,0.3,0.2,0.5,0,0.8c-0.2-0.4-0.6-0.6-1-0.7c-0.1,0-0.1-0.1-0.2,0c0,0.1,0,0.1,0,0.2
			c0.2,0.3,0.5,0.5,0.8,0.6c0,0,0.1,0,0.1,0c0,0,0.1,0,0.1,0c0.1,0,0.2,0.1,0.2,0.3c0,0.2,0.1,0.4,0.1,0.6c0,0.1,0.1,0.2-0.1,0.2
			c-0.3-0.4-0.6-0.5-1-0.6c-0.1,0-0.1,0-0.2,0c0,0.1,0,0.1,0.1,0.2c0.2,0.3,0.5,0.5,0.8,0.6c0,0,0.1,0,0.1,0c0,0,0.1,0,0.1,0
			c0.2,0,0.3,0.1,0.3,0.4c0,0.1,0,0.2,0,0.3c0.1,0.5,0.4,0.7,0.9,0.7c0.1,0,0.3,0,0.4,0c0.1,0.1,0.1,0.2,0.1,0.3
			c0.1,0.1-0.1,0.3,0.1,0.4c0.1,0.1-0.1,0.3,0,0.4c0,0.2-0.1,0.4,0.2,0.6c0.1,0,0.2,0,0.4,0c0.3-0.1,0.1-0.4,0.2-0.6
			c0.1-0.1,0-0.3,0.1-0.4c0-0.1,0.1-0.2,0.1-0.2c0-0.2,0-0.3,0.1-0.4c0.9,0.1,1.1,0,1.3-0.8c0-0.1,0.1-0.1,0.2-0.2
			c0.3,0,0.4-0.2,0.6-0.4c0.1-0.1,0.1-0.2,0-0.3c-0.1-0.2-0.3-0.3-0.4-0.4c0.2-0.1,0.3-0.2,0.5-0.4c0.1-0.1,0.2-0.2,0.1-0.4
			c-0.1-0.1-0.2-0.2-0.3-0.4c0-0.2,0.3-0.2,0.4-0.4c0.1-0.1,0.3-0.2,0.1-0.4c-0.1-0.2-0.3-0.3-0.4-0.4c0.2-0.1,0.3-0.2,0.5-0.4
			c0.1-0.1,0.2-0.2,0-0.3c-0.1-0.2-0.2-0.3-0.3-0.4c0.1-0.2,0.2-0.2,0.4-0.3c0.1-0.1,0.2-0.2,0.1-0.4c-0.1-0.1-0.2-0.2-0.3-0.3
			c0.1-0.2,0.2-0.2,0.4-0.3c0.1-0.1,0.2-0.2,0.1-0.4c0-0.2-0.2-0.2-0.3-0.3c0.1-0.2,0.3-0.2,0.4-0.4c0.1-0.1,0.2-0.2,0-0.4
			c-0.1-0.1-0.2-0.2-0.3-0.3c0-0.1,0.2-0.1,0.2-0.2c0.1-0.1,0.3-0.2,0.2-0.4c0-0.2-0.2-0.2-0.2-0.3c-0.1-0.2,0.2-0.2,0.2-0.3
			c0.1-0.1,0.2-0.2,0.1-0.4c-0.1-0.1-0.2-0.2-0.3-0.3c0.1-0.1,0.2-0.2,0.3-0.3c0.1-0.1,0.2-0.2,0-0.3c0,0-0.1-0.1-0.1-0.1
			c0,0,0-0.1-0.1-0.1l0,0c0,0-0.1-0.1-0.1-0.1l0,0c0-0.1,0-0.1,0-0.2c0.1-0.2,0.2-0.4,0.1-0.6c0-0.1,0-0.2-0.1-0.2
			c-0.1,0-0.2,0.1-0.2,0.1c-0.1,0.2-0.2,0.4-0.1,0.6c0,0,0,0,0,0c0,0,0,0,0,0c0,0.1,0,0.1,0,0.2l0,0c0,0-0.1,0-0.1,0
			c-0.1,0-0.2,0.1-0.3,0.2c-0.2,0.1-0.1,0.2-0.1,0.3c0.1,0.1,0.2,0.2,0.2,0.4c-0.1,0.1-0.2,0.2-0.3,0.2c-0.2,0.1-0.1,0.2-0.1,0.3
			c0.1,0.1,0.2,0.3,0.3,0.4c-0.1,0.1-0.3,0.1-0.4,0.2c-0.1,0.1-0.1,0.2-0.1,0.3c0.1,0.1,0.1,0.3,0.3,0.4c-0.1,0.1-0.3,0.1-0.4,0.3
			c-0.2,0.1-0.1,0.2-0.1,0.3c0.1,0.1,0.2,0.3,0.3,0.4c-0.1,0-0.2,0.1-0.3,0.1c0,0,0,0,0,0c0,0,0,0-0.1,0.1c-0.2,0.1-0.1,0.2-0.1,0.3
			c0.1,0.2,0.2,0.3,0.3,0.5c-0.1,0.1-0.3,0.1-0.4,0.3c-0.1,0-0.1,0.1-0.1,0.2c0.1,0.2,0.2,0.4,0.4,0.5c-0.1,0.2-0.4,0.1-0.5,0.3
			c-0.2,0.1-0.1,0.2,0,0.4c0.1,0.2,0.2,0.3,0.3,0.5c0,0-0.1,0-0.1,0.1c-0.1,0-0.1,0-0.2,0.1l0,0c-0.1,0-0.1,0-0.2,0.1c0,0,0,0,0,0
			c0,0,0,0-0.1,0.1l0,0c-0.1,0.1-0.1,0.2-0.1,0.3c0.1,0.2,0.2,0.4,0.4,0.5c-0.1,0.1-0.4,0.1-0.5,0.3c-0.2,0.1-0.1,0.2-0.1,0.4
			c0.1,0.2,0.3,0.3,0.3,0.5c-0.2,0.1-0.4,0.1-0.5,0.3c-0.2,0.1-0.1,0.2-0.1,0.3c0.1,0.2,0.2,0.4,0.4,0.5c0.1,0,0.1,0.1,0.1,0.2
			c0,0.4-0.3,0.7-0.7,0.7c-0.2,0-0.3,0-0.5,0c0-0.4,0.1-0.7,0.1-1.1c0-0.2,0.2-0.4,0-0.7l0,0c0,0,0,0,0,0c0,0,0,0,0-0.1
			c0.1-0.1,0.1-0.2,0.1-0.3c0-0.2,0-0.5,0.1-0.7c0-0.1,0.1-0.1,0.1-0.2c0-0.3,0-0.5,0.1-0.8c0-0.3,0.2-0.6,0.1-0.9
			c0.2-0.2,0.1-0.4,0.1-0.6l0,0c0.1,0,0.1-0.1,0.1-0.2c0-0.1-0.1-0.2,0-0.3c0.1-0.1,0.1-0.2,0.1-0.4c0-0.2,0.2-0.5,0-0.7l0,0
			c0.2-0.1,0.2-0.2,0.1-0.4l0,0c0-0.1,0-0.1,0-0.2c0.1-0.1,0.2-0.3,0.1-0.4c0,0,0-0.1,0-0.1c0,0,0-0.1,0.1-0.1c0.2-0.2,0-0.4,0-0.6
			l0,0c0.1-0.1,0.2-0.2,0.1-0.3l0,0c0,0,0-0.1-0.1-0.1l0,0c0-0.1,0-0.1-0.1-0.1l0,0c0-0.1,0-0.1,0-0.2c0.2-0.2,0.2-0.4,0.2-0.6
			c0,0,0-0.1,0-0.1c0.1,0,0.1,0,0.1-0.1c0.2-0.2,0.2-0.4,0-0.6c0,0,0,0-0.1,0c0,0,0,0-0.1,0c0,0,0-0.1,0-0.1c0-0.2-0.1-0.4-0.2-0.6
			c0,0-0.1-0.1-0.1-0.1c0,0,0,0-0.1-0.1c0,0,0,0-0.1-0.1c0,0-0.1-0.1-0.1-0.1c-0.1,0-0.1-0.1-0.2-0.1c-0.2-0.2-0.5-0.2-0.8-0.3
			c0-0.1,0.1-0.2,0.1-0.3c0-0.2,0.1-0.4-0.2-0.5l0,0c0-0.1,0-0.1-0.1-0.1c0,0-0.1,0,0,0.1l0,0c-0.3,0.2-0.2,0.5-0.1,0.8
			c-0.3,0-0.5,0.1-0.7,0.3c-0.1,0-0.1,0.1-0.2,0.1C28,12.6,28,12.6,27.9,12.7C28,12.7,27.9,12.7,27.9,12.7z M32.1,23.9
			C32,24,32,24,32.1,23.9C32,24,32,24,32.1,23.9C32,24,31.9,24,31.9,24c0-0.1-0.1-0.3-0.1-0.4c-0.1,0-0.1,0.1-0.2,0.2
			c-0.2,0.3-0.2,0.7-0.2,1c-0.1,0.1-0.2,0.2-0.3,0.3c-0.2,0.1-0.3,0.1-0.5,0.1c-0.1,0-0.2,0.1-0.3,0.2c-0.1,0.3-0.1,0.6-0.2,0.8
			c-0.2,0.2-0.4,0.3-0.6,0.3c-0.2,0-0.5,0-0.7,0c-0.3,0-0.5,0-0.6-0.3c-0.1-0.2-0.2-0.4-0.2-0.6c0-0.3-0.1-0.5-0.5-0.5
			c-0.1,0-0.2-0.1-0.4-0.1c-0.2-0.1-0.3-0.3-0.3-0.6c0-0.3,0-0.7-0.3-0.9c-0.1,0.2-0.1,0.3-0.1,0.5c0,0-0.1,0-0.1,0c0,0,0,0,0,0
			c0,0,0,0,0,0c0,0,0,0-0.1-0.1c0,0-0.1-0.1-0.1-0.1c-0.2-0.4-0.4-0.7-0.5-1.2c-0.2-0.9-0.4-1.9-0.6-2.8c-0.3-1.3-0.6-2.6-0.9-3.8
			c-0.1-0.9-0.3-1.8-0.4-2.8c-0.1-0.3-0.1-0.7-0.2-1.1c-0.6,0.6-1.1,1.2-1.2,2c-0.1-0.2-0.2-0.5-0.2-0.8c-0.5,0.7-0.9,1.3-0.9,2.2
			c-0.1-0.3-0.2-0.5-0.4-0.7c0,0-0.1,0.1-0.1,0.1c0,0.1-0.1,0.1-0.1,0.2c-0.3,0.8-0.4,1.6-0.3,2.4c0,0.1,0.1,0.2-0.1,0.2l0,0
			c-0.1-0.3-0.4-0.5-0.6-0.9c-0.6,1-0.3,1.8,0,2.8c-0.3-0.2-0.5-0.4-0.8-0.6c-0.1,1,0.1,1.9,0.7,2.7c-0.3-0.1-0.5-0.3-0.8-0.3
			c0.3,0.8,0.4,1.6,1.1,2.1c-0.3,0-0.5-0.1-0.9-0.1c0.4,0.6,0.8,1.2,1.5,1.5c-0.2,0.1-0.4,0-0.6,0.1c0.5,0.5,1.1,1,1.8,1.2
			c-0.3,0.1-0.6,0.2-0.9,0.3c0.3,0.2,0.5,0.3,0.7,0.5c0.5,0.3,1.1,0.6,1.7,0.1l0,0c0,0,0,0.1,0.1,0.1l0,0c0,0.1,0,0.1,0.1,0.1l0,0
			c0,0,0,0.1,0.1,0.1l0,0c0,0,0,0.1,0.1,0.1l0,0c0,0,0,0.1,0.1,0.1l0,0c0,0.1,0.1,0.1,0.2,0.1l0,0c0,0.1,0.2,0.1,0.2,0.2l0,0
			c-0.1,0-0.1,0-0.1,0.1c-0.2,0.1-0.4,0.3-0.6,0.4c0,0,0,0,0,0l0,0c-0.1,0-0.1,0-0.1,0.1l0,0c0,0-0.1,0-0.1,0.1l0,0
			c0,0-0.1,0-0.1,0.1l0,0c-0.1,0.1-0.1,0.1,0,0.2l0,0c0,0,0,0.1,0.1,0.1l0,0c0,0.1,0.1,0.1,0.1,0.1l0,0c0,0.1,0.1,0.2,0.2,0.2l0,0
			c0,0,0,0,0,0.1c0.1,0.1,0.1,0.2,0.2,0.2c0,0.3,0.2,0.5,0.2,0.8l0,0c-0.1,0.1-0.1,0.1,0,0.2c0.1,0.1,0.2,0.1,0.3,0.1
			c0.3-0.1,0.5-0.4,0.8-0.6c0.1,0,0.1,0,0.1,0l0,0c0,0,0.1,0,0.1-0.1l0,0c0.1,0,0.1,0,0.1-0.1c0,0,0,0,0,0c0.1,0,0.1,0,0.2,0
			c0.7-0.3,1.4-0.4,2.1-0.5c1.3,0,2.6,0,3.9,0c0.4,0,0.8,0.1,1.2,0.2c0.2,0.1,0.5,0.2,0.7,0.2l0,0c0.1,0.1,0.2,0.2,0.4,0.2l0,0
			c0,0.1,0.1,0.1,0.1,0.1l0,0c0,0,0,0.1,0.1,0.1l0,0c0.1,0.1,0.2,0.2,0.3,0.2l0,0c0,0.1,0.1,0.1,0.1,0.1c0.1,0.1,0.1,0.1,0.2,0.2
			c0.2,0.2,0.3,0.2,0.5,0.1c0-0.1,0.1-0.1,0-0.2l0,0c0-0.2,0.1-0.5,0.2-0.7c0-0.2,0.1-0.2,0.2-0.3c0,0,0,0,0-0.1l0,0
			c0.1,0,0.2-0.1,0.2-0.2l0,0c0.1,0,0.1,0,0.1-0.1l0,0c0,0,0.1,0,0.1-0.1l0,0c0.1-0.1,0.1-0.1,0-0.2l0,0c0,0,0-0.1-0.1-0.1l0,0
			c0-0.1,0-0.1-0.1-0.1l0,0c0,0,0-0.1-0.1,0c-0.2-0.2-0.4-0.3-0.7-0.5c0-0.1,0-0.1-0.1-0.1c0,0,0,0,0,0c0-0.1,0.2-0.1,0.2-0.2l0,0
			c0.1,0,0.2,0,0.2-0.1l0,0c0,0,0.1,0,0.1-0.1l0,0c0,0,0.1,0,0.1-0.1l0,0c0.1,0,0.1-0.1,0.1-0.2l0,0c0.1,0,0.1,0,0.1-0.1l0,0
			c0.4,0.3,0.8,0.3,1.2,0.1c0.4-0.2,0.8-0.4,1.2-0.7c-0.3-0.1-0.6-0.2-0.9-0.3c0.8-0.2,1.3-0.7,1.8-1.2c-0.2-0.1-0.4,0-0.6-0.1
			c0.7-0.3,1.1-0.9,1.5-1.5c-0.3,0-0.6,0.1-0.9,0.1c0.7-0.6,1-1.5,1.1-2.1c-0.2,0.1-0.5,0.2-0.8,0.4c0.7-0.8,0.8-1.7,0.7-2.7
			c-0.3,0.2-0.5,0.4-0.8,0.6c0.2-0.6,0.3-1.2,0.3-1.8c0-0.3-0.1-0.6-0.2-0.8c-0.1-0.1-0.1-0.1-0.2,0c-0.2,0.2-0.3,0.5-0.5,0.7
			c0,0,0,0,0,0c0,0,0,0,0,0c0.1-0.5,0.1-0.9,0-1.4c-0.1-0.5-0.2-1-0.4-1.4c-0.1,0.2-0.2,0.5-0.4,0.7c0-0.9-0.4-1.5-0.9-2.2
			c-0.1,0.3-0.1,0.5-0.3,0.8c-0.1-0.8-0.6-1.4-1.2-2c-0.1,0.5-0.2,1-0.2,1.5c-0.1,0.8-0.2,1.6-0.3,2.4c0,0,0,0,0,0
			c-0.3,1.5-0.7,3-1,4.5c-0.2,1-0.4,2-0.8,3c-0.1,0.1-0.1,0.2-0.2,0.3C32.2,23.8,32.1,23.9,32.1,23.9C32.1,23.9,32.1,23.9,32.1,23.9
			z"/>
		<path class="st16" d="M34.8,30.1c-0.2,0.2-0.4,0.1-0.5-0.1c0-0.1-0.1-0.1-0.2-0.2c0,0-0.1-0.1-0.1-0.1c0,0,0,0,0,0
			c-0.1-0.1-0.2-0.2-0.3-0.2c0,0,0,0,0,0c0-0.1,0-0.1-0.1-0.1c0,0,0,0,0,0c0,0-0.1-0.1-0.1-0.1c0,0,0,0,0,0
			c-0.1-0.1-0.2-0.2-0.4-0.2c0,0,0,0,0,0c-0.6-0.3-1.3-0.4-1.9-0.4c-1.3-0.1-2.6-0.1-3.9,0c-0.3,0-0.5,0-0.8,0
			c-0.5,0.1-1,0.2-1.5,0.5l0,0c0,0-0.1,0-0.1,0.1c0,0,0,0,0,0c0,0-0.1,0-0.1,0.1c0,0,0,0,0,0c-0.1,0-0.1,0-0.1,0
			c-0.3,0.1-0.5,0.4-0.8,0.6c-0.1,0.1-0.2,0-0.3-0.1c0-0.1,0-0.1,0-0.2c0,0,0,0,0,0c0.2-0.3,0-0.5-0.2-0.8c-0.1-0.1-0.1-0.2-0.2-0.2
			c0,0,0-0.1,0-0.1c0,0,0,0,0,0c0-0.1,0-0.2-0.2-0.2c0,0,0,0,0,0c0,0-0.1-0.1-0.1-0.1c0,0,0,0,0,0c0,0,0-0.1-0.1-0.1c0,0,0,0,0,0
			c0-0.1,0-0.1,0-0.2c0,0,0,0,0,0c0,0,0.1,0,0.1-0.1c0,0,0,0,0,0c0,0,0.1,0,0.1-0.1c0,0,0,0,0,0c0.1,0,0.1,0,0.1-0.1c0,0,0,0,0,0
			c0,0,0,0,0,0c0.2-0.1,0.4-0.3,0.6-0.4c0,0,0.1,0,0.1-0.1c0,0,0,0,0,0c0.1,0,0.1-0.1,0.2,0c0.1,0,0,0.1,0,0.1c0,0,0,0,0,0
			c0,0-0.1,0-0.1,0.1l0,0c-0.1,0-0.1,0.1-0.1,0.1c-0.1,0.1-0.3,0.2-0.4,0.3c0,0-0.1,0-0.1,0.1c0,0,0,0,0,0c-0.1,0-0.2,0.1-0.3,0.2
			c0.3-0.1,0.6-0.1,0.8-0.2c0.7-0.2,1.3-0.4,2-0.7c0,0,0,0,0,0c0,0.1,0.1,0.1,0.1,0.1c0.1,0.1,0.1,0,0.2,0c0.4-0.3,0.8-0.3,1.3-0.4
			c1,0,2.1,0,3.1,0c0.3,0.1,0.5,0.1,0.8,0.2l0,0c0.1,0.1,0.3,0.2,0.4,0.2c0.1,0,0.2,0.1,0.3,0c0,0,0.1,0,0.1-0.1c0,0,0,0,0,0
			c0.6,0.2,1.2,0.4,1.8,0.6c0.3,0.1,0.6,0.2,0.9,0.2c-0.1-0.1-0.1-0.2-0.2-0.1l0,0c0-0.1,0-0.1-0.1,0c-0.1-0.1-0.3-0.2-0.4-0.3
			c0,0,0-0.1-0.1-0.1l0,0c0,0,0-0.1-0.1-0.1l0,0c0,0-0.1-0.1,0-0.1c0.1,0,0.1,0,0.2,0l0,0c0,0,0.1,0,0.1,0.1
			c0.2,0.2,0.4,0.3,0.7,0.5c0,0,0.1,0.1,0.1,0l0,0c0,0,0,0.1,0.1,0.1c0,0,0,0,0,0c0,0,0,0.1,0.1,0.1c0,0,0,0,0,0c0,0.1,0,0.1,0,0.2
			c0,0,0,0,0,0c0,0-0.1,0-0.1,0.1c0,0,0,0,0,0c0,0-0.1,0-0.1,0.1c0,0,0,0,0,0c-0.1,0-0.1,0.1-0.2,0.2c0,0,0,0,0,0
			c-0.1,0-0.1,0,0,0.1c-0.1,0.1-0.2,0.2-0.2,0.3c-0.2,0.2-0.3,0.4-0.2,0.7c0,0,0,0,0,0C34.8,30,34.8,30,34.8,30.1z"/>
		<path class="st18" d="M26.3,24c0,0,0.1,0,0.1,0c0,0,0,0.1,0,0.1c0,0,0,0.1-0.1,0.1c-0.1,0-0.1-0.1-0.2,0c-0.7,0.4-1.3,0.1-1.6-0.6
			c-0.1-0.3-0.1-0.6-0.2-1c-0.1,0.4-0.2,0.7-0.1,1.1c0,0,0,0.1-0.1,0.1c0-0.2,0-0.3,0-0.5c-0.1,0.3-0.2,0.5-0.2,0.8c0,0-0.1,0-0.1,0
			c-0.3-0.2-0.5-0.4-0.8-0.7c0,0.5,0,0.9,0.4,1.2c0,0,0,0-0.1,0c-0.1-0.1-0.2-0.1-0.4-0.2c0.1,0.5,0.2,0.9,0.7,1.1
			c0,0-0.1,0.1-0.1,0.1c-0.8,0.3-1.7,0.6-2.6,0.9c0.4,0.3,0.8,0.6,1.3,0.7c0.3,0.1,0.6,0,0.8-0.3c0,0,0,0,0,0.1c0,0,0,0.1,0,0.1
			c-0.6,0.4-1.2,0.2-1.7-0.1c-0.2-0.1-0.4-0.3-0.7-0.5c0.3-0.1,0.6-0.2,0.9-0.3c-0.8-0.2-1.3-0.7-1.8-1.2c0.2-0.1,0.4,0,0.6-0.1
			c-0.7-0.3-1.1-0.9-1.5-1.5c0.3,0,0.6,0.1,0.9,0.1c-0.7-0.5-0.9-1.3-1.1-2.1c0.3,0.1,0.5,0.2,0.8,0.3c-0.6-0.8-0.8-1.7-0.7-2.7
			c0.3,0.2,0.5,0.4,0.8,0.6c-0.3-0.9-0.6-1.8,0-2.8c0.2,0.4,0.5,0.6,0.6,0.9c-0.2-0.2-0.3-0.5-0.6-0.6c-0.1,0.1-0.1,0.3-0.2,0.4
			c-0.1,0.6,0,1.2,0.2,1.8c0.1,0.3,0.2,0.5,0.4,0.7c0.9,0.8,1.8,1.6,2.8,2.4c0,0,0.1,0.1,0.2,0.1c0-0.1,0.1-0.3,0.2-0.4
			c0.1,0.1,0.1,0.1,0.2,0.2c0.1-0.2,0-0.4-0.1-0.5c-0.1-0.2-0.3-0.3-0.4-0.5c0.1,0,0.1,0,0.1,0.1c0.1,0.1,0.2,0.3,0.3,0.4
			c0.1,0.1,0.1,0.1,0.1,0c0.1,0.1,0,0.2,0,0.3c0,0.2,0,0.3,0,0.4c0.2,0.3,0.4,0.6,0.6,0.9c0.1-0.3,0.3-0.5,0.2-0.7
			c-0.1-0.4-0.3-0.8-0.5-1.2c-0.1,0-0.1,0.1-0.2,0.1c0.1-0.1,0.1-0.3,0-0.5c-0.9-1.8-1.8-3.7-2.7-5.5c0-0.1,0-0.2-0.1-0.2
			c-0.2,0.6-0.3,1.1-0.3,1.7c0,0.5,0.1,0.9,0.4,1.4c0.7,0.9,1.3,1.7,2,2.6c0,0.1,0.2,0.1,0.1,0.2c-0.1,0-0.1-0.1-0.2-0.2
			c-0.6-0.8-1.2-1.6-1.8-2.4c-0.2-0.3-0.5-0.5-0.6-0.8c0.1,0,0.1-0.1,0.1-0.2c-0.2-0.8,0-1.6,0.3-2.4c0-0.1,0.1-0.1,0.1-0.2
			c0,0,0,0,0.1-0.1c0.1,0.2,0.2,0.4,0.4,0.7c0-0.9,0.5-1.5,0.9-2.2c0.1,0.3,0.2,0.5,0.2,0.8c0.1-0.8,0.6-1.4,1.2-2
			c0.1,0.4,0.1,0.7,0.2,1.1c0.1,0.9,0.3,1.8,0.4,2.8c0,0,0,0,0,0.1c-0.1-0.1-0.1,0-0.1,0c-0.1-1.2-0.3-2.5-0.5-3.7
			c-0.4,0.4-0.6,0.8-0.8,1.3c-0.2,0.4-0.2,0.8,0,1.2c0.4,1.3,0.8,2.6,1.2,3.9c0.2,0.5,0.3,1.1,0.5,1.6c0.2-0.2,0.3-0.4,0.2-0.6
			c0,0,0-0.1,0-0.1c0,0,0-0.1,0-0.1c0,0.2,0,0.3,0.1,0.5c0.1,0.8,0.2,1.7,0.3,2.5c0.1,0.8,0.5,1.4,1.3,1.5
			C26.3,24.2,26.3,24.1,26.3,24z M24,21.3c0.1-0.4,0.1-0.7,0-1.1c-0.5-1.5-0.9-3-1.3-4.4c-0.2-0.7-0.4-1.4-0.7-2.2
			c-0.2,0.3-0.4,0.6-0.6,0.9c-0.3,0.5-0.3,1.1,0,1.6c0.4,0.7,0.7,1.5,1.1,2.3C23.1,19.3,23.5,20.3,24,21.3z M19,19.2
			c0,0.8,0.1,1.4,0.5,2c0.2,0.3,0.4,0.5,0.7,0.7c0.8,0.4,1.7,0.8,2.5,1.2c0.1,0,0.2,0.2,0.3,0.1c0.1-0.1,0-0.2,0-0.3
			c0,0,0,0,0.1-0.1c0,0.5,0.5,0.7,0.8,1.1c0-0.3,0.2-0.5,0.1-0.7c-0.2-0.4-0.5-0.7-0.8-1.1c-0.1,0.2,0,0.4-0.2,0.5
			C21.8,21.4,20.4,20.3,19,19.2z M19,21.5c0.2,0.5,0.3,0.9,0.6,1.3c0.2,0.3,0.5,0.5,0.9,0.6c0.2,0,0.4,0.1,0.7,0.1
			c0.5,0.1,1.1,0.2,1.6,0.3c0.1,0,0.2,0.1,0.2-0.1c0-0.2,0-0.4-0.2-0.5c-1.2-0.5-2.4-1.1-3.6-1.7C19.2,21.5,19.1,21.5,19,21.5z
			 M23.1,24.7c0-0.1-0.1-0.3-0.1-0.4c0-0.1,0-0.1,0.1-0.1c0.2,0.1,0.1,0,0.1-0.1c0-0.2-0.2-0.2-0.3-0.2c-0.8-0.1-1.5-0.2-2.3-0.4
			c-0.4-0.1-0.8-0.1-1.2-0.2c0.3,0.4,0.5,0.7,0.8,0.9c0.2,0.2,0.5,0.3,0.8,0.4C21.7,24.7,22.4,24.7,23.1,24.7z M23.6,25.4
			c-0.2-0.2-0.3-0.3-0.4-0.5c-0.1-0.1-0.1-0.2-0.3-0.2c-0.6,0-1.3,0-1.9,0.1c-0.2,0-0.5,0-0.8,0c0.4,0.4,0.8,0.7,1.3,0.9
			c0.2,0.1,0.4,0.1,0.6,0.1C22.6,25.8,23.1,25.6,23.6,25.4z M26,24.2c-0.9-0.4-1.1-0.7-1.3-2.2c-0.1,0.6-0.1,1.2,0.2,1.7
			C25.1,24.3,25.5,24.4,26,24.2z M24.4,22.3c0.2-0.4,0.2-1.3,0-2C24,20.9,24,21.6,24.4,22.3z"/>
		<path class="st18" d="M34.2,16c0.1-0.8,0.2-1.6,0.3-2.4c0.1-0.5,0.1-0.9,0.2-1.5c0.6,0.6,1.1,1.2,1.2,2c0.2-0.2,0.2-0.5,0.3-0.8
			c0.5,0.6,0.9,1.3,0.9,2.2c0.1-0.3,0.2-0.5,0.4-0.7c0.3,0.5,0.4,0.9,0.4,1.4c0.1,0.5,0.1,0.9,0,1.4c0,0,0,0,0,0c0,0,0,0,0,0
			c0,0,0,0,0,0.1c-0.7,0.9-1.4,1.8-2.1,2.8c0,0,0,0-0.1-0.1c0.5-0.7,1.1-1.5,1.6-2.2c0.4-0.5,0.5-0.9,0.4-1.5c0-0.4-0.1-0.7-0.2-1.1
			c0-0.2-0.1-0.4-0.2-0.6c0,0-0.1,0.1-0.1,0.1c-0.9,1.9-1.9,3.8-2.8,5.7c-0.1,0.1,0,0.2,0,0.3c0,0,0,0-0.1,0.1
			c-0.1-0.1-0.1-0.1-0.2,0c-0.1,0.3-0.3,0.6-0.4,1c-0.1,0.1-0.1,0.3-0.1,0.4c0,0,0,0-0.1,0.1c0,0-0.1-0.1-0.1,0c0,0.2,0,0.4-0.1,0.6
			c-0.2,1-0.8,1.4-1.6,1c-0.1-0.1-0.1,0-0.2,0c0,0,0-0.1-0.1-0.1c0,0,0-0.1,0-0.1c0,0,0.1,0,0.1,0c0,0.1,0.1,0.2,0.2,0.1
			c0.8-0.2,1.3-0.8,1.3-1.6c0-0.1,0-0.1,0-0.2c0-0.1,0-0.2,0-0.3c0-0.1,0-0.1,0-0.2c0-0.1,0-0.2,0-0.3c0-0.1,0-0.1,0-0.2
			c0-0.1,0-0.2,0-0.3c0-0.1,0-0.1,0-0.2c0-0.3,0.1-0.6,0.1-1c0,0,0.1,0.1,0.1,0.1c0.1,0.1,0.1,0.2,0.2,0.3c0-0.1,0-0.1,0.1-0.2
			c0.5-1.8,1-3.5,1.5-5.3c0.3-0.9-0.1-2-0.8-2.6c-0.2,1.2-0.4,2.4-0.5,3.6C34.3,16.1,34.3,15.9,34.2,16C34.2,16.1,34.2,16,34.2,16z
			 M36.3,13.6c0,0.1-0.1,0.2-0.1,0.3c-0.6,2.1-1.3,4.2-1.9,6.3c-0.1,0.4,0,0.7,0,1c0-0.1,0.1-0.1,0.1-0.1c0.8-1.7,1.7-3.4,2.5-5.1
			c0-0.1,0.1-0.2,0.1-0.3C37.2,14.9,36.7,14.3,36.3,13.6z M32.3,24.2c0.4,0.2,0.9,0.1,1.1-0.2c0.3-0.4,0.4-1.3,0.2-1.8
			C33.5,23,33.4,23.9,32.3,24.2z M33.9,22.3c0.4-0.7,0.4-1.4,0-2C33.9,21,33.5,21.6,33.9,22.3z"/>
		<path class="st18" d="M38,17.7c0.2-0.2,0.3-0.5,0.5-0.7c0.1-0.1,0.1-0.1,0.2,0c0.2,0.2,0.2,0.5,0.2,0.8c0,0.6-0.1,1.2-0.3,1.8
			c0.2-0.2,0.5-0.4,0.8-0.6c0.1,1-0.1,1.9-0.7,2.7c0.3-0.1,0.5-0.2,0.8-0.4c-0.1,0.6-0.4,1.5-1.1,2.1c0.3,0,0.6-0.1,0.9-0.1
			c-0.4,0.6-0.8,1.2-1.5,1.5c0.2,0.1,0.4,0,0.6,0.1c-0.5,0.5-1.1,1-1.8,1.2c0.3,0.1,0.6,0.2,0.9,0.3c-0.4,0.3-0.7,0.5-1.2,0.7
			c-0.4,0.2-0.8,0.1-1.2-0.1c0,0,0-0.1,0-0.1c0,0,0,0,0-0.1c0.1,0.2,0.3,0.3,0.6,0.3c0.6,0,1-0.3,1.5-0.7c-0.9-0.3-1.7-0.6-2.6-0.9
			c0,0-0.1-0.1-0.1-0.1c0.1,0,0.1-0.1,0.2-0.1c0,0,0,0,0.1,0c-0.1,0.1,0,0.1,0.1,0.1c0.4,0.1,0.9,0.3,1.3,0.4c0.2,0,0.3,0,0.5,0
			c0.5-0.2,0.9-0.6,1.4-1c-0.7-0.1-1.4-0.1-2.1-0.1c-0.3,0-0.5,0-0.8,0c0,0-0.1,0-0.1,0c0-0.1,0.1-0.2,0.1-0.3c0,0,0,0,0.1,0.1
			c0,0.1,0.1,0.1,0.2,0.1c0.2,0,0.5,0,0.7,0c0.4,0.1,0.7,0.1,1.1,0c0.9,0,1.3-0.7,1.8-1.3c-0.1,0-0.1,0-0.2,0
			c-1.1,0.2-2.2,0.3-3.3,0.5c-0.2,0-0.3,0.1-0.4,0.3c0,0,0,0,0-0.1c0.1-0.3,0.1-0.5,0.1-0.8c-0.3,0.2-0.5,0.4-0.8,0.7
			c0,0-0.1,0-0.1,0c0-0.1,0-0.1,0-0.2c0,0,0,0,0.1-0.1c0,0,0,0.2,0.1,0.1c0.4-0.3,0.8-0.6,0.7-1.2c0-0.1,0-0.2,0-0.3
			c0,0,0,0,0.1-0.1c0.1,0.2,0.2,0,0.2,0c0.8-0.7,1.6-1.4,2.5-2.1c0.5-0.4,0.7-0.9,0.8-1.5c0.1-0.5,0.1-0.9,0-1.4
			c0-0.1,0-0.2-0.1-0.2c-0.1,0-0.1,0.1-0.2,0.2C38.3,17.4,38.2,17.5,38,17.7C38,17.7,38,17.7,38,17.7z M39.3,19.2
			c-0.1,0-0.2,0.1-0.3,0.2c-1.1,0.9-2.3,1.9-3.4,2.8c-0.3,0.2-0.4,0.4-0.4,0.8c0,0.1,0,0.2,0.1,0.2c0.1,0.1,0.2,0,0.2,0
			c0.9-0.4,1.8-0.9,2.7-1.3c0.1-0.1,0.3-0.2,0.4-0.3C39.1,20.9,39.3,20.1,39.3,19.2z M39.3,21.5c-0.1,0-0.1,0-0.1,0
			c-1.2,0.6-2.5,1.2-3.7,1.8c0,0,0,0-0.1,0c-0.2,0.1-0.1,0.3-0.1,0.5c0,0.1,0.2,0,0.3,0c0.6-0.1,1.2-0.2,1.8-0.3
			c0.4-0.1,0.8-0.1,1.1-0.4C38.9,22.7,39.1,22.1,39.3,21.5z"/>
		<path class="st19" d="M28.6,24.7c-0.1,0-0.3,0-0.4,0c-0.5,0-0.8-0.2-0.9-0.7c0-0.1,0-0.2,0-0.3c0-0.2-0.1-0.4-0.3-0.4
			c0.1,0,0.1,0,0.2,0c0-0.1-0.1-0.1-0.1-0.2c0.1,0,0.1-0.1,0.1-0.2c0-0.2-0.1-0.4-0.1-0.6c0-0.2-0.1-0.2-0.2-0.3
			c0.2,0,0.1-0.1,0.1-0.2c0.1-0.3-0.1-0.5,0-0.8c0-0.2-0.1-0.3-0.3-0.3c0.1,0,0.2,0,0.1-0.2c0,0-0.1-0.1-0.1-0.1c0,0,0.1,0.1,0.1,0
			c0-0.3,0-0.7-0.2-1c0.1-0.1,0-0.1,0-0.2c0,0,0.1-0.1,0-0.1l0,0c0-0.3,0-0.7-0.2-1c0.1-0.1,0-0.1,0-0.2c0-0.3-0.1-0.6-0.1-0.9
			c0-0.2-0.2-0.2-0.3-0.2c0.2,0,0.2-0.1,0.1-0.2c0.1,0,0.1-0.1,0.1-0.2c0-0.3-0.1-0.6-0.2-0.9c0-0.1-0.1-0.1-0.1-0.2
			c0.1-0.3,0-0.7-0.1-1c0-0.1-0.1-0.1-0.2-0.1c0.2,0,0.1-0.1,0.1-0.2c0.1-0.1,0-0.2,0-0.4c0-0.1,0-0.2,0-0.3c0.1,0,0.1,0,0.1,0
			c0,0.2,0.1,0.5,0.1,0.7c0,0.1,0.1,0.1,0.1,0c0,0.1,0,0.1,0,0.2c-0.1,0.2,0.1,0,0.1,0.1C26,14.6,26,14.7,26,14.8
			c0.1,0.3,0,0.5,0.2,0.8c0,0.1,0,0.1,0,0.2c0,0.4,0,0.7,0.2,1c0.1,0.1-0.1,0.2,0,0.3c0,0.4,0,0.7,0.1,1.1c0,0.1,0,0.1,0.1,0.2
			c-0.1,0.4,0,0.7,0.2,1c0.1,0.1-0.1,0.2,0,0.3c-0.1,0.1-0.1,0.2,0,0.3c0.1,0.2,0,0.5,0.2,0.7c0,0.1-0.1,0.2,0.1,0.3
			c0,0-0.1,0.1-0.1,0.1c0,0.3,0,0.7,0.2,1c0,0.1-0.1,0.2,0.1,0.3c-0.1,0.1-0.1,0.2-0.1,0.2c0.1,0.3,0.1,0.6,0.1,0.9
			c0,0.2,0.1,0.2,0.2,0.2c-0.1,0.1-0.2,0.1-0.2,0.2c0,0.5,0.3,0.9,0.8,0.9c0.1,0,0.3,0,0.4-0.1c0,0,0.1,0.1,0.1,0.1
			C28.7,24.6,28.6,24.7,28.6,24.7z"/>
		<path class="st20" d="M23.2,26.9c0,0,0-0.1,0-0.1c0.3-0.1,0.6,0,0.9-0.2c0.1,0,0.2,0,0.3-0.1c0.2,0,0.3-0.1,0.4-0.2
			c0,0,0-0.1-0.1-0.1c-0.3-0.3-0.3-0.6-0.1-0.9c0.2-0.2,0.6-0.3,0.8-0.1c0.3,0.2,0.3,0.5,0.2,0.8c-0.2,0.4-0.5,0.7-0.8,1
			c-0.3,0.3-0.7,0.5-1.2,0.3c0,0,0,0,0,0c0-0.1-0.1-0.1-0.2-0.1l0,0c0,0,0-0.1-0.1-0.1l0,0c0,0,0-0.1-0.1-0.1c0,0,0,0,0,0
			c0,0,0-0.1-0.1-0.1l0,0C23.4,27.1,23.3,27,23.2,26.9L23.2,26.9C23.3,27,23.3,27,23.2,26.9C23.2,26.9,23.2,26.9,23.2,26.9z"/>
		<path class="st20" d="M35.1,26.8c0,0,0,0.1,0,0.1c0,0,0,0,0,0c0,0-0.1,0-0.1,0.1c0,0,0,0,0,0c-0.1,0-0.1,0.1-0.1,0.2l0,0
			c0,0-0.1,0-0.1,0.1l0,0c0,0-0.1,0-0.1,0.1l0,0c-0.1,0-0.1,0-0.2,0.1l0,0c-0.3,0.1-0.5,0.1-0.8,0c-0.5-0.3-0.9-0.8-1.2-1.3
			c-0.2-0.3-0.1-0.6,0.2-0.8c0.3-0.2,0.6-0.1,0.8,0.1c0.2,0.2,0.2,0.6,0,0.8c0,0-0.1,0.1-0.1,0.1c0.1,0.1,0.3,0.2,0.4,0.2
			c0.1,0.1,0.2,0.1,0.3,0.1C34.5,26.8,34.8,26.7,35.1,26.8z"/>
		<path class="st21" d="M27.7,15.4C27.7,15.4,27.7,15.4,27.7,15.4C27.7,15.4,27.7,15.4,27.7,15.4C27.7,15.3,27.7,15.3,27.7,15.4
			c0.1-0.1,0.1-0.1,0.2-0.2c0,0,0,0,0,0c0,0,0.1,0,0.1,0c0.8,0,1.6,0,2.5,0c0,0,0.1,0,0.1,0c0,0,0,0,0,0c0,0.1,0,0.1,0.1,0.1
			c0,0,0,0,0,0c0,0,0,0.1,0.1,0.1c0,0,0,0,0,0c0,0.1,0,0.2-0.1,0.3c0,0,0,0,0,0c-0.2,0.1-0.3,0.1-0.5,0.1c-0.6,0-1.3,0-1.9,0
			c-0.2,0-0.3,0-0.5-0.1c0,0,0,0,0,0C27.7,15.7,27.7,15.5,27.7,15.4z"/>
		<path class="st22" d="M34.5,25.4c0,0,0.1,0.1,0.1,0.1c-0.1,0-0.2,0-0.2,0.1c0,0.2-0.1,0.3-0.2,0.5c0,0-0.1,0-0.1,0
			c0.3-0.7,0.2-1.1-0.5-1.3c-0.3-0.1-0.6-0.1-0.9,0c-0.3,0-0.5,0.1-0.8,0c-0.1,0-0.1,0.1-0.1,0.1c0,0,0,0-0.1-0.1
			c0-0.3-0.1-0.2-0.3-0.1c0,0,0,0,0,0c0-0.3,0-0.7,0.2-1c0,0,0,0,0.1,0c-0.1,0.2-0.1,0.4-0.1,0.7c0,0.1,0,0.1,0,0.1
			c0.3,0.1,0.7,0.2,1,0.1c-0.1-0.1-0.3-0.1-0.4-0.3c0.1-0.1,0.2,0,0.2,0.1c0.7,0.4,1.4,0.1,1.5-0.7c0.1-0.4,0-0.8,0-1.1
			c0,0,0,0,0.1-0.1c0.1,0.1,0.1,0.3,0.2,0.4c0.5-0.5,0.8-1.1,0.4-1.8c0,0,0,0,0.1-0.1c0.1,0.1,0.1,0.3,0.2,0.4
			c0.3-0.4,0.6-0.8,1-1.2c0,0,0,0,0.1,0.1c-0.3,0.4-0.6,0.8-0.9,1.1c-0.1,0.1-0.2,0.3-0.1,0.4c0,0,0,0.1,0,0.1C35,22,35,22,35,21.9
			c0.1,0.1,0.1,0.2,0.1,0.4c0,0,0,0-0.1,0.1c0-0.1-0.1-0.1-0.1-0.2c-0.2,0.3-0.3,0.5-0.5,0.8c-0.2,0.3-0.3,0.5-0.2,0.9
			c0,0,0,0-0.1,0.1c-0.1-0.2-0.1-0.3-0.2-0.5c0,0.6,0,1.1-0.6,1.5c0.1,0.1,0.3,0.1,0.4,0.1c0.2,0.1,0.2,0,0.3-0.1
			c0.1-0.2,0.1-0.5,0.1-0.8c0,0,0.1,0,0.1,0c0,0.2,0,0.5-0.1,0.7c0.3-0.2,0.6-0.3,0.8-0.6c0,0,0,0,0,0.1c0.3,0,0.2,0.2,0.2,0.3
			c0,0,0,0,0,0.1c0,0,0,0-0.1-0.1c0-0.1,0-0.2-0.1-0.1c-0.2,0.1-0.4,0.2-0.6,0.3c-0.3,0.2-0.3,0.2-0.1,0.5
			C34.4,25.4,34.4,25.5,34.5,25.4z"/>
		<path class="st23" d="M31.8,23c0.1,0.1,0.1,0.2,0,0.3c-0.2,0.2-0.3,0.4-0.6,0.4c-0.1,0-0.1,0.1-0.2,0.2c-0.2,0.8-0.5,1-1.3,0.8
			c0,0-0.1-0.1-0.1-0.1c0,0,0.1-0.1,0.1-0.1c0.2,0,0.3,0.1,0.5,0c0.4,0,0.7-0.3,0.7-0.7c0-0.1,0-0.2-0.1-0.2
			c-0.2-0.1-0.3-0.3-0.4-0.5c-0.1-0.1-0.1-0.3,0.1-0.3c0.1,0.2,0.3,0.1,0.4,0.1C31.1,23,31.5,23,31.8,23C31.8,23.1,31.8,23,31.8,23z
			"/>
		<path class="st20" d="M30.4,17.1C30.4,17.1,30.4,17.1,30.4,17.1c0,0.1,0,0.3-0.1,0.4c0,0,0,0,0,0c-0.1,0-0.1,0-0.1,0.1
			c-0.7,0-1.5,0-2.2,0c0,0-0.1-0.1-0.1-0.1c0,0,0,0,0,0c0-0.1,0-0.3-0.1-0.4l0,0c0,0,0.1,0,0.1-0.1c0.3,0.1,0.6,0,0.9,0
			c0.5,0,1,0,1.5,0C30.4,17.1,30.4,17.1,30.4,17.1z"/>
		<path class="st22" d="M24.5,19.6c0,0,0,0.1,0,0.1c-0.1-0.1-0.1-0.3-0.1-0.4c-0.1-1.1-0.3-2.1-0.4-3.2c0,0,0-0.2,0.1,0
			c0,0,0,0,0-0.1c0.3,1.3,0.6,2.6,0.9,3.8c0.2,0.9,0.4,1.9,0.6,2.8c0.1,0.4,0.2,0.8,0.5,1.2c0,0,0,0-0.1,0.1
			c-0.2-0.3-0.4-0.6-0.4-0.9c-0.3-1.4-0.7-2.9-1-4.3c-0.2-0.7-0.3-1.4-0.5-2.1c0,0,0,0,0,0C24.2,17.5,24.3,18.6,24.5,19.6z"/>
		<path class="st22" d="M24.3,23.8c0,0,0-0.1,0.1-0.1C24.3,23.7,24.3,23.7,24.3,23.8c0.3,0.9,0.9,1.2,1.7,0.7c0.1,0,0.1-0.1,0.2,0
			c-0.1,0.2-0.3,0.1-0.4,0.3c0.3,0,0.6,0.1,0.8-0.1c0.1-0.1,0.2,0.1,0.2-0.1c0-0.3,0-0.5-0.2-0.8c-0.1,0.1-0.1,0.3-0.2,0.4
			c0,0,0-0.1,0-0.1c0-0.1,0.1-0.3,0.1-0.5c0.3,0.3,0.3,0.6,0.3,0.9c0,0.2,0.1,0.4,0.3,0.6c0,0,0,0,0,0c-0.1,0-0.2-0.2-0.3-0.3
			c0-0.1-0.1-0.1-0.2-0.1c-0.1,0-0.1,0.1-0.1,0.2c0,0,0,0-0.1,0.1c0-0.1,0-0.2-0.2-0.1c-0.3,0.1-0.5,0-0.8,0c-0.4-0.1-0.8,0-1.1,0.2
			c-0.4,0.2-0.5,0.6-0.3,1c0,0.1,0.1,0.1,0.1,0.2c0,0-0.1,0-0.1,0c0-0.1-0.2-0.3-0.2-0.4c0-0.2-0.1-0.2-0.3-0.2c0,0,0.1-0.1,0.1-0.1
			c0.3,0.1,0.2-0.2,0.3-0.3c0.2-0.1,0.1-0.2-0.1-0.3c-0.2-0.1-0.4-0.2-0.6-0.3c0,0,0,0,0.1,0c0.2,0.1,0.3,0.2,0.5,0.3
			c-0.1-0.3-0.1-0.5-0.1-0.7c0,0,0.1,0,0.1,0c0,0.2,0,0.5,0.1,0.7c0.1,0.2,0.2,0.4,0.4,0.2c0.1-0.1,0.2-0.1,0.3-0.1
			C24.4,24.5,24.3,24.2,24.3,23.8z"/>
		<path class="st23" d="M32,21.8c0.2,0.2,0,0.3-0.1,0.4c-0.2,0.1-0.3,0.3-0.5,0.4c-0.2-0.1-0.3-0.1-0.5-0.1
			c-0.1-0.2-0.3-0.3-0.3-0.5c-0.1-0.1-0.2-0.3,0.1-0.4c0.1,0.1,0.3,0.1,0.4,0.1C31.3,21.8,31.6,21.7,32,21.8
			C32,21.9,32,21.8,32,21.8z"/>
		<path class="st22" d="M34.2,16C34.2,16,34.2,16.1,34.2,16c0.1-0.1,0.1,0.1,0.2,0.1c0,0.4,0,0.7-0.2,1.1c0,0,0,0-0.1,0
			c0-0.1,0-0.2,0-0.3c0.1-0.1,0-0.2,0-0.3c0,0.1,0,0.1-0.1,0.2c-0.4,1.8-0.8,3.6-1.2,5.3c-0.1,0.5-0.2,1-0.5,1.5c0,0,0,0,0,0
			c0.4-1,0.5-2,0.8-3C33.5,19,33.8,17.5,34.2,16C34.2,16,34.2,16,34.2,16z"/>
		<path class="st23" d="M31.1,21.3c-0.1-0.2-0.3-0.3-0.4-0.5c0-0.1,0-0.2,0.1-0.2c0.3,0,0.6,0.1,0.9,0.1c0.1,0,0.3,0.1,0.4,0
			c0.2,0.2,0,0.3-0.1,0.4c-0.1,0.1-0.3,0.2-0.4,0.4C31.5,21.3,31.4,21.2,31.1,21.3z"/>
		<path class="st23" d="M32.3,19.5c0.1,0.1,0,0.2,0,0.3c-0.1,0.1-0.3,0.3-0.5,0.4c-0.1-0.1-0.3-0.1-0.5-0.1
			c-0.1-0.2-0.2-0.3-0.3-0.5c-0.1-0.1-0.1-0.3,0-0.4c0,0,0,0.1,0,0.1c0.3,0,0.6,0.1,0.9,0.1C32.1,19.5,32.2,19.7,32.3,19.5z"/>
		<path class="st23" d="M32.6,17.4c0.1,0.2,0,0.3-0.1,0.4c-0.1,0.1-0.3,0.2-0.4,0.3c-0.1-0.2-0.3-0.2-0.5-0.1
			c-0.1-0.1-0.2-0.3-0.3-0.5c-0.1-0.1-0.1-0.3,0.1-0.3c0,0,0,0.1,0,0.1c0.3,0,0.6,0.1,0.9,0.1C32.3,17.4,32.5,17.6,32.6,17.4z"/>
		<path class="st23" d="M32.4,18.4c0.1,0.2,0,0.3-0.1,0.4C32.2,18.9,32,19,32,19.2C31.8,19,31.7,19,31.5,19
			c-0.2-0.1-0.3-0.3-0.4-0.5c-0.1-0.1,0-0.2,0.1-0.2c0.3,0.1,0.7,0.1,1,0.2C32.2,18.4,32.3,18.6,32.4,18.4z"/>
		<path class="st23" d="M31.8,17c-0.1-0.1-0.2-0.3-0.3-0.4c-0.1-0.1-0.1-0.3,0.1-0.3c0,0,0,0.1,0,0.1c0.3,0,0.5,0.1,0.8,0.1
			c0.1,0,0.2,0.2,0.3,0c0.2,0.1,0.1,0.2,0,0.4c-0.1,0.1-0.3,0.2-0.4,0.4C32.1,16.9,32,16.9,31.8,17z"/>
		<path class="st23" d="M32.1,15c-0.1-0.1-0.2-0.3-0.3-0.4c-0.1-0.1-0.1-0.2,0.1-0.3c0,0.2,0.2,0.1,0.2,0.1c0.3,0.1,0.6,0.1,0.8,0.1
			c0.1,0.2,0,0.2-0.1,0.4c-0.1,0.1-0.3,0.1-0.2,0.3C32.5,15.1,32.3,14.9,32.1,15z"/>
		<path class="st22" d="M23.7,27.4c0.5,0.1,0.8,0,1.2-0.3c0.3-0.3,0.6-0.6,0.8-1c0.2-0.4,0.1-0.7-0.2-0.8c-0.3-0.2-0.6-0.1-0.8,0.1
			c-0.2,0.3-0.2,0.6,0.1,0.9c0,0,0,0.1,0.1,0.1c-0.1,0.1-0.3,0.2-0.4,0.2c0,0,0,0,0,0c0,0,0.1,0,0.1-0.1c-0.1-0.1-0.2-0.1-0.2-0.2
			c0.1,0,0.2,0.1,0.3,0.1c-0.1-0.2-0.2-0.4-0.2-0.6c0-0.3,0.2-0.5,0.5-0.6c0.3-0.1,0.6-0.1,0.8,0.2c0.2,0.2,0.2,0.5,0.1,0.7
			c-0.3,0.6-0.7,1-1.3,1.4c-0.2,0.1-0.3,0.3-0.5,0.3c0,0,0.1-0.1,0-0.1c-0.1,0-0.1,0-0.2,0C23.9,27.5,23.7,27.5,23.7,27.4z"/>
		<path class="st24" d="M27,23.2c0,0.1,0.1,0.1,0.1,0.2c-0.1,0-0.1,0-0.2,0c0,0-0.1,0-0.1,0c0,0-0.1,0-0.1,0
			c-0.4-0.1-0.6-0.3-0.8-0.6c0,0-0.1-0.1-0.1-0.2c0-0.1,0.1,0,0.2,0C26.4,22.6,26.8,22.8,27,23.2z"/>
		<path class="st23" d="M31.9,15.9c-0.2-0.1-0.2-0.3-0.3-0.4c-0.1-0.1-0.1-0.2,0.1-0.3c0,0,0,0.1,0,0.1c0.4,0,0.7,0.1,1.1,0.2
			c0,0.2-0.1,0.3-0.2,0.4c-0.1,0.1-0.2,0.1-0.2,0.2C32.3,15.9,32.1,15.9,31.9,15.9z"/>
		<path class="st22" d="M33.9,26.5c-0.2,0-0.3-0.1-0.4-0.2c0,0,0.1-0.1,0.1-0.1c0.2-0.3,0.2-0.6,0-0.8c-0.2-0.2-0.6-0.3-0.8-0.1
			c-0.3,0.2-0.3,0.5-0.2,0.8c0.3,0.6,0.7,1,1.2,1.3c0.3,0.2,0.5,0.1,0.8,0c0,0.1-0.2,0.1-0.2,0.2c-0.1,0-0.1-0.1-0.2,0
			c-0.1,0,0,0.1,0,0.1c-0.2,0-0.3-0.2-0.5-0.3c-0.6-0.4-1.1-0.8-1.3-1.5c-0.1-0.4,0.1-0.7,0.4-0.8c0.4-0.1,0.8,0.1,0.9,0.5
			c0.1,0.3,0,0.5-0.2,0.7c0.2,0,0.2-0.1,0.3-0.1c0,0.1-0.2,0.1-0.2,0.2C33.8,26.5,33.9,26.5,33.9,26.5
			C33.9,26.5,33.9,26.5,33.9,26.5z"/>
		<path class="st24" d="M26.9,21.9c0,0.1,0.1,0.2-0.1,0.2c0,0-0.1,0-0.1,0c0,0-0.1,0-0.1,0c-0.3-0.1-0.6-0.3-0.8-0.6
			c0-0.1-0.1-0.1,0-0.2c0-0.1,0.1,0,0.2,0C26.3,21.4,26.6,21.6,26.9,21.9z"/>
		<path class="st24" d="M26.6,20.5c0,0.1,0,0.1,0.1,0.1c0.1,0.2,0,0.1-0.1,0.2c-0.4-0.1-0.7-0.3-1-0.7c0,0-0.1-0.1,0-0.2
			c0-0.1,0.1,0,0.2,0C26.1,20.1,26.4,20.2,26.6,20.5z"/>
		<path class="st23" d="M33,13.6c0.1,0.1,0,0.2,0,0.3c-0.1,0.1-0.2,0.2-0.3,0.3c-0.1-0.1-0.3-0.2-0.4-0.1C32.1,14,32,13.9,32,13.7
			c-0.1-0.1-0.1-0.2,0.1-0.3c0,0,0,0.1,0,0.1c0.2,0,0.3,0.1,0.5,0.1C32.7,13.6,32.9,13.7,33,13.6z"/>
		<path class="st24" d="M27.1,21c-0.2,0-0.1-0.2-0.1-0.3c0.2-0.3,0.4-0.6,0.7-0.8c0.1,0,0.2-0.1,0.2-0.1c0.1,0.1,0,0.2,0,0.2
			C27.7,20.5,27.5,20.8,27.1,21z"/>
		<path class="st24" d="M26.5,19.4c0,0.1,0.1,0.1,0,0.2c-0.5-0.1-0.9-0.3-1.2-0.9c0.4,0,0.7,0.2,1,0.4c0.1,0,0.1,0.2,0.2,0.1
			c0,0,0,0,0,0C26.4,19.3,26.5,19.3,26.5,19.4z"/>
		<path class="st25" d="M30.2,19.7c0.1,0.3,0,0.6-0.1,0.9c0,0,0,0,0,0c0-0.2,0-0.3-0.3-0.3c-0.4,0-0.9,0-1.3,0
			c-0.3,0-0.3,0.1-0.2,0.3c0,0,0,0,0,0c0-0.3-0.1-0.5-0.1-0.8c0-0.1,0-0.2,0-0.2c0,0,0,0,0,0c0.1,0.1,0.1,0.1,0.2,0.1
			C28.9,19.7,29.5,19.8,30.2,19.7C30.1,19.7,30.1,19.7,30.2,19.7z M29.2,19.8c-0.2,0-0.5,0-0.7,0c-0.1,0-0.3-0.1-0.3,0.1
			c0,0.2,0.1,0.3,0.3,0.3c0.2,0,0.4,0,0.6,0c0.3,0,0.5,0,0.8,0c0.2,0,0.3-0.1,0.3-0.3c0-0.2-0.2-0.1-0.3-0.2
			C29.6,19.8,29.4,19.8,29.2,19.8z"/>
		<path class="st24" d="M25.8,13.5c0,0-0.1,0.1-0.1,0c0,0,0,0,0,0c0,0,0,0,0,0c-0.3-0.3-0.2-0.7-0.2-1.1c0-0.1,0-0.2,0.1-0.2
			c0.1,0,0.1,0.1,0.1,0.1C25.9,12.7,26,13.1,25.8,13.5z"/>
		<path class="st24" d="M27.2,22.2c-0.1-0.1,0-0.2-0.1-0.3c0.1-0.4,0.4-0.6,0.7-0.8c0.1,0,0.2-0.1,0.2,0c0.1,0.1,0,0.2,0,0.2
			C27.9,21.8,27.7,22.1,27.2,22.2z"/>
		<path class="st24" d="M26.9,19.7c-0.2-0.1,0-0.2,0-0.3c0,0,0-0.1,0-0.1c0,0,0,0,0,0l0,0c0,0,0,0,0,0c0,0,0.1,0,0-0.1
			c0.1-0.2,0.3-0.4,0.6-0.6c0.1,0,0.1-0.1,0.2,0c0.1,0,0,0.1,0,0.2C27.5,19.2,27.3,19.5,26.9,19.7z"/>
		<path class="st26" d="M27.5,23.5c-0.1,0-0.2,0-0.2-0.2c0.2-0.4,0.4-0.7,0.8-0.9c0.1,0,0.1,0,0.1-0.1c0,0,0,0,0,0
			c0.2,0.1,0,0.2,0.1,0.3C28.2,23,27.9,23.3,27.5,23.5z"/>
		<path class="st24" d="M26.7,18.4c-0.1,0,0-0.1-0.1-0.2c0.1-0.3,0.3-0.6,0.6-0.8c0.1,0,0.2-0.1,0.2-0.1c0.1,0.1,0,0.2,0,0.2
			C27.2,18,27,18.3,26.7,18.4z"/>
		<path class="st24" d="M25.9,15.5c0,0.1,0.1,0.1,0.1,0.2c-0.5,0-0.8-0.3-1-0.7c0-0.1-0.1-0.1,0-0.2c0.1-0.1,0.1,0,0.2,0
			C25.4,15,25.7,15.1,25.9,15.5C25.9,15.4,25.9,15.4,25.9,15.5L25.9,15.5C25.9,15.5,25.9,15.5,25.9,15.5z"/>
		<path class="st16" d="M30.9,22.5c0.2-0.1,0.3-0.1,0.5,0.1c0.1,0.1,0.3,0.2,0.4,0.4c0,0,0,0.1-0.1,0.1c-0.3-0.1-0.6-0.1-0.9-0.2
			c-0.1,0-0.3,0.1-0.4-0.1C30.6,22.6,30.8,22.6,30.9,22.5z"/>
		<path class="st24" d="M26.1,16.7c0.1,0.1,0,0.2-0.1,0.2c0,0-0.1,0-0.1,0c0,0,0,0,0,0c-0.3-0.1-0.5-0.3-0.6-0.5
			c0-0.1-0.1-0.2-0.1-0.2c0.1-0.1,0.2,0,0.3,0C25.7,16.3,25.9,16.5,26.1,16.7z"/>
		<path class="st26" d="M26.3,18.1c0,0.1,0.1,0.2,0,0.2c0,0,0,0,0,0c-0.1-0.1-0.1,0-0.2,0c0,0-0.1,0-0.1,0c0,0,0,0,0,0
			c-0.3-0.1-0.5-0.3-0.7-0.5c0-0.1-0.1-0.1-0.1-0.2c0.1-0.1,0.1,0,0.2,0c0.3,0.1,0.5,0.3,0.7,0.5C26.2,18,26.3,18,26.3,18.1z"/>
		<path class="st25" d="M28.3,22.7c0-0.1,0.1-0.2-0.1-0.3c0-0.1,0.2-0.1,0.1-0.1c-0.1-0.2,0-0.4-0.1-0.6c0,0,0,0,0,0
			c0,0,0.1,0.1,0.1,0.1c0,0.1,0.1,0.1,0.2,0c0.3,0,0.6,0,1,0c0.1,0,0.1,0.1,0.2,0c0,0,0.1-0.1,0.1-0.1c0,0,0,0,0,0
			c0,0.2-0.1,0.5-0.1,0.7c0,0.1,0,0.2-0.1,0.3c0,0,0,0-0.1,0c0.1-0.3,0.1-0.3-0.2-0.3c-0.3,0-0.6,0-0.8,0c-0.3,0-0.3,0-0.2,0.3
			c0,0,0,0-0.1,0C28.4,22.7,28.4,22.7,28.3,22.7z M29.2,22.2C29.2,22.2,29.2,22.2,29.2,22.2c0.2,0,0.4,0,0.5,0
			c0.2,0,0.2-0.1,0.2-0.3c0-0.2-0.1-0.1-0.2-0.1c-0.3,0-0.7,0-1,0c-0.1,0-0.2-0.1-0.2,0.1c0,0.1,0.1,0.3,0.2,0.3
			C28.8,22.2,29,22.2,29.2,22.2z"/>
		<path class="st24" d="M26.5,17.1c-0.1-0.1,0-0.2,0-0.3c0.1-0.3,0.3-0.6,0.6-0.7c0,0,0.1-0.1,0.1,0c0,0,0,0.1,0,0.1
			C27.1,16.6,26.9,16.9,26.5,17.1z"/>
		<path class="st22" d="M29.7,24.5C29.7,24.5,29.6,24.6,29.7,24.5c-0.1,0.1-0.1,0.1-0.1,0.1c-0.3,0-0.5,0-0.8,0c0,0,0,0,0,0
			c0,0-0.1-0.1-0.1-0.1c0-0.2,0-0.3,0-0.5c0.3,0.2,0.6,0.1,0.9,0.1c0.1,0,0.1-0.2,0.1-0.3c0-0.1-0.1-0.1-0.2-0.1c-0.2,0-0.4,0-0.6,0
			c-0.2,0-0.3,0.1-0.3,0.3c-0.2-0.1-0.1-0.3-0.1-0.5c0-0.3-0.1-0.5-0.1-0.8c0,0,0,0.1,0,0.1c0,0.1,0,0.3,0.2,0.3c0,0,0,0.1,0,0.1
			c-0.1,0-0.1,0.1-0.1,0.2c0,0.1,0.1,0.2,0.2,0.2c0.2,0,0.5,0,0.7,0c0.1,0,0.2-0.1,0.2-0.2c0-0.1,0.1-0.2-0.1-0.2c0,0,0-0.1,0-0.1
			c0.1-0.1,0.2-0.2,0.2-0.3c0,0,0-0.1,0-0.1c0.1,0.2,0,0.4,0,0.7C29.8,23.8,29.7,24.1,29.7,24.5z M29.2,24.2c-0.1,0-0.2,0-0.3,0
			c-0.1,0-0.2-0.1-0.2,0.1c0,0.1,0,0.2,0.2,0.3c0.2,0,0.4,0,0.5,0c0.2,0,0.2-0.1,0.2-0.3c0-0.2-0.1-0.1-0.2-0.1
			C29.3,24.2,29.3,24.2,29.2,24.2z"/>
		<path class="st16" d="M31.1,21.3c0.2-0.1,0.4,0,0.5,0.1c0.1,0.1,0.3,0.2,0.3,0.4c0,0,0,0.1-0.1,0.1c-0.3-0.1-0.6-0.1-0.9-0.2
			c-0.1,0-0.3,0-0.4-0.1C30.8,21.4,31,21.4,31.1,21.3z"/>
		<path class="st24" d="M25.7,14.2c0,0.1,0.1,0.2-0.1,0.2c-0.4-0.1-0.7-0.4-0.8-0.9C25.2,13.6,25.5,13.8,25.7,14.2z"/>
		<path class="st16" d="M31.3,20.1c0.2-0.1,0.3-0.1,0.5,0.1c0.1,0.2,0.3,0.2,0.4,0.4c-0.1,0.1-0.3,0-0.4,0c-0.3-0.1-0.6-0.1-0.9-0.1
			c0,0,0-0.1,0-0.1c0,0,0,0,0,0c0,0,0.1,0,0.1-0.1c0,0,0,0,0,0c0.1,0,0.1,0,0.2-0.1c0,0,0,0,0,0c0.1,0,0.1,0,0.2-0.1
			C31.2,20.2,31.3,20.2,31.3,20.1z"/>
		<path class="st24" d="M26.3,15.8c-0.1-0.1,0-0.1,0-0.2c0.1-0.4,0.3-0.7,0.7-0.8C27,15.2,26.7,15.6,26.3,15.8z"/>
		<path class="st16" d="M31.5,19c0.2,0,0.3,0,0.5,0.2c0.1,0.1,0.3,0.2,0.3,0.4c-0.1,0.1-0.2,0-0.3,0c-0.3,0-0.6-0.1-0.9-0.1
			c0,0,0,0,0-0.1C31.1,19.1,31.4,19.2,31.5,19z"/>
		<path class="st22" d="M30.2,19.7C30.1,19.7,30.1,19.7,30.2,19.7c0-0.1,0-0.1,0-0.2c0-0.1,0-0.2-0.2-0.2c-0.6,0-1.2,0-1.8,0
			c0,0-0.1,0-0.1,0.1c0,0,0,0-0.1,0c0-0.2-0.1-0.5-0.1-0.7c0,0,0,0,0,0c0.1,0.1,0.2,0.1,0.3,0.1c0.5,0,1,0,1.6,0
			c0.1,0,0.2,0,0.3-0.1c0,0,0,0,0,0c-0.1,0.1,0,0.2,0,0.3c0,0.1,0,0.2-0.1,0.2c0-0.4,0-0.4-0.3-0.4c-0.5,0-1,0-1.5,0
			c-0.1,0-0.3-0.1-0.3,0.1c0,0.1,0,0.3,0.2,0.3c0.6,0.1,1.2,0.1,1.8,0c0.1,0,0.1-0.1,0.2-0.1C30.2,19.3,30.3,19.5,30.2,19.7z"/>
		<path class="st22" d="M28.2,26.2c0.2,0.2,0.4,0.3,0.6,0.3c0.2,0,0.5,0,0.7,0c0.3,0,0.5,0,0.6-0.3c0,0,0,0,0,0
			c0,0.1-0.1,0.1-0.1,0.2c0.2,0,0.4,0,0.7,0.1c0,0,0.1,0,0.1,0.1c0,0-0.1,0-0.1,0c0,0-0.1,0-0.1,0c-1-0.1-1.9,0-2.9-0.1
			c0.2-0.1,0.3,0,0.5-0.1C28.2,26.4,28.2,26.3,28.2,26.2C28.1,26.3,28.2,26.3,28.2,26.2z"/>
		<path class="st16" d="M27.2,28.9c1.3-0.1,2.6-0.1,3.9,0c0,0,0,0,0,0C29.8,28.9,28.5,28.9,27.2,28.9C27.2,28.9,27.2,28.9,27.2,28.9
			z"/>
		<path class="st16" d="M32.4,18.4c-0.1,0.2-0.2,0-0.2,0c-0.3,0-0.7-0.1-1-0.2c0.1-0.2,0.3-0.2,0.4-0.3c0.2-0.1,0.4-0.1,0.5,0.1
			C32.3,18.2,32.3,18.3,32.4,18.4z"/>
		<path class="st16" d="M32.4,13c-0.1-0.2,0-0.4,0.1-0.6c0-0.1,0.1-0.2,0.2-0.1c0.1,0,0.1,0.1,0.1,0.2c0.1,0.2,0,0.4-0.1,0.6
			C32.6,13.2,32.5,13.2,32.4,13C32.4,13.1,32.4,13.1,32.4,13C32.4,13,32.4,13,32.4,13z"/>
		<path class="st24" d="M26.2,14.5C26.1,14.5,26,14.6,26.2,14.5c-0.1-0.1-0.1-0.2-0.1-0.2c0,0,0,0,0,0c0,0,0-0.1,0-0.1c0,0,0,0,0,0
			c0,0,0.1,0,0-0.1c0.1-0.2,0.2-0.3,0.3-0.4c0.1-0.1,0.1-0.1,0.2-0.1c0.1,0.1,0,0.2,0,0.2C26.6,14.1,26.4,14.4,26.2,14.5z"/>
		<path class="st16" d="M31.8,17c0.2-0.1,0.3-0.1,0.5,0.1c0.1,0.1,0.3,0.2,0.3,0.3c-0.1,0.2-0.2,0-0.3,0c-0.3,0-0.6-0.1-0.9-0.1
			c0,0,0,0,0-0.1c0,0,0,0,0.1-0.1c0,0,0,0,0,0C31.6,17.1,31.7,17,31.8,17z"/>
		<path class="st16" d="M31.9,15.9c0.2,0,0.3,0,0.5,0.1c0.1,0.1,0.2,0.2,0.3,0.3c-0.1,0.2-0.2,0-0.3,0c-0.3,0-0.5-0.1-0.8-0.1
			c0,0,0-0.1,0-0.1C31.6,16.1,31.8,16.1,31.9,15.9z"/>
		<path class="st16" d="M32.8,15.5c-0.4-0.1-0.7-0.1-1.1-0.2c-0.1,0-0.1,0,0-0.1c0.1-0.1,0.3-0.1,0.4-0.2c0.2-0.1,0.4,0,0.5,0.2
			C32.7,15.3,32.8,15.4,32.8,15.5z"/>
		<path class="st22" d="M28.2,12.5c0.2-0.2,0.5-0.2,0.7-0.3c0-0.3-0.2-0.6,0.1-0.8c-0.1,0.2-0.1,0.4,0,0.7c0,0.1,0,0.1,0.1,0.1
			c0.1,0,0.1,0,0.1-0.1c0.1-0.2,0.1-0.5,0-0.7c0.2,0.1,0.2,0.3,0.2,0.5c0,0.1,0,0.2-0.1,0.3c0.3,0,0.5,0.1,0.8,0.3c0,0,0,0,0,0
			C29.5,12.2,28.9,12.2,28.2,12.5C28.2,12.5,28.2,12.5,28.2,12.5z"/>
		<path class="st25" d="M30.1,20.7c0,0.3,0,0.5-0.1,0.8c0,0.1,0,0.2-0.1,0.2c0,0,0,0,0,0c0.1-0.2,0-0.3-0.2-0.3c-0.4,0-0.7,0-1.1,0
			c-0.2,0-0.3,0.1-0.2,0.3c0,0,0,0,0,0c-0.1-0.1,0-0.3,0-0.4c0,0,0,0,0,0c0.5,0.1,1,0.1,1.5,0c0.2,0,0.2-0.3,0-0.4c0,0,0,0,0-0.1
			C30,20.7,30,20.7,30.1,20.7C30.1,20.6,30.1,20.6,30.1,20.7z"/>
		<path class="st16" d="M32.2,14.1c0.2-0.1,0.3,0,0.4,0.1c0.1,0.1,0.2,0.2,0.3,0.3c-0.3,0-0.6,0-0.8-0.1c-0.1,0-0.2,0.1-0.2-0.1
			C32,14.3,32.1,14.2,32.2,14.1z"/>
		<path class="st16" d="M33,13.6c-0.2,0.1-0.3,0-0.5,0c-0.2,0-0.3-0.1-0.5-0.1c0,0,0,0,0-0.1c0.1,0,0.1-0.2,0.3-0.2
			c0.1,0,0.1,0,0.1,0l0,0c0.1,0,0.3,0,0.4,0.1c0,0,0,0,0,0c0,0.1,0,0.1,0.1,0.1c0,0,0,0,0,0c0,0,0.1,0.1,0.1,0.1
			C33,13.5,33,13.6,33,13.6z"/>
		<path class="st22" d="M27.7,15.8c0.2,0.1,0.3,0.1,0.5,0.1c0.6,0,1.3,0,1.9,0c0.2,0,0.3,0,0.5-0.1c0,0.2,0.1,0.4,0,0.6c0,0,0,0,0,0
			c0-0.4,0-0.4-0.3-0.4c-0.7,0-1.4,0-2.1,0c-0.3,0-0.4,0-0.3,0.4c0,0,0,0,0,0C27.6,16.2,27.8,16,27.7,15.8z"/>
		<path class="st21" d="M29.2,11.5c0.1,0.2,0.1,0.4,0,0.7c0,0.1,0,0.1-0.1,0.1c-0.1,0-0.1,0-0.1-0.1c-0.1-0.2-0.1-0.5,0-0.7
			c0,0,0,0,0,0C29.1,11.5,29.2,11.5,29.2,11.5C29.2,11.5,29.2,11.5,29.2,11.5z"/>
		<path class="st27" d="M27.6,13.6C27.6,13.6,27.6,13.5,27.6,13.6c0.1-0.1,0.1-0.1,0.2-0.1c0.2,0.2,0.4,0,0.5,0.1c0,0,0.1,0,0.1,0
			c0,0,0,0,0.1,0c0,0,0.1,0,0.1,0c0.2,0,0.3,0,0.5,0c0.1,0,0.2,0,0.2,0c0.2,0,0.3,0,0.5,0c0,0,0.1,0,0.1,0c0,0,0,0,0.1,0
			c0,0,0.1,0,0.1,0c0.1,0,0.2,0,0.3,0c0.1,0,0.2,0,0.2-0.1c0,0,0,0,0.1,0c0,0,0.1,0,0.1,0.1c0,0,0,0.1,0,0.1c0,0-0.1,0-0.1,0
			c-1,0-2,0-3,0C27.6,13.6,27.6,13.6,27.6,13.6z"/>
		<path class="st27" d="M30.8,14.3C30.8,14.4,30.7,14.4,30.8,14.3c-0.1,0.1-0.1,0.1-0.2,0.1c-0.2-0.1-0.4,0-0.5,0c0,0-0.1,0-0.1,0
			c0,0,0,0-0.1,0c0,0-0.1,0-0.1,0c-0.2,0-0.3,0-0.5,0c-0.1,0-0.2,0-0.2,0c-0.2,0-0.3,0-0.5,0c0,0-0.1,0-0.1,0c0,0,0,0-0.1,0
			c0,0-0.1,0-0.1,0c-0.2,0-0.4-0.1-0.5,0.1c0,0-0.1,0-0.1,0c0,0,0-0.1,0-0.1c0,0,0.1,0,0.1,0c1,0,2,0,3,0
			C30.7,14.3,30.7,14.3,30.8,14.3z"/>
		<path class="st26" d="M29.3,26.4c-0.1,0-0.2,0-0.4,0c0-0.1-0.1-0.2-0.1-0.2c0-0.1,0-0.1,0-0.2c0.2,0,0.3,0,0.5,0
			C29.5,26.1,29.4,26.2,29.3,26.4C29.3,26.3,29.3,26.4,29.3,26.4z"/>
		<path class="st16" d="M27.2,28.9C27.2,28.9,27.2,28.9,27.2,28.9c-0.7,0.1-1.5,0.2-2.1,0.5c0,0-0.1,0-0.2,0c0.5-0.3,1-0.4,1.5-0.5
			C26.6,28.9,26.9,28.9,27.2,28.9z"/>
		<path class="st22" d="M29.6,24.6c0,0,0.1,0.1,0.1,0.1c-0.1,0.1-0.2,0.3-0.1,0.4c0,0.1,0,0.2-0.1,0.2c0,0,0,0,0,0
			c0-0.2,0-0.3-0.2-0.3c-0.1,0-0.2,0-0.3,0c-0.2,0-0.3,0.1-0.2,0.3c0,0,0,0,0,0c-0.1-0.1,0-0.3-0.1-0.4c0-0.1,0-0.2-0.1-0.3
			c0,0,0.1-0.1,0.1-0.1c0,0,0,0,0,0c0,0.3,0,0.4,0.4,0.4C29.6,25,29.6,25,29.6,24.6C29.6,24.6,29.6,24.6,29.6,24.6z"/>
		<path class="st22" d="M27.2,25.1c0.1,0,0.2,0.1,0.4,0.1c0.3,0,0.4,0.2,0.5,0.5c0,0.2,0.1,0.4,0.2,0.6c0,0,0,0,0,0
			C28,26.2,28,26,27.9,25.9c0-0.1,0-0.2-0.1-0.2c0,0-0.1,0-0.1-0.1c0.1,0,0.2-0.1,0.1-0.2c0-0.1-0.1-0.1-0.2-0.1
			C27.4,25.3,27.3,25.2,27.2,25.1C27.1,25.1,27.2,25.1,27.2,25.1z"/>
		<path class="st22" d="M30.1,26.2c0.2-0.2,0.2-0.5,0.2-0.8c0-0.2,0.1-0.2,0.3-0.2c0.2,0,0.3-0.1,0.5-0.1c0,0,0,0,0,0
			c-0.1,0.1-0.3,0.1-0.5,0.2c-0.1,0-0.2,0-0.2,0.1c0,0.1,0,0.2,0.1,0.2c0,0.1-0.1,0-0.1,0.1c-0.1,0-0.1,0.1-0.1,0.2
			C30.4,26,30.3,26.2,30.1,26.2C30.2,26.3,30.2,26.3,30.1,26.2z"/>
		<path class="st22" d="M30.5,16.4c0,0,0,0.1,0,0.1c0,0,0,0,0,0c-0.2-0.1-0.4-0.1-0.5-0.1c-0.7,0-1.4,0-2.1,0c0,0,0,0,0,0
			c0,0,0-0.1,0-0.1c0,0,0,0,0,0c0.1,0.1,0.2,0.1,0.3,0.1c0.7,0,1.4,0,2,0C30.3,16.5,30.4,16.4,30.5,16.4
			C30.5,16.4,30.5,16.4,30.5,16.4z"/>
		<path class="st16" d="M31.1,28.9C31.1,28.9,31.1,28.9,31.1,28.9c0.7,0,1.3,0,1.9,0.3c-0.3,0-0.5-0.1-0.7-0.2
			C31.9,29,31.5,29,31.1,28.9z"/>
		<path class="st22" d="M29.3,26.4C29.3,26.4,29.3,26.3,29.3,26.4c0.1-0.2,0.2-0.3,0.1-0.4c-0.1-0.1-0.3,0-0.5,0
			c-0.1,0-0.1,0.1,0,0.2c0,0.1,0.1,0.2,0.1,0.2c-0.3-0.1-0.1-0.4-0.2-0.6c0,0,0,0,0,0c0.2,0.2,0.4,0.2,0.6,0c0,0,0,0,0,0
			C29.5,26,29.6,26.3,29.3,26.4z"/>
		<path class="st25" d="M28.5,22.9C28.5,22.8,28.5,22.8,28.5,22.9C28.5,22.8,28.5,22.8,28.5,22.9c0-0.1,0-0.1,0.1-0.2
			c0.4,0,0.8,0,1.2,0c0,0,0,0,0.1,0.1c0,0,0,0,0,0c0,0,0,0.1,0,0.1C29.4,22.8,28.9,22.8,28.5,22.9z"/>
		<path class="st22" d="M30,14.4c0,0,0.1,0,0.1,0c0.2,0.3,0.2,0.3,0.5,0.1c0,0,0,0,0,0c0,0,0.1,0,0.1,0c0,0.2-0.1,0.4-0.2,0.6
			c0,0,0,0,0,0c0.1-0.2,0.2-0.3,0.2-0.5C30.3,14.8,30.3,14.8,30,14.4C30,14.5,30,14.5,30,14.4z"/>
		<path class="st22" d="M28.8,25.8c-0.1-0.1,0-0.3,0-0.4c0,0,0,0,0,0c0.2,0.2,0.5,0.2,0.7,0c0,0,0,0,0,0c-0.1,0.1,0.1,0.3,0,0.4
			c0,0,0,0,0,0c0.1-0.3-0.1-0.3-0.3-0.3C29,25.5,28.8,25.5,28.8,25.8C28.8,25.8,28.8,25.8,28.8,25.8z"/>
		<path class="st22" d="M27.9,17.5c0.1,0,0.1,0,0.1,0.1c0,0,0,0,0,0.1c-0.2,0.2-0.1,0.4,0.1,0.5c0,0,0,0.1,0,0.1
			c-0.1,0-0.1,0.1-0.1,0.1c0,0,0,0,0,0c0-0.1,0-0.1,0-0.2C27.8,17.9,27.9,17.7,27.9,17.5z"/>
		<path class="st22" d="M30.3,17.6c0,0,0.1-0.1,0.1-0.1c0.1,0.3,0,0.5,0,0.7c0,0,0,0,0,0c0,0-0.1-0.1-0.1-0.1c0,0,0,0,0-0.1
			C30.4,18,30.5,17.8,30.3,17.6C30.3,17.6,30.3,17.6,30.3,17.6z"/>
		<path class="st22" d="M31.9,24c0,0,0,0.1,0,0.1c-0.1-0.1-0.1-0.2-0.1-0.3c0-0.1-0.1,0-0.1,0c0,0,0,0-0.1,0c0-0.1,0.1-0.2,0.2-0.2
			C31.8,23.7,31.8,23.9,31.9,24z"/>
		<path class="st22" d="M27.6,14.4c0,0,0.1,0,0.1,0c0,0,0,0,0,0c-0.1,0.2,0.1,0.4,0.1,0.5c0,0,0,0,0,0
			C27.6,14.9,27.6,14.7,27.6,14.4z"/>
		<path class="st22" d="M27.7,13.4c0,0-0.1,0-0.1,0c0-0.2,0.1-0.4,0.2-0.6c0,0,0,0,0,0C27.8,13.1,27.6,13.2,27.7,13.4
			C27.7,13.4,27.7,13.4,27.7,13.4z"/>
		<path class="st22" d="M30.7,13.5C30.7,13.5,30.7,13.5,30.7,13.5c-0.1-0.3-0.2-0.4-0.3-0.6c0,0,0,0,0,0
			C30.7,13,30.8,13.3,30.7,13.5z"/>
		<path class="st22" d="M30.9,13.7c0.2,0.2,0.2,0.4,0,0.6c0,0,0,0,0,0C31,14,31,13.9,30.9,13.7C30.9,13.7,30.9,13.7,30.9,13.7z"/>
		<path class="st22" d="M27.4,14.3c-0.2-0.2-0.2-0.4,0-0.6c0,0,0,0,0,0C27.4,13.9,27.4,14,27.4,14.3C27.5,14.2,27.4,14.2,27.4,14.3z
			"/>
		<path class="st16" d="M23.4,29.1c0.1,0.2,0.3,0.5,0.2,0.8C23.6,29.6,23.4,29.4,23.4,29.1z"/>
		<path class="st16" d="M34.8,29.9c-0.1-0.3,0-0.5,0.2-0.7C34.8,29.4,34.7,29.7,34.8,29.9z"/>
		<path class="st25" d="M28.3,21.2c-0.2-0.2,0-0.4-0.1-0.6c0,0,0,0,0,0c0.1,0.1,0.1,0.1,0.2,0.2c0,0,0,0,0,0.1
			C28.2,20.9,28.3,21.1,28.3,21.2C28.4,21.2,28.3,21.2,28.3,21.2z"/>
		<path class="st28" d="M32.8,13.3c-0.1-0.1-0.2-0.1-0.4-0.1c0-0.1,0-0.1,0-0.2c0.1,0.1,0.2,0.2,0.4,0
			C32.8,13.2,32.8,13.2,32.8,13.3z"/>
		<path class="st22" d="M27.9,17c-0.1-0.1-0.2-0.3,0-0.5c0,0,0,0,0,0C27.8,16.7,27.8,16.8,27.9,17C27.9,16.9,27.9,17,27.9,17z"/>
		<path class="st22" d="M31.2,25.1c0.1-0.1,0.2-0.2,0.3-0.3c0,0,0,0,0,0C31.4,25,31.3,25.1,31.2,25.1C31.2,25.1,31.2,25.1,31.2,25.1
			z"/>
		<path class="st22" d="M30.5,16.6c0.1,0.2,0.1,0.3-0.1,0.4c0,0,0,0,0,0C30.5,16.8,30.5,16.7,30.5,16.6
			C30.5,16.6,30.5,16.6,30.5,16.6z"/>
		<path class="st16" d="M33.1,29.3c0.1,0,0.3,0.1,0.4,0.2C33.3,29.4,33.1,29.4,33.1,29.3z"/>
		<path class="st22" d="M32.2,23.8c0.1-0.1,0.1-0.2,0.2-0.3c0,0,0,0,0,0C32.4,23.7,32.3,23.8,32.2,23.8
			C32.2,23.8,32.2,23.8,32.2,23.8z"/>
		<path class="st16" d="M33.6,29.5c0.1,0,0.2,0.1,0.3,0.2C33.8,29.7,33.7,29.6,33.6,29.5z"/>
		<path class="st22" d="M27.9,17.1c0,0.1,0,0.3,0.1,0.4C27.8,17.4,27.8,17.3,27.9,17.1z"/>
		<path class="st22" d="M30.4,17.5c0-0.1,0-0.3,0.1-0.4C30.5,17.3,30.5,17.4,30.4,17.5z"/>
		<path class="st25" d="M28.1,19.3C28.1,19.3,28.1,19.3,28.1,19.3c0.1,0.1,0.1,0.2,0.1,0.3c0,0,0,0,0,0C28,19.5,28,19.4,28.1,19.3z"
			/>
		<path class="st22" d="M27.7,15.4c0,0.1,0,0.2,0.1,0.3C27.6,15.7,27.6,15.6,27.7,15.4z"/>
		<path class="st22" d="M30.6,15.8c0-0.1,0-0.2,0.1-0.3C30.7,15.6,30.7,15.7,30.6,15.8z"/>
		<path class="st22" d="M30.4,18.3c0.1,0.1,0,0.2-0.1,0.4c0,0,0,0,0,0C30.3,18.5,30.3,18.4,30.4,18.3C30.3,18.3,30.3,18.3,30.4,18.3
			z"/>
		<path class="st25" d="M30.8,20.4C30.8,20.4,30.8,20.5,30.8,20.4c-0.1,0.2,0,0.2-0.1,0.3C30.7,20.6,30.7,20.5,30.8,20.4z"/>
		<path class="st25" d="M35.1,28.8c0-0.1,0-0.2,0.2-0.2C35.3,28.7,35.2,28.8,35.1,28.8z"/>
		<path class="st22" d="M27.9,15.2c0,0-0.1,0-0.1,0c0-0.1,0-0.1,0-0.2c0,0,0,0,0,0c0,0,0.1,0.1,0.1,0.1
			C27.9,15.2,27.9,15.2,27.9,15.2z"/>
		<path class="st22" d="M30.5,15.2c0,0-0.1,0-0.1,0c0,0,0-0.1,0-0.1c0,0,0.1-0.1,0.1-0.1c0,0,0,0,0,0C30.5,15.1,30.5,15.2,30.5,15.2
			z"/>
		<path class="st16" d="M23,28.6c0.1,0,0.1,0.1,0.2,0.2C23.1,28.8,23,28.7,23,28.6z"/>
		<path class="st22" d="M30.8,14.3c0,0-0.1,0-0.1,0c0.1,0,0.1-0.1,0.2-0.1c0,0,0,0,0,0C30.9,14.3,30.8,14.3,30.8,14.3z"/>
		<path class="st22" d="M28,17.1c0,0-0.1,0-0.1,0.1c0-0.1,0-0.1,0-0.2c0,0,0,0,0,0C27.9,17,28,17,28,17.1C28,17,28,17.1,28,17.1z"/>
		<path class="st22" d="M30.4,17.1c0,0-0.1,0-0.1-0.1c0,0,0,0-0.1-0.1c0,0,0.1-0.1,0.1-0.1c0,0,0,0,0,0C30.5,17,30.4,17.1,30.4,17.1
			z"/>
		<path class="st16" d="M22.9,28.3c0,0.1,0,0.1,0,0.2C22.7,28.4,22.7,28.4,22.9,28.3z"/>
		<path class="st25" d="M35.4,28.5c0-0.1,0-0.1,0-0.2C35.6,28.4,35.6,28.4,35.4,28.5z"/>
		<path class="st22" d="M27.7,14.3c0,0-0.1,0-0.1,0c-0.1,0-0.1,0-0.1-0.1c0,0,0,0,0,0C27.5,14.3,27.6,14.3,27.7,14.3z"/>
		<path class="st22" d="M23.5,27.3c0.1,0,0.1,0,0.2,0.1C23.6,27.4,23.5,27.4,23.5,27.3z"/>
		<path class="st22" d="M34.7,27.4c0-0.1,0.1-0.1,0.2-0.1C34.8,27.4,34.7,27.4,34.7,27.4z"/>
		<path class="st22" d="M28.1,12.6c0.1,0,0.1-0.1,0.2-0.1c0,0,0,0,0,0C28.2,12.6,28.2,12.6,28.1,12.6C28.1,12.6,28.1,12.6,28.1,12.6
			z"/>
		<path class="st22" d="M34.9,27.2c0-0.1,0-0.1,0.1-0.2C35,27.1,35,27.2,34.9,27.2z"/>
		<path class="st22" d="M30.1,12.5c0.1,0,0.1,0.1,0.2,0.1c0,0,0,0,0,0C30.2,12.6,30.1,12.6,30.1,12.5C30.1,12.5,30.1,12.5,30.1,12.5
			z"/>
		<path class="st22" d="M32.1,24.1C32,24.2,32,24.1,32,24c0,0,0,0,0,0C32,24,32,24,32.1,24.1C32.1,24.1,32.1,24.1,32.1,24.1z"/>
		<path class="st19" d="M26.1,18.2c0.1,0,0.1,0,0.2,0C26.2,18.3,26.1,18.3,26.1,18.2z"/>
		<path class="st25" d="M31,20.3c0,0.1-0.1,0.1-0.2,0.1C30.9,20.3,31,20.3,31,20.3z"/>
		<path class="st22" d="M28,18.5c0-0.1-0.1-0.2,0-0.2c0,0,0,0,0,0C28,18.4,28,18.4,28,18.5C28,18.5,28,18.5,28,18.5z"/>
		<path class="st22" d="M26.3,24c0,0.1-0.1,0.2-0.2,0.1C26.2,24.1,26.2,24.1,26.3,24C26.3,24,26.3,24,26.3,24
			C26.3,24,26.3,24,26.3,24z"/>
		<path class="st22" d="M27.6,13.6c0,0,0.1,0,0.1,0C27.6,13.6,27.6,13.6,27.6,13.6C27.5,13.6,27.5,13.6,27.6,13.6
			C27.5,13.6,27.5,13.6,27.6,13.6z"/>
		<path class="st22" d="M30.6,13.6c0,0,0.1,0,0.1,0c0,0,0,0,0.1,0c0,0,0,0,0,0C30.7,13.6,30.7,13.6,30.6,13.6z"/>
		<path class="st22" d="M27.8,15.2c0,0.1,0,0.1-0.1,0.1C27.7,15.3,27.7,15.2,27.8,15.2z"/>
		<path class="st22" d="M30.6,15.3c-0.1,0-0.1-0.1-0.1-0.1C30.6,15.2,30.6,15.3,30.6,15.3z"/>
		<path class="st22" d="M34.8,30.1c0-0.1,0-0.1,0-0.2C34.8,29.9,34.8,30,34.8,30.1z"/>
		<path class="st16" d="M23.6,29.9c0,0.1,0,0.1,0,0.2C23.5,30,23.5,30,23.6,29.9z"/>
		<path class="st19" d="M26.6,22.1c0.1,0,0.1,0,0.1,0C26.6,22.1,26.6,22.1,26.6,22.1z"/>
		<path class="st25" d="M33.9,29.7c0.1,0,0.1,0.1,0.1,0.1C34,29.8,33.9,29.8,33.9,29.7z"/>
		<path class="st25" d="M31.2,20.2c0,0.1-0.1,0.1-0.2,0.1C31.1,20.2,31.1,20.2,31.2,20.2z"/>
		<path class="st25" d="M24.6,29.6c0,0,0.1-0.1,0.1,0C24.7,29.6,24.7,29.6,24.6,29.6z"/>
		<path class="st22" d="M29.2,11.5c0,0-0.1,0-0.1,0C29.1,11.4,29.1,11.4,29.2,11.5C29.2,11.4,29.2,11.4,29.2,11.5z"/>
		<path class="st19" d="M26.7,23.3C26.7,23.3,26.8,23.3,26.7,23.3C26.8,23.4,26.7,23.4,26.7,23.3z"/>
		<path class="st28" d="M32.4,13.2c0,0-0.1,0.1-0.1,0C32.3,13.2,32.4,13.2,32.4,13.2z"/>
		<path class="st22" d="M30.4,12.8C30.5,12.8,30.5,12.8,30.4,12.8c0.1,0.1,0,0.1,0,0.1C30.5,12.9,30.4,12.8,30.4,12.8
			C30.4,12.8,30.4,12.8,30.4,12.8z"/>
		<path class="st22" d="M27.8,12.9C27.8,12.8,27.8,12.8,27.8,12.9c0.1-0.1,0.1-0.1,0.1,0C27.9,12.8,27.9,12.9,27.8,12.9
			C27.8,12.9,27.8,12.9,27.8,12.9z"/>
		<path class="st22" d="M23.9,27.6c0,0-0.1,0-0.1,0.1C23.8,27.6,23.8,27.6,23.9,27.6z"/>
		<path class="st22" d="M30.3,12.6C30.3,12.6,30.3,12.6,30.3,12.6c0.1,0.1,0.1,0.1,0,0.1C30.3,12.7,30.2,12.7,30.3,12.6
			C30.2,12.6,30.2,12.6,30.3,12.6z"/>
		<path class="st25" d="M28.3,22.4c0,0.1-0.1,0.1-0.1,0.1C28.2,22.4,28.2,22.4,28.3,22.4z"/>
		<path class="st22" d="M34.5,27.7c0,0-0.1,0-0.1-0.1C34.5,27.6,34.5,27.6,34.5,27.7z"/>
		<path class="st22" d="M26.1,23.8C26.2,23.8,26.2,23.9,26.1,23.8c0.1,0.1,0,0.1,0,0.1C26.1,23.9,26.1,23.9,26.1,23.8
			C26.1,23.8,26.1,23.8,26.1,23.8z"/>
		<path class="st22" d="M28,12.7C28,12.6,28,12.6,28,12.7c0.1-0.1,0.1-0.1,0.1,0C28.1,12.7,28,12.7,28,12.7C28,12.7,28,12.7,28,12.7
			z"/>
		<path class="st22" d="M32.1,23.9C32.1,23.9,32.2,23.8,32.1,23.9c0.1-0.1,0.1-0.1,0.1,0C32.2,23.9,32.2,23.9,32.1,23.9
			C32.1,23.9,32.1,23.9,32.1,23.9z"/>
		<path class="st22" d="M23.3,27c0,0,0.1,0.1,0.1,0.1C23.3,27.1,23.3,27.1,23.3,27z"/>
		<path class="st16" d="M23.1,28.1c0,0.1-0.1,0.1-0.1,0.1C23,28.1,23,28.1,23.1,28.1z"/>
		<path class="st16" d="M22.9,28.6c0,0,0.1,0,0.1,0.1C23,28.6,22.9,28.6,22.9,28.6z"/>
		<path class="st25" d="M35.3,28.6c0,0,0.1-0.1,0.1-0.1C35.4,28.6,35.3,28.6,35.3,28.6z"/>
		<path class="st19" d="M26.9,19.2C26.9,19.2,26.9,19.3,26.9,19.2C26.9,19.2,26.9,19.2,26.9,19.2z"/>
		<path class="st22" d="M28,18.6c0,0,0-0.1-0.1-0.1c0,0,0,0,0,0C28,18.5,28,18.5,28,18.6C28,18.6,28,18.6,28,18.6z"/>
		<path class="st25" d="M33.4,29.4c0,0,0.1,0,0.1,0.1C33.5,29.5,33.4,29.5,33.4,29.4z"/>
		<path class="st19" d="M26.2,14C26.2,14.1,26.2,14.1,26.2,14C26.1,14.1,26.1,14,26.2,14z"/>
		<path class="st22" d="M30.6,16.3C30.5,16.4,30.5,16.4,30.6,16.3c-0.1,0.1-0.1,0.1-0.1,0C30.5,16.4,30.5,16.3,30.6,16.3
			C30.5,16.3,30.6,16.3,30.6,16.3z"/>
		<path class="st22" d="M27.8,16.4C27.8,16.4,27.8,16.4,27.8,16.4c-0.1-0.1,0-0.1,0-0.1C27.8,16.3,27.8,16.4,27.8,16.4
			C27.8,16.4,27.8,16.4,27.8,16.4z"/>
		<path class="st19" d="M26.1,14.1C26.1,14.2,26.1,14.2,26.1,14.1C26.1,14.2,26.1,14.2,26.1,14.1z"/>
		<path class="st22" d="M23.3,27.1C23.4,27.1,23.4,27.1,23.3,27.1C23.4,27.2,23.3,27.2,23.3,27.1z"/>
		<path class="st22" d="M23.4,27.2C23.4,27.2,23.5,27.2,23.4,27.2C23.4,27.3,23.4,27.2,23.4,27.2z"/>
		<path class="st22" d="M34.9,27.2C34.9,27.2,34.9,27.2,34.9,27.2C34.9,27.2,34.9,27.3,34.9,27.2z"/>
		<path class="st22" d="M23.5,27.2C23.5,27.2,23.5,27.3,23.5,27.2C23.5,27.3,23.4,27.3,23.5,27.2z"/>
		<path class="st22" d="M34.8,27.3C34.8,27.3,34.8,27.2,34.8,27.3C34.9,27.3,34.9,27.3,34.8,27.3z"/>
		<path class="st22" d="M29.8,22.8C29.8,22.7,29.8,22.7,29.8,22.8C29.8,22.7,29.8,22.7,29.8,22.8C29.8,22.7,29.8,22.7,29.8,22.8
			C29.8,22.7,29.8,22.7,29.8,22.8z"/>
		<path class="st22" d="M29.8,22.7C29.8,22.7,29.8,22.7,29.8,22.7C29.8,22.7,29.8,22.7,29.8,22.7C29.8,22.7,29.8,22.7,29.8,22.7
			C29.8,22.7,29.8,22.7,29.8,22.7z"/>
		<path class="st22" d="M26.2,23.9C26.2,23.9,26.2,23.9,26.2,23.9C26.2,24,26.2,24,26.2,23.9C26.2,24,26.2,24,26.2,23.9
			C26.2,23.9,26.2,23.9,26.2,23.9z"/>
		<path class="st16" d="M22.9,28.3C22.9,28.3,22.9,28.3,22.9,28.3C22.9,28.3,22.9,28.2,22.9,28.3z"/>
		<path class="st25" d="M35.4,28.3C35.4,28.3,35.3,28.2,35.4,28.3C35.4,28.2,35.4,28.2,35.4,28.3z"/>
		<path class="st25" d="M35.1,28.9C35.1,28.9,35.1,28.8,35.1,28.9C35.1,28.9,35.1,28.9,35.1,28.9z"/>
		<path class="st22" d="M30.8,13.6C30.9,13.6,30.9,13.7,30.8,13.6C30.9,13.7,30.9,13.7,30.8,13.6C30.8,13.7,30.8,13.7,30.8,13.6
			C30.8,13.6,30.8,13.6,30.8,13.6z"/>
		<path class="st22" d="M27.4,13.7C27.4,13.7,27.5,13.6,27.4,13.7C27.5,13.6,27.5,13.6,27.4,13.7C27.5,13.7,27.5,13.7,27.4,13.7
			C27.5,13.7,27.4,13.7,27.4,13.7z"/>
		<path class="st16" d="M23,28.2C23,28.2,23,28.3,23,28.2C22.9,28.2,22.9,28.2,23,28.2z"/>
		<path class="st19" d="M25.7,13.5C25.7,13.5,25.7,13.5,25.7,13.5C25.7,13.5,25.7,13.5,25.7,13.5z"/>
		<path class="st28" d="M32.9,13.5C32.9,13.4,32.9,13.4,32.9,13.5C32.9,13.4,32.9,13.4,32.9,13.5z"/>
		<path class="st28" d="M32.9,13.4C32.8,13.4,32.8,13.3,32.9,13.4C32.8,13.3,32.8,13.3,32.9,13.4z"/>
		<path class="st16" d="M23.2,28.8C23.3,28.8,23.2,28.9,23.2,28.8C23.2,28.9,23.2,28.9,23.2,28.8z"/>
		<path class="st25" d="M24.7,29.5C24.7,29.5,24.8,29.5,24.7,29.5C24.8,29.5,24.8,29.5,24.7,29.5z"/>
		<path class="st25" d="M33.5,29.5C33.6,29.5,33.6,29.5,33.5,29.5C33.6,29.5,33.5,29.5,33.5,29.5z"/>
		<path class="st25" d="M35.4,28.6C35.4,28.5,35.4,28.5,35.4,28.6C35.5,28.6,35.4,28.6,35.4,28.6z"/>
		<path class="st19" d="M26,18.2C26,18.2,26,18.2,26,18.2C26,18.2,26,18.2,26,18.2z"/>
		<path class="st25" d="M35.3,28.2C35.3,28.2,35.2,28.2,35.3,28.2C35.3,28.1,35.3,28.2,35.3,28.2z"/>
		<path class="st28" d="M32.4,13C32.4,13,32.4,13,32.4,13C32.4,13.1,32.4,13,32.4,13z"/>
		<path class="st16" d="M22.9,28.5C22.9,28.5,22.9,28.5,22.9,28.5C22.9,28.6,22.9,28.6,22.9,28.5z"/>
		<path class="st25" d="M30.9,20.4C30.9,20.4,30.9,20.4,30.9,20.4C30.8,20.4,30.9,20.4,30.9,20.4z"/>
		<path class="st16" d="M23.1,28.1C23.1,28.1,23.1,28.1,23.1,28.1C23.1,28.1,23.1,28.1,23.1,28.1z"/>
		<path class="st22" d="M32,24C32,24,32,24,32,24C32.1,24,32.1,24,32,24C32.1,24,32.1,24,32,24C32,24,32,24,32,24z"/>
		<path class="st25" d="M35.4,28.3C35.4,28.3,35.4,28.3,35.4,28.3C35.4,28.2,35.5,28.3,35.4,28.3z"/>
		<path class="st19" d="M25.8,16.9C25.8,16.9,25.8,16.9,25.8,16.9C25.8,16.9,25.8,16.9,25.8,16.9z"/>
		<polygon class="st19" points="26.9,19.3 26.9,19.3 26.9,19.3 26.8,19.3 		"/>
		<path class="st22" d="M30.4,12.7C30.4,12.7,30.4,12.8,30.4,12.7C30.4,12.8,30.4,12.8,30.4,12.7C30.4,12.8,30.4,12.8,30.4,12.7
			C30.4,12.8,30.4,12.7,30.4,12.7z"/>
		<path class="st22" d="M27.9,12.8C27.9,12.8,27.9,12.7,27.9,12.8C27.9,12.7,28,12.8,27.9,12.8C27.9,12.8,27.9,12.8,27.9,12.8
			C27.9,12.8,27.9,12.8,27.9,12.8z"/>
		<path class="st23" d="M31.5,17.1C31.5,17.1,31.5,17.2,31.5,17.1C31.5,17.1,31.5,17.1,31.5,17.1z"/>
		<path class="st22" d="M30.3,12.7C30.4,12.7,30.4,12.7,30.3,12.7C30.4,12.7,30.4,12.8,30.3,12.7C30.3,12.8,30.3,12.7,30.3,12.7
			C30.3,12.7,30.3,12.7,30.3,12.7z"/>
		<path class="st22" d="M27.9,12.7C27.9,12.7,28,12.7,27.9,12.7C28,12.7,28,12.7,27.9,12.7C28,12.7,28,12.7,27.9,12.7
			C28,12.8,27.9,12.7,27.9,12.7z"/>
		<polygon class="st19" points="25.9,15.4 25.9,15.4 25.9,15.4 25.9,15.4 		"/>
		<path class="st22" d="M30.7,15.4C30.6,15.4,30.6,15.4,30.7,15.4C30.7,15.4,30.7,15.4,30.7,15.4z"/>
		<path class="st22" d="M23.2,26.9C23.3,27,23.3,27,23.2,26.9C23.2,27,23.2,27,23.2,26.9z"/>
		<path class="st22" d="M35,27C35,27,35,27,35,27C35.1,27,35.1,27,35,27z"/>
		<path class="st22" d="M27.7,15.3C27.7,15.4,27.7,15.4,27.7,15.3C27.7,15.4,27.7,15.4,27.7,15.3z"/>
		<path class="st22" d="M26.3,24C26.3,24,26.3,24,26.3,24C26.3,24,26.3,24,26.3,24C26.2,24,26.2,24,26.3,24C26.2,24,26.2,24,26.3,24
			z"/>
		<path class="st22" d="M32.1,23.9C32.1,23.9,32.1,23.9,32.1,23.9C32.1,23.9,32.1,23.9,32.1,23.9C32.1,24,32.1,24,32.1,23.9
			C32.1,24,32.1,24,32.1,23.9z"/>
		<path class="st20" d="M30.2,26.3c0.1-0.1,0.2-0.3,0.2-0.4c0-0.1,0-0.2,0.1-0.2c0.3,0.1,0.6,0,0.8-0.2c0.1,0,0.2-0.1,0.3,0
			c0,0,0,0,0,0c0.3,0.3,0.4,0.7,0.3,1.1c0,0.1,0,0.2-0.2,0.2c-0.2-0.1-0.4-0.1-0.6-0.2c0,0-0.1-0.1-0.1,0c0,0.1,0.1,0.1,0.1,0.1
			c0.2,0,0.3,0.1,0.5,0.1c0.2,0.1,0.5,0.2,0.6,0.4c0,0,0,0,0,0.1c0.1,0.1-0.1,0.2,0,0.3c0,0,0,0,0,0c0-0.1-0.1,0-0.1,0
			c-0.1,0-0.2,0-0.3-0.1c-0.1-0.1-0.2-0.2-0.4-0.1l0,0c-0.2-0.2-0.5-0.2-0.8-0.2c-0.1,0-0.1,0-0.2,0c-0.9-0.1-1.8-0.1-2.8,0
			c-0.1,0-0.1,0-0.2,0c-0.4,0-0.8,0.1-1.2,0.3c-0.1,0.1-0.2,0.1-0.3,0.1c0,0-0.1-0.1-0.1,0c0,0,0,0,0,0c0.1-0.1-0.1-0.2,0-0.3
			c0,0,0,0,0-0.1c0.2-0.2,0.4-0.3,0.6-0.4c0.3-0.1,0.6-0.1,0.8-0.2c-0.3,0-0.6,0-0.9,0.1c-0.2-0.1-0.2-0.3-0.2-0.4
			c0-0.3,0.1-0.6,0.2-0.8c-0.3,0.3-0.4,0.7-0.2,1.1c0,0.1,0,0.2-0.1,0.3c-0.2,0.1-0.4,0.2-0.4,0.5c0,0.1-0.1,0.1-0.1,0.1
			c-0.7,0.3-1.4,0.5-2.1,0.7c-0.1,0-0.1,0-0.2,0c0,0,0,0,0,0c0,0,0.1,0,0.1-0.1c0.1-0.1,0.2-0.2,0.4-0.3c0,0,0.1,0,0.1-0.1l0,0
			c0,0,0.1,0,0.1-0.1c0,0,0,0,0,0c0.2,0,0.3-0.2,0.5-0.3c0.6-0.3,1-0.8,1.3-1.4c0.1-0.3,0.1-0.5-0.1-0.7c-0.2-0.2-0.5-0.3-0.8-0.2
			c-0.3,0.1-0.4,0.3-0.5,0.6c0,0.2,0.1,0.4,0.2,0.6c-0.1,0.1-0.2-0.1-0.3-0.1c0,0,0,0,0,0c0,0,0-0.1-0.1-0.1l0,0
			c0-0.1-0.1-0.1-0.1-0.2c-0.2-0.3-0.1-0.7,0.3-1c0.4-0.2,0.7-0.3,1.1-0.2c0.3,0,0.5,0.1,0.8,0c0.1,0,0.1,0.1,0.2,0.1
			c0.2,0.4,0.8,0.8,1.3,0.7c0.1,0,0.1,0.1,0.1,0.2c0,0.2,0.1,0.3,0.2,0.4c0,0.1,0.1,0.1,0.1,0.2c-0.2,0-0.4,0-0.5,0.1
			c1,0,1.9,0,2.9,0.1c0,0,0.1,0,0.1,0c0,0,0.1,0,0.1,0c0-0.1,0-0.1-0.1-0.1c-0.2,0-0.4,0-0.7-0.1C30.1,26.4,30.2,26.4,30.2,26.3z"/>
		<path class="st20" d="M34,26.2c-0.1,0-0.2,0.1-0.3,0.1c0.2-0.2,0.3-0.5,0.2-0.7c-0.1-0.4-0.5-0.6-0.9-0.5
			c-0.4,0.1-0.6,0.4-0.4,0.8c0.2,0.7,0.7,1.1,1.3,1.5c0.2,0.1,0.3,0.3,0.5,0.3c0,0,0,0,0,0c0,0.1,0,0.1,0.1,0.1l0,0
			c0,0.1,0,0.1,0.1,0.1c0.1,0.1,0.3,0.2,0.4,0.3c0,0,0,0,0.1,0c0,0,0,0,0,0c0,0.1-0.1,0.1-0.1,0.1c-0.8-0.2-1.5-0.4-2.2-0.7
			c-0.1,0-0.1,0-0.1-0.1c0-0.3-0.1-0.4-0.3-0.5c-0.2-0.1-0.2-0.2-0.2-0.4c0.1-0.3,0.1-0.5,0-0.8c-0.1-0.1-0.1-0.3-0.3-0.3
			c0,0,0,0,0,0c0-0.2,0.2-0.3,0.2-0.5c0-0.1,0-0.2,0.1-0.1c0.3,0.1,0.5,0,0.8,0c0.3,0,0.6,0,0.9,0C34.3,25.1,34.4,25.5,34,26.2
			c0.1-0.1,0.1-0.1,0.1-0.1C34.1,26.1,34,26.2,34,26.2L34,26.2z"/>
		<path class="st22" d="M26,27.2c-0.1,0.1,0.1,0.2,0,0.3c-0.7,0.2-1.3,0.5-2,0.7c-0.3,0.1-0.5,0.1-0.8,0.2c0.1-0.1,0.2-0.2,0.3-0.2
			c0,0.1,0.1,0.1,0.2,0c0.7-0.2,1.4-0.4,2.1-0.7c0.1,0,0.2,0,0.1-0.1c0-0.3,0.2-0.4,0.4-0.5c0.1-0.1,0.1-0.1,0.1-0.3
			c-0.1-0.4-0.1-0.8,0.2-1.1c-0.1,0.3-0.3,0.5-0.2,0.8c0,0.2,0,0.3,0.2,0.4c0,0,0,0,0.1,0.1C26.4,26.9,26.2,27,26,27.2
			C26,27.2,26,27.2,26,27.2z"/>
		<path class="st22" d="M31.9,26.5c-0.1,0.2,0,0.3,0.2,0.4c0.2,0.1,0.4,0.2,0.3,0.5c0,0.1,0,0.1,0.1,0.1c0.7,0.3,1.5,0.5,2.2,0.7
			c0,0,0.1,0,0.1-0.1c0.1,0,0.2,0.1,0.2,0.1c-0.3,0-0.6-0.1-0.9-0.2c-0.6-0.2-1.2-0.4-1.8-0.6c-0.1-0.1,0.1-0.2,0-0.3c0,0,0,0,0-0.1
			c-0.2-0.2-0.4-0.3-0.6-0.4c0,0,0,0,0.1-0.1C31.9,26.7,31.8,26.6,31.9,26.5C31.9,26.5,31.9,26.5,31.9,26.5z"/>
		<path class="st29" d="M30.5,27.1c0.1,0,0.1,0,0.2,0c0,0,0,0,0,0c-1,0-2.1,0-3.1,0c0,0,0,0,0,0c0.1,0,0.1,0,0.2,0
			C28.7,27.1,29.6,27.1,30.5,27.1z"/>
		<path class="st25" d="M27.6,27.1C27.6,27.1,27.6,27.1,27.6,27.1c-0.5,0.1-0.9,0.2-1.3,0.5c-0.1,0-0.1,0.1-0.2,0c0,0,0,0,0-0.1
			c0.1,0,0.2,0,0.3-0.1C26.8,27.2,27.2,27.1,27.6,27.1z"/>
		<path class="st25" d="M30.7,27.1C30.7,27.1,30.7,27.1,30.7,27.1c0.3,0,0.6,0,0.8,0.2C31.2,27.2,31,27.2,30.7,27.1z"/>
		<path class="st25" d="M31.5,27.3c0.2-0.1,0.3,0.1,0.4,0.1c0.1,0.1,0.2,0.1,0.3,0.1c0,0,0,0,0,0.1c-0.1,0.1-0.2,0-0.3,0
			C31.8,27.5,31.6,27.4,31.5,27.3z"/>
		<path class="st22" d="M24,27.7c0,0.1-0.1,0.1-0.1,0.1C23.9,27.8,23.9,27.7,24,27.7z"/>
		<path class="st22" d="M26.1,27.5C26.1,27.5,26.1,27.5,26.1,27.5c0,0.1-0.1,0-0.1,0C26,27.5,26.1,27.5,26.1,27.5z"/>
		<path class="st22" d="M32.2,27.6C32.2,27.5,32.2,27.5,32.2,27.6c0-0.1,0.1-0.1,0.1-0.1C32.3,27.6,32.2,27.6,32.2,27.6z"/>
		<path class="st22" d="M34.9,28.1C34.8,28.1,34.8,28.1,34.9,28.1C34.8,28.1,34.9,28,34.9,28.1z"/>
		<path class="st22" d="M34.3,27.7C34.3,27.7,34.2,27.7,34.3,27.7C34.3,27.7,34.3,27.7,34.3,27.7z"/>
		<path class="st29" d="M29,28.2C29,28.2,29,28.2,29,28.2C29,28.2,29,28.2,29,28.2C29,28.2,29,28.2,29,28.2C29,28.2,29,28.2,29,28.2
			z"/>
		<path class="st22" d="M23.5,28.1C23.5,28.1,23.5,28.1,23.5,28.1C23.4,28.1,23.5,28.1,23.5,28.1z"/>
		<path class="st22" d="M34.4,27.8C34.4,27.8,34.3,27.8,34.4,27.8C34.4,27.7,34.4,27.7,34.4,27.8z"/>
		<path class="st22" d="M24,27.7C24.1,27.7,24,27.7,24,27.7C24,27.7,24,27.7,24,27.7z"/>
		<path class="st20" d="M23.5,21.5c0,0.1-0.1,0.1-0.1,0c-0.1-0.1-0.2-0.3-0.3-0.4c0,0-0.1-0.1-0.1-0.1c0,0,0,0,0,0
			c0.1-0.1,0-0.2-0.1-0.2c-0.6-0.9-1.3-1.8-2-2.6c-0.3-0.4-0.4-0.9-0.4-1.4c0-0.6,0.1-1.2,0.3-1.7c0.1,0,0.1,0.1,0.1,0.2
			c0.9,1.8,1.8,3.7,2.7,5.5c0.1,0.2,0,0.3,0,0.5C23.6,21.4,23.5,21.4,23.5,21.5z"/>
		<path class="st20" d="M20.3,17.7c0.1,0.3,0.4,0.6,0.6,0.8c0.6,0.8,1.2,1.6,1.8,2.4c0.1,0.1,0.1,0.2,0.2,0.2c0,0,0,0,0,0
			c0.1,0.2,0.2,0.4,0.4,0.5c0.1,0.2,0.2,0.3,0.1,0.5c-0.1-0.1-0.1-0.1-0.2-0.2c-0.1,0.1-0.1,0.3-0.2,0.4c-0.1,0-0.1,0-0.2-0.1
			c-0.9-0.8-1.8-1.6-2.8-2.4c-0.2-0.2-0.3-0.4-0.4-0.7c-0.2-0.6-0.3-1.2-0.2-1.8c0-0.1,0.1-0.3,0.2-0.4C20,17.2,20.1,17.5,20.3,17.7
			C20.3,17.7,20.3,17.7,20.3,17.7z"/>
		<path class="st20" d="M24,21.3c-0.5-1-0.9-1.9-1.4-2.9c-0.4-0.8-0.7-1.5-1.1-2.3c-0.3-0.5-0.3-1.1,0-1.6c0.1-0.3,0.3-0.6,0.6-0.9
			c0.2,0.7,0.4,1.4,0.7,2.2c0.4,1.5,0.9,3,1.3,4.4C24.1,20.6,24.1,20.9,24,21.3z"/>
		<path class="st20" d="M23.9,16.1c0.1,1.1,0.3,2.1,0.4,3.2c0,0.1,0,0.3,0.1,0.4c0,0-0.1,0.1,0,0.1c0.1,0.2,0,0.4-0.2,0.6
			c-0.2-0.6-0.3-1.1-0.5-1.6c-0.4-1.3-0.8-2.6-1.2-3.9c-0.1-0.4-0.1-0.8,0-1.2c0.2-0.5,0.5-0.9,0.8-1.3
			C23.6,13.6,23.9,14.9,23.9,16.1z"/>
		<path class="st20" d="M19,19.2c1.4,1.2,2.7,2.3,4.1,3.4c0.1-0.1,0.1-0.3,0.2-0.5c0.3,0.4,0.5,0.8,0.8,1.1c0.1,0.2-0.1,0.4-0.1,0.7
			c-0.4-0.4-0.8-0.6-0.8-1.1c-0.1,0-0.1,0-0.1,0.1c0,0.1,0.1,0.2,0,0.3c-0.1,0.1-0.2,0-0.3-0.1c-0.8-0.4-1.7-0.8-2.5-1.2
			c-0.3-0.2-0.6-0.4-0.7-0.7C19.2,20.6,19,19.9,19,19.2z"/>
		<path class="st20" d="M19,21.5c0.1,0,0.2,0,0.2,0.1c1.2,0.6,2.4,1.1,3.6,1.7c0.3,0.1,0.2,0.3,0.2,0.5c0,0.1-0.1,0.1-0.2,0.1
			c-0.6-0.1-1.1-0.2-1.6-0.3c-0.2,0-0.4-0.1-0.7-0.1c-0.4,0-0.7-0.3-0.9-0.6C19.4,22.4,19.2,22,19,21.5z"/>
		<path class="st21" d="M26.2,24C26.2,24,26.2,24,26.2,24c0,0.1,0,0.1,0,0.1c-0.8-0.2-1.2-0.7-1.3-1.5c-0.1-0.8-0.2-1.7-0.3-2.5
			c0-0.2,0-0.3-0.1-0.5c-0.1-1-0.2-2.1-0.4-3.1c0,0,0,0,0,0c0.2,0.7,0.3,1.4,0.5,2.1c0.3,1.4,0.7,2.9,1,4.3c0.1,0.3,0.2,0.6,0.4,0.9
			C26.1,23.9,26.1,23.9,26.2,24C26.2,24,26.2,24,26.2,24z"/>
		<path class="st20" d="M23.1,24.7c-0.7,0-1.4,0-2.1,0c-0.3,0-0.6-0.2-0.8-0.4c-0.3-0.3-0.6-0.6-0.8-0.9c0.4,0.1,0.8,0.1,1.2,0.2
			c0.8,0.1,1.5,0.2,2.3,0.4c0.1,0,0.3,0,0.3,0.2c0,0.1,0.1,0.2-0.1,0.1c-0.1,0-0.1,0-0.1,0.1C23,24.4,23,24.5,23.1,24.7z"/>
		<path class="st20" d="M23.7,25.5c0.2,0,0.3,0.1,0.3,0.2c0,0.2,0.1,0.3,0.2,0.4c0,0,0,0,0,0c0,0-0.1,0-0.1,0.1l0,0
			c-0.1,0-0.1,0-0.1,0.1l0,0c-0.1,0-0.1,0-0.1,0.1l0,0c-0.1,0-0.1,0-0.1,0.1l0,0c-0.1,0-0.1,0-0.1,0.1l0,0c-0.1,0-0.1,0-0.1,0.1l0,0
			c-0.1,0.1-0.2,0.1-0.3,0.2c-0.2,0.3-0.5,0.4-0.8,0.3c-0.5-0.1-0.8-0.4-1.3-0.7C22,26.1,22.8,25.8,23.7,25.5z"/>
		<path class="st20" d="M23.6,25.4c-0.5,0.2-1,0.3-1.5,0.5c-0.2,0.1-0.4,0-0.6-0.1c-0.5-0.2-0.9-0.6-1.3-0.9c0.3,0,0.5,0,0.8,0
			c0.6,0,1.3,0,1.9-0.1c0.1,0,0.2,0,0.3,0.2C23.3,25.1,23.4,25.3,23.6,25.4z"/>
		<path class="st21" d="M23.5,21.5c0-0.1,0.1-0.2,0.1-0.3c0.1,0,0.1-0.1,0.2-0.1c0.2,0.4,0.4,0.8,0.5,1.2c0.1,0.2-0.1,0.5-0.2,0.7
			c-0.2-0.3-0.4-0.6-0.6-0.9c-0.1-0.1-0.1-0.3,0-0.4C23.6,21.7,23.6,21.6,23.5,21.5z"/>
		<path class="st26" d="M26.1,24.5c-0.1-0.1-0.1,0-0.2,0c-0.8,0.4-1.4,0.2-1.6-0.7c0,0,0-0.1,0-0.1c0-0.3,0-0.7,0.1-1.1
			c0,0.4,0,0.7,0.2,1c0.3,0.7,0.9,1,1.6,0.6C26.3,24.3,26,24.4,26.1,24.5L26.1,24.5z"/>
		<path class="st26" d="M26,24.2c-0.5,0.2-0.9,0.1-1.2-0.4c-0.3-0.5-0.3-1.1-0.2-1.7C24.9,23.5,25.1,23.8,26,24.2z"/>
		<path class="st26" d="M24.4,22.3c-0.4-0.7-0.4-1.4,0-2C24.6,21,24.7,21.9,24.4,22.3z"/>
		<path class="st21" d="M23.9,24c0,0.2,0,0.5,0.1,0.7c-0.2-0.1-0.4-0.2-0.5-0.3c-0.3-0.3-0.4-0.7-0.4-1.2
			C23.4,23.6,23.7,23.8,23.9,24z"/>
		<path class="st21" d="M23.4,24.5c0.2,0.1,0.4,0.2,0.6,0.3c0.1,0.1,0.2,0.2,0.1,0.3c-0.1,0.1-0.1,0.4-0.3,0.3
			c-0.4-0.2-0.6-0.6-0.7-1.1C23.2,24.4,23.3,24.5,23.4,24.5z"/>
		<path class="st26" d="M24.3,23.8c0,0.4,0.2,0.7,0.6,1c-0.1,0-0.2,0.1-0.3,0.1c-0.3,0.2-0.3,0-0.4-0.2C24,24.4,24,24.2,24,24
			c0-0.3,0.1-0.5,0.2-0.8C24.2,23.4,24.3,23.6,24.3,23.8z"/>
		<path class="st26" d="M26.4,24.1c0.1-0.1,0.1-0.2,0.2-0.4c0.1,0.3,0.2,0.5,0.2,0.8c0,0.2-0.1,0-0.2,0.1c-0.2,0.2-0.5,0.1-0.8,0.1
			c0.1-0.1,0.3-0.1,0.4-0.3l0,0c0.1,0,0.2-0.1,0.3-0.2C26.4,24.2,26.4,24.2,26.4,24.1z"/>
		<path class="st22" d="M23.2,26.8c0.1-0.1,0.2-0.1,0.3-0.2c0,0.1,0.1,0.1,0.2,0.1c0.1,0,0.3,0,0.4-0.1c0,0,0,0,0,0
			C23.8,26.8,23.5,26.7,23.2,26.8C23.2,26.8,23.2,26.8,23.2,26.8z"/>
		<path class="st22" d="M26.4,24.2c-0.1,0.1-0.1,0.2-0.3,0.2c-0.1-0.1,0.2-0.1,0.1-0.2C26.2,24.2,26.3,24.2,26.4,24.2z"/>
		<path class="st20" d="M32.1,24C32.1,24,32.1,24,32.1,24c0.1-0.1,0.1-0.1,0.1-0.1c0.1-0.1,0.2-0.2,0.2-0.3c0.3-0.5,0.3-1,0.5-1.5
			c0.4-1.8,0.8-3.6,1.2-5.3c0,0,0,0,0,0.1c0,0.1,0,0.2,0,0.3c-0.1,0-0.1,0.1,0,0.2c0,0,0.1,0,0.1,0c0,0,0-0.1,0-0.2
			c0.1-0.3,0.1-0.7,0.2-1.1c0.1-1.2,0.3-2.4,0.5-3.6c0.8,0.6,1.1,1.7,0.8,2.6c-0.5,1.8-1,3.5-1.5,5.3c0,0.1,0,0.1-0.1,0.2
			c-0.1-0.1-0.1-0.2-0.2-0.3c0-0.3,0.1-0.6,0.1-0.9c0.1-0.5,0.2-1.1,0.2-1.6c0,0,0-0.1,0-0.1c-0.1,0,0,0.1,0,0.1
			c-0.1,0.5-0.1,1.1-0.2,1.6c0,0,0,0.1,0,0.1c0,0.1,0,0.2,0,0.3c0,0,0,0.1,0,0.1c0,0.1,0,0.1,0,0.2c0,0.3-0.1,0.6-0.1,1
			c-0.1,0,0,0.1,0,0.2c0,0.1,0,0.2,0,0.3c-0.1,0,0,0.1,0,0.2c0,0.1,0,0.2,0,0.3c-0.1,0,0,0.1,0,0.2c0,0.1,0,0.2,0,0.3
			c-0.1,0,0,0.1,0,0.2C33.4,23.3,33,23.9,32.1,24C32.1,24.1,32.1,24.1,32.1,24C32.1,24,32.1,24,32.1,24z"/>
		<path class="st20" d="M35.8,20.4c-0.3,0.4-0.6,0.8-1,1.2c-0.1-0.2-0.1-0.3-0.2-0.4c0-0.1-0.1-0.2,0-0.3c0.9-1.9,1.9-3.8,2.8-5.7
			c0,0,0-0.1,0.1-0.1c0.1,0.2,0.2,0.4,0.2,0.6c0.1,0.4,0.1,0.7,0.2,1.1c0,0.5-0.1,1-0.4,1.5C36.9,18.9,36.4,19.7,35.8,20.4z"/>
		<path class="st20" d="M35.2,22.3c0-0.1,0-0.2-0.1-0.4c0,0.1-0.1,0.1-0.1,0.2c0,0,0,0,0-0.1c0-0.2,0-0.3,0.1-0.4
			c0.3-0.4,0.6-0.8,0.9-1.1c0.7-0.9,1.4-1.8,2.1-2.8c0.1-0.2,0.3-0.3,0.4-0.5c0.1-0.1,0.1-0.2,0.2-0.2c0.1,0,0.1,0.1,0.1,0.2
			c0.1,0.5,0.1,0.9,0,1.4c-0.1,0.6-0.4,1.1-0.8,1.5c-0.9,0.7-1.7,1.4-2.5,2.1C35.3,22.3,35.3,22.5,35.2,22.3z"/>
		<path class="st20" d="M36.3,13.6c0.4,0.7,0.9,1.3,0.7,2.1c0,0.1-0.1,0.2-0.1,0.3c-0.8,1.7-1.7,3.4-2.5,5.1c0,0,0,0.1-0.1,0.1
			c-0.1-0.4-0.1-0.7,0-1c0.7-2.1,1.3-4.2,1.9-6.3C36.2,13.8,36.2,13.7,36.3,13.6z"/>
		<path class="st21" d="M34.6,21.3c0.4,0.7,0,1.3-0.4,1.8C34,23,34,22.8,34,22.6c0-0.1,0-0.3,0.1-0.4c0.1-0.3,0.3-0.6,0.4-1
			C34.5,21.1,34.5,21.2,34.6,21.3z"/>
		<path class="st26" d="M33.9,22.7c0.1,0.4,0.1,0.7,0,1.1c-0.2,0.8-0.8,1.1-1.5,0.7c-0.1,0-0.1-0.2-0.2-0.1l0,0
			c0.1-0.1-0.2-0.1-0.1-0.2c0.8,0.4,1.5,0,1.6-1C33.8,23.1,33.8,22.9,33.9,22.7C33.9,22.6,33.9,22.7,33.9,22.7z"/>
		<path class="st26" d="M32.3,24.2c1.1-0.3,1.2-1.2,1.4-2.1c0.2,0.5,0.1,1.4-0.2,1.8C33.1,24.3,32.7,24.4,32.3,24.2z"/>
		<path class="st26" d="M33.9,22.3c-0.4-0.7,0-1.4,0-2C34.3,21,34.3,21.6,33.9,22.3z"/>
		<path class="st26" d="M31.6,23.8c0,0,0.1-0.1,0.1,0c0,0.1,0.1,0.2,0.1,0.3c0,0,0,0.1,0.1,0.1c0.1,0.1,0.1,0.2,0.3,0.2l0,0
			c0.1,0.2,0.2,0.1,0.4,0.3c-0.4,0.1-0.7,0-1-0.1c0,0,0-0.1,0-0.1C31.5,24.3,31.6,24.1,31.6,23.8z"/>
		<path class="st22" d="M33.9,19.3c0.1-0.5,0.1-1.1,0.2-1.6c0,0,0.1,0,0.1,0c0,0.5-0.1,1.1-0.2,1.6c0,0.3-0.1,0.6-0.1,0.9
			c0,0-0.1-0.1-0.1-0.1c0-0.1,0-0.1,0-0.2c0,0,0-0.1,0-0.1c0-0.1,0-0.2,0-0.3C33.9,19.4,33.9,19.3,33.9,19.3z"/>
		<path class="st22" d="M32.2,24.5c-0.1,0-0.2-0.1-0.3-0.2c0.1,0,0.1-0.1,0.2,0C32,24.3,32.3,24.4,32.2,24.5z"/>
		<path class="st21" d="M33.5,22c0-0.1,0-0.1,0-0.2C33.6,21.9,33.6,22,33.5,22z"/>
		<path class="st21" d="M33.6,21.6c0-0.1,0-0.1,0-0.2C33.6,21.5,33.6,21.5,33.6,21.6z"/>
		<path class="st21" d="M33.6,21.2c0-0.1,0-0.1,0-0.2C33.7,21.1,33.7,21.1,33.6,21.2z"/>
		<path class="st21" d="M33.5,22.4c0-0.1,0-0.1,0-0.2C33.5,22.3,33.5,22.4,33.5,22.4z"/>
		<path class="st20" d="M39.3,19.2c0,0.9-0.2,1.7-0.8,2.4c-0.1,0.1-0.2,0.2-0.4,0.3c-0.9,0.4-1.8,0.9-2.7,1.3c-0.1,0-0.1,0.1-0.2,0
			c-0.1-0.1-0.1-0.2-0.1-0.2c0-0.3,0.2-0.5,0.4-0.8c1.1-0.9,2.3-1.9,3.4-2.8C39.1,19.3,39.2,19.2,39.3,19.2z"/>
		<path class="st20" d="M39.3,21.5c-0.2,0.6-0.4,1.2-0.9,1.6c-0.3,0.3-0.7,0.3-1.1,0.4c-0.6,0.1-1.2,0.2-1.8,0.3
			c-0.1,0-0.2,0.1-0.3,0c0-0.1-0.1-0.3,0.1-0.5c0,0,0,0,0.1,0c1.2-0.6,2.5-1.2,3.7-1.8C39.2,21.5,39.2,21.5,39.3,21.5z"/>
		<path class="st20" d="M35.2,24.6C35.3,24.6,35.3,24.5,35.2,24.6c0.1-0.2,0.1-0.4-0.1-0.4c0-0.2,0.2-0.2,0.4-0.3
			c1.1-0.2,2.2-0.3,3.3-0.5c0,0,0.1,0,0.2,0c-0.5,0.6-0.9,1.3-1.8,1.3c-0.4,0-0.7,0-1.1,0c-0.2,0-0.5,0-0.7,0
			C35.3,24.7,35.2,24.7,35.2,24.6z"/>
		<path class="st20" d="M34.2,26.2c0.1-0.2,0.2-0.3,0.2-0.5c0-0.2,0.2-0.1,0.2-0.1c0.8,0.3,1.7,0.6,2.6,0.9
			c-0.5,0.4-0.9,0.7-1.5,0.7c-0.2,0-0.4-0.1-0.6-0.3c-0.1,0-0.2-0.2-0.4-0.2c0,0,0,0,0,0c0-0.1,0-0.1-0.1-0.1l0,0
			c0-0.1,0-0.1-0.1-0.1l0,0c0-0.1,0-0.1-0.1-0.1l0,0c0-0.1,0-0.1-0.1-0.1l0,0C34.4,26.2,34.3,26.2,34.2,26.2L34.2,26.2
			C34.3,26.2,34.3,26.2,34.2,26.2L34.2,26.2z"/>
		<path class="st20" d="M35.2,24.8c0.3,0,0.5,0,0.8,0c0.7,0,1.4,0,2.1,0.1c-0.4,0.4-0.8,0.8-1.4,1c-0.2,0.1-0.3,0.1-0.5,0
			c-0.4-0.1-0.9-0.3-1.3-0.4c-0.1,0-0.1,0-0.1-0.1C35,25.2,35.1,25,35.2,24.8z"/>
		<path class="st21" d="M34.3,23.7c-0.1-0.3,0-0.6,0.2-0.9c0.2-0.2,0.3-0.5,0.5-0.8c0,0.1,0.1,0.2,0.1,0.2c0,0.1,0,0.2,0,0.3
			c0.1,0.6-0.3,0.9-0.7,1.2C34.3,23.9,34.4,23.7,34.3,23.7z"/>
		<path class="st21" d="M35.1,24.1c-0.1,0.3-0.4,0.4-0.8,0.6c0.1-0.3,0.1-0.5,0.1-0.7c0.2-0.2,0.5-0.4,0.8-0.7
			C35.2,23.6,35.1,23.9,35.1,24.1z"/>
		<path class="st21" d="M34.5,25.4c-0.2,0.1-0.2-0.1-0.2-0.2c-0.2-0.3-0.2-0.3,0.1-0.5c0.2-0.1,0.4-0.2,0.6-0.3
			c0.1-0.1,0.2,0,0.1,0.1c0,0.1-0.1,0.2-0.1,0.3c-0.1,0.2-0.2,0.4-0.4,0.5C34.7,25.4,34.6,25.4,34.5,25.4z"/>
		<path class="st26" d="M34.3,24c0,0.3,0,0.5-0.1,0.8c-0.1,0.1-0.2,0.2-0.3,0.1c-0.1-0.1-0.2-0.1-0.4-0.1c0.5-0.3,0.6-0.9,0.6-1.5
			c0.1,0.2,0.1,0.4,0.2,0.5C34.3,23.9,34.3,23.9,34.3,24z"/>
		<path class="st22" d="M34.8,26.6c0.1,0,0.2,0.1,0.4,0.2c0,0,0,0,0,0.1c-0.3-0.1-0.6,0-0.9-0.2c0,0,0,0,0,0c0.1,0,0.3,0,0.4,0.1
			C34.8,26.7,34.8,26.7,34.8,26.6z"/>
		<path class="st22" d="M34.8,25.3c0.1-0.2,0.3-0.3,0.4-0.5c0,0,0.1,0,0.1,0C35.1,25,35,25.2,34.8,25.3
			C34.8,25.3,34.8,25.3,34.8,25.3z"/>
		<path class="st22" d="M36.1,24.7c0.4,0,0.7,0,1.1,0C36.9,24.8,36.5,24.8,36.1,24.7z"/>
		<path class="st17" d="M28.5,22.8C28.5,22.8,28.5,22.8,28.5,22.8c-0.1,0.3,0,0.5,0,0.8c0,0.2-0.1,0.3,0.1,0.5c0,0,0,0,0,0
			c0,0.2,0,0.3,0,0.5c-0.1,0-0.3,0-0.4,0.1c-0.5,0-0.8-0.3-0.8-0.9c0-0.1,0.1-0.1,0.2-0.2c0.4-0.2,0.6-0.5,0.8-0.8c0,0,0.1,0,0.1,0
			C28.5,22.7,28.5,22.7,28.5,22.8L28.5,22.8C28.5,22.7,28.5,22.7,28.5,22.8z"/>
		<path class="st17" d="M26.5,19.4c0,0,0-0.1,0-0.1C26.6,19.3,26.5,19.3,26.5,19.4z"/>
		<path class="st22" d="M24.4,26.5c-0.1,0.1-0.2,0.1-0.3,0.1c0,0,0,0,0,0C24.2,26.6,24.3,26.6,24.4,26.5
			C24.4,26.5,24.4,26.5,24.4,26.5z"/>
		<path class="st22" d="M34.2,26.7c-0.1,0-0.2,0-0.3-0.1c0,0,0,0,0,0C34,26.6,34.1,26.6,34.2,26.7C34.2,26.6,34.2,26.6,34.2,26.7z"
			/>
		<path class="st28" d="M30.4,15.1c0,0,0,0.1,0,0.1c-0.8,0-1.6,0-2.5,0c0,0,0-0.1,0-0.1C28.8,15.1,29.6,15.1,30.4,15.1z"/>
		<path class="st21" d="M31.2,25.1c0.1,0,0.2-0.1,0.3-0.3c0.2-0.2,0.3-0.2,0.3,0.1c-0.2,0.5-0.6,0.6-1.1,0.7c-0.1,0-0.2-0.1-0.1-0.2
			c0-0.1,0.1-0.1,0.2-0.1C30.9,25.3,31.1,25.2,31.2,25.1z"/>
		<path class="st17" d="M34.2,26.6c-0.1,0-0.2-0.1-0.3-0.1c0,0-0.1-0.1-0.1-0.1c0-0.1,0.2-0.1,0.2-0.2c0,0,0,0,0,0
			c0.1,0,0.1,0,0.1-0.1c0,0,0,0,0,0c0,0,0.1,0,0.1,0c0,0,0,0,0,0c0,0,0,0.1,0.1,0.1c0,0,0,0,0,0c0,0.1,0,0.1,0.1,0.1l0,0
			c0,0.1,0,0.1,0.1,0.1c0,0,0,0,0,0c0,0.1,0,0.1,0.1,0.1l0,0c0,0.1,0,0.1,0.1,0.1l0,0c0,0,0,0.1,0.1,0.1c0,0,0,0,0,0
			c0,0.1,0,0.1-0.1,0.1C34.5,26.7,34.4,26.6,34.2,26.6z"/>
		<path class="st28" d="M30.6,25.6c0.5,0,0.9-0.2,1.1-0.7c0,0,0,0,0.1,0.1c0,0.2-0.2,0.3-0.2,0.5c-0.1-0.1-0.2,0-0.3,0
			c-0.3,0.1-0.5,0.3-0.8,0.2C30.5,25.6,30.6,25.7,30.6,25.6z"/>
		<path class="st28" d="M30.3,17C30.3,17,30.3,17.1,30.3,17c-0.4,0.1-0.9,0.1-1.4,0.1c-0.3,0-0.6,0-0.9,0c0,0,0,0,0.1-0.1
			C28.8,17,29.5,17,30.3,17z"/>
		<path class="st27" d="M30.3,17.6C30.3,17.6,30.3,17.6,30.3,17.6c-0.7,0.1-1.5,0.1-2.2,0.1c0,0,0,0,0-0.1
			C28.8,17.6,29.5,17.6,30.3,17.6z"/>
		<path class="st21" d="M27.1,25.1c0.1,0.1,0.3,0.2,0.5,0.2c0.1,0,0.2,0,0.2,0.1c0,0.1-0.1,0.2-0.1,0.2c-0.5,0-0.9-0.2-1.1-0.7
			c0-0.1,0-0.2,0.1-0.2c0.1,0,0.1,0.1,0.2,0.1C26.9,25,27,25.1,27.1,25.1z"/>
		<path class="st17" d="M24.4,26.5c-0.1,0-0.2,0.1-0.3,0.1c-0.1,0-0.3,0-0.4,0.1c-0.1,0-0.2,0-0.2-0.1c0,0,0,0,0,0
			c0.1,0,0.1,0,0.1-0.1c0,0,0,0,0,0c0.1,0,0.1,0,0.1-0.1c0,0,0,0,0,0c0.1,0,0.1,0,0.1-0.1c0,0,0,0,0,0c0.1,0,0.1,0,0.1-0.1l0,0
			c0.1,0,0.1,0,0.1-0.1c0,0,0,0,0,0c0,0,0.1,0,0.1-0.1c0,0,0,0,0,0c0,0,0.1,0,0.1,0c0,0,0,0,0,0c0,0.1,0,0.1,0.1,0.1c0,0,0,0,0,0
			c0,0.1,0.1,0.1,0.2,0.2C24.5,26.5,24.4,26.5,24.4,26.5z"/>
		<path class="st25" d="M26.6,24.9c0.2,0.5,0.6,0.6,1.1,0.7c0,0,0.1,0,0.1,0.1C27.3,25.8,26.7,25.4,26.6,24.9
			C26.5,25,26.5,25,26.6,24.9z"/>
		<path class="st21" d="M34.2,17.1c0,0.1,0,0.1,0,0.2c0,0-0.1,0-0.1,0C34.1,17.2,34.1,17.1,34.2,17.1C34.2,17.1,34.2,17.1,34.2,17.1
			z"/>
		<path class="st21" d="M34.2,16.8C34.2,16.8,34.1,16.8,34.2,16.8c0-0.1,0-0.2,0-0.3C34.2,16.6,34.2,16.7,34.2,16.8z"/>
		<path class="st20" d="M28.2,19.6c0-0.1,0-0.2,0-0.3c0,0,0.1-0.1,0.1-0.1c0.6,0,1.2,0,1.8,0c0.2,0,0.2,0.1,0.2,0.2
			c0,0.1-0.1,0.1-0.1,0.2c-0.6,0.1-1.1,0-1.7,0C28.3,19.7,28.2,19.7,28.2,19.6z"/>
		<path class="st20" d="M29.2,19.8c0.2,0,0.5,0,0.7,0c0.1,0,0.3-0.1,0.3,0.2c0,0.2-0.1,0.3-0.3,0.3c-0.3,0-0.5,0-0.8,0
			c-0.2,0-0.4,0-0.6,0c-0.2,0-0.3-0.1-0.3-0.3c0-0.2,0.2-0.1,0.3-0.1C28.7,19.8,28.9,19.8,29.2,19.8z"/>
		<path class="st21" d="M28.4,20.8c-0.1-0.1-0.1-0.1-0.2-0.2c0-0.2,0-0.3,0.2-0.3c0.4,0,0.9,0,1.3,0c0.3,0,0.3,0.1,0.3,0.3
			c-0.1,0.1-0.1,0.1-0.2,0.2C29.4,20.8,28.9,20.8,28.4,20.8z"/>
		<path class="st26" d="M28.4,21.6c-0.1-0.2,0-0.3,0.2-0.3c0.4,0,0.7,0,1.1,0c0.2,0,0.3,0.1,0.2,0.3c0,0-0.1,0.1-0.1,0.1
			c-0.1,0-0.1,0-0.2,0c-0.3,0-0.6,0-1,0c-0.1,0-0.1,0-0.2,0C28.5,21.7,28.4,21.7,28.4,21.6z"/>
		<path class="st20" d="M29.2,22.2c-0.2,0-0.3,0-0.5,0c-0.2,0-0.2-0.1-0.2-0.3c0-0.2,0.1-0.1,0.2-0.1c0.3,0,0.7,0,1,0
			c0.1,0,0.2,0,0.2,0.1c0,0.1-0.1,0.3-0.2,0.3C29.5,22.2,29.3,22.2,29.2,22.2C29.2,22.2,29.2,22.2,29.2,22.2z"/>
		<path class="st20" d="M29.8,22.7C29.8,22.7,29.8,22.7,29.8,22.7C29.8,22.7,29.8,22.7,29.8,22.7c-0.4,0.1-0.8,0.1-1.2,0.1
			c0,0,0,0-0.1,0c0,0,0,0,0,0c0,0,0,0,0-0.1c-0.1-0.3-0.1-0.3,0.2-0.3c0.3,0,0.6,0,0.8,0C29.9,22.3,29.9,22.3,29.8,22.7z"/>
		<path class="st28" d="M29.6,21.8c0.1,0,0.1,0,0.2,0C29.7,21.8,29.7,21.8,29.6,21.8z"/>
		<path class="st28" d="M28.5,21.8c0.1,0,0.1,0,0.2,0C28.6,21.8,28.6,21.8,28.5,21.8z"/>
		<path class="st22" d="M28.5,22.7C28.5,22.7,28.5,22.7,28.5,22.7C28.5,22.7,28.5,22.7,28.5,22.7C28.5,22.7,28.5,22.7,28.5,22.7z"/>
		<path class="st20" d="M28.5,22.9c0.4-0.1,0.9-0.1,1.3,0c0,0.1,0,0.3-0.2,0.3c-0.3,0-0.6,0-1,0C28.5,23.1,28.5,23,28.5,22.9z"/>
		<path class="st24" d="M28.6,24C28.6,24,28.6,24,28.6,24c0-0.2,0.1-0.3,0.3-0.3c0.2,0,0.4,0,0.6,0c0.1,0,0.2,0,0.2,0.1
			c0,0.1,0,0.3-0.1,0.3C29.2,24.1,28.9,24.2,28.6,24z"/>
		<path class="st20" d="M29.6,23.3c0.1,0,0.1,0.1,0.1,0.2c0,0.1-0.1,0.2-0.2,0.2c-0.2,0-0.5,0-0.7,0c-0.1,0-0.2-0.1-0.2-0.2
			c0-0.1-0.1-0.2,0.1-0.2C29,23.3,29.3,23.3,29.6,23.3z"/>
		<path class="st24" d="M29.6,24.6c0,0.4,0,0.4-0.4,0.4c-0.4,0-0.4,0-0.4-0.4C29,24.6,29.3,24.6,29.6,24.6z"/>
		<path class="st20" d="M29.2,24.2c0.1,0,0.2,0,0.2,0c0.1,0,0.2-0.1,0.2,0.1c0,0.1,0,0.2-0.2,0.3c-0.2,0-0.4,0-0.5,0
			c-0.2,0-0.2-0.1-0.2-0.3c0-0.2,0.1-0.1,0.2-0.1C29,24.2,29.1,24.2,29.2,24.2z"/>
		<path class="st28" d="M29.6,23.3c-0.3,0-0.6,0-1,0c0,0,0-0.1,0-0.1C29,23.2,29.3,23.2,29.6,23.3C29.6,23.2,29.6,23.2,29.6,23.3z"
			/>
		<path class="st26" d="M28.1,18.6c0,0,0-0.1-0.1-0.1c0-0.1,0-0.1,0-0.2c0,0,0.1-0.1,0.1-0.1c0.7,0,1.4,0,2,0c0.1,0,0.1,0.1,0.1,0.1
			c0,0.1,0,0.2-0.1,0.3c-0.1,0.1-0.2,0.1-0.3,0.1c-0.5,0-1,0-1.6,0C28.3,18.7,28.1,18.7,28.1,18.6z"/>
		<path class="st20" d="M28.3,19.2c-0.2-0.1-0.2-0.2-0.2-0.3c0-0.2,0.2-0.1,0.3-0.1c0.5,0,1,0,1.5,0c0.4,0,0.4,0,0.3,0.4
			c0,0,0,0,0,0c-0.1,0-0.1,0.1-0.2,0.1C29.5,19.2,28.9,19.2,28.3,19.2z"/>
		<path class="st28" d="M28.3,19.2c0.6,0,1.2,0,1.8,0C29.5,19.3,28.9,19.3,28.3,19.2z"/>
		<path class="st21" d="M30.8,26.7c0,0-0.1,0-0.1,0C30.7,26.6,30.7,26.6,30.8,26.7z"/>
		<path class="st20" d="M28,12.8C28,12.7,28,12.7,28,12.8c0.1-0.1,0.1-0.1,0.1-0.1c0.1,0,0.1-0.1,0.2-0.1c0.6-0.3,1.2-0.3,1.8,0
			c0.1,0,0.1,0.1,0.2,0.1c0,0,0.1,0.1,0.1,0.1c0,0,0,0,0.1,0.1c0,0,0,0,0.1,0.1c0,0,0.1,0.1,0.1,0.1c0.1,0.2,0.2,0.3,0.2,0.5
			c0,0,0,0-0.1,0l0,0c-0.3-0.3-0.3-0.3-0.5,0c0,0-0.1,0.1-0.1,0.1c0,0,0,0-0.1,0c-0.1-0.1-0.2-0.3-0.4-0.3c-0.1,0-0.2,0.1-0.3,0.2
			c-0.1,0.1-0.2,0-0.2-0.1c-0.2-0.2-0.3-0.2-0.5,0c0,0-0.1,0.1-0.1,0.1c0,0,0,0-0.1,0c-0.4-0.4-0.4-0.4-0.7-0.1l0,0
			c-0.1-0.2,0.1-0.4,0.1-0.5C27.9,12.9,27.9,12.8,28,12.8C27.9,12.8,27.9,12.8,28,12.8z"/>
		<path class="st20" d="M28.4,21.2c0-0.1-0.2-0.3,0-0.4c0.5,0,1,0,1.5,0c0.1,0.2,0.1,0.4,0,0.4C29.4,21.3,28.9,21.3,28.4,21.2z"/>
		<path class="st27" d="M29.9,20.8c-0.5,0-1,0-1.5,0c0,0,0,0,0-0.1C28.9,20.8,29.4,20.8,29.9,20.8C29.9,20.8,29.9,20.8,29.9,20.8z"
			/>
		<path class="st21" d="M27.9,16.4C27.8,16.4,27.8,16.3,27.9,16.4c-0.1-0.4-0.1-0.4,0.2-0.4c0.7,0,1.4,0,2.1,0c0.4,0,0.4,0,0.3,0.4
			c0,0,0,0.1-0.1,0.1c-0.1,0.1-0.2,0.1-0.3,0.1c-0.7,0-1.4,0-2,0C28,16.5,27.9,16.4,27.9,16.4z"/>
		<path class="st21" d="M27.5,13.7C27.5,13.7,27.5,13.7,27.5,13.7c0.1-0.1,0.2-0.1,0.2-0.1c1,0,2,0,3,0c0.1,0,0.1,0,0.2,0.1
			c0,0,0,0,0.1,0c0.1,0.2,0.1,0.3,0,0.5c-0.1,0-0.1,0.1-0.2,0.1c-1,0-2,0-3,0c-0.1,0-0.1-0.1-0.2-0.1C27.4,14,27.4,13.9,27.5,13.7z"
			/>
		<path class="st22" d="M28.4,13.5c0,0,0.1-0.1,0.1-0.1c0.2-0.2,0.3-0.2,0.5,0c0.1,0.1,0.1,0.2,0.2,0.1c0.1-0.1,0.2-0.3,0.3-0.2
			c0.1,0,0.2,0.2,0.4,0.3c0,0-0.1,0-0.1,0c-0.2-0.3-0.3-0.3-0.5,0c-0.1,0-0.2,0-0.2,0c-0.3-0.3-0.3-0.3-0.5,0
			C28.5,13.5,28.5,13.5,28.4,13.5z"/>
		<path class="st26" d="M27.7,13.4C27.7,13.4,27.7,13.4,27.7,13.4c0,0.1,0.1,0,0.1,0c0.2-0.3,0.3-0.1,0.5,0.1
			C28.1,13.5,27.9,13.6,27.7,13.4C27.7,13.4,27.7,13.4,27.7,13.4z"/>
		<path class="st26" d="M30.6,13.4c0,0.1-0.1,0.1-0.2,0.1c-0.1,0-0.2,0-0.3,0C30.2,13.3,30.3,13.2,30.6,13.4
			C30.5,13.4,30.6,13.4,30.6,13.4L30.6,13.4z"/>
		<path class="st26" d="M29.3,13.5c0.3-0.3,0.3-0.3,0.5,0C29.6,13.5,29.4,13.5,29.3,13.5z"/>
		<path class="st26" d="M28.5,13.5c0.2-0.3,0.2-0.3,0.5,0C28.9,13.5,28.7,13.5,28.5,13.5z"/>
		<path class="st22" d="M30.6,13.4C30.6,13.4,30.5,13.4,30.6,13.4c-0.3-0.2-0.4-0.1-0.5,0.1c0,0-0.1,0-0.1,0c0,0,0.1-0.1,0.1-0.1
			C30.3,13.1,30.3,13.1,30.6,13.4z"/>
		<path class="st22" d="M28.2,13.5c-0.1-0.2-0.2-0.4-0.5-0.1c0,0-0.1,0.1-0.1,0c0.3-0.3,0.3-0.3,0.7,0.1
			C28.3,13.5,28.3,13.5,28.2,13.5z"/>
		<path class="st20" d="M30.4,15.1c-0.8,0-1.6,0-2.4,0c0,0-0.1-0.1-0.1-0.1c-0.1-0.2-0.2-0.3-0.1-0.5c0,0,0,0,0,0
			c0.3,0.3,0.3,0.3,0.6,0c0,0,0,0,0.1-0.1c0,0,0,0,0.1,0c0.1,0.1,0.2,0.3,0.4,0.3c0.1,0,0.2-0.1,0.3-0.2c0.1-0.1,0.2,0,0.2,0
			c0.2,0.3,0.4,0.2,0.5,0c0,0,0.1-0.1,0.1-0.1c0,0,0,0,0.1,0c0,0,0,0,0,0c0.3,0.3,0.3,0.3,0.6,0c0,0.2-0.1,0.3-0.2,0.5
			C30.4,15.1,30.4,15.1,30.4,15.1z"/>
		<path class="st22" d="M29.9,14.4C29.9,14.5,29.8,14.5,29.9,14.4c-0.3,0.3-0.4,0.4-0.6,0.1c-0.1-0.1-0.1-0.1-0.2,0
			c-0.1,0.1-0.2,0.3-0.3,0.2c-0.1,0-0.2-0.2-0.4-0.3c0,0,0.1,0,0.1,0c0.2,0.3,0.2,0.3,0.5,0c0.1,0,0.2,0,0.2,0
			c0.3,0.3,0.3,0.3,0.5,0C29.8,14.4,29.9,14.4,29.9,14.4z"/>
		<path class="st26" d="M27.7,14.5C27.7,14.5,27.7,14.5,27.7,14.5C27.7,14.5,27.7,14.5,27.7,14.5c0.2-0.2,0.4-0.1,0.6-0.1
			c-0.1,0.2-0.2,0.4-0.5,0.1C27.8,14.5,27.7,14.4,27.7,14.5z"/>
		<path class="st26" d="M29,14.4c-0.3,0.3-0.3,0.3-0.5,0C28.7,14.4,28.9,14.4,29,14.4z"/>
		<path class="st26" d="M30.6,14.4C30.6,14.4,30.6,14.5,30.6,14.4c-0.3,0.3-0.3,0.3-0.5,0C30.2,14.4,30.4,14.3,30.6,14.4z"/>
		<path class="st26" d="M29.8,14.4c-0.2,0.3-0.2,0.3-0.5,0C29.4,14.4,29.6,14.4,29.8,14.4z"/>
		<path class="st22" d="M27.7,14.5c0-0.1,0.1,0,0.1,0c0.2,0.3,0.3,0.1,0.5-0.1c0,0,0.1,0,0.1,0c0,0,0,0-0.1,0.1
			C28,14.8,28,14.8,27.7,14.5z"/>
		<path class="st21" d="M29.5,25.4c-0.2,0.2-0.5,0.2-0.7,0c0-0.2,0-0.3,0.2-0.3c0.1,0,0.2,0,0.3,0C29.5,25.1,29.6,25.2,29.5,25.4z"
			/>
		<path class="st20" d="M30.3,17c-0.7,0-1.5,0-2.2,0c0,0-0.1,0-0.1-0.1c-0.1-0.1-0.1-0.3,0-0.4c0.7-0.1,1.4,0,2.1,0
			c0.2,0,0.4-0.1,0.5,0.1c0,0.1,0,0.2-0.1,0.4C30.4,17,30.3,17,30.3,17z"/>
		<path class="st20" d="M28.8,25.8c-0.1-0.3,0.2-0.3,0.3-0.3c0.2,0,0.4,0,0.3,0.3C29.3,26,29.1,26,28.8,25.8z"/>
		<path class="st22" d="M28.5,22.7C28.5,22.7,28.6,22.7,28.5,22.7C28.5,22.7,28.5,22.7,28.5,22.7C28.5,22.7,28.5,22.7,28.5,22.7z"/>
		<path class="st21" d="M28,17.6c0.7,0,1.5,0,2.2,0c0.2,0.2,0.1,0.4-0.1,0.5c-0.7,0-1.4,0-2,0C27.9,18,27.9,17.8,28,17.6z"/>
		<path class="st28" d="M28.1,18.1c0.7,0,1.4,0,2,0c0,0,0,0,0,0.1C29.5,18.2,28.8,18.2,28.1,18.1C28.1,18.2,28.1,18.2,28.1,18.1z"/>
		<path class="st21" d="M30.5,27.1c-0.9,0-1.8,0-2.8,0C28.7,27,29.6,27,30.5,27.1z"/>
		<path class="st25" d="M26.6,26.8C26.6,26.8,26.6,26.8,26.6,26.8c0.2-0.2,0.5-0.2,0.8-0.2C27.2,26.7,26.9,26.7,26.6,26.8z"/>
		<path class="st25" d="M31.9,26.5C31.9,26.5,31.9,26.5,31.9,26.5c0.1-0.4-0.1-0.7-0.3-1.1c0.2,0,0.2,0.2,0.3,0.3
			C32,26,32,26.3,31.9,26.5z"/>
		<path class="st25" d="M31.7,26.7C31.7,26.8,31.7,26.8,31.7,26.7c-0.2,0-0.4-0.1-0.6-0.1c0,0,0-0.1,0-0.1
			C31.3,26.6,31.5,26.7,31.7,26.7z"/>
		<path class="st21" d="M31.1,26.6c0,0,0,0.1,0,0.1c-0.1,0-0.2,0-0.1-0.1C31,26.5,31.1,26.5,31.1,26.6z"/>
		<path class="st22" d="M24.3,26.2c-0.1,0-0.1,0-0.1-0.1C24.3,26.1,24.3,26.2,24.3,26.2z"/>
		<path class="st21" d="M26,27.2C26,27.2,26,27.2,26,27.2C26,27.2,26,27.2,26,27.2z"/>
		<path class="st21" d="M32.3,27.2C32.3,27.2,32.3,27.2,32.3,27.2C32.3,27.2,32.3,27.2,32.3,27.2z"/>
		<path class="st22" d="M34.1,26.2c0,0.1,0,0.1-0.1,0.1C34,26.2,34.1,26.1,34.1,26.2z"/>
		<path class="st16" d="M27.2,27.9C27.1,28,27,28,27,28c-0.1,0-0.1-0.1-0.1-0.1c0-0.1,0.1-0.1,0.2-0.1
			C27.1,27.8,27.1,27.9,27.2,27.9z"/>
		<path class="st16" d="M31.4,27.8c0.1,0,0.2,0,0.2,0.1c0,0.1,0,0.1-0.1,0.1c-0.1,0-0.2,0-0.2-0.1C31.4,27.9,31.4,27.8,31.4,27.8z"
			/>
		<path class="st22" d="M23.7,26.4c0,0.1,0,0.1-0.1,0.1C23.6,26.5,23.7,26.4,23.7,26.4z"/>
		<path class="st22" d="M23.9,26.3c0,0.1,0,0.1-0.1,0.1C23.8,26.3,23.9,26.3,23.9,26.3z"/>
		<path class="st22" d="M24,26.2c0,0.1,0,0.1-0.1,0.1C23.9,26.2,24,26.2,24,26.2z"/>
		<path class="st22" d="M23.8,26.4c0,0.1,0,0.1-0.1,0.1C23.7,26.4,23.8,26.3,23.8,26.4z"/>
		<path class="st22" d="M23.6,26.5c0,0.1,0,0.1-0.1,0.1C23.5,26.5,23.6,26.5,23.6,26.5z"/>
		<path class="st22" d="M24.1,26.2C24.1,26.2,24.1,26.2,24.1,26.2C24,26.2,24,26.2,24.1,26.2z"/>
		<path class="st21" d="M34.2,17.7C34.1,17.7,34.1,17.7,34.2,17.7c-0.1,0-0.1-0.1,0-0.1C34.2,17.6,34.2,17.6,34.2,17.7z"/>
		<path class="st21" d="M33.8,19.7c0,0,0,0.1,0,0.1C33.8,19.8,33.8,19.8,33.8,19.7z"/>
		<path class="st21" d="M33.9,19.3c0,0,0,0.1,0,0.1C33.9,19.4,33.9,19.3,33.9,19.3z"/>
		<path class="st22" d="M34.7,26.5c-0.1,0-0.1,0-0.1-0.1C34.7,26.4,34.7,26.5,34.7,26.5z"/>
		<path class="st22" d="M34.5,26.4c-0.1,0-0.1,0-0.1-0.1C34.5,26.3,34.5,26.3,34.5,26.4z"/>
		<path class="st22" d="M34.4,26.3c-0.1,0-0.1,0-0.1-0.1C34.3,26.2,34.4,26.2,34.4,26.3z"/>
		<path class="st22" d="M34.6,26.4c-0.1,0-0.1,0-0.1-0.1C34.6,26.3,34.6,26.4,34.6,26.4z"/>
		<path class="st22" d="M34.3,26.2C34.2,26.2,34.2,26.2,34.3,26.2C34.3,26.2,34.3,26.2,34.3,26.2z"/>
		<path class="st22" d="M34.8,26.6C34.7,26.6,34.7,26.6,34.8,26.6C34.8,26.5,34.8,26.5,34.8,26.6z"/>
	</g>
	<rect x="15.1" y="96.9" class="st14" width="136.6" height="7.9"/>
	<rect x="153.2" y="118" class="st14" width="70.5" height="7.9"/>
</g>
</svg>
