<?xml version="1.0" encoding="utf-8"?>
<!-- Generator: Adobe Illustrator 23.0.3, SVG Export Plug-In . SVG Version: 6.00 Build 0)  -->
<svg version="1.1" id="Layer_1" xmlns="http://www.w3.org/2000/svg" xmlns:xlink="http://www.w3.org/1999/xlink" x="0px" y="0px"
	 viewBox="0 0 192 192" style="enable-background:new 0 0 192 192;" xml:space="preserve">
<style type="text/css">
	.st0{fill:#3BBFC7;}
</style>
<g>
	<path class="st0" d="M139.1,81.8c4.3,0,8.2,0,12.5,0c0.1,1.1,0.1,2.2,0.1,3.2c0,30.2,0,60.4,0,90.6c0,10.5-5.9,16.4-16.5,16.4
		c-35.1,0-70.1,0-105.2,0c-10.4,0-16.3-5.8-16.3-16.2c0-44.8,0-89.6,0-134.4c0-9.9,6.2-16.1,16-16.1c21.6,0,43.2,0,64.9,0
		c0.9,0,1.7,0,2.8,0c0,4.2,0,8.2,0,12.5c-1.2,0-2.4,0-3.5,0c-20.9,0-41.9,0-62.8,0c-4.7,0-4.8,0.2-4.8,4.7c0,44.2,0,88.4,0,132.7
		c0,4.3,0.2,4.4,4.5,4.4c34.8,0,69.5,0,104.3,0c3.9,0,4.1-0.2,4.1-4.2c0-29.9,0-59.8,0-89.7C139.1,84.5,139.1,83.4,139.1,81.8z"/>
	<path class="st0" d="M143.3,0c3.5-0.1,4.5,1.5,5.1,3.5c1.7,5.9,3.6,11.7,5.3,17.6c0.6,2,1.5,3,3.6,3.6c5.7,1.6,11.3,3.5,17,5.1
		c2.2,0.7,4.2,1.5,4.2,4.1c0,2.7-2.1,3.4-4.3,4.1c-5.9,1.8-11.7,3.5-17.5,5.4c-1.1,0.3-2.2,1.5-2.6,2.6c-2,5.9-3.8,11.8-5.6,17.8
		c-0.6,2.1-1.4,4-3.9,4c-2.6,0-3.5-2-4.1-4.2c-1.7-5.9-3.5-11.7-5.5-17.5c-0.4-1.1-1.6-2.4-2.7-2.8c-5.9-2-11.8-3.7-17.8-5.5
		c-2.1-0.6-3.9-1.6-3.9-4c0-2.5,1.9-3.3,4-3.9c5.9-1.7,11.7-3.6,17.6-5.3c1.6-0.5,2.6-1.2,3.1-3c1.7-6.1,3.6-12.1,5.6-18.1
		C141.2,2,142.7,0.8,143.3,0z"/>
	<path class="st0" d="M82.7,97.4c-11,0-22,0-33,0c-4.2,0-6.7-1.8-7.2-4.9c-0.7-4.2,2-7.5,6.7-7.5c8-0.1,16,0,23.9,0
		c13.9,0,27.8,0,41.7,0c0.7,0,1.4,0,2,0c3.6,0.3,6.1,2.9,6.1,6.3c0,3.4-2.4,6-6.1,6.1c-6.5,0.2-13,0.1-19.5,0.1
		C92.4,97.5,87.5,97.4,82.7,97.4z"/>
	<path class="st0" d="M82.8,57.3c11.1,0,22.2,0,33.3,0c3.5,0,5.7,1.6,6.5,4.3c1.3,4.2-1.6,8-6.2,8c-8.8,0.1-17.5,0-26.3,0
		c-13.6,0-27.3,0-40.9,0c-4.6,0-7.3-2.9-6.8-7.1c0.4-3.3,2.8-5.3,6.8-5.3C60.5,57.3,71.7,57.3,82.8,57.3z"/>
	<path class="st0" d="M82.5,125.2c-11.2,0-22.4,0-33.6,0c-3.5,0-6-2.1-6.4-5.2c-0.5-3,1-5.9,3.8-6.8c1.3-0.4,2.7-0.4,4-0.4
		c15,0,30,0,45,0c6.4,0,12.8,0,19.3,0c5.5,0,8.5,2.1,8.5,6.2c0,4.1-3,6.3-8.4,6.3C103.9,125.2,93.2,125.2,82.5,125.2L82.5,125.2z"/>
	<path class="st0" d="M72.9,140.4c7.9,0,15.8-0.1,23.6,0c5,0.1,8.1,4.6,6.1,8.8c-1.1,2.4-3.2,3.6-5.8,3.6c-16,0-32.1,0-48.1,0
		c-3.9,0-6.3-2.6-6.3-6.2c0-3.6,2.5-6.1,6.4-6.2C56.8,140.4,64.9,140.4,72.9,140.4z"/>
</g>
</svg>
