<?xml version="1.0" encoding="utf-8"?>
<!-- Generator: Adobe Illustrator 23.0.3, SVG Export Plug-In . SVG Version: 6.00 Build 0)  -->
<svg version="1.1" id="Layer_1" xmlns="http://www.w3.org/2000/svg" xmlns:xlink="http://www.w3.org/1999/xlink" x="0px" y="0px"
	 viewBox="0 0 192 192" style="enable-background:new 0 0 192 192;" xml:space="preserve">
<style type="text/css">
	.st0{fill:#3BBFC7;}
</style>
<g>
	<path class="st0" d="M28.2,175.4c0-0.2,0.1-0.4,0.1-0.5c2-6.3,4.1-12.7,6.1-19c0.8-2.4,1.5-4.8,2.3-7.1c0.1-0.4,0.1-0.4-0.2-0.7
		c-2.6-2.1-5.1-4.4-7.4-6.9c-4.7-5-8.7-10.5-11.9-16.6c-2.8-5.3-4.9-10.9-6.3-16.8c-0.5-2.3-0.9-4.6-1.2-7c-0.4-3.3-0.6-6.5-0.5-9.8
		c0.1-2.8,0.3-5.7,0.8-8.5c1.1-7.2,3.4-14.1,6.7-20.6c2.5-4.9,5.5-9.4,8.9-13.6c2-2.5,4.2-4.8,6.5-7c4.6-4.4,9.7-8.2,15.2-11.5
		c5.8-3.5,11.9-6.2,18.3-8.3c4.3-1.4,8.6-2.5,13.1-3.3c2.3-0.4,4.7-0.7,7-1c1.6-0.2,3.1-0.3,4.7-0.4c2.2-0.1,4.5-0.2,6.7-0.2
		c2.4,0,4.8,0.1,7.2,0.4c2.8,0.2,5.6,0.6,8.4,1.1c4.3,0.7,8.5,1.8,12.7,3.1c5.2,1.7,10.2,3.7,15.1,6.3c5.9,3.1,11.3,6.8,16.3,11.1
		c5.5,4.7,10.2,10.1,14.2,16.1c4.7,7.1,8,14.8,9.9,23.1c0.6,2.6,1,5.2,1.3,7.8c0.3,3,0.5,5.9,0.4,8.9c-0.1,2.4-0.3,4.7-0.6,7.1
		c-0.6,4.3-1.5,8.4-2.9,12.5c-2.5,7.5-6.1,14.3-10.9,20.5c-2.8,3.7-5.8,7.1-9.2,10.2c-5.2,4.8-10.9,9-17.2,12.4
		c-5.3,2.9-10.8,5.3-16.6,7.1c-4,1.3-8,2.2-12.1,3c-2.3,0.4-4.7,0.7-7,1c-1.5,0.2-3,0.3-4.5,0.4c-2.7,0.1-5.3,0.2-8,0.1
		c-2.1-0.1-4.2-0.2-6.4-0.4c-5.4-0.5-10.7-1.4-16-2.7c-4.8-1.2-9.4-2.8-14-4.8c-0.3-0.1-0.6-0.1-0.9,0c-6,2.9-11.9,6-17.9,9.1
		c-3.3,1.7-6.6,3.5-10,5.2C28.6,175.2,28.4,175.3,28.2,175.4z M94.7,77.2c-8.2-0.1-15.5,6.5-15.5,15.5c0,8.5,6.8,15.5,15.5,15.6
		c8.9,0,15.5-7.3,15.5-15.5C110.3,84.1,103.3,77.1,94.7,77.2z M43.7,77.2c-8.4-0.1-15.5,6.7-15.6,15.4c0,8.4,6.6,15.6,15.5,15.6
		c8.7,0,15.5-6.9,15.6-15.3C59.3,84,52.1,77.1,43.7,77.2z M150.4,77.2c-8.3-0.1-15.5,6.6-15.5,15.5c0,8.6,6.9,15.5,15.5,15.5
		c8.9,0,15.5-7.3,15.5-15.6C165.9,84.1,158.9,77.1,150.4,77.2z"/>
</g>
</svg>
