<?xml version="1.0" encoding="utf-8"?>
<!-- Generator: Adobe Illustrator 23.0.3, SVG Export Plug-In . SVG Version: 6.00 Build 0)  -->
<svg version="1.1" id="Layer_1" xmlns="http://www.w3.org/2000/svg" xmlns:xlink="http://www.w3.org/1999/xlink" x="0px" y="0px"
	 viewBox="0 0 192 192" style="enable-background:new 0 0 192 192;" xml:space="preserve">
<style type="text/css">
	.st0{fill:#3BBFC7;}
</style>
<g>
	<g>
		<path class="st0" d="M112.1,81.4c-1.3,4.3-4.2,6.5-7.7,7.7c-5.7,2-11.5,2-17.2-0.3c-3.4-1.3-6-3.4-7-7c-0.2,0-0.3,0-0.3,0.1
			c-1.5,4.4-4.9,6.5-9.1,7.7c-4.7,1.3-9.4,1.3-14-0.1c-4.1-1.3-7.5-3.4-9-8.2c-1.6,5.2-5.5,7.4-10.1,8.5c-4.5,1.1-9.1,1.3-13.4-0.3
			c-4.1-1.5-6.5-4.9-7.4-8.9c-0.8-3.5-1-7.3-1.4-10.9c-0.1-0.5,0.2-1.1,0.3-1.6c5.3-14.8,10.6-29.6,15.9-44.4c1.4-4,3.8-7.2,8.3-8.1
			c0.7-0.1,1.4-0.2,2.2-0.2c35.8,0,71.7,0,107.6,0c4.8,0,8.4,2.6,10.2,7.7c2.5,6.6,4.8,13.3,7.2,20c2.8,7.6,5.4,15.4,8.3,23
			c1.3,3.5,1,7,0.5,10.6c-0.3,1.8-0.8,3.7-1.4,5.5c-1.7,4.7-5,7.5-10.1,8.2c-4.1,0.6-8.1,0.3-12.1-1c-3.7-1.3-6.8-3.4-8.1-7.5
			c-0.8,1.3-1.3,2.5-2.2,3.6c-1.9,2.4-4.6,3.6-7.5,4.4c-4.6,1.3-9.3,1.2-13.8-0.3C116.9,88.2,113.7,86.1,112.1,81.4z"/>
		<path class="st0" d="M165.8,101.1c0,7.2,0,14.3,0,21.5c0,14.3,0,28.6,0,42.9c0,6.5-4.6,11.1-11.1,11.1c-24.3,0-48.7,0-73,0
			c-0.6,0-1.1,0-1.8,0c0-17.9,0-35.6,0-53.5c-10.7,0-21.4,0-32.2,0c0,17.8,0,35.6,0,53.2c-4.6,0-9.1,0.5-13.5-0.1
			c-4.7-0.7-8-5.3-8-10.1c0-21.2,0-42.5,0-63.7c0-0.3,0.1-0.8,0.1-1.2c3.1,0,6.2,0.1,9.2,0c3.9-0.2,7.5-1.3,10.9-3
			c0.8-0.4,1.5-0.5,2.4-0.1c10,4.6,20,4.5,29.9,0c0.6-0.3,1.5-0.3,2.1,0c10.1,4.5,20,4.5,30.1,0c0.6-0.3,1.5-0.3,2.1,0
			c10.1,4.5,20,4.5,30.1,0c0.5-0.3,1.3-0.3,1.8-0.2c6,3,12.3,4,19,3.3C164.7,101,165.2,101.1,165.8,101.1z M101.5,122.9
			c0,10.7,0,21.4,0,32c14.3,0,28.5,0,42.8,0c0-10.7,0-21.3,0-32C130,122.9,115.8,122.9,101.5,122.9z"/>
	</g>
</g>
</svg>
