<?xml version="1.0" encoding="utf-8"?>
<!-- Generator: Adobe Illustrator 23.0.3, SVG Export Plug-In . SVG Version: 6.00 Build 0)  -->
<svg version="1.1" id="Layer_1" xmlns="http://www.w3.org/2000/svg" xmlns:xlink="http://www.w3.org/1999/xlink" x="0px" y="0px"
	 viewBox="0 0 192 192" style="enable-background:new 0 0 192 192;" xml:space="preserve">
<style type="text/css">
	.st0{fill:none;}
	.st1{fill:#006838;}
	.st2{fill:#37B34A;}
	.st3{fill:#2B388F;}
	.st4{fill:#1B75BB;}
</style>
<g>
	<g>
		<path class="st0" d="M60.7,41.2c-1.8,8.3-5.8,14.6-14.8,16.3c-0.2,0-0.3,0.2-0.5,0.5c-0.5,14.6,0.1,29.2,3.3,43.6
			c2.4,11.2,6.8,21.3,14.6,29.8c8.8,9.5,19.2,16.9,30.6,22.8c0.4,0.2,1,0.3,1.6,0.3v-12.5c-0.4,0-0.8,0-1.1-0.2
			c-12.6-6.6-24-14.6-31.4-27.2c-3.9-6.7-5.8-14.2-6.6-21.8c-0.8-8.9-0.9-17.8-1.3-26.8c-0.1-1.9,0.2-3,2.6-3.2
			c5.6-0.7,8.1-5,9.1-9.9c0.7-3.4,1.8-4.7,5.4-5.1c7.8-1,15.6-1.4,23.4-1.4V35.5c-10.2,0-20.4,0.7-30.7,2.1
			C62.1,38,61.2,38.8,60.7,41.2z"/>
		<path class="st0" d="M92.9,97c-2.7-2.7-5.4-5.4-8.2-8.1c-3.3-3.3-6.8-3.7-9.2-1.2c-2.7,2.7-2.4,5.8,1,9.2c4,4,8.1,8.1,12.1,12.1
			c1.8,1.9,3.6,3.8,5.6,5.9c0.4-0.5,0.8-0.9,1.1-1.3v-18c-0.5,0.6-1,1.2-1.6,1.9C93.2,97.2,93,97.2,92.9,97z"/>
		<path class="st1" d="M93.7,154.1c-11.4-6-21.8-13.3-30.6-22.8c-7.8-8.5-12.1-18.6-14.5-29.8c-3.1-14.4-3.7-29-3.3-43.6
			c0.2-0.2,0.4-0.4,0.5-0.5c9-1.7,13-8.1,14.8-16.3c0.5-2.3,1.4-3.2,3.9-3.6c10.2-1.5,20.5-2.2,30.7-2.1V29c-1.3,0-2.6-0.1-3.9,0
			c-5,0.2-9.9,0.8-14.9,1.3c-7,0.7-14,1.6-19.8,2.2c-1.7,5.3-2.6,10-4.5,14.1c-2.3,4.9-7.5,4.9-12.3,5c-0.1,0.7-0.2,1.2-0.3,1.7
			c-0.8,14.3-0.5,28.5,1.8,42.6c1.8,10.9,4.6,21.5,10.7,30.9c7.6,11.6,18,20.1,29.6,27.4c4.3,2.7,8.8,5.1,13.1,7.6
			c0.1,0,0.2,0,0.3,0v-7.4C94.7,154.4,94.1,154.4,93.7,154.1z"/>
		<path class="st2" d="M94.2,115c-2-2.1-3.8-4-5.6-5.9c-4-4.1-8.1-8.1-12.1-12.1c-3.4-3.4-3.7-6.5-1-9.2c2.5-2.5,5.9-2.1,9.2,1.2
			c2.7,2.7,5.4,5.4,8.2,8.1c0.1,0.1,0.3,0.2,0.8,0.5c0.5-0.6,1.1-1.2,1.6-1.9V46.2c-7.8,0-15.6,0.5-23.4,1.4
			c-3.7,0.5-4.7,1.7-5.4,5.1c-1,4.9-3.4,9.2-9.1,9.9C55,63,54.7,64.1,54.8,66c0.4,8.9,0.5,17.9,1.3,26.8c0.7,7.6,2.7,15.1,6.6,21.8
			c7.3,12.6,18.8,20.7,31.4,27.2c0.3,0.1,0.7,0.2,1.1,0.2v-28.3C94.9,114.1,94.5,114.5,94.2,115z"/>
	</g>
	<g>
		<path class="st3" d="M97.7,160.5c6.6-4.1,13.4-7.8,19.7-12.3c15.8-11.1,26.4-25.8,30.3-45.1c2.5-12.5,3.6-25.1,3.6-37.8
			c0-4.6-0.4-9.2-0.6-13.8c-5.2,0.2-10.2-0.2-12.6-5.2c-1.9-4.2-2.8-8.8-4.4-13.8c-6.2-0.7-13.2-1.5-20.2-2.2
			c-4.9-0.5-9.7-1.1-14.6-1.3c-1.3,0-2.5,0-3.8,0v6.4c10.6,0,21.3,0.8,31.9,2.4c0.8,0.1,1.7,1.2,2.2,2c0.5,0.9,0.6,2.1,0.9,3.1
			c2.8,9,5.6,11.8,14.9,14.6c0,5.9,0.2,11.6,0,17.4c-0.5,10.7-1.7,21.3-4.6,31.7c-2.9,10.8-8.4,20.1-16.4,27.8
			c-8.1,7.9-17.3,14.2-27.3,19.4c-0.4,0.2-1,0.4-1.6,0.4v7.4c0.1,0,0.2,0,0.2,0C96.2,161.4,97,160.9,97.7,160.5z"/>
		<path class="st4" d="M96.8,141.6c3.4-1.9,6.9-3.8,10.1-6c9.1-6.2,17.4-13.2,22-23.6c6.8-15.5,7.1-32,6.6-48.9
			c-7-0.2-10.3-4.4-11.5-10.3c-0.7-3.4-1.9-4.6-5.5-5.1c-7.8-1-15.6-1.5-23.3-1.5v49.5c5.6-6.7,11.1-13.3,16.6-19.9
			c0.4-0.4,0.7-0.9,1.1-1.4c2.5-2.8,5.7-3.2,8.3-1.1c2.5,2.1,2.8,5.5,0.5,8.4c-5.2,6.4-10.5,12.7-15.8,19c-3.5,4.2-7,8.3-10.8,12.8
			v28.3C95.8,141.9,96.4,141.8,96.8,141.6z"/>
	</g>
</g>
</svg>
