<?xml version="1.0" encoding="utf-8"?>
<!-- Generator: Adobe Illustrator 23.0.3, SVG Export Plug-In . SVG Version: 6.00 Build 0)  -->
<svg version="1.1" id="Layer_1" xmlns="http://www.w3.org/2000/svg" xmlns:xlink="http://www.w3.org/1999/xlink" x="0px" y="0px"
	 viewBox="0 0 192 192" style="enable-background:new 0 0 192 192;" xml:space="preserve">
<style type="text/css">
	.st0{fill:#EE4036;}
	.st1{fill:none;}
	.st2{fill:#FAAF40;}
	.st3{fill:#F05A28;}
</style>
<g>
	<path class="st0" d="M129.3,59.2c-6.5-5-14.2-7.1-22.2-7.8c-5.8-0.5-11.6-0.5-17.3-0.6c-1.6,0-2.1-0.5-2-2.1c0.1-2.7,0-5.4,0-8
		c0-2.2-0.8-3.8-2.9-4.7c-2.1-0.9-3.9-0.3-5.4,1.2C72.2,44.6,64.9,52,57.7,59.3c-2.2,2.3-2.2,5.2,0.1,7.5
		c7.2,7.3,14.3,14.6,21.5,21.8c1.9,1.9,3.7,2.4,5.7,1.5c2.1-1,2.9-2.7,2.8-5c-0.1-3.2,0-6.3,0-9.4c3.8-0.7,16-0.2,20.6,0.8
		c11.2,2.4,16.2,8,16.9,19.5c0.3,4.5-0.2,9.1-0.4,13.7c-0.1,1.6,0.3,2.9,1.9,3.4c1.5,0.5,2.8-0.1,3.6-1.4c6.8-10.4,11.1-21.3,9-34.1
		C138.1,70.2,135.3,63.8,129.3,59.2z"/>
	<g>
		<path class="st1" d="M65.7,98.8c-0.2,0.1-0.3,0.2-0.4,0.3c-1,1.6-1.9,3.2-3,5.1c14.6,0,28.8,0,43.2,0l-39.2-4.4L65.7,98.8z"/>
		<path class="st2" d="M117.4,107.2l-7.8-2.5l-4.1-0.5c-14.4,0-28.7,0-43.2,0c1.1-1.9,1.9-3.5,3-5.1c0.1-0.1,0.2-0.2,0.4-0.3
			l-2.9-5.3c-0.6,0.3-1.2,0.8-1.6,1.6c-2.1,3.8-4.3,7.4-6.3,11.2c-0.5,0.9-0.7,2-0.7,3c0,12.5,0,25,0,37.5c0,3.2,1.5,4.6,4.7,4.6
			c9,0,18.1,0,27.1,0c9.1,0,18.2,0,27.3,0c3.2,0,4.6-1.3,4.6-4.4c0-12.7,0-25.4,0-38.1C117.7,108.3,117.6,107.7,117.4,107.2z"/>
		<path class="st3" d="M66.9,98.5c12.7,0,25.4,0,38.1,0c0.6,0,1.5,0.4,1.9,0.9c1,1.4,1.8,3,2.8,4.7c-1.4,0-2.8,0-4.1,0l4.1,0.5
			l7.8,2.5c-0.1-0.4-0.2-0.8-0.4-1.1c-2-3.6-4.2-7.2-6.1-10.8c-0.8-1.5-1.8-2.1-3.5-2.1c-14.2,0-28.5,0-42.8,0
			c-0.7,0-1.3,0.1-1.9,0.4l2.9,5.3C66,98.6,66.5,98.5,66.9,98.5z"/>
	</g>
</g>
</svg>
