<?xml version="1.0" encoding="UTF-8"?>
<svg id="Layer_2" data-name="Layer 2" xmlns="http://www.w3.org/2000/svg" viewBox="0 0 371.98 371.98">
  <defs>
    <style>
      .cls-1 {
        fill: #fff;
      }

      .cls-2 {
        fill: none;
      }

      .cls-3 {
        fill: #672874;
      }
    </style>
  </defs>
  <g id="Layer_1-2" data-name="Layer 1">
    <rect class="cls-2" width="371.98" height="371.98"/>
    <g>
      <path class="cls-1" d="M298.55,334.94H73.43V37.04h225.12v297.89Z"/>
      <g>
        <g>
          <path class="cls-3" d="M135.65,225.75c.12-.05.2-.1.28-.1,2.62,0,5.23-.01,7.85-.01.11,0,.23.05.39.08.02.22.06.42.06.62,0,.96.06,1.93,0,2.89-.12,1.84,1.25,3.58,3.58,3.74.24.02.48,0,.72,0,4.9-.06,9.81-.11,14.71-.17,8.09-.09,16.19-.17,24.28-.26,1.17-.01,2.35-.04,3.52-.06.26,0,.53-.03.83-.05.03-.22.08-.39.09-.56.01-.36,0-.72,0-1.08,0-49.07,0-98.15,0-147.22q0-1.35.77-2.48c1.3-1.88,2.59-3.77,3.89-5.65.18-.27.38-.53.61-.84.16.19.28.31.38.45.95,1.42,1.9,2.85,2.86,4.28.21.31.33.63.3,1.01-.02.3,0,.6,0,.9,0,50.1,0,100.19,0,150.29,0,.44-.06.9.09,1.38.18.03.35.06.53.07.18.01.36,0,.54,0,7.1,0,14.2,0,21.3,0,.24,0,.48,0,.72,0,1.59-.09,2.73-.95,3.21-2.46.27-.84.38-1.7.33-2.58-.04-.66-.07-1.32-.07-1.98-.01-4.06-.03-8.12-.02-12.19,0-1.54.14-3.06.47-4.57.4-1.79,1.14-3.43,2.3-4.85.76-.93,1.59-1.8,2.42-2.67.73-.76,1.51-1.47,2.24-2.23,4.42-4.55,7.19-9.96,8.43-16.16.43-2.13.65-4.28.7-6.45.08-3.13-.42-6.17-1.37-9.14-1.26-4-2.92-7.83-4.75-11.59-3.46-7.12-7.44-13.96-11.66-20.65-2.01-3.18-4.1-6.3-6.16-9.45-.17-.26-.3-.59-.68-.76-.04.14-.09.25-.1.35-.01.33-.01.66-.01.99,0,28.82,0,57.65,0,86.47,0,.45-.02.9-.02,1.38-.21.04-.38.11-.55.11-2.38,0-4.75,0-7.13,0-.17,0-.35-.04-.51-.06-.04-.13-.09-.22-.09-.3,0-39.27,0-78.53,0-117.8,0-.08.04-.16.06-.24.27-.05.31.18.4.31,2.4,3.46,4.8,6.92,7.17,10.4,5.03,7.38,9.94,14.85,14.61,22.47,3.71,6.05,7.27,12.19,10.5,18.52,2.05,4.02,3.98,8.1,5.59,12.31,1.24,3.23,2.24,6.54,2.89,9.95.62,3.24.84,6.5.58,9.79-.22,2.83-.86,5.58-1.81,8.26-.98,2.75-2.14,5.43-3.39,8.06-1.38,2.89-3.22,5.5-5.2,8-1.52,1.91-3.13,3.73-4.84,5.47-.13.13-.25.26-.38.39-.77.75-1.15,1.65-1.15,2.74,0,2.41-.06,4.81-.08,7.22-.03,3.85-.06,7.7-.08,11.55,0,1.09-.17,2.15-.5,3.2-.55,1.75-1.55,3.18-2.99,4.31-1.55,1.21-3.32,1.92-5.24,2.28-.35.07-.72.07-1.08.08-9.15.05-18.29.11-27.44.15-5.69.03-11.37.03-17.06.05-4.42.02-8.85.06-13.27.05-6.65-.02-13.3-.08-19.95-.15-1.17-.01-2.36-.06-3.5-.28-3.88-.75-6.52-3.05-8.03-6.67-.75-1.8-1.1-3.68-1.15-5.63-.02-.87,0-1.75,0-2.62,0-.2.05-.41.07-.61Z"/>
          <path class="cls-3" d="M160.87,214.66c-.33.02-.54.05-.74.05-5.93,0-11.86,0-17.78,0-1.57,0-2.96-.5-4.16-1.49-3.69-3.02-7.07-6.35-9.95-10.17-3.62-4.79-6.18-10.09-7.46-15.98-.43-1.97-.71-3.96-.88-5.97-.21-2.53-.17-5.05-.1-7.58.15-5.08,1.29-9.94,3.16-14.65,1.88-4.73,4.09-9.3,6.5-13.78,4.34-8.06,9.19-15.81,14.35-23.37.13-.19.29-.36.48-.6.17.33.11.6.11.85,0,3.85,0,7.7,0,11.55,0,1.05-.02,2.11,0,3.16.01.51-.13.91-.45,1.31-2.38,2.96-4.49,6.11-6.37,9.41-4.34,7.6-7.43,15.69-9.35,24.23-.15.67-.27,1.36-.4,2.03-.26,1.28-.2,2.58-.14,3.87.11,2.53.42,5.03,1.02,7.5,1.7,7.01,5.15,12.98,10.49,17.85.71.65,1.49,1.22,2.24,1.82.34.28.72.4,1.17.39,2.98-.01,5.96,0,8.94,0,.27,0,.55.04.78-.16.14-.34.08-.71.08-1.06,0-5.06,0-10.11,0-15.17,0-26.66,0-53.32-.02-79.98,0-.89.23-1.6.72-2.33,9.03-13.57,18.05-27.16,27.06-40.74.2-.3.4-.6.61-.9,1.39-2.02,4.4-2.96,6.9-1.4,1.02.63,1.96,1.39,2.93,2.09-.02.4-.28.64-.46.9-2.75,4.13-5.51,8.26-8.27,12.39-6.77,10.13-13.53,20.27-20.31,30.39-.37.55-.54,1.09-.54,1.76,0,14.32-.01,28.65-.03,42.97,0,8.91-.02,17.81-.04,26.72-.02,8.88-.05,17.75-.07,26.63,0,2.14,0,4.27-.02,6.41,0,.33-.02.65-.03,1.05Z"/>
          <path class="cls-3" d="M179.46,214.63c-.96.12-7.76.11-8.51-.01-.02-.16-.06-.33-.07-.5-.01-.27,0-.54,0-.81,0-32.58,0-65.16-.02-97.74,0-.89.22-1.61.71-2.34,2.44-3.69,4.83-7.4,7.25-11.11.17-.26.3-.57.57-.77.07.09.13.13.13.18,0,37.54.01,75.09.01,112.63,0,.14-.04.29-.07.48Z"/>
        </g>
        <g>
          <path class="cls-3" d="M128.52,284.88c-.28.03-.51.07-.74.08-3.73.09-7.3.05-8.06-.12.08-.19.13-.41.25-.56.36-.46.42-.97.42-1.53,0-3.34,0-6.68,0-10.01,0-3.58-.01-7.16.01-10.74,0-.69-.13-1.3-.49-1.88-.28-.45-.58-.91-.74-1.37.03-.09.04-.12.06-.14.02-.02.06-.03.08-.03,2.95,0,5.89-.02,8.84-.02.14,0,.29.02.45.03.05.34-.19.52-.33.73-.84,1.23-.73.81-.73,2.32,0,2.59,0,5.17,0,7.76,0,.33.02.65.04,1.02.23.01.41.06.57.03,2.3-.43,4.6-.87,6.91-1.31.14-.03.28-.09.46-.15.03-.25.07-.48.07-.71,0-2.29,0-4.57,0-6.86,0-.43-.09-.83-.25-1.22-.2-.49-.44-.98-.55-1.46.06-.08.08-.11.1-.12.02-.02.06-.03.08-.03,2.59,0,5.17-.02,7.76-.02.27,0,.54,0,.88,0-.04.22-.06.38-.09.54-.02.09-.06.17-.11.25-.66,1.13-.75,2.36-.74,3.65.03,6.1.02,12.21,0,18.31,0,.64.08,1.25.35,1.84.18.38.32.78.47,1.17.06.16.08.34.13.55-.21.03-.39.08-.56.08-2.41.09-7.54.03-8.29-.08-.16-.16-.05-.34,0-.5.2-.63.44-1.25.63-1.88.1-.34.18-.7.19-1.06.02-2.29.01-4.57,0-6.86,0-.21-.05-.41-.08-.65-.17-.01-.32-.05-.46-.03-2.29.34-4.57.69-6.86,1.03-.06,0-.12.01-.18.02-.34.07-.44.18-.46.56-.01.18,0,.36,0,.54,0,1.62,0,3.25,0,4.87,0,.52.07,1.01.24,1.5.22.62.42,1.25.62,1.88.05.17.08.34.14.57Z"/>
          <path class="cls-3" d="M218.87,279.37c-3.19.24-6.27.55-9.32.84-.08.11-.16.17-.19.25-.32,1-.62,2.01-.94,3.01-.07.21-.06.41.07.6.14.22.26.46.37.66-.1.23-.26.22-.4.22-.27.01-.54.01-.81.01-2.44,0-4.87,0-7.31,0-.3,0-.59-.02-.86-.03-.13-.23,0-.32.12-.4.54-.37.84-.9,1.1-1.5,3-7.09,6.02-14.17,9.02-21.25.47-1.11.48-.84-.03-1.93-.15-.33-.3-.65-.45-.98-.02-.05-.01-.11-.02-.17.01-.03.02-.06.04-.08.02-.02.06-.02.09-.03.15-.01.3-.02.45-.02,2.65,0,5.29,0,7.9,0,.32.22.37.53.48.8,1.47,3.62,2.94,7.24,4.4,10.87,1.76,4.35,3.51,8.7,5.27,13.04.16.39.38.74.58,1.11.07.13.14.25.21.38-.22.25-.47.18-.69.18-1.59,0-3.19,0-4.78,0-.96,0-1.93,0-2.89,0-.26,0-.54.06-.81-.15-.01-.32.24-.52.39-.77.11-.19.19-.37.14-.59-.34-1.34-.71-2.66-1.12-4.09ZM214.23,267.17c-1.1,2.79-2.14,5.4-3.17,8.02-.03.07.01.17.02.27.1.02.19.06.27.05,1.73-.18,3.46-.36,5.18-.55.14-.02.27-.1.46-.17-.78-2.44-1.66-4.79-2.47-7.17-.04-.1-.12-.19-.29-.44Z"/>
          <path class="cls-3" d="M175.28,284.82c-.12.06-.2.12-.27.12-2.89,0-5.77,0-8.66,0-.08,0-.15-.06-.25-.1.01-.34.26-.54.4-.8.11-.18.21-.36.15-.59-.37-1.33-.73-2.66-1.11-4-1.1-.12-2.14.11-3.18.19-1.02.07-2.03.19-3.05.28-1.05.1-2.09.2-3.17.3-.1.23-.21.44-.28.66-.24.77-.46,1.56-.72,2.33-.15.44-.11.82.17,1.18.09.11.13.26.18.36-.08.24-.25.22-.39.22-.63,0-1.26,0-1.89,0-2.04,0-4.09,0-6.13,0-.33,0-.65-.02-.95-.02-.12-.24,0-.35.12-.43.55-.37.84-.91,1.09-1.5,3.02-7.14,6.06-14.27,9.09-21.4.11-.25.21-.5.31-.76-.21-.74-.7-1.38-.91-2.19.45-.14.87-.07,1.27-.08.39-.01.78,0,1.17,0h4.87c.42,0,.84,0,1.3,0,.15.35.3.67.43,1,3.18,7.85,6.35,15.71,9.53,23.56.19.47.47.9.7,1.36.05.1.09.2.15.33ZM160.94,267.27c-.09.14-.19.25-.25.38-.97,2.42-1.94,4.85-2.9,7.28-.06.15-.07.33-.12.58,1.95-.16,3.82-.38,5.69-.6.08,0,.14-.09.21-.14-.14-.81-2.24-6.82-2.63-7.5Z"/>
          <path class="cls-3" d="M185.4,279.67c.35.03.58.06.81.06,2.62,0,5.23,0,7.85,0,.43,0,.82-.08,1.21-.29.74-.41,1.49-.79,2.23-1.17.21-.11.43-.19.67-.3.03.13.07.21.06.29-.21,1.39-1.26,6.05-1.48,6.59-.33.18-.7.11-1.05.11-2.35,0-4.69,0-7.04,0-3.34,0-6.68,0-10.01,0-.32,0-.66.07-1.03-.12.08-.14.13-.27.21-.38.12-.17.27-.32.4-.49.62-.76.57-.48.57-1.62,0-6.8,0-13.59.01-20.39,0-.63-.11-1.18-.46-1.7-.25-.37-.46-.78-.67-1.17-.07-.12-.1-.26-.14-.36.06-.08.07-.11.09-.12.02-.02.06-.02.09-.02,2.8,0,5.59-.01,8.39-.02.12,0,.24.02.41.04-.04.16-.06.31-.11.44-.07.17-.14.33-.24.48-.69,1.05-.81,2.2-.8,3.44.04,5.17.02,10.34.02,15.51,0,.36,0,.72,0,1.18Z"/>
          <path class="cls-3" d="M252.68,277.97c0,.72-1.14,6.1-1.46,6.92-.12.02-.27.07-.41.07-6.16,0-12.33-.02-18.49-.03-.04,0-.09-.07-.18-.14.12-.33.38-.58.62-.83.43-.43.58-.93.57-1.54-.02-6.86-.02-13.72,0-20.57,0-.53-.1-1-.39-1.45-.28-.43-.52-.88-.77-1.33-.07-.12-.11-.26-.16-.41.74-.12,8.06-.14,9-.02-.04.14-.05.29-.11.41-.2.44-.4.88-.64,1.29-.3.51-.38,1.05-.38,1.64.01,5.11,0,10.23,0,15.34,0,.75,0,1.5,0,2.29.26.04.45.1.65.1,2.71,0,5.41,0,8.12,0,.37,0,.71-.09,1.03-.26.8-.42,1.6-.84,2.4-1.25.18-.09.38-.16.58-.25Z"/>
        </g>
        <g>
          <path class="cls-3" d="M119.39,293.74h3.46v10.27h-3.46v-10.27Z"/>
          <path class="cls-3" d="M140.15,293.74v10.27h-2.85l-3.9-4.66v4.66h-3.37v-10.27h2.85l3.9,4.66v-4.66h3.37Z"/>
          <path class="cls-3" d="M147.32,293.74h5.06c1.14,0,2.15.21,3.03.62.88.42,1.55,1.01,2.04,1.78.48.77.73,1.68.73,2.73s-.24,1.96-.73,2.73c-.48.77-1.16,1.37-2.04,1.78-.88.42-1.88.62-3.03.62h-5.06v-10.27ZM152.24,301.31c.74,0,1.34-.21,1.78-.64.44-.43.67-1.02.67-1.8s-.22-1.37-.67-1.8c-.45-.43-1.04-.64-1.78-.64h-1.45v4.87h1.45Z"/>
          <path class="cls-3" d="M167.35,303.55c-.88-.46-1.57-1.1-2.07-1.91-.5-.82-.75-1.74-.75-2.77s.25-1.95.75-2.77c.5-.82,1.19-1.45,2.07-1.91.88-.46,1.87-.69,2.98-.69s2.1.23,2.98.69c.88.46,1.57,1.1,2.07,1.91.5.82.75,1.74.75,2.77s-.25,1.95-.75,2.77c-.5.82-1.19,1.45-2.07,1.91-.88.46-1.87.69-2.98.69s-2.1-.23-2.98-.69ZM171.49,301.12c.35-.21.62-.51.83-.89.21-.39.31-.84.31-1.36s-.1-.97-.31-1.36c-.21-.39-.48-.68-.83-.89-.35-.21-.74-.32-1.17-.32s-.82.11-1.17.32c-.35.21-.62.51-.83.89-.21.39-.31.84-.31,1.36s.1.97.31,1.36c.21.39.48.68.83.89.35.21.74.32,1.17.32s.82-.1,1.17-.32Z"/>
          <path class="cls-3" d="M193,293.74v10.27h-2.85l-3.9-4.66v4.66h-3.37v-10.27h2.85l3.9,4.66v-4.66h3.37Z"/>
          <path class="cls-3" d="M208.71,301.4v2.61h-8.54v-10.27h8.35v2.61h-4.94v1.2h4.34v2.49h-4.34v1.35h5.13Z"/>
          <path class="cls-3" d="M216.89,303.96c-.81-.19-1.47-.45-1.99-.77l1.11-2.52c.49.28,1.04.51,1.64.68.61.17,1.19.26,1.75.26.48,0,.82-.05,1.03-.14.21-.09.31-.23.31-.42,0-.22-.13-.38-.4-.48-.27-.11-.71-.22-1.33-.35-.79-.17-1.45-.34-1.98-.54-.53-.19-.99-.5-1.38-.94-.39-.44-.59-1.02-.59-1.77,0-.65.18-1.23.54-1.76.36-.53.9-.94,1.62-1.25.72-.3,1.59-.45,2.62-.45.7,0,1.4.08,2.08.23.68.15,1.28.37,1.8.67l-1.04,2.51c-1.01-.51-1.96-.76-2.86-.76s-1.33.22-1.33.65c0,.21.13.36.4.46s.7.21,1.31.33c.78.15,1.44.32,1.98.51.54.19,1,.5,1.4.93.4.43.59,1.02.59,1.76,0,.65-.18,1.23-.54,1.75-.36.52-.9.94-1.62,1.25-.72.31-1.59.46-2.62.46-.85,0-1.68-.1-2.49-.29Z"/>
          <path class="cls-3" d="M230.69,293.74h3.46v10.27h-3.46v-10.27Z"/>
          <path class="cls-3" d="M248.32,302.22h-3.9l-.69,1.79h-3.52l4.49-10.27h3.4l4.49,10.27h-3.58l-.69-1.79ZM247.37,299.72l-1-2.58-1,2.58h2Z"/>
        </g>
      </g>
      <path class="cls-3" d="M293.72,329.4H78.26V42.59h215.46v286.81ZM85.71,321.94h200.55V50.04H85.71v271.91Z"/>
    </g>
  </g>
</svg>