<?xml version="1.0" encoding="utf-8"?>
<!-- Generator: Adobe Illustrator 23.0.3, SVG Export Plug-In . SVG Version: 6.00 Build 0)  -->
<svg version="1.1" id="Layer_1" xmlns="http://www.w3.org/2000/svg" xmlns:xlink="http://www.w3.org/1999/xlink" x="0px" y="0px"
	 viewBox="0 0 192 192" style="enable-background:new 0 0 192 192;" xml:space="preserve">
<style type="text/css">
	.st0{fill:#019147;}
	.st1{fill:#2C2C2B;}
	.st2{fill:#FFFFFF;}
</style>
<g>
	<g>
		<path class="st0" d="M96.1,34.8c33,0,59.7,26.8,59.7,59.7s-26.8,59.7-59.7,59.7s-59.7-26.8-59.7-59.7S63.1,34.8,96.1,34.8
			L96.1,34.8z"/>
		<g>
			<path class="st1" d="M30,98.2l-6.2-2.1l-0.3-3.7l0.2,0l0,0.3c0,0.3,0.1,0.5,0.2,0.6c0.1,0.1,0.2,0.2,0.3,0.2c0.1,0,0.4,0.1,0.9,0
				l6-0.4c0.5,0,0.8-0.1,0.9-0.1c0.1-0.1,0.2-0.2,0.3-0.3c0.1-0.2,0.1-0.4,0.1-0.6l0-0.3l0.2,0l0.3,4.8l-0.2,0l0-0.3
				c0-0.3-0.1-0.5-0.2-0.6c-0.1-0.1-0.2-0.2-0.3-0.2c-0.1,0-0.4-0.1-0.9,0l-6.8,0.5l8.6,2.9l0,0.2l-8,4.1l6.4-0.4
				c0.4,0,0.7-0.1,0.8-0.1c0.2-0.1,0.4-0.2,0.5-0.4c0.1-0.2,0.2-0.5,0.2-0.9l0.2,0l0.2,3.1l-0.2,0l0-0.1c0-0.2-0.1-0.4-0.1-0.6
				c-0.1-0.2-0.2-0.3-0.3-0.4c-0.1-0.1-0.3-0.1-0.5-0.2c-0.1,0-0.3,0-0.7,0l-5.8,0.4c-0.5,0-0.8,0.1-0.9,0.1
				c-0.1,0.1-0.2,0.2-0.3,0.3c-0.1,0.2-0.1,0.4-0.1,0.6l0,0.3l-0.2,0l-0.3-3.7L30,98.2z M32.7,77.4l-0.8,3.1l0.8,0.6
				c0.3,0.2,0.5,0.3,0.7,0.4c0.2,0.1,0.5,0,0.6-0.2c0.1-0.1,0.2-0.4,0.4-0.8l0.2,0.1l-0.7,2.9l-0.2-0.1c0-0.3,0-0.6-0.2-0.9
				c-0.2-0.3-0.5-0.6-1.1-1.1l-6.3-4.9l0-0.1l8.1-1.4c0.8-0.1,1.3-0.3,1.5-0.4c0.2-0.1,0.3-0.3,0.4-0.6l0.2,0.1l-1.1,4.3l-0.2-0.1
				l0-0.2c0.1-0.3,0.1-0.6,0-0.8c0-0.1-0.1-0.2-0.3-0.2c-0.1,0-0.2,0-0.2,0c0,0-0.2,0-0.5,0.1L32.7,77.4z M32.1,77.5l-3.4,0.6
				l2.7,2.1L32.1,77.5z M32.8,60.6l-0.2-0.1l2.4-4.2l0.2,0.1L35,56.6c-0.1,0.2-0.2,0.4-0.2,0.6c0,0.1,0,0.3,0.1,0.4
				c0.1,0.1,0.3,0.3,0.7,0.5l3.9,2.2c0.8,0.4,1.3,0.8,1.5,1.2c0.3,0.3,0.4,0.8,0.4,1.3c0,0.5-0.1,1-0.5,1.6
				c-0.4,0.7-0.9,1.1-1.5,1.3C39,66,38.5,66,38.1,65.8c-0.3-0.2-0.4-0.4-0.5-0.6c-0.1-0.3,0-0.5,0.1-0.8c0.1-0.2,0.3-0.4,0.6-0.5
				c0.2-0.1,0.5,0,0.7,0.1c0.1,0.1,0.2,0.1,0.3,0.2c0,0,0.1,0.2,0.2,0.3c0.1,0.2,0.2,0.3,0.2,0.4c0.1,0.1,0.2,0.1,0.3,0
				c0.2-0.1,0.4-0.2,0.5-0.5c0.1-0.2,0.1-0.3,0.1-0.5c0-0.2-0.1-0.3-0.3-0.5c-0.2-0.2-0.7-0.5-1.5-0.9l-4.2-2.5
				c-0.4-0.2-0.7-0.4-0.8-0.4c-0.1,0-0.3,0-0.4,0.1s-0.3,0.2-0.4,0.5L32.8,60.6z M43.8,45.6l2.7,2.6l0.1-0.1
				c0.4-0.4,0.6-0.8,0.5-1.3c-0.1-0.4-0.3-0.9-0.8-1.5l0.2-0.2l3.5,3.3l-0.2,0.2c-0.4-0.3-0.8-0.5-1.2-0.7s-0.7-0.1-0.9,0
				s-0.5,0.3-0.8,0.6l1.9,1.8c0.4,0.3,0.6,0.5,0.7,0.6s0.2,0.1,0.4,0c0.1,0,0.3-0.1,0.5-0.3l0.4-0.4c0.6-0.6,0.9-1.2,1-1.9
				s-0.1-1.3-0.5-2.1l0.2-0.2l1.8,2.3l-5.5,5.7l-0.2-0.2l0.2-0.2c0.2-0.2,0.3-0.4,0.3-0.6c0-0.1,0-0.3,0-0.4c0-0.1-0.2-0.3-0.6-0.7
				L43,47.9c-0.3-0.3-0.5-0.5-0.6-0.5c-0.1-0.1-0.3-0.1-0.4-0.1c-0.2,0-0.4,0.2-0.6,0.4l-0.2,0.2L41,47.7l5.3-5.5l2,1.9L48,44.3
				c-0.6-0.4-1-0.6-1.4-0.6c-0.4,0-0.8,0.1-1.2,0.3c-0.2,0.1-0.6,0.4-1.1,0.9L43.8,45.6z M66,35.5l1.3,3l-7.1,3.9L60,42.2l0.3-0.2
				c0.2-0.1,0.4-0.3,0.5-0.4c0.1-0.1,0.1-0.2,0.1-0.4c0-0.1-0.1-0.4-0.3-0.8l-2.9-5.3c-0.2-0.4-0.4-0.7-0.5-0.7
				c-0.1-0.1-0.2-0.1-0.4-0.1s-0.4,0.1-0.6,0.2l-0.3,0.2l-0.1-0.2l4.3-2.4l0.1,0.2l-0.3,0.2c-0.2,0.1-0.4,0.3-0.5,0.4
				c-0.1,0.1-0.1,0.2-0.1,0.4c0,0.1,0.1,0.4,0.3,0.8l2.8,5.1c0.2,0.4,0.4,0.7,0.5,0.7c0.1,0.1,0.2,0.1,0.4,0.1
				c0.1,0,0.4-0.1,0.7-0.3l0.7-0.4c0.4-0.2,0.7-0.5,0.9-0.8c0.2-0.3,0.3-0.7,0.3-1.1s0-1-0.2-1.8L66,35.5z M80,33.4l0.1,0.2
				l-4.6,1.2l-0.1-0.2l0.3-0.1c0.3-0.1,0.4-0.2,0.6-0.3c0.1-0.1,0.2-0.2,0.2-0.4c0-0.1,0-0.4-0.2-0.8l-1.6-5.8
				c-0.1-0.5-0.2-0.7-0.3-0.8s-0.2-0.2-0.4-0.2c-0.2,0-0.4,0-0.6,0l-0.3,0.1L73.1,26l4.6-1.2l0.1,0.2l-0.3,0.1
				c-0.3,0.1-0.4,0.2-0.6,0.3c-0.1,0.1-0.2,0.2-0.2,0.4c0,0.1,0,0.4,0.2,0.8l1.6,5.8c0.1,0.5,0.2,0.7,0.3,0.8s0.2,0.2,0.4,0.2
				c0.2,0,0.4,0,0.6,0L80,33.4z M94,22.1l0.3,3l-0.3,0c-0.2-0.8-0.5-1.3-1.1-1.8c-0.5-0.4-1.1-0.6-1.7-0.6c-0.5,0-0.8,0.2-1.1,0.4
				s-0.4,0.5-0.3,0.9c0,0.2,0.1,0.4,0.2,0.5c0.1,0.2,0.4,0.4,0.7,0.6c0.2,0.1,0.7,0.4,1.5,0.7c1.1,0.5,1.9,0.9,2.3,1.3
				c0.4,0.4,0.6,1,0.7,1.6c0.1,0.8-0.2,1.4-0.8,2c-0.6,0.6-1.3,0.9-2.2,1c-0.3,0-0.6,0-0.8,0s-0.6-0.1-1-0.3
				c-0.2-0.1-0.4-0.1-0.5-0.1c-0.1,0-0.2,0.1-0.4,0.2s-0.2,0.2-0.3,0.4l-0.2,0l-0.2-3.5l0.2,0c0.3,1,0.7,1.7,1.3,2.1
				c0.6,0.5,1.2,0.7,1.9,0.6c0.5,0,0.9-0.2,1.2-0.5s0.4-0.6,0.4-1c0-0.2-0.1-0.4-0.2-0.6c-0.1-0.2-0.3-0.4-0.6-0.5
				c-0.2-0.2-0.7-0.4-1.3-0.6c-0.9-0.4-1.5-0.7-1.9-0.9c-0.4-0.3-0.7-0.6-0.9-0.9s-0.3-0.7-0.4-1.1c-0.1-0.7,0.2-1.4,0.7-1.9
				s1.2-0.9,2-0.9c0.3,0,0.6,0,0.9,0c0.2,0,0.5,0.1,0.8,0.2c0.3,0.1,0.5,0.2,0.7,0.2s0.2,0,0.3-0.1c0.1-0.1,0.1-0.2,0.2-0.5L94,22.1
				z M128.2,29.9l4.1,2.3l-0.1,0.2l-0.2-0.1c-0.3-0.2-0.5-0.3-0.7-0.3s-0.3,0-0.4,0.1c-0.1,0.1-0.3,0.4-0.5,0.8l-2.2,3.9
				c-0.4,0.7-0.6,1.2-0.6,1.5c0,0.3,0.1,0.6,0.2,0.9s0.4,0.5,0.8,0.8c0.4,0.2,0.9,0.3,1.3,0.3s0.8-0.2,1.1-0.4
				c0.3-0.3,0.8-0.8,1.2-1.7l1.8-3.3c0.2-0.4,0.3-0.6,0.3-0.8c0-0.2,0-0.4-0.1-0.5c-0.1-0.2-0.3-0.4-0.7-0.6l0.1-0.2l2.8,1.5
				l-0.1,0.2l-0.2-0.1c-0.2-0.1-0.4-0.2-0.6-0.2c-0.2,0-0.4,0.1-0.5,0.2c-0.1,0.1-0.3,0.3-0.5,0.6l-1.7,3c-0.5,0.9-1,1.6-1.3,1.9
				c-0.4,0.3-0.9,0.6-1.6,0.7c-0.7,0.1-1.4-0.1-2.3-0.6c-0.7-0.4-1.2-0.8-1.4-1.2c-0.4-0.5-0.6-1.1-0.6-1.6c0-0.5,0.2-1.1,0.6-1.8
				l2.2-3.9c0.2-0.5,0.4-0.8,0.4-0.9s0-0.3-0.1-0.4c-0.1-0.1-0.3-0.3-0.6-0.5L128.2,29.9z M146.7,51.7l-2.6,2l-5.6-5.8l0.2-0.2
				l0.2,0.2c0.2,0.2,0.4,0.3,0.6,0.4c0.1,0,0.3,0,0.4,0c0.1,0,0.3-0.2,0.7-0.5l4.3-4.2c0.3-0.3,0.5-0.5,0.6-0.7
				c0.1-0.1,0.1-0.3,0-0.4c0-0.2-0.1-0.3-0.3-0.5l-0.2-0.2l0.2-0.2l3.4,3.5l-0.2,0.2l-0.3-0.3c-0.2-0.2-0.4-0.3-0.6-0.4
				c-0.1,0-0.3,0-0.4,0c-0.1,0-0.3,0.2-0.7,0.5l-4.2,4c-0.3,0.3-0.5,0.5-0.6,0.7c-0.1,0.1-0.1,0.3,0,0.4c0.1,0.1,0.2,0.3,0.5,0.6
				l0.5,0.5c0.3,0.3,0.7,0.6,1,0.7c0.4,0.1,0.7,0.1,1.2,0s1-0.3,1.6-0.7L146.7,51.7z M154.4,64.5l-1.5-2.8l-1,0.1
				c-0.3,0-0.6,0.1-0.7,0.2c-0.2,0.1-0.4,0.3-0.4,0.5c0,0.1,0.1,0.4,0.3,0.9l-0.2,0.1l-1.4-2.7l0.2-0.1c0.2,0.3,0.4,0.4,0.7,0.5
				c0.3,0.1,0.8,0.1,1.6,0l8-0.5l0.1,0.1l-5.1,6.4c-0.5,0.6-0.8,1.1-0.8,1.3c-0.1,0.2,0,0.4,0.1,0.7l-0.2,0.1l-2.1-3.9l0.2-0.1
				l0.1,0.2c0.2,0.3,0.3,0.5,0.5,0.6c0.1,0.1,0.2,0.1,0.4,0c0.1,0,0.1-0.1,0.2-0.2c0,0,0.1-0.2,0.4-0.4L154.4,64.5z M154.8,64.1
				l2.1-2.7l-3.4,0.2L154.8,64.1z M161.1,82.7l6.4,1.3l0.7,3.7l-0.2,0.1l-0.1-0.3c-0.1-0.3-0.1-0.5-0.3-0.6
				c-0.1-0.1-0.2-0.2-0.4-0.2c-0.1,0-0.4,0-0.8,0.1l-5.9,1.2c-0.5,0.1-0.7,0.2-0.9,0.2s-0.2,0.2-0.2,0.4c-0.1,0.2-0.1,0.4,0,0.6
				l0.1,0.3l-0.2,0.1l-0.9-4.7l0.2-0.1l0.1,0.3c0.1,0.3,0.1,0.5,0.3,0.6c0.1,0.1,0.2,0.2,0.4,0.2c0.1,0,0.4,0,0.9-0.1l6.7-1.3
				l-8.9-1.8l0-0.2l7.5-5.1l-6.3,1.2c-0.4,0.1-0.7,0.2-0.8,0.2c-0.2,0.1-0.4,0.3-0.5,0.5c-0.1,0.2-0.1,0.5,0,0.9l-0.2,0.1l-0.6-3.1
				l0.2-0.1l0,0.1c0,0.2,0.1,0.4,0.2,0.5c0.1,0.2,0.2,0.3,0.4,0.3s0.3,0.1,0.5,0.1c0.1,0,0.3,0,0.7-0.1l5.7-1.1
				c0.5-0.1,0.7-0.2,0.8-0.2c0.1-0.1,0.2-0.2,0.2-0.4c0.1-0.2,0.1-0.4,0-0.6l-0.1-0.3l0.2-0.1l0.7,3.7L161.1,82.7z M161.1,103.6
				l0.4-3.2l-0.8-0.5c-0.3-0.2-0.5-0.2-0.7-0.3c-0.3,0-0.5,0.1-0.6,0.2c-0.1,0.1-0.2,0.4-0.3,0.9l-0.2,0l0.4-3l0.2,0
				c0,0.3,0.1,0.6,0.3,0.8c0.2,0.2,0.6,0.6,1.3,0.9l6.9,4.1l0,0.1l-7.9,2.4c-0.8,0.2-1.2,0.4-1.4,0.6c-0.2,0.1-0.3,0.3-0.3,0.6
				l-0.2,0l0.5-4.4l0.2,0l0,0.2c0,0.3,0,0.6,0.1,0.8c0.1,0.1,0.2,0.2,0.3,0.2c0.1,0,0.2,0,0.2,0c0,0,0.2-0.1,0.5-0.1L161.1,103.6z
				 M161.6,103.4l3.3-1l-3-1.8L161.6,103.4z"/>
			<path class="st1" d="M34.7,132.4l-0.2,0.1l-2.4-4.2l0.2-0.1l0.2,0.3c0.1,0.2,0.3,0.4,0.4,0.5c0.1,0.1,0.2,0.1,0.4,0.1
				c0.1,0,0.4-0.1,0.8-0.4l5.2-3c0.4-0.2,0.7-0.4,0.7-0.5c0.1-0.1,0.1-0.2,0.1-0.4c0-0.2-0.1-0.4-0.2-0.6l-0.1-0.3l0.2-0.1l2.4,4.2
				l-0.2,0.1l-0.2-0.3c-0.1-0.2-0.3-0.4-0.5-0.5c-0.1-0.1-0.2-0.1-0.4-0.1c-0.1,0-0.4,0.1-0.8,0.4l-5.2,3c-0.4,0.2-0.7,0.4-0.7,0.5
				c-0.1,0.1-0.1,0.2-0.1,0.4c0,0.2,0.1,0.4,0.2,0.6L34.7,132.4z M49.5,137.2l-1.1,7.2l2.9-2.7c0.4-0.4,0.6-0.7,0.7-0.9
				c0-0.3-0.1-0.7-0.5-1.1l0.2-0.2l2.1,2.2l-0.2,0.2c-0.3-0.2-0.5-0.4-0.7-0.4c-0.2,0-0.3,0-0.5,0c-0.2,0.1-0.4,0.2-0.8,0.5
				l-5.6,5.2l-0.2-0.2l1.4-9.8l-4.3,4c-0.4,0.4-0.6,0.7-0.5,1c0,0.3,0.2,0.6,0.4,0.8l0.2,0.2l-0.2,0.2l-2.2-2.4l0.2-0.2
				c0.3,0.4,0.7,0.6,1,0.6c0.3,0,0.6-0.2,1-0.5l4.8-4.4l0-0.3c0-0.3,0-0.5,0-0.7c0-0.2-0.2-0.4-0.3-0.6l0.2-0.2L49.5,137.2z
				 M55.1,154.4l0.1-0.2l0.3,0.2c0.2,0.1,0.4,0.2,0.6,0.2c0.2,0,0.3,0,0.5-0.1c0.1-0.1,0.2-0.3,0.5-0.7l3.1-5.2
				c0.2-0.4,0.4-0.7,0.4-0.8s0-0.3-0.1-0.4c-0.1-0.1-0.2-0.3-0.5-0.4l-0.3-0.2l0.1-0.2l3.5,2.1c0.9,0.6,1.6,1.1,2,1.8
				c0.5,0.7,0.8,1.5,0.7,2.4c0,0.9-0.3,1.7-0.8,2.5c-0.3,0.6-0.7,1-1.2,1.4s-0.9,0.6-1.4,0.7c-0.5,0.1-0.9,0.2-1.4,0.1
				c-0.5,0-1-0.2-1.6-0.4c-0.3-0.1-0.7-0.3-1.2-0.6L55.1,154.4z M62.6,148.7l-3.7,6.1c-0.2,0.3-0.3,0.5-0.3,0.6c0,0.1,0,0.2,0.1,0.3
				c0.1,0.1,0.2,0.2,0.4,0.4c0.7,0.4,1.3,0.5,1.9,0.2c0.8-0.3,1.6-1.1,2.4-2.4c0.6-1,0.9-1.9,1-2.7c0-0.6-0.1-1.1-0.4-1.6
				C63.7,149.4,63.2,149.1,62.6,148.7L62.6,148.7z M80.5,155.7c1.4,0.4,2.4,1.1,3.1,2.2c0.6,1.1,0.8,2.4,0.4,3.7
				c-0.3,1.1-0.9,2-1.8,2.7c-1.2,0.9-2.6,1.1-4.2,0.6s-2.7-1.4-3.2-2.7c-0.4-1.1-0.5-2.2-0.2-3.3c0.4-1.3,1.1-2.3,2.3-2.9
				C78,155.3,79.2,155.2,80.5,155.7L80.5,155.7z M80.4,156.1c-0.8-0.2-1.5,0-2.2,0.7c-0.5,0.6-1,1.5-1.3,2.8
				c-0.4,1.5-0.5,2.7-0.2,3.6c0.2,0.6,0.7,1,1.3,1.2c0.4,0.1,0.8,0.1,1.2,0c0.5-0.2,0.9-0.5,1.3-1.1s0.7-1.3,1-2.3
				c0.3-1.2,0.5-2.1,0.4-2.7s-0.2-1.1-0.5-1.5C81.2,156.5,80.9,156.2,80.4,156.1L80.4,156.1z M96.1,157.7l4.7,5.5l-0.1-3.9
				c0-0.6-0.1-0.9-0.3-1.1c-0.2-0.2-0.6-0.4-1.1-0.3l0-0.2l3-0.1l0,0.2c-0.4,0.1-0.6,0.1-0.8,0.2c-0.1,0.1-0.2,0.2-0.3,0.4
				s-0.1,0.5-0.1,0.9l0.3,7.6l-0.2,0l-6.5-7.4l0.2,5.8c0,0.5,0.2,0.9,0.4,1.1s0.5,0.3,0.8,0.2l0.2,0l0,0.2l-3.3,0.1l0-0.2
				c0.5,0,0.9-0.1,1.1-0.4s0.3-0.6,0.3-1.1l-0.2-6.5l-0.2-0.2c-0.2-0.2-0.4-0.4-0.5-0.5s-0.4-0.1-0.7-0.1l0-0.2L96.1,157.7z
				 M113.9,155.7l1,3.6l0.2-0.1c0.6-0.2,0.9-0.4,1.1-0.9c0.2-0.4,0.2-1,0-1.7l0.2-0.1l1.3,4.6l-0.2,0.1c-0.2-0.5-0.4-0.9-0.7-1.1
				c-0.3-0.3-0.5-0.4-0.8-0.5c-0.2,0-0.6,0-1,0.1l0.7,2.5c0.1,0.5,0.2,0.8,0.3,0.9c0.1,0.1,0.2,0.2,0.3,0.2c0.1,0,0.3,0,0.6-0.1
				l0.5-0.1c0.8-0.2,1.4-0.6,1.8-1.1c0.4-0.5,0.6-1.2,0.6-2.1l0.2-0.1l0.4,2.9L113,165l-0.1-0.2l0.3-0.1c0.3-0.1,0.4-0.2,0.6-0.3
				c0.1-0.1,0.2-0.2,0.2-0.4c0-0.1,0-0.4-0.2-0.8l-1.7-5.8c-0.1-0.4-0.2-0.6-0.2-0.7c-0.1-0.1-0.2-0.2-0.3-0.3
				c-0.2-0.1-0.4-0.1-0.7,0l-0.3,0.1l-0.1-0.2l7.4-2.1l0.8,2.6l-0.2,0.1c-0.3-0.6-0.6-1-0.9-1.2s-0.7-0.3-1.1-0.3
				c-0.3,0-0.7,0.1-1.4,0.3L113.9,155.7z M130.9,147l1.7,2.5l-0.2,0.1c-0.5-0.6-1.1-0.9-1.8-1c-0.7-0.1-1.3,0-1.8,0.3
				c-0.4,0.2-0.6,0.6-0.7,0.9c-0.1,0.4-0.1,0.7,0.1,0.9c0.1,0.2,0.2,0.3,0.4,0.4c0.2,0.1,0.5,0.2,0.9,0.2c0.3,0,0.8,0,1.7-0.1
				c1.2-0.1,2.1-0.1,2.6,0.1s1,0.5,1.3,1.1c0.4,0.6,0.5,1.4,0.3,2.1c-0.2,0.8-0.7,1.4-1.5,1.9c-0.2,0.2-0.5,0.3-0.7,0.4
				s-0.6,0.2-1,0.2c-0.2,0-0.4,0.1-0.5,0.2c-0.1,0.1-0.2,0.2-0.2,0.3c-0.1,0.1-0.1,0.3,0,0.5l-0.2,0.1l-1.9-2.9l0.2-0.1
				c0.7,0.7,1.4,1.1,2.2,1.2s1.4,0,2-0.4c0.4-0.3,0.7-0.6,0.8-1s0.1-0.8-0.2-1.1c-0.1-0.2-0.3-0.3-0.5-0.4s-0.5-0.2-0.8-0.2
				c-0.3,0-0.8,0-1.4,0.1c-0.9,0.1-1.6,0.1-2.1,0.1c-0.5,0-0.9-0.2-1.2-0.4s-0.7-0.5-0.9-0.8c-0.4-0.6-0.5-1.3-0.3-2
				c0.2-0.7,0.6-1.3,1.3-1.8c0.2-0.2,0.5-0.3,0.8-0.4c0.2-0.1,0.5-0.1,0.8-0.2s0.6-0.1,0.7-0.2c0.1-0.1,0.2-0.1,0.2-0.2
				c0-0.1,0-0.3-0.1-0.5L130.9,147z M148.3,144.3l0.2,0.2l-3.5,3.3l-0.2-0.2l0.2-0.2c0.2-0.2,0.3-0.4,0.4-0.6c0-0.1,0-0.3,0-0.4
				c0-0.1-0.2-0.3-0.5-0.7l-4.2-4.4c-0.3-0.3-0.6-0.5-0.7-0.6s-0.3-0.1-0.4,0c-0.2,0-0.4,0.1-0.5,0.3l-0.2,0.2l-0.2-0.2l3.5-3.3
				l0.2,0.2l-0.2,0.2c-0.2,0.2-0.3,0.4-0.4,0.6c0,0.1,0,0.3,0,0.4c0,0.1,0.2,0.3,0.5,0.7l4.2,4.4c0.3,0.3,0.6,0.5,0.7,0.6
				s0.3,0.1,0.4,0c0.2,0,0.4-0.1,0.5-0.3L148.3,144.3z M155.9,130.5l-1.7,2.8l0.6,0.8c0.2,0.3,0.4,0.4,0.5,0.6
				c0.2,0.1,0.4,0.1,0.6,0c0.1-0.1,0.3-0.3,0.6-0.7l0.2,0.1l-1.6,2.6l-0.2-0.1c0.1-0.3,0.2-0.6,0.1-0.9s-0.3-0.8-0.8-1.4l-4.5-6.7
				l0.1-0.1l8.2,1.2c0.8,0.1,1.3,0.1,1.6,0c0.2-0.1,0.4-0.2,0.6-0.4l0.2,0.1l-2.4,3.8l-0.2-0.1l0.1-0.2c0.2-0.3,0.3-0.5,0.3-0.7
				c0-0.1-0.1-0.2-0.2-0.3c-0.1,0-0.1-0.1-0.2-0.1c0,0-0.2-0.1-0.5-0.1L155.9,130.5z M155.3,130.4l-3.4-0.5l1.9,2.9L155.3,130.4z"/>
		</g>
	</g>
	<g>
		<g>
			<path class="st0" d="M96.1,16.5C53,16.5,18,51.4,18,94.5s35,78.1,78.1,78.1c43.1,0,78.1-35,78.1-78.1
				C174.2,51.4,139.2,16.5,96.1,16.5z M96.1,171c-42.2,0-76.5-34.2-76.5-76.5S53.8,18,96.1,18s76.5,34.2,76.5,76.5
				S138.3,171,96.1,171z"/>
		</g>
	</g>
	<g>
		<polygon class="st2" points="82.6,108.4 82.6,102.7 81.4,102.7 81.4,104.8 79.1,104.8 79.1,102.7 77.9,102.7 77.9,108.4 
			79.1,108.4 79.1,105.9 81.4,105.9 81.4,108.4 		"/>
		<path class="st2" d="M90.3,108.4h1.2l-2.1-5.7h-1.3l-2,5.7h1.2l0.4-1.2H90L90.3,108.4z M88,106.3l0.8-2.4l0.8,2.4H88z"/>
		<polygon class="st2" points="95.1,102.7 95.1,108.4 99,108.4 99,107.4 96.3,107.4 96.3,102.7 		"/>
		<path class="st2" d="M105.4,102.7h-1.3l-2,5.7h1.2l0.4-1.2h2.2l0.4,1.2h1.2L105.4,102.7z M104,106.3l0.8-2.4l0.8,2.4H104z"/>
		<polygon class="st2" points="111,102.7 111,108.4 115,108.4 115,107.4 112.2,107.4 112.2,102.7 		"/>
		<path class="st2" d="M138.3,109.9c0-0.5,0.2-1,0.4-1.3c0-0.4,0.1-0.7,0.3-1c0.2-0.9,0.3-1.8,0.7-2.6c0-0.1-0.1-0.1-0.1-0.2
			c0.3-1.1,0.5-2.2,0.6-3.3c0.4-1,0.1-2.2,0.4-3.3c-0.4-1.6,0.4-3.3,0-4.9c-0.8,0.2-1.8,0.1-2.6,0.1v-0.2c-1.2,0-6.6-0.4-6.8-0.7
			c-0.2,0-0.5,0.2-0.6,0c-0.9-0.1-1,0.3-1.4-0.6c-0.2-0.3-0.8-0.9-0.8-1.2c-0.3-0.1-0.6-0.4-0.8-0.7h-0.1c0,0.2-0.8,0.8-1,0.8
			c0,0.1,0,0.2,0,0.3c-0.4,0.3-1,0.7-1.2,1.2c-1.3,0.5-0.6,1.5-0.3,2.4c0.2,0,0.3,0,0.4,0c0.3-0.3,3.1,0.2,3.6,0.1
			c0,0,0.1,0,0.2,0.1c0.3-0.1,0.4,0,0.7,0.1c1.9,0,3.8,0.3,5.5,0.3c0,0,0,0.1,0.1,0.2c0.4,0.1,0.8,0.2,1.3,0.2
			c0,0.1,0.1,0.2,0.2,0.3c1,0.2,0.6,1.6,0.4,2.3c-0.6,0.4-0.9,0.8-1.6,0.9c0,0-0.1,0.1-0.1,0.2c-0.6,0-2.2,0.2-2.7-0.1
			c-0.5,0.1-0.9-0.1-1.4-0.2c0-0.7-0.1-1.3-0.2-1.9c-0.3,0-0.4,0.1-0.6,0c0,0.1,0,0.1,0,0.2c-1.1,0.3-2.1,1.3-3.2,1.4
			c0,0.6,0.2,1.1,0.2,1.6c0.3,0.1,0.7,0.2,0.9,0.1c0.1,0,0.2,0,0.3,0.1c0,0,0.1-0.1,0.1-0.1c0.9,0.1,2.1,0.1,3,0.3
			c1.2,0.1,2.1,0.2,3.2,0.8v0.2c0.4,0.3,0.5,0.6,0.5,1c0.9,0.6,0.4,3.8-0.4,4.5c0,0.1,0,0.2,0,0.3c-0.1,0-0.3,0.1-0.4,0.2
			c0,0.1,0,0.2,0,0.3c-0.1,0-0.2,0-0.2,0.1c0,0.1,0,0.1-0.1,0.2c-0.1,0-0.2,0-0.3,0.1c-0.1,0.3-0.9,0.7-0.9,0.3
			c-0.5,0.3-1.5,0.3-2.1,0.2c0-0.1,0-0.1,0-0.2c-1,0.3-1.5-0.5-2.3-0.7c-0.6-0.6-0.6-0.8-0.8-1c-0.1-0.6-0.1-0.6-0.2-0.7
			c0.2-1.6-0.2-1.4-1.2-2.4c-0.7,0-1.4-0.7-2.2-0.7c-0.1,0.2-0.3,0.4-0.5,0.6c-0.3,1.1-1.7,2.2-2.8,2.4c-0.2,0.1-0.3,0.1-0.4,0.2
			c0,0.4-0.2,0.6-0.1,1c0.7-0.2,3.2,0.3,3.7,0.4c0.3,0.3,0.9,0.5,1.3,0.6c0.6,0.5,1.6,0.7,2,1.3c0.3,0,0.8,0.3,0.9,0.6
			c0.1-0.1,1.3,0.7,1.5,0.8c0.4,0.7,1.9,1.1,2,1.9c0,0,0.1,0,0.2,0c0.2,0.8-0.3,2.8-1.3,2.8c-0.1,0.1-0.1,0.1-0.2,0.2h-0.4
			c0,0,0,0.1-0.1,0.1c-0.6,0-1.2-0.1-1.9-0.1c-0.2-0.2-0.5-0.4-0.7-0.6c-0.5,0.1-0.8-0.6-1.2-0.6c0-0.1-0.1-0.2-0.1-0.2
			c-0.5-0.2-1.8-0.9-2.1-1.5c-0.5-0.2-0.8-0.6-1.2-1.1c0.1-0.1,0.2-1.6,0.2-1.6c0.4-0.5-0.2-0.5-0.2-0.8c-0.3,0.1-0.6-0.1-0.8-0.3
			c-0.9-0.1-1.4,0-1.9,0.7c-0.6-0.1-1.2,0-1.8-0.1c-0.2,0.3-0.5,0.3-0.5,0.7c0.2,0.1,0.5,0.2,0.7,0c0.8,0.4,2.1,1.2,2.5,2
			c0.1,0,0.2,0,0.3,0c0.1,0.1,0.1,0.2,0.2,0.3c0.1,0,0.2,0,0.4,0.1c0,0.1,0,0.2,0,0.3c0.2,0,0.3,0.1,0.5,0.2
			c0.5,0.8,1.8,1.3,2.1,2.2c0.7,0.1,1,0.9,1.6,1.3c0.5,0.6,0.9,1.1,1.4,1.7h0.2c0.2,0.5,0.3,0.6,0.2,1.1c0,0.3-0.2,0.5-0.3,0.8
			c-0.2-0.1-0.6,0.5-0.8,0.6c-0.3,0-0.7,0.2-1.2,0.2c-0.4-0.3-0.8-0.6-1.3-0.7c-0.6-0.5-0.6-0.5-1.8-1.1c-0.2-0.3-1-0.7-1.4-0.8
			c-0.3-0.4-0.5-0.5-0.8-0.8c-0.8-0.3-1-1.2-1-2c0.4-0.6,0.6-0.7,0.7-0.9c-0.6-0.8-0.7-1.1-1.7-0.9c-1.2-0.1-2.6,0.2-3.8,0.3
			c0,0.4-0.1,0.5-0.1,0.9c0.3,0.1,0.6,0.2,0.8,0.4c0.3,0,0.7,0.5,0.9,0.7c1.1,0.6,2.5,1.7,3.1,2.8c0,0,0.1,0,0.2,0.1
			c0,0.1,0,0.2,0,0.3c0.6,0.3,1.8,1.8,1.9,2.5c0.1,0,0.2,0,0.2,0.1c0,0.2,0,0.3,0.1,0.5c0.1,0,0.1,0,0.2,0c0.1,0.4,0.5,1.4,0.8,1.5
			c0,0.3,0,0.6,0.1,0.9c-0.1,0-0.1,0-0.2,0.1c0,0.1,0.1,0.1,0.1,0.2c-0.2,0.4-0.2,0.4-0.3,0.5c0,0,0,0.1,0.1,0.2
			c-0.6,1.2-1.1,2.1-2.5,2.2c-0.3,0.2-1.8,0.3-2-0.1c-0.3,0-1.1-0.1-1.2-0.4c-1.1-0.4-2.4-1.1-3.3-1.8c-1.2-0.4-2.1-1.3-3.3-1.6
			c0,0.1-0.1,0.2-0.1,0.2c-0.4,0.3-0.3,0.6-0.7,0.9c-0.3,1.3-0.9,2.6-1.2,4c-0.1,0.1-0.2,0.4-0.6,0.9c-0.1,0.8,1.1,3.2,1.7,3.7
			c0.7,0,1.7,0.1,2.3,0.6c0.7,0.1,1.5,0.4,2.1,1c0.1,0,0.1,0,0.2,0v0.4c0-0.1,0.1-0.1,0.2-0.1c0.1,0.2,0.2,0.6,0.5,0.7
			c-0.1,1.7-0.5,2.4-1.6,3.7c-0.4,0.9-1.4,0.1-2.1,0.6c-1.3-0.3-2.6-0.9-3.3-2.1h-0.1c-0.3-0.3-0.6-0.6-0.8-0.9h-0.2
			c-0.9,1,0.6,2.1,0.6,3.1c0.3,0.1,0.4,0.2,0.4,0.6c0.2,0.1,0.2,0.1,0.6,0.6c0.6,0.2,0.8,0.5,1.6,0.7c0.8,0.6,1.9,0.3,2.7,0.8
			c0,0,0.1-0.1,0.2-0.1c0.9,0.3,3-0.9,3.3-1.7c1.6-1.1,1.5-4.1,0.7-5.6c0-0.1,0-0.1,0.1-0.2c-0.1-0.1-0.1-0.1-0.4-0.2
			c-0.3-0.5-1.2-2-1.8-2c0-0.1-0.1-0.2-0.1-0.3h-0.2c-0.1-0.1-0.2-0.3-0.2-0.4c-0.3,0-0.9-0.2-1.1-0.5c-0.1,0-0.2,0-0.2,0
			c0-0.1,0-0.2-0.1-0.2c-0.1,0-0.2,0-0.3,0c0-0.1-0.1-0.2-0.1-0.2c-0.3,0-0.5-0.3-0.8-0.3c-0.5-0.7,0.1-2.6,0.3-3.2
			c0.1,0,0.3,0,0.4,0.1c0.3,0.4,0.8,0.4,1.2,0.8c0.8,0.3,1.6,1,2.5,1.2c0,0.1,0,0.1,0,0.2c0.3,0,0.6,0,0.7,0.3c0.1,0,0.2,0,0.3,0
			c1.3,0.3,2.5,0.5,3.8,0.5c0.6-0.9,2.1-1.2,2.6-2.2c0.9-0.3,1.4-1.4,2.3-1.8c0.1-0.4,0.8-0.8,1.1-1.1c0.2-1,2.1-1.4,2.4-2.4
			c0.1-0.1,0.2-0.2,0.3-0.2c-0.1-0.2,2.4-2.8,2.7-3.4c0.4-0.4,0.8-0.7,1-1.3c0.4-0.3,0.3-0.4,0.6-0.8c0.4-0.1,1.3-1.8,1.4-2.2
			c0.6-0.2,0.4-1,0.8-1.3c0.3-0.8,0.9-1.5,1.1-2.4C137.6,111.9,137.6,110.6,138.3,109.9z"/>
		<path class="st2" d="M81,140.6c-1-1-1.5-0.7-2.6-0.1c0,0.2,0,0.3-0.2,0.5c0,0.9,0.3,1.2,0.8,1.8c0.4,0,0.8,0,1.2,0
			c0.3-0.2,1.1-1.2,0.7-1.6C81,141,81,140.8,81,140.6z"/>
		<path class="st2" d="M102.5,139.3c0,0.1,0,0.1,0,0.2c-0.5,0.4-0.1,1.4,0.5,1.6v0.1c0.1,0,0.2,0,0.3,0.1c1.2-0.1,1.3-0.7,1.3-1.8
			C103.9,138.7,103.3,138.7,102.5,139.3z"/>
		<rect x="90.7" y="140.2" class="st2" width="0.1" height="0.1"/>
		<path class="st2" d="M74.2,137.7c0-0.1-0.1-0.1-0.1-0.2c-0.3-0.1-0.6-0.1-0.8-0.1c-0.6-0.4-3-1-3.7-0.9c-0.2-0.1-0.4-0.2-0.6-0.4
			c-0.8-0.1-2.1-1.9-2.7-0.9c-0.1,0-0.2,0-0.2,0c0,1.1,2.2,2,3.1,2.2c0.3,0.5,2.4,0.1,3,0.8h0.4c0,0.1,0.1,0.1,0.1,0.2
			c0.6,0.1,1.6,0.4,1.9,0.9c0.4-0.1,0.4-0.1,0.6,0c0.5-0.2,0.7-0.8,0.5-1.3C75.2,137.9,74.8,137.7,74.2,137.7z"/>
		<rect x="90.7" y="139.3" class="st2" width="0.1" height="0.1"/>
		<path class="st2" d="M99.4,132.7h-0.2c-0.1-0.1-0.2-0.2-0.2-0.3c-0.1,0-0.1,0-0.2,0c0-0.1,0-0.2-0.1-0.2c-0.6-0.2-0.5-0.4-0.7-0.8
			c-0.2,0-0.3,0-0.5,0c-0.2-0.6-1.2-0.9-1.5-1.4c-0.1,0-0.1-0.1-0.2-0.1c-0.4,0.5-0.9,0.9-1.4,1.2c0,0.1,0,0.2,0,0.3
			c-0.9,0.7-1.6,1.6-2.5,2.3c-0.4,0-1.5-0.2-1.6-0.1c-0.4-0.1-1.1,0-1.4-0.1c-1.3,0.2-2.9-0.4-4.2-0.1c-0.1-0.1-0.1-0.1-1.7-0.1
			c-0.1,0-0.1,0.1-0.2,0.2c0.4,0.5,0.9,1.1,1.4,1.5c0.2,0.4,0.6,0.6,0.8,1c-0.2,0-0.3-0.1-0.5-0.1c0,0,0,0-0.1,0.1
			c-1.1-0.1-2.6,0.2-3.5-0.4c-0.8-0.1-1.5-0.4-2.3-0.6c0-0.2,0-0.5,0.1-0.7c0.2-0.1,0.9-2.1,0.9-2.4c0.6-0.9,0.5-2.4,1.2-3.2
			c-0.2-0.8,1.4-3.7,1.7-4.9c0.5-0.3,0.5-1.4,1-1.9c0.8,0.2,1.5,0.6,2.2,0.7c-0.1-0.5-0.5-0.8-0.5-1.4c-0.4-0.7-0.3-1.8-0.8-2.4
			c0-0.4-0.3-1-0.4-1.4c-0.1,0-0.1,0-0.2,0c-0.3,0.4-0.4,0.8-0.8,1.2c0,0.2,0,0.3-0.2,0.4c0.1,0.2-0.5,0.6-0.5,0.9
			c-0.7,0.7-1.1,1.9-1.7,2.7c-0.1,0.3-0.3,0.9-0.6,1.1c-0.1,0.3-0.2,0.4-0.3,0.7c-0.6,0.6-0.7,1.4-1.2,2c-0.2,0.8-1.2,1.7-1.3,2.6
			c-0.9,0.7-1.2,2.2-1.9,3.1c0.1,0.2-0.4,0.5-0.3,0.8c-0.3,0.6-1.6,0.1-2.1,0c-0.2-0.4-0.9-0.1-1.2-0.5c-1.2-0.6-2.2-1.2-3.1-2.3
			c-0.1,0-0.2,0-0.2-0.1v-0.1H69c0-0.1,0-0.2,0-0.3c0.2-0.1,0.2-0.1,0.4-0.1c0.2-0.9,1.6-1.1,1.9-2.1c0.2-0.2,0.4-0.4,0.7-0.4
			c0.1-0.5,0.7-0.8,1.1-1.1c0.6-1.2,1.2-0.3,2,0c0.6-0.6-0.3-4.2-0.3-5.3c-0.2,0.2-0.5,0.7-0.8,0.7c-0.5,0.8-1.1,1.3-1.9,1.9
			c0,0.2-0.2,0.4-0.3,0.6c-0.7,0.3-1.1,1.4-1.9,1.7c-0.4,0.9-1.5,1.4-2.1,2.2c-0.7,0.3-0.7,1-1.4,1.2c0,0,0,0,0,0.1
			c-0.1,0-0.2-0.1-0.5-0.2c0-0.1-0.1-0.2-0.1-0.3h-0.2c-0.4-0.6-1.2-1.1-1.7-1.7c0.5-0.2,1.2-1.3,1.7-1.3c0-0.1,0-0.2,0.1-0.3
			c1.1-0.7,1.8-1.9,3-2.4c0.1-0.6,0.7-0.9,1.3-1.1c0.3,0.4,1.2,0.8,1.7,1.1c0,0,0.1,0,0.1-0.1c-0.1-0.3,0-0.5-0.1-0.8
			c0-0.5,0.4-4.4,0.2-4.7c-0.4,0.3-0.7,0.7-1.3,0.9c-0.1,0.3-0.4,0.5-0.7,0.7c0,0-0.1-0.1-0.1-0.1c-0.4,0.5-1.1,1-1.7,1.3
			c-0.7,0.9-2.6,1.6-2.9,2.5c-0.3,0.2-0.7,0.3-1.1,0.6c-0.1,0.3-0.6,0.6-0.8,0.8c-0.4,0.1-0.7,0.5-1,0.7c-0.3-0.2-0.5-0.6-0.8-0.8
			c0-0.1,0-0.1,0-0.2c-0.5-0.2-0.7-0.6-1.1-0.7c-0.1-0.3-0.2-0.3-0.3-0.5c0.4-0.6,1.4-0.7,2-1.2c0.2,0,0.6-0.3,0.9-0.3
			c0-0.1,0-0.2,0.1-0.2h0.3c0-0.1,0.1-0.2,0.2-0.2c1-0.3,2.1-1,3-1.6c0.5,0.1,0.9,0.8,1.5,0.8c0.2-0.7,0.3-1.5,0.6-2.2
			c0.1-0.7,0.5-2.2,1-2.6c0-0.6,0.4-1.1,0.6-1.7c0.1,0,0.1,0,0.5,0.1c0,0.1,0,0.1,0,0.2h0.2c0.4,0.7,1.6,1.1,2.2,1.6
			c0.4,0,0.7,0.2,1.1,0.5c0.1,0,0.1-0.1,0.2-0.1c0.1,0.1,0.1,0.1,0.2,0.3c0.1,0,0.2,0,0.3,0c0,0,0,0.1,0,0.2
			c0.7-0.2,1.3-0.3,1.8-0.9c1.3-0.5,0.8-3.2,0.2-3.9c-1.9,0.1-2.8,0.7-3.6,2.5c-0.4,0.1-0.9-0.4-1.2-0.6c-1.1-0.4-1.9-1.2-1.8-2.4
			c0.6-0.4,1-1.5,1.6-2c-0.1-1-0.1-1.9-0.1-2.8h-1c-0.3,0.3,0,0.7,0.1,1.1c-0.1,0.7-0.3,2.7-1.3,2.9c-0.3-0.3-0.4-0.7-0.8-1
			c0-0.1,0.1-0.2,0.2-0.3c0-0.1-0.1-0.2-0.1-0.2c0-0.6-0.1-3.1,0.4-3.4c0.2-0.5,0.2-0.6,0.7-0.8c0-0.4,0.1-0.8,0.1-1.2
			c-0.3,0-0.6,0.2-0.8,0c-0.4,0.5-1.3,0.7-1.9,1c0,0-0.1,0-0.1-0.1c0,0.1-0.1,0.2-0.1,0.2c-0.1,0-0.2,0-0.3,0c0,0,0,0.1-0.1,0.2
			l-12.7,4.8l0,0.2l-4.2,1.3c0.2,1,0.4,1.8,1.2,2.6c0.6-0.4,1.4-0.7,2.1-1l12.3-5.9c0.5-0.2,0.5-0.2,0.8-0.2
			c0.1,0.5,0.1,0.5,0.7,1.7c0,0,0.1,0,0.1,0v0.3c0.4,0.1,0.9,1.6,1.2,2c0,0.1,0,0.2,0.1,0.3c0.7,0.5,0.9,1.9,1.5,2.2
			c0,0.2,0,0.4,0.1,0.6c-0.2,0.1-0.4,0.3-0.6,0.4c0,0.1,0,0.2,0,0.3c-0.6,0-0.7,0.8-1.2,0.9c-0.2,0.5-0.8,1-1.3,1.1
			c-0.1,0.3-1.3,1.3-1.6,1.3c0,0.1,0,0.1,0,0.2c-0.6,0.1-0.9,0.5-1.4,0.7c0,0.1,0,0.1,0,0.2c-0.1,0-0.2,0-0.3,0
			c-0.1,0.2-2.1,1.2-2.4,1.2c-0.3,0.2-0.5,0.3-0.8,0.4c-1.5,0.7-4.3,1.8-6.1,1.6c0,0.1,0,0.1-1.2,0.1c-0.1-0.1-2.5-0.7-2.7-0.6
			c0-0.1,0-0.1,0-0.2c-0.1,0-0.2,0-0.3,0.1c-0.3-0.3-0.9-0.5-1.3-0.6c-0.1-0.3-1.5-0.9-1.8-1.1c-0.8,0-1.1-1.3-1.8-1.6
			c0-0.4-0.8-1.8-1.1-1.7c0-0.1,0-0.2,0-0.3c-0.1,0-0.1,0-0.2-0.1c0-0.1-0.1-0.2-0.1-0.2h-0.1c-0.1-0.2-0.5-0.9-0.4-1.1
			c-0.1,0-0.2-0.1-0.2-0.1c0-0.3-0.5-1.5-0.7-1.8c-0.2-0.9-0.2-0.9-0.3-1.3c0-1.3-0.4-3.2,0.2-4.4c-0.1-1,0.6-2.2,0.9-3.1
			c0.2-0.1,0.5-0.8,0.5-1.1c0.5-0.7,1.2-1.4,1.5-2.1c0.7-0.3,1.3-1,1.8-1.6c0.3-0.2,0.3-0.2,0.7-0.4c0-0.1,0-0.1,0-0.2h0.2
			c0,2.2,0.5,4.4,0.7,6.6c0.2,0.2,0.3,0.7,0.3,1c0.4,0.3,0.7,0.3,1.2,0.3l0.1,0c0-0.1,0.1-0.2,0.2-0.2c0.2,0,0.3,0.1,0.4,0.1
			l1.3-0.2c0.7-0.2,2-0.3,2.4-0.7c1.1,0.2,2.5-0.9,3.6-0.7c0-0.1,0.1-0.2,0.2-0.2c0.6,0.1,1.7-0.4,2.3-0.5c0.5-0.4,1.4-0.2,1.9-0.6
			c0.3,0.1,0.5-0.1,0.8-0.2c0,0,0.1,0,0.2,0.1c0.5-0.2,0.9-0.3,1.4-0.4c0.2-0.2,0.6-0.3,0.9-0.3c0.1,0.1,0.1,0.2,0.2,0.2
			c0,0.1-0.1,0.1-0.1,0.2c0.2,0.3,0.3,0.9,0.4,1.3c0.5,0.2,2.9-2.4,2.9-2.8c0.2-0.1,0.4-0.4,0.3-0.6c-0.9-0.1-2-0.1-2.9-0.3
			c-0.6,0.6-2.1,0-2.9,0.5l-0.5,0.1c-0.2-0.4-0.6-0.6-0.7-1.1c0.1-0.2,0.3-0.4,0.4-0.6c0.2-0.5,0.3-2,0-2.2c-0.5,0-1.3,0.1-1.8-0.1
			c-0.2,0.1-0.3,0.1-0.5,0v-1.1c0.7-0.9,0.7-0.9,0.7-1.1c-0.8-0.5-0.7-2.4-0.7-3.3c-1,0.7-0.6,2.2-0.7,3.3c-0.8,1.1-1,3.1-0.5,4.4
			c0,0.2-0.1,0.4-0.1,0.6c0.3,0.1,0.3,0.1,0.5,0.3c0.4,0.1,1.2,0.1,1.2,0.7c-0.2,0.1-0.2,0.1-0.4,0.3c-1.2,0-3,0.5-4.1,1
			c-0.2,0-0.5-0.2-0.6,0.1c-0.5,0.1-0.9,0.1-1.3,0.2c-0.7,0.5-2,0.5-2.9,0.6c-1.1-0.4-0.4-1.6-0.9-2.3c0-0.4,0-0.4-0.2-3.8
			c0.1-0.2,0.1-0.6,0-0.7c0.1-0.1,0.1-0.9,0.2-1c-0.3-0.4-0.1-3.2,0-3.4c0-0.7,0-3.4,0.3-3.8c0-0.3,0-0.7,0.1-1h0.2
			c0,0.1,0,0.1,0.1,0.2c0.9,0.1,1.9,1.1,2.6,1.1c0,0.1,0.1,0.2,0.1,0.2c0,0,0.1-0.1,0.1-0.1c1.2,0.3,2.5,1.6,3.8,1.8
			c0.1,0.1,0.1,0.1,0.2,0.2c0.3-0.3,0.1-1.3,0.3-1.8c0-1.9,0.2-3.7,0.2-5.5c0.1-0.2,0-0.4,0-0.7c0.2-0.5,0.4-2.7,0.2-3.1
			c-0.2,0.2-0.5,0-0.7,0c-0.6,0.3-1.3,0.7-1.9,1.1c-1.2,0.1-2.8,1.6-4,1.3c0-0.3,0-0.5,0.2-0.8c-0.1-0.2,0-0.5,0-0.7
			c0,0,0.1,0,0.2-0.1c0.1-0.3,0.1-0.3,0.1-0.6c0.4-0.7,0.4-1.9,1-2.5c0-0.1-0.1-0.1-0.1-0.2c0.3-0.6,0.3-0.6,0.6-1.3
			c0.6,0.2,1.2,0.2,1.7,0.7c0.1,0,0.2,0,0.2-0.1c1.2,0.3,2.5,1,3.9,1.2c0.2,0.2,1.4,0.6,1.7,0.6c0.8,0.5,2.7,0.4,3.3,1.1
			c0.3,0,0.3,0,0.6,0.2c0.9,0.2,1.9,0.3,2.8,0.7c0.2,2.3,0.2,2.3,0.3,2.4c1.3-0.7,2.8-0.6,4.1-1.2c0.5-0.1,0.7-0.2,0.8-0.2
			c0-0.3-0.4-0.4-0.7-0.5v-0.2c-0.3,0-1.1-0.4-1.2-0.6c-0.3,0.1-0.7-0.1-0.8-0.4c-0.1,0-0.2,0-0.3,0c0-0.1,0-0.1-0.1-0.2
			c-0.3-0.1-0.7-0.2-0.9-0.5c-0.2,0-0.3,0-0.5,0c0-0.1,0-0.2-0.1-0.2c-0.7,0-1.3-0.7-2.1-0.7c-0.4-0.2-1.5-0.9-1.9-0.9
			c0-0.1-0.1-0.1-0.1-0.2c0,0-0.1,0-0.1,0.1C64,76,64,76,63.7,75.8c-0.5,0-2.4-0.9-2.7-1.1c-1,0-1.9-1-2.8-1c0-0.1,0-0.1,0-0.2
			c-0.5-0.1-0.7-0.1-0.9-0.5c-0.1,0-0.1,0.1-0.2,0.1c0-0.1-0.1-0.1-0.1-0.2c-0.2,0-0.3,0-0.5-0.1c-0.3-0.4-0.7-0.3-0.9-0.7
			c-0.1,0-0.2,0-0.3,0c-0.1-1.5,1.2-2.5,1.5-3.9c0.5,0.2,2.4-0.6,3-0.6c0-0.1,0-0.1,0.1-0.2c0.3,0,0.9-0.2,1.3-0.3
			c0.1-0.9,0.2-2,0.2-2.9c0.3-0.6-0.3-1.9,0.8-1.9c0-0.1,0-0.2,0-0.2c0.6-0.5,1.2-1.8,2-2c0.8-0.8,0.7-0.9,1.7-0.5
			c0,0.1,0,0.2,0,0.3c0.3,0.1,0.4,0.4,0.7,0.5c0.3,0.9,1.7,1.5,2.1,2.4c0.5,0.2,0.8,0.8,1.3,1.2c0.2,0.9,1.3,1.4,1.5,2.2
			c0.4,0.6,1,1.4,1.3,2.1c0.1,0,0.2,0,0.3,0c0.1,0.4,0.4,1.1,0.8,1.3c0,0.1,0,0.1,0,0.2c0,0,0.1,0,0.2,0.1c0.1,0.5,0.1,0.5,0.2,0.6
			c-0.3,0.1-1.2,0.5-1.6,0.5c0,0.7-0.5,1.4-0.5,2.1c-0.3,1.2-0.3,1.8-0.2,3H72c0-0.2,0-0.2,0.2-0.4c0-0.4,0.9-1.3,1.2-1.6
			c0,0,0-0.1,0-0.1c0.5-0.3,0.8-0.7,1.5-1c0.6,0.1,1.2,0.2,1.8,0.3c0,0,0,0.1,0.1,0.2c0.4,0.1,0.9,0.3,1.3,0.5
			c0-0.1,0.1-0.1,0.1-0.2c0.3,0,0.3,0,0.6,0.2c-0.6-1.9-1.6-2.7-3.4-3.4c-0.3-0.7-0.5-1.8-1.1-2.2c-0.4-1.4-1.2-2.6-2-3.9
			c-0.1-0.1-0.2-0.2-0.3-0.3c-0.3-0.7-1.3-1.7-1.5-2.4c-0.1,0-0.1,0-0.1-0.1c-0.1-0.3-0.2-0.4-0.5-0.7c-0.3-0.7-1.2-1.3-1.3-2
			c-0.9-0.8-1.9-2.2-2.3-3.3c-0.1,0-0.2,0-0.2-0.1c-0.1-0.2-0.1-0.3-0.2-0.5c-0.2,0-0.8,0.5-1.1,0.5c0,0.1,0,0.2-0.1,0.3
			c0,0-0.1-0.1-0.1-0.1c-0.1,0.1-0.1,0.1-0.5,0.2c-0.3,0.5-0.7,0.8-1.2,1.1c-0.1,0.2-0.2,0.5-0.5,0.5c-0.4,0.5-1,0.7-1.3,1.3
			c-0.7,0.4-1.2,1-1.7,1.8c-0.2,0.1-2.7,0.4-2.8,0.3c-0.1,0.1-1.2,0.1-1.9,0.2c0,0.9-0.1,1.8-0.1,2.7c0.2,0.3,0.1,2-0.1,2.3
			c0,0,0.1,0.1,0.2,0.1c0,0.1-0.1,0.2-0.1,0.3c0,0,0,0.1,0.1,0.1c-0.1,0.1-0.1,0.3-0.2,0.4c-0.1,0-0.1,0-0.2,0
			c0,0.2-0.1,0.3-0.1,0.5c-0.1,0-0.1,0-0.2,0c0,0.3-0.2,0.7-0.5,0.9c0.1,0.2-0.5,0.7-0.5,1c-0.2,0-0.2,0.3-0.4,0.4v0.2
			c-1.1,1.6-1.6,3.4-2.4,5.2c0,0.3-0.1,0.9-0.3,1.1c0,0.7-0.5,1.5-0.6,2.2c-0.5,0.5-0.2,1.7-0.7,2.3c0,0.6-0.2,1.1-0.4,1.7
			c-0.3,2.4-0.8,4.4-0.8,6.7c-0.1,0-0.1,0-0.2,0.1c0.1,0.4,0.1,1.1,0,1.6c0,1.9,0,3.9,0.2,5.8c-0.2,0.1-0.2,0.1-0.8,0.7
			c0,0-0.1,0-0.1,0c-0.3,0.4-1.4,1.4-1.8,1.4c-0.2,0.4-0.9,0.9-1.3,1.1c0,0.2-0.1,0.3-0.1,0.5c-0.1,0-0.1,0-0.2,0
			c0.2,0.8-1.4,1.6-1.4,2.2c-0.3,0.4-0.5,0.9-0.8,1.3c0,0.6-0.1,1.5-0.5,1.9c0.1,0.4-0.2,0.9,0,1.2c-0.1,0.2,0,0.3,0,0.6
			c-0.2,0.5-0.2,1.9,0.1,2.5c-0.1,0-0.1,0.1-0.2,0.1c0.3,0.2,0.2,0.4,0.2,0.7c0.3,0.6,0.4,1.5,0.4,2.2c0,0,0.1,0,0.1,0
			c0,0.2,0,0.4,0.1,0.6c0,0,0.1,0,0.2,0.1c0,0.3,0.1,0.5,0.1,0.8c0.1,0,0.1,0.1,0.2,0.2c0,0.4,0.4,0.9,0.3,1.3
			c0.1,0.1,0.1,0.1,0.7,1.2c0,0-0.1,0.1-0.1,0.1c0.8,0.9,1.2,1.9,2.2,2.7c0,0,0,0.1,0,0.2c0.7,0.8,1.7,1.3,2.5,1.8
			c1,0.3,2,0.8,2.9,1.2c0,0,0-0.1,0.1-0.1c0.9,0.1,1.7,0.5,2.6,0.4c1,0.3,2-0.2,3-0.1c0.9-0.5,1.6-0.4,1.9,0.7
			c0.4,0.2,1.4,1.2,1.4,1.6c0.3,0.1,0.6,0.3,0.6,0.6c0.2,0.1,0.4,0.2,0.5,0.4c0.3,0,1.4,1.1,1.4,1.4c0.1,0,0.2,0,0.3,0.1
			c0.3,0.5,1.2,0.7,1.4,1.3c0.8,0.3,1.4,1.4,2.3,1.6c0.1,0.3,0.2,0.3,0.5,0.4c0.3,0.5,0.8,0.8,1.4,0.9c0.6,0.6,1.6,0.8,2.1,1.5
			c0,0,0.1,0,0.1,0c0,0.1,0,0.1,0.1,0.2c0.5-0.1,0.7,0.2,1,0.5c0.1,0,0.1,0,0.2,0c0.2,0.3,2.8,1.3,3.3,1.5c0,0,0,0.1,0,0.1
			c0.1,0,0.2,0,0.3-0.1c0.7,0.4,2.1,0.5,2.6,0.9c1,0,2.1,0.7,3.1,0.7c0.4,0.1,1.2,0.1,1.4,0.4c0.4,0,0.8,0,1.3,0.3
			c0,0,0.1-0.1,0.2-0.1c0.3,0.2,3.9,0.7,4.1,0.6c0.3,0.2,1.1,0,1.3,0.4c0.1,0,0.2,0,0.3-0.1c-0.2-0.5-0.5-0.9-0.9-1.3
			c-0.2-0.7-1.2-1.1-1.2-1.9c0.1,0,0.5,0,0.6,0.1c0.3-0.2,2.8,0,3.1,0.3c0.8,0,1.6,0.1,2.4,0.1c1,0.6,1.8,1.6,2.9,2.1
			c0.2-0.3,0.4-0.6,0.8-0.6c0.1-0.5,0.9-0.8,0.9-1.2c0.3,0.1,0.7-0.7,1.1-0.9c0-0.1,0-0.2,0.1-0.2c0.7-0.3,0.8-1.1,1.5-1.2
			c0.1-0.2,0.1-0.2,0.3-0.5c-0.1-0.3-0.2-0.3-0.2-0.5C100,133.4,99.5,133.1,99.4,132.7z M76.4,112c0,0.9,0.5,1.8-0.4,2.4
			c-0.3,0.1-0.6,0.2-0.8,0.3c-0.2-0.3-0.4-0.4-0.6-0.6C74.3,112.8,74.8,111.7,76.4,112z M53.8,83.3c0,0,0-0.1,0.1-0.1
			c0.6,0,1.1-0.6,1.7-0.6c0,0.7,0,1.5,0,2.2c-0.3,0.5,0.3,0.5-0.4,0.6v-0.1c-0.2,0-0.3-0.1-0.4-0.1v-0.1c-0.3-0.2-0.3-0.2-0.7-0.2
			c-0.4-0.6-1.5-0.4-1.7-1.2C52.9,83.9,53.3,83.5,53.8,83.3z M56.7,64.3c0.2,0.1,0.5,0,0.7-0.2c1.6-0.3,1.6-0.3,2.2-0.3
			c0,0.7,0,0.7-0.2,1.1c0,0,0,0.1,0.1,0.1c-0.3,0.4-0.2,0.9-0.2,1.4c-0.5,0.6-1.9,0.2-2.7,0.4c-0.1,0-0.1-0.1-0.2-0.1
			C56.5,66,56.4,64.8,56.7,64.3z M52.2,83.7H52c0,0,0-0.1-0.1-0.1c-0.1,0-0.2,0-0.3,0c0-0.2,0-0.3,0-0.4
			C51.8,83.3,52.1,83.4,52.2,83.7z M51.3,83.2c0,0,0.1,0,0.1,0c0,0-0.1,0.1-0.1,0.1V83.2z M51.1,82.9h0.1V83h-0.1V82.9z M86.9,136.1
			h-0.2v-0.1h0.2V136.1z M95.6,136c0,0.1,0,0.2,0,0.3h-0.2c-0.5-0.6-1.3-1.2-2-1.6v-0.1c0.5-0.4,0.9-1.3,1.5-1.4
			c0-0.1,0.1-0.5,0.3-0.5c0.2,0.8,1.6,1.1,1.8,1.9C96.6,134.8,96.2,135.8,95.6,136z"/>
		<rect x="113.8" y="138.7" class="st2" width="0.1" height="0.1"/>
		<path class="st2" d="M119.7,138c0.3,0,0.5,0,0.8,0c1.1-0.9,0.6-1,0.2-2.2C119.4,135.3,118.8,137.1,119.7,138z"/>
		<rect x="86.7" y="135.9" class="st2" width="0.2" height="0.1"/>
		<path class="st2" d="M123.1,133.3c-1.2,0.4-1.2,1-0.8,2.1c0.1,0,0.2,0,0.3,0c0,0,0,0.1,0,0.2c0.1-0.1,0.2-0.1,0.3-0.2
			c0.1,0,0.2,0.1,0.3,0.1c0.1-0.1,0.2-0.1,0.4-0.1c0.3-0.4,0.3-0.4,0.6-0.9C123.9,133.9,123.7,133.5,123.1,133.3z"/>
		<rect x="90.9" y="132.1" class="st2" width="0.1" height="0.1"/>
		<rect x="112.8" y="129.5" class="st2" width="0.1" height="0.1"/>
		<path class="st2" d="M86.4,123.4c-0.1,0-0.1,0-0.2-0.1c-1.2,0.6-2.1,1.4-2.1,2.9c-0.1,0.1-0.1,0.1-0.2,0.2h0.1
			c0.2,0.3,0.2,0.7,0.4,1.1c0.1,0,0.1,0,0.2,0c0.3,0.5,0.7,0.7,1.2,1c1.8-0.1,2.3-0.5,3.4-1.8c0.2-1.2,0.2-1.2,0.2-1.3
			c-0.2-0.4-0.4-1.7-1-1.7C87.7,123.2,87.3,123.1,86.4,123.4z M88,126.7c-0.3,0.3-0.7,0.5-1.1,0.7c0,0-0.1-0.1-0.1-0.1
			c-0.1,0-0.2,0.1-0.2,0.1c-1.1-0.3-1.1-0.5-1.2-1.7c0.3-1.1,1.8-1.8,2.6-0.8c0.1,0,0.2,0.1,0.3,0.2C88.2,125.6,88.2,126.1,88,126.7
			z"/>
		<path class="st2" d="M99.9,123.3c-0.5,0.1-1.9,0.5-2.4,0.3c-0.6,0.6-2.2-0.1-2.8,0.7c-0.3,0-1.9,0.3-2.2,0c-0.3,0-1.3,0-1.4-0.3
			c-0.3,0.2-0.4,0.7-0.7,1c0,0,0.1,0.1,0.2,0.2c0,0,0.1-0.1,0.2-0.1c0.3,0.2,0.7,0.2,1.1,0.4c0.3,0.1,0.8,0,1,0.2
			c0.8,0,2.6,0,3.1-0.6c1.2-0.4,3.1-0.2,4.5-0.2c0.5-0.3,0.5-0.8,0.4-1.3C100.6,123.3,100.2,123.5,99.9,123.3z"/>
		<path class="st2" d="M111.2,118.2c0.2-0.4,0.4-0.6,0.8-0.6c0-0.2,0-0.2,0.3-0.9h0.3c0-0.1,0-0.2,0-0.2c0.8-0.6,0.6-1.8,1.6-2.3
			c0.2-0.7,1.3-1.5,1.8-2c0-0.3,0-0.6-0.1-0.9c-0.2-0.2-0.4-0.3-0.6-0.5c-0.2,0.2-0.4,0.4-0.7,0.4c-0.2,0.3-0.7,0.8-0.7,1.2
			c-0.1,0-0.2,0-0.3,0c0,0.1,0,0.2,0,0.3c-0.3,0.2-0.3,0.2-0.4,0.5c-0.5,0.2-0.5,1.2-1.1,1.3c0,0.6-1,1.8-1.3,2.2
			c-0.9,0.4-1.5,0.8-1.5,1.9h0.2v0.2C110,119,110.5,118.2,111.2,118.2z"/>
		<path class="st2" d="M152,98.5c0-0.1-0.1-0.1-0.1-0.2c0.1-0.7-0.1-3.6-0.2-3.7c-0.3-1.3-0.4-1.6-0.4-1.9c-0.5-1.2-1.3-2.2-1.8-3.3
			c-0.5-0.6-1.5-1.1-1.8-1.8c-0.8-0.4-1.4-1-2-1.5c-0.4,0-0.9-0.3-1.2-0.5c-0.3,0-1.4-0.1-1.5-0.2c-0.6-0.1-3.8-0.8-4.5-0.3
			c0,0-0.1-0.1-0.1-0.1c-1.9,0.2-3.8,1-5.4,1.9c0,0.3,0,0.6,0.3,0.6c0.1,0.4,0.2,0.8,0.6,0.9c0,0.1,0,0.2,0,0.3
			c0.7,0.3,1.1,0.7,1.5,1.2c0.5,0.2,0.6,0.5,1.1,0.6c0.1,0.3,0.4,0.5,0.7,0.5c0,0.1,0,0.1,0.1,0.2c1.1,0.5,2.1,1.6,3.2,1.7
			c0-0.1,0-0.1-0.1-0.2c0-1.9-0.1-3.9-0.1-5.8c0.2,0,0.2,0,0.4-0.1c1,0.2,2.4-0.2,3.2,0.6c0.1,0,0.1,0,0.2-0.1
			c0.7,0.5,1.6,0.7,2.1,1.4c0.6,0.3,1.4,1.3,1.7,1.9c0,0,0,0,0.1,0c0.1,0.5,0.6,0.9,0.6,1.5c0.1,0,0.1,0,0.2,0
			c0,0.2,0.1,0.3,0.1,0.5c0.5,0.6,0.5,1.4,0.8,2.1c0.2,1.1,1.2,4.7,0.8,5.1c0.2,0.7-0.1,3.9-0.6,4.4c0.2,0.6-0.3,1.1-0.4,1.7
			c-0.1,0-0.1,0-0.2,0.1c0,1.5-2,3.5-2.6,4.8c-0.1,0.1-0.3,0.1-0.4,0.2c-0.1,0.3-0.6,0.7-0.8,1.1c-0.4,0.3-0.9,0.6-1.1,1
			c-0.1,0-0.1,0-0.2-0.1c-0.1,0.1-0.2,0.3-0.4,0.4h-0.1c0.1,0.3-0.5,0.5-0.7,0.6c0,0,0,0.1,0,0.2c-0.1,0-0.1,0-0.2,0
			c-0.1,0.3-1.6,1.2-2,1.2c0,0.1,0,0.1-0.1,0.2c-0.3,0.1-0.6,0.3-0.9,0.3c-0.6,0.6-2.3,0.7-3.1,0.8c0,0.5-0.1,0.9,0.4,1.2
			c0.5-0.3,1.2-0.4,1.8-0.7c0.6,0,2.3-0.7,2.5-1.1c1.6-0.3,2.7-2,4.1-2.7c0.3-0.6,0.9-0.9,1.3-1.4h0.1c0.2-0.5,0.7-0.9,1.1-1.2
			c0.5-0.9,1.4-1.7,1.7-2.7c0.1,0,0.1,0,0.2,0c0-0.1,0-0.2,0-0.3c0.4-0.2,0.8-1.3,0.9-1.8c0.2-1.4,0.5-2.7,0.7-4.1
			c0-0.3,0-2,0.2-2.2c0,0-0.1,0-0.1-0.1C151.9,99.3,151.9,98.8,152,98.5z M137.9,88.7c-0.1,0-0.3,0-0.4,0.1
			c-0.2-0.7-1.2-0.7-1.4-1.2c0.6-0.1,1.2-0.2,1.8-0.3C137.9,87.5,137.8,87.8,137.9,88.7z"/>
		<rect x="149.6" y="109.2" class="st2" width="0.1" height="0.1"/>
		<path class="st2" d="M142.8,107.4c0.2,0,0.4,0.1,0.6,0.1c0,0,0,0.1,0.1,0.2c1.1-0.2,2.2-1.2,1.5-2.4c0-0.1,0-0.2,0-0.3
			c-0.1,0-0.3-0.1-0.4-0.1c0-0.1-0.1-0.2-0.1-0.3c-0.2,0-0.5,0-0.6-0.2C142.3,105.1,142.1,106.1,142.8,107.4z"/>
		<path class="st2" d="M143.8,102.4c0.3,0,0.3,0,0.5,0.2c0.1-0.1,0.1-0.1,0.6-0.2c0.2-0.2,0.4-0.3,0.6-0.5c0.4-1.4-0.1-2.1-1.5-2.2
			c-0.5,0.2-0.8,0.4-1.1,0.8c0,0,0.1,0.1,0.1,0.1C142.4,101.1,143.4,102.1,143.8,102.4z"/>
		<rect x="130.2" y="100.9" class="st2" width="0.1" height="0.1"/>
		<path class="st2" d="M121.4,96.8v0.4c-0.6,1.4,0,2.2,1.1,3.1c0,0,0.1-0.1,0.1-0.1c0.1,0.1,0.1,0.1,1.1,0.1c0,0,0,0.1,0.1,0.1
			c1.4-0.4,2.1-1,2.6-2.5c-0.2-1.7-0.6-2.2-2.3-2.7C122.4,95.4,122.3,96.1,121.4,96.8z M122.3,97.4c0,0,0.1,0,0.2,0v-0.2
			c0.2-0.1,0.2-0.2,0.7-0.6c1.3-0.2,1.7,0.6,1.5,1.9c-0.3,0.2-0.6,0.6-0.9,0.8c-0.1,0-0.2,0-0.3-0.1c-0.1,0.2-0.5,0.2-0.7,0.2
			c-0.2-0.2-0.5-0.4-0.6-0.6C122.2,98.3,122.3,97.9,122.3,97.4z"/>
		<path class="st2" d="M85.1,78.4c0,0.4,0.4,1.7,0.1,1.9c0.4,0.5,0,1.2,0.3,1.7c-0.3,0.6,0.3,1.3,0.1,1.9c0.2,0.2,0.1,0.8,0.1,1
			c0.3,0.4-0.1,1.2,0.2,1.4c0,0.3,0,1.7,0.2,1.8c0.1,2.5,1,7.6-2.5,8.3c-0.6,0.4-5.2,1.2-5.4,0.6c-1.2-0.3-2.3-1.1-3.2-1.9
			c0-0.1,0-0.2,0-0.3c-0.1,0-0.1-0.1-0.2-0.1c0-0.2,0-0.3-0.1-0.5c0-0.7-0.1-1.3-0.1-2c0.7-2.1,1.3-4.2,2.1-6.3
			c-0.1-0.1-0.2-0.2-0.2-0.3h-0.2c-0.3,0.6-0.7,1.1-0.8,1.7c-0.1,0-0.1,0.1-0.2,0.1c0.1,0.3-0.6,1.5-0.7,1.7
			c-0.3,1.8-0.9,3.4-0.9,5.3c-0.2,0.8,0.1,1.9,0,2.8c0.2,0.1,0.4,0.4,0.4,0.7c0.2,0.1,0.2,0.2,0.3,0.5c0.3,0.1,0.7,0.4,0.7,0.8
			c0.1,0,0.1,0,0.2,0c0,0.1,0,0.1,0,0.2c0.1,0,0.3,0,0.4,0.1c0,0.1,0,0.1,0.1,0.2c0.1,0,0.2,0,0.4,0.1c0.6,0.4,1.2,0.3,1.7,0.6
			c0.1,0,0.2-0.1,0.3-0.1c0,0,0,0.1,0.1,0.2c1,0,3,0.2,3.9-0.3c0.7,0,2.6-0.7,2.9-1.2c1-0.5,2-2,2.4-3.1c0.1-0.5,0.1-0.5,0.1-5.4
			c-0.1,0-0.1,0-0.2-0.1c0-0.9,0-1.8,0-2.7c-0.1-0.8-0.2-1.7-0.2-2.5c-0.2-0.1-0.6-5.6-0.6-5.7c-0.1,0-0.1-0.6-0.2-1.3
			c0.1-0.7,0.3-0.9,0.9-1.3c0.6-0.6,0.3-2.1,0.2-2.9c-0.2-0.2-0.5-0.3-0.8-0.6c-0.7-0.2-1.1-1-1.9-1c0,0.4-0.4,2.1-0.2,2.2
			c0,0.2,0,0.2-0.1,0.3c0,0,0,0.1,0.1,0.1C84.4,75.5,84.7,78,85.1,78.4z"/>
		<path class="st2" d="M102.3,92.1c-0.2,0.6,0.6,1.8,0.2,2.4c0.1,0.1,0.2,0.9,0.2,1.2c1.4,0.2,3,0.2,4.4,0.2
			c0.6,0.3,2.6,0.1,3.2,0.1c0.3,0.5,3-0.2,3.6,0.3c0.3-0.3,1.3,0,1.6,0.1c1.1-0.1,2.4-0.1,3.4,0c-0.1-1,0.2-2,0.3-3
			c-0.2-0.3-0.8-1-1.2-1c0-0.1,0-0.2-0.1-0.2c-0.1,0-0.1,0-0.2-0.1v-0.2c-0.3-0.1-0.4-0.1-0.6-0.4c-0.7-0.6-1-0.8-1.4-1.5
			c-0.5-0.3-0.8-0.8-1.3-1.1c-0.3-0.6-1.6-2-2.2-2.2c-0.8-1.1-3.4-0.9-4.5-1c-0.3,0.8-0.8,2-1.4,2.6c0.2,0,0.6,0,0.7,0.2
			c0,0,0-0.1,0.1-0.1c0.3,0,0.6,0,0.9,0.1c0,0,0,0.1,0.1,0.1c1.1,0,4.8,1.9,5,2.7c0.6,0.2,1.6,1,0.9,1.6c-0.3-0.2-2.3-0.2-3-0.1
			c-0.1-0.1-0.1-0.1-1.3-0.2c-0.5,0.2-2.6-0.1-3.2-0.2h-2.2c0-0.1,0-0.2,0-0.3c-0.6-1.7-0.7-3.4-1-5.1c0-0.7-0.7-4.4-0.4-4.7
			l-0.2-0.2c-0.2-2.5-0.2-2.5-0.2-2.7c0,0,0-0.1,0.1-0.1c-0.2-0.2-0.2-1.3-0.1-1.5c-0.2-0.6-0.2-1.2-0.2-1.8c-0.1-0.5-0.2-1-0.2-1.5
			c-0.2,0.3-0.2,0.3-0.4,0.5c0,0-0.5,1.1-0.5,1.3c0.2,1.1,0.6,3.2,0.3,4.3c0.4,1-0.1,2.5-0.1,3.7c-0.3,1.1-0.6,2.1-0.9,3.2
			c-0.2,0.2-0.2,0.2-0.5,0.9c-0.2,0.3-0.7,0.7-0.7,1.1c-0.2,0.2-0.3,0.2-0.4,0.5c-0.5,0.2-0.7,0.8-1.2,0.8c-0.1,0.6-1.1,0.8-1.4,1.3
			c-0.7,0.1-1.3,0.7-1.9,1.1c-0.1,0-0.1-0.1-0.2-0.1c-0.4,0.3-0.5,0.5-1,0.5c0,0-0.1,0.1-0.1,0.2c-1.3,0.6-2.6,1.1-3.9,1.6
			c0,0.3-0.1,0.7-0.1,1c0.7,0,0.7,0,0.9,0.1c0.6,0,1.3-0.2,1.7,0.2c0-0.1,0-0.2,0-0.2c0.1,0,1.5,0,1.7-0.2c1.1-0.2,2-0.5,3.1-0.9
			c0.2-0.2,0.2-0.2,1.3-1c0.1-0.2,0.7-0.7,1.1-1.1c0.1-0.2,0.1-0.3,0.4-0.4c0.1-0.4-0.3-0.2,0.3-0.5c0.2-0.5,0.7-1,0.7-1.5
			c0.6-0.9,1-2.1,1.6-3c0.1,0.1,0.1,0.1,0,1.5C102,89.5,102.2,91.9,102.3,92.1z"/>
		<path class="st2" d="M68.4,89.9c-0.7-0.3-0.7-0.3-0.8-0.4c-0.6,0-1.7-0.1-2,0.4c-1.3,0.7-2.3,3.5-0.4,4.1c0.1,0.3,0.4,0.4,0.7,0.4
			c0.5,0,1.8-0.1,2.1-0.6c1-0.3,1.1-2,1.2-2.9c-0.2-0.1-0.2-0.3-0.2-0.5L68.4,89.9z M66.9,93c-0.3,0-0.7,0.1-1,0.1
			c-1.5-0.6-0.8-1.6-0.3-2.6c0.6-0.2,1.1-0.4,1.7-0.1c0.3,0.4,0.3,0.4,0.4,0.4c0,0.4,0,0.7,0,1.1C67.5,92.2,67.1,92.7,66.9,93z"/>
		<rect x="91.8" y="93.7" class="st2" width="0.1" height="0.1"/>
		<rect x="120.9" y="93.7" class="st2" width="0.1" height="0.1"/>
		<path class="st2" d="M124.9,90.7c-0.2-0.2-0.8-1.2-0.6-1.5c-0.4-0.5-0.1-1.2-0.2-1.8c0-1.4,0.1-4.1-1-5.2
			c-0.1-0.3-0.2-0.5-0.2-0.8c-0.1,0-0.1,0-0.2-0.1c0.1-0.2-0.1-0.4-0.3-0.6c0.1-0.2-0.3-1-0.3-1.3c-0.6-0.7-0.3-2.8,0.3-3.4
			c0-0.1,0-0.2-0.1-0.2c1-1-0.1-1.7-1.1-1.1c-0.3,0.3-0.6,0.6-0.8,0.9c-0.7,0.1-1.4,1.1-1.9,1.6c0,0.3,0,0.3-0.2,0.4
			c0,0.5-0.2,1.5-0.4,1.9c0,0,0,0.1,0.1,0.2c-0.2,1,0.1,1.3,0.3,2.2c0.2-0.1,0.7,0.8,1.3,1c0.7,0.7,1.6,0,2.2-0.4
			c1.3-0.1,1.6,2.4,1.5,3.4h0.2c0,0.2-0.1,1.3-0.2,1.3c0,0,0.1,0.1,0.2,0.1c-0.1,0.1-0.1,0.1-0.2,1.5c-0.6,0.5-0.4,0.9-0.7,1.6
			c0,0.6,0.1,1.1,0,1.6c0,0,0.1,0.1,0.2,0.1c0,0.4,0.2,1.1,0.6,1.2C124.6,92.9,125.2,92,124.9,90.7z M119.9,81.8
			c-0.4-0.3-0.9-0.5-1-1.1c-0.1,0-0.1,0-0.2-0.1c-0.2-1.3,0.4-2.3,1.8-2.1c0,0,0,0.1,0,0.2h0.2C121.7,79.8,121.4,81.4,119.9,81.8z"
			/>
		<rect x="133.5" y="92.6" class="st2" width="0.1" height="0.1"/>
		<path class="st2" d="M93.9,80c0.4-0.4,1.6-0.6,1.6,0.3h0.3c0,0.1,0,0.2,0,0.3c0.1,0,0.1,0.1,0.2,0.1c0.1,0.5,0.7,0.9,0.7,1.3
			c0.9,0.6,1.2,2.5,2.2,3.2c0,0.3,0.3,0.4,0.4,0.7h0.4c0-0.3,0-0.6,0-0.8c0-0.8-0.4-1.4-0.4-2.1c-0.6-0.4-0.7-2.2-1.2-2.5
			c-0.1-0.3-0.4-0.4-0.4-0.8c-0.5-0.2-0.4-0.8-0.8-1c-0.1-0.5-1.1-1.1-1.1-1.7c-1.1-0.9-2.1-1.8-3.4-2.4c0-0.1-0.1-0.1-0.1-0.2
			c-0.6,0-1.8-0.7-2.2-0.3c0.2,0.9-0.3,1.8,0.2,2.6c0.1,0.6,0.3,0.7,0.5,1.3c0.8,0.3,1.5,1.3,2.1,2C93.3,80.2,93.3,80.2,93.9,80z"/>
		<path class="st2" d="M124.5,65.5c-0.2,0.3-0.4,0.4-0.5,0.7c-0.1,0-0.2,0-0.3,0.1c-0.1,0.2-0.2,0.4-0.3,0.6c-0.7,0.5-2,2.1-2.8,2.1
			v-0.3c-0.6-0.3-0.8-0.9-1.3-1.4c-0.2,0.6-0.3,1.1-0.5,1.7c0.2,0.4-0.3,3.4,0.2,3.7c0.3-0.1,0.9-0.5,1.1-0.8
			c0.3-0.1,1.2-0.8,1.3-1.1c0.1,0,0.1,0,0.2,0.1c0.2-0.2,0.2-0.7,0.7-0.6c0.2-0.2,0.2-0.2,0.3-0.4h0.3c0-0.1,0-0.2,0-0.3
			c0.1,0,0.2-0.1,0.3-0.1c0-0.1,0-0.1,0-0.2c0.2-0.1,0.4-0.2,0.6-0.3c1.3-1.6,3.2-2.8,4.9-4c0.3,0.4,0.6,0.7,1.1,0.7
			c0.4,0.6,0.4,0.6,0.6,0.7c0,0.2,0,0.2,0.1,0.4c0.1,0,0.2,0,0.2,0.1c0,0.1,0,0.2,0,0.3c0.1,0,0.2,0.1,0.2,0.2
			c-0.1,0.2,1.1,2.3,1.3,2.6c-0.5,0.5-0.8,1.2-1.5,1.5c-0.2,0.6-0.8,0.6-1.1,1.1c-0.1,0-0.2,0-0.2,0.1c0,0,0,0.1,0,0.2
			c-0.3,0-0.6,0.2-0.7,0.5c-1.2,0.5-2.4,1.1-3.8,1.4c-0.5-0.6-0.7-1.4-0.6-2.2c-0.1-0.1-0.1-0.3-0.5-1.2h-0.2
			c-0.2,0.3-0.7,1.3-0.4,1.6c-0.1,0.2,0.1,0.6-0.2,0.7c0,1.3-0.1,1.5,0,1.8c-0.2,0.3-0.2,1.1-0.1,1.4c-0.2,0.3,0,0.7,0,1
			c0,0-0.1,0-0.1,0c0.3,0.2,0.3,1.7,0.3,2c0.1,0,0.1,0,0.2,0.1c0.3-0.2,0.3-0.2,0.5-0.4c1.1-0.3,1.2-1,2.2-0.4
			c0.1,1-0.2,2.6-0.2,3.4c0.3,0.5,0.5,1,0.9,1.4c0.3,0.8,0.9,1,1.7,1.2v0.2c0.1-0.1,0.3-0.2,0.4-0.3c-0.1-0.4-0.2-0.7-0.4-1.3
			c-0.2-0.3-0.4-0.6-0.4-1c-0.8-1,0.2-1.3,0.2-2.2c0,0,0.1-0.1,0.1-0.1c0-0.1,0-0.2,0-0.2c0.3,0,1.4,0.1,1.6-0.1
			c0.6,0.1,1.5,0,2.1-0.1c0.6,0,2.4,0.2,2.9-0.1c1.1,0.1,4.7-0.4,4.6,0.4c0.2,0.3,0.3,0.4,0.3,0.7c0.2,0.2,0.2,0.2,0.4,0.6
			c0.4,0.1,0.8,0.2,1.3,0.2c0-0.1,0.1-0.2,0.1-0.2c-0.1-0.2-0.8-1.3-1.1-1.3c-0.3-0.5-0.4-1-0.9-1.2c0-0.1,0-0.3,0-0.4
			c-0.5-0.4-1.5-3.3-1.3-3.7c-0.2-0.2-0.3-0.4-0.3-0.8c-0.3-0.4-0.6-1-0.6-1.5c-0.1,0-0.1,0-0.1,0c-0.1-0.4-0.5-0.8-0.4-1.2
			c-0.1-0.1-0.2-0.2-0.3-0.3c-0.4-0.8-1.7-4.1-2.4-4.3c0-0.1,0-0.3,0-0.4c-0.8-0.6-0.9-1.6-1.6-2.1c-0.6,0-1.4-1.7-1.9-2
			c-0.1-0.4-1.1-1.5-1.5-1.5c0-0.1,0-0.2-0.1-0.3c-0.1,0-0.1,0-0.2,0c-0.2,0.5-0.6,0.9-0.7,1.1c-0.8,0.3-1.1,1.3-1.8,1.8
			c-0.7,0.8-0.9,1-1.9,2.2C124.6,65.5,124.5,65.5,124.5,65.5z M133.6,73.5c0,0,0,0.1,0,0.2c0.5,0.4,0.9,0.7,0.9,1.5
			c0.1,0,0.1,0,0.2,0.1c0,0.1,0,0.1-0.1,0.2c0.4,0.3,0.9,2.2,0.9,2.8c-0.1,0-0.3,0-0.5,0c0-0.1,0-0.1,0-0.2c-0.1,0-0.3,0.1-0.5,0.2
			c-0.3-0.2-0.7,0-1-0.2c-0.1,0.1-3.1-0.1-3.3-0.2c0,0-0.1,0-0.1,0.1c-0.5-0.3-1.3,0.1-2-0.2c-0.2,0.1-0.2,0.1-0.7,0.1
			c0.1-0.7,1.2-1.9,1.9-2.1c0-0.1,0-0.2,0-0.2c0.4-0.2,0.4-0.4,0.7-0.5C130.6,74.1,132.6,73.3,133.6,73.5z"/>
		<rect x="135.7" y="84.8" class="st2" width="0.1" height="0.1"/>
		<path class="st2" d="M51.9,83.6c0,0,0,0.1,0.1,0.1h0.2c-0.1-0.3-0.4-0.3-0.6-0.6c0,0.1,0,0.3,0,0.4C51.7,83.6,51.8,83.6,51.9,83.6
			z"/>
		<path class="st2" d="M51.4,83.2c0,0-0.1,0-0.1,0v0.2C51.3,83.3,51.3,83.2,51.4,83.2z"/>
		<rect x="51.1" y="82.9" class="st2" width="0.1" height="0.1"/>
		<path class="st2" d="M139.4,72.1c0,0.1,0,0.2,0.1,0.4c0.6,0.6,0.8,1.4,1.2,2.2c0.3,0.2,0.6,0.6,0.6,1c0.3,0.2,0.5,0.5,0.6,0.9
			c0.8,0.2,0.9,2.9,1.1,3.6c0.3,0,0.3,0,0.7,0.2c0,0,0.1,0,0.1-0.1c0.1-0.8,0.2-1.8-0.1-2.6c0-0.1,0-0.2,0.1-0.2
			c-0.2-0.3-0.3-0.6-0.4-1c-0.1,0-0.1,0-0.2,0c0-0.2-0.1-0.3-0.2-0.4v-0.4c-0.1,0-0.2,0-0.2-0.1c-0.1-0.6-0.7-1-1.1-1.5
			c0.1-0.2-0.5-1.6-0.6-1.8c0-0.7-0.6-1.3-1-1.9c-0.4,0-0.6,0-1,0.1C139,71,139,71.9,139.4,72.1z"/>
		<path class="st2" d="M70,72.9c0-0.1,0-0.2,0-0.3c0.3-0.1,1.1-0.9,1.1-1.2c-0.2,0-0.2,0-1-0.3c-0.1,0.2-0.1,0.2-0.2,0.5
			c-0.2,0.2-0.7,0.9-0.7,1.2c-0.5,0.2-0.9,0.2-1.4,0.2c-0.1-0.5-1-1.8-1.5-2c0-0.1-0.7-1.3-0.8-1.3c-0.2-0.9-1.6-1-2.4-1
			c0.2,0.4,1,1.6,1.4,1.8c0.2,0.5,0.9,0.7,0.9,1.2c0.1,0,0.2,0,0.3,0c0.3,0.4,1.4,1.5,0.8,2c0.1,0.1,0.1,0.1,0,1.1H67
			c0.2-0.2,0.4-0.5,0.6-0.7c0.6,0.3,0.2,0.9,0.4,1.5c-0.2,0.2-0.3,0.5-0.4,0.7c-0.3,0-0.4-0.2-0.6-0.3v-0.2
			c-0.2-0.1-0.3-0.3-0.5-0.3c0,0.8,0.6,1.4,1.3,1.9c0.2-0.2,0.5-0.8,0.7-0.9c0.4,0,0.5,0.5,0.8,0.7c0.1-0.1,0.3-0.2,0.5-0.3
			c0.1-0.4-0.1-1.8,0-1.9c-0.1-0.6,0-1.2,0.1-1.8C69.8,72.9,69.9,72.9,70,72.9z"/>
		<rect x="116.6" y="75.8" class="st2" width="0.1" height="0.1"/>
		<path class="st2" d="M116.8,68.2c-0.2-0.1-0.2-0.1-0.8-0.7c-2.7-0.5-2.2,3.1-1.9,4.6c-0.9,0.7-0.4,1.9-0.3,2.8
			c0.5,0.3,0.6,0.6,1.1,0.7c0,0.1,0,0.2,0.1,0.3c0.1,0,0.2-0.1,0.4-0.1c2,0.7,2-2.9,1.6-3.9c0-0.1,0-0.2,0.1-0.3
			C117.8,70.6,117.3,69.1,116.8,68.2z M116.3,74.3c-0.3,0.2-0.6,0.2-0.8,0.3c-0.2-0.1-0.2-0.1-0.4-0.1c0-0.1,0-0.2-0.1-0.3
			c-0.8-0.5-0.2-2.1,0.9-1.7c0.2,0.3,0.2,0.3,0.5,0.5C116.5,73.4,116.5,73.4,116.3,74.3z M116.6,71c-0.3,0.2-0.4,0.3-0.8,0.4
			c-0.6-0.4-1.1-0.7-1.3-1.5c0.1-0.9,0.2-1.7,1.3-1.7c0.2,0.1,0.4,0.2,0.6,0.3c0,0.1,0,0.1,0,0.2c0.1,0,0.1,0,0.2,0.1
			c0.2,0.7,0.2,0.7,0.2,1.3C116.6,70.3,116.6,70.7,116.6,71z"/>
		<rect x="92.2" y="74.2" class="st2" width="0.1" height="0.1"/>
		<path class="st2" d="M100.9,65.2c-0.8-1-1.5-1.4-2.8-1.3c-0.2,0.4-0.9,0.3-1.1,0.7c-1.4,1-0.9,1.7-1,3.1c0.1,0.1,0.2,0.2,0.3,0.3
			c0.1,0.7,0.7,0.7,1.2,1.1c0.3-0.2,1.3-0.1,1.6-0.1C100.7,68.2,101.2,67,100.9,65.2z M100,66.3c0,0-0.1,0-0.1,0c0,0.1,0,0.2,0,0.3
			c-0.6,0.6-0.6,0.6-0.7,0.7v0.2h-0.1v0.2c-0.3,0-0.4,0-0.7,0.1c-0.7-0.1-0.8-0.2-1.3-0.6v-0.5c0,0-0.1,0-0.1,0
			c0-0.7,0.2-0.7,0.4-1.2c0.2-0.1,0.2-0.2,0.3-0.4c0.5-0.2,0.9-0.4,1.4-0.4c0.3,0.2,0.3,0.2,0.6,0.3C99.7,65.4,100.1,65.7,100,66.3z
			"/>
		<path class="st2" d="M92.7,63.9c0,0.4,0.4,1.3,0.8,1.6c0.2,0,0.4,0,0.6-0.1c0.1-0.2,0.2-0.5,0.5-0.4c0.5-0.3,0.9-1.4,1.3-1.9
			c0.2-0.7,0.5-1.2,1-1.8c0,0,0-0.1-0.1-0.1c0.4-0.6,0.8-1.4,1.1-2c0.8-1.2,1.6-2.4,2.3-3.6h0.2c0.1-0.4,0.5-1.1,1-1.1
			c0.1,0.4,0.3,0.7,0.4,1.1c0.3,1.8,0.3,3.5,0.6,5.2c0,0-0.1,0-0.1,0l0.1,0.5h0.2c-0.1,0.8,0.2,1.5,0.1,2.2c0.3,0.3,0.5,3.4,0.5,4.2
			c0.3,0.2,0.3,0.3,0.3,0.6c0.2,0,0.3,0.1,0.5,0.2c0.7-0.1,1-0.1,1.6-0.6c0.3-0.9,1.2-2.2,1.2-3.1c-0.3,0-0.5,0-0.8,0
			c0,0,0,0.1-0.1,0.1c-0.2,0-0.4,0-0.6,0c-0.2-0.6-0.2-0.6-0.5-0.8c-0.2-0.7-1.9-5.6-1.3-6.2c-0.1-0.1-0.1-0.2-0.2-0.2
			c0.2-0.2,0.1-0.5-0.1-0.7c0.2-0.3,0.1-2,0.1-2.5c0.2-0.3,0.2-0.3,0.2-0.7c0.7-1.1,1.8-2,3-2.6c0.3-0.4,0.6-0.7,1-0.9
			c-0.1-0.2,0.4-0.4,0.5-0.5c0.2-0.5,0.6-0.9,0.7-1.4c-0.3-0.1-0.5-0.1-0.8-0.3c-1.3,0-2.8-0.8-4.2-0.9c-0.2-0.2-4.1-1-4.6-0.7
			c0,0.2,0,0.2-0.1,0.3c0,0,0,0.1,0.1,0.1c0,1,0.5,2,0.7,3c0.3,0.5,1.3,2.6,0.5,3c-0.3,0.8-1.1,1.3-1.3,2.1
			c-0.5,0.4-0.7,1.3-1.2,1.5c0,0.1,0,0.1,0,0.2c-0.3,0.2-0.5,0.3-0.7,0.5c-0.1,0.4-1.1,1.9-1.6,1.9c-0.1,0.7-1.2,0.8-1.2,1.4
			c-0.1,0-0.2,0-0.3,0c0,0.1,0,0.1,0,0.2c-0.7,0.3-1.3,0.8-1.9,1c0.1,0.8,0.3,1.5,0.5,2.3L92.7,63.9L92.7,63.9z M106.4,48.6
			c0,0,0.1,0,0.1,0c0,0-0.1,0-0.1,0.1V48.6z M102.6,48.7c0.9,0.1,1.8,0.4,2.7,0.5v0.3c-0.7,0.6-1.3,1.4-2.1,2c0,0.1,0,0.1,0,0.2
			h-0.2C102.7,51.4,102.3,48.9,102.6,48.7z"/>
		<path class="st2" d="M87.5,49.9c0.1,0.2,0.2,0.6,0.3,0.8c-0.2,1.1,0.4,2.2,0.4,3.3c0.2,0.9,0.4,2.2,0.3,3.1c0.1,0.6,0.4,4.4,0,4.9
			c0,0,0.1,0,0.1,0.1c0,0.7-0.7,1.1-1.2,1.5c0.1,0.7,1.1,1.4,1.1,2c0.6,0.1,1,1.4,1.4,1.9c0,0.3,0.3,0.7,0.6,0.9
			c0.7-0.2-0.1-6.6,0.1-7.8c0,0-0.1-2.7,0-2.9c-0.4-2.1-0.2-4.4-0.4-6.5c0,0,0-0.1,0.1-0.1c-0.2-0.3,0-0.6-0.2-0.9
			c-0.1-1.6-0.2-3.3-0.3-4.9c-0.2,0-0.2,0-1.1,0c0-0.1,0-0.1,0-0.2c-0.4,0.1-1.3,0.1-1.8,0.2c0,0,0.1,0,0.1,0.1
			C87.2,46.8,87.7,48.8,87.5,49.9z M90.5,67.4L90.5,67.4L90.5,67.4L90.5,67.4L90.5,67.4z"/>
		<rect x="90.5" y="67.4" class="st2" width="0.1" height="0.1"/>
		<rect x="92.4" y="66.9" class="st2" width="0.1" height="0.1"/>
		<path class="st2" d="M107.5,58.3c-0.1,1,1,1.8,1.8,2.2c0.2,0.6,1.3,1.1,1.9,1.3c0,0,0,0.1,0.1,0.2c0.2,0,0.2,0,0.6,0.1v0.2
			c0.3,0,0.3,0,0.7,0.1c1.1-0.2,2.9,0.1,3.6-0.9c0.1-1.6,0.1-1.6,0.2-1.7c-0.2-0.5-0.2-1-0.3-1.5c0,0,0.1,0,0.1-0.1c0,0-0.1,0-0.1,0
			c-0.1-0.5-0.3-0.9-0.3-1.4c0.7-0.5,2.4,1.4,3.1,1.6c0,0.1,0,0.2,0.1,0.3c0.6,0.2,0.6,0.1,1.1,0.6c0.1,0,0.2,0,0.3,0.1
			c0,0.1,0,0.2,0.1,0.3c0.1,0,0.2,0,0.3,0c0.2,0.3,0.8,0.5,1.1,0.7c0.7-0.5,3.1-0.3,3.5-1c-0.2-0.2-0.4-0.4-0.7-0.6
			c0-0.1,0-0.2,0-0.3c-0.6-0.1-1.3-0.8-1.7-1.3c-0.2,0.1-1.6-1.3-1.9-1.3c-0.1-0.3-0.3-0.3-0.5-0.4c-0.3-0.4-0.6-0.6-1-0.8
			c-0.8-0.9-2.2-1.4-3.2-2.3c-0.4,0-1.8,0.4-2.1,0.7h-0.4c-0.6,0.6-1.6,0.3-1.4,1.3c0,0,0.1,0,0.1,0.1c0.2,0.5,0.2,0.5,0.2,0.8
			c0.7,0.6,0.3,2.6,0.3,3.2c-1,1.2-2.3,1.1-3.7,0.7c0-0.1,0-0.1-0.1-0.2c-0.7-0.2-0.9-0.3-1.4-0.7C107.7,58.2,107.6,58.3,107.5,58.3
			z"/>
		<path class="st2" d="M79.2,50.4c-0.2,0-0.2,0-0.3,0.1c-0.2,0-0.2,0-0.5,0.1c-0.3,0.3-2.7,1.2-3.2,1.2c-1,0.4-1.3,0.7-1.9,1
			c-0.6,0.1-1.2,0.3-1.6,0.8c-0.2,0.8-0.7,2-0.3,2.8h0.4c0.8-0.6,2.5-0.5,3.4-0.4c0.2,0.1,0.5,0.2,0.7,0.3c0.3,0.4,0.6,0.7,0.9,1.1
			c0,0.2,0,0.3,0.1,0.5c0,1.5-1.8,1.8-2.8,2.5c-0.1,0-0.1,0-0.4,0.1c0,0.5,0.1,0.7,0.2,1c1.1-0.2,2.3-0.3,3.3-0.8
			c1,0.1,2.4-0.6,3.1-1.4c0.6-0.3,1.1-1.3,1.3-2c0-1.3-1.7-1.8-2.6-2.1c-0.1,0-0.2,0-0.2,0c0-0.1-0.1-0.2-0.1-0.2h-0.5
			c0-0.1-0.1-0.1-0.1-0.2c-0.5,0-0.8-0.1-1.2-0.2c0.2-0.3,2.3-0.9,2.7-0.9c1.2-0.6,3-0.6,4.2-1.3c0.5-0.9,0.6-2.4,0.7-3.4
			C84.3,48.7,79.4,49.9,79.2,50.4z"/>
		<path class="st2" d="M71.6,50.3c0,0,0,0.1,0.1,0.1c0.3-0.2,1.5-0.2,1.6-0.3c0.7-0.2,1.3-0.9,2-0.9V49c0.8-0.2,1.4-1.4,2.3-1.5
			c0.2-0.5,1.9-0.9,2.3-0.8c0,0,0.1-0.1,0.1-0.1c0.5,0,1,0,1.5,0.1c0.2-0.3,0.3-0.5,0.4-1c-0.5,0-3.7-0.5-3.9-0.1
			c-1.7,0.4-2.3,1.9-3.9,2.5c-0.8,0.8-4,0.4-3.1,2.2C71.2,50.3,71.4,50.3,71.6,50.3z M81.1,46.1h0.2v0.1L81.1,46.1L81.1,46.1z"/>
		<path class="st2" d="M106.5,48.7c0,0-0.1,0-0.1,0v0.1C106.4,48.7,106.5,48.7,106.5,48.7z"/>
		<rect x="81.1" y="46.1" class="st2" width="0.2" height="0.1"/>
	</g>
</g>
</svg>
