<?xml version="1.0" encoding="utf-8"?>
<!-- Generator: Adobe Illustrator 23.0.3, SVG Export Plug-In . SVG Version: 6.00 Build 0)  -->
<svg version="1.1" id="Layer_1" xmlns="http://www.w3.org/2000/svg" xmlns:xlink="http://www.w3.org/1999/xlink" x="0px" y="0px"
	 viewBox="0 0 192 192" style="enable-background:new 0 0 192 192;" xml:space="preserve">
<style type="text/css">
	.st0{fill:#1B75BB;}
	.st1{fill:#2B388F;}
</style>
<g>
	<path class="st0" d="M110,153c-3.5,2.2-7.2,3.8-11.2,4.6c-9,1.9-17.6,0.3-25.9-3.6c-10.7-5.1-18.9-13-25.1-22.9
		c-4.5-7.2-7.6-15-9-23.5C37,97,38,86.7,43,76.9c3.3-6.3,8.2-11.2,14.7-14.6C62.8,71.2,67.9,80,73,89c-0.7,0.4-1.3,0.8-1.9,1.2
		c-3.8,2.4-5.7,6-6.4,10.2c-1.9,11.2,5.7,23.9,16.4,27.6c4.7,1.6,9.2,1.2,13.5-1.7C99.8,135.2,104.9,144.1,110,153z"/>
	<path class="st1" d="M139,139.5c-0.9-0.8-1.8-1.6-2.5-2.3c15.5-19.8,18.4-40.8,6.8-63.4c-13.4-21.6-32.9-30-57.9-26.8
		c-0.2-1-0.4-2.2-0.6-3.3c20.8-4.5,47.4,3.7,61.3,27.5C159.6,94.5,155,122.3,139,139.5z"/>
	<path class="st1" d="M100.1,104c4,0,8,0,12.1,0c0,1.3,0,2.4,0,3.7c-7.1,0-14.1,0-21.1,0c-0.1-0.2-0.3-0.3-0.4-0.5
		c0.4-0.2,0.8-0.3,1.1-0.6c5.5-5.5,11-11,16.5-16.5c3.8-3.8,2.2-9.9-3-11.3c-3.4-0.9-7.1,1.3-8,4.8c-0.1,0.5-0.2,1-0.3,1.7
		c-1.1,0-2.3,0-3.7,0c0.3-1.2,0.4-2.4,0.8-3.5c1.4-4,5.2-6.6,9.5-6.8c4-0.1,7.9,2.4,9.6,6.1c1.8,4,1,8.4-2,11.5
		c-3.4,3.4-6.8,6.8-10.3,10.3c-0.3,0.3-0.6,0.5-0.9,0.8C100,103.8,100.1,103.9,100.1,104z"/>
	<path class="st1" d="M101.6,122.5c5.2-3.3,10.5-3.9,15.9-1.1c5.5,2.8,8.4,7.6,8.3,13.8c-0.1,6.3-3.2,10.8-8.9,13.8
		C111.9,140.2,106.8,131.4,101.6,122.5z"/>
	<path class="st1" d="M79.9,84.9c-5.1-8.8-10.1-17.5-15.3-26.4c4.6-3,9.5-3.7,14.6-1.7c5.7,2.2,9.6,7.8,9.6,13.8
		C89,76.8,85.5,82.4,79.9,84.9z"/>
	<path class="st1" d="M131.8,89.4c0.6,0.1,1,0.1,1.5,0.2c0,1.2,0,2.3,0,3.5c-0.4,0.1-0.9,0.1-1.5,0.2c0,4.2,0,8.4,0,12.6
		c-1.3,0-2.4,0-3.7,0c0-4.2,0-8.4,0-12.7c-5.4,0-10.7,0-15.8,0c6.5-6.5,13-13,19.4-19.4C131.8,78.8,131.8,84.1,131.8,89.4z
		 M121.1,89.4c2.3,0,4.6,0,6.9,0c0-2.4,0-4.7,0-6.9C125.7,84.8,123.4,87.1,121.1,89.4z"/>
</g>
</svg>
