<?xml version="1.0" encoding="utf-8"?>
<!-- Generator: Adobe Illustrator 23.0.3, SVG Export Plug-In . SVG Version: 6.00 Build 0)  -->
<svg version="1.1" id="Layer_1" xmlns="http://www.w3.org/2000/svg" xmlns:xlink="http://www.w3.org/1999/xlink" x="0px" y="0px"
	 viewBox="0 0 192 192" style="enable-background:new 0 0 192 192;" xml:space="preserve">
<style type="text/css">
	.st0{fill:none;}
	.st1{fill:#37B34A;}
	.st2{fill:#FAAF40;}
</style>
<g>
	<path class="st0" d="M156.6,140.2c-3.3,0.1-6.2,3-6.2,6.1c0,2.6,2.1,4.6,4.7,4.5c3.3-0.1,6.4-3.2,6.3-6.4
		C161.4,141.9,159.4,140.1,156.6,140.2z"/>
	<path class="st0" d="M75.2,140.2c-3.4-0.1-6.5,2.7-6.7,5.9c-0.1,2.5,1.9,4.6,4.5,4.7c3.2,0.1,6.5-3,6.5-6.2
		C79.6,142.2,77.7,140.3,75.2,140.2z"/>
	<path class="st0" d="M169.9,84.5c-4.6-0.1-9.1-0.1-13.7-0.1c-5.5,0-5.5,0-6.5,5.3c-0.9,5.2-1.8,10.5-2.7,16c10.7,0,21,0,31.8,0
		c-2.2-6.8-4.2-13.4-6.5-19.8C172.1,85.1,170.8,84.5,169.9,84.5z"/>
	<path class="st1" d="M183.6,109.1c0.3-2.1,0.2-4.5-0.4-6.6c-2-6.8-4.3-13.5-6.4-20.3c-0.7-2.2-1.8-3.1-4.2-3.1
		c-7.1,0.1-14.2,0-21.3,0.1c-4.2,0-5,0.7-5.7,4.9c-2.8,16-5.6,32-8.3,47.9c-0.4,2.2-1.2,3-3.5,3c-14-0.1-28-0.1-42-0.1
		c-1,0-2.1,0-3.2,0c0.6,1.9,1.3,3.4,1.5,5c0.2,1.7,0.1,3.5,0.1,5.3c16.6,0,33.1,0,49.7,0c0.2-0.6,0.3-1,0.4-1.5
		c0.1-0.5,0.3-0.9,0.5-1.4c3.2-7.4,8.6-12.2,16.9-12.8c9.3-0.6,14.6,5.1,14.6,15.8c1.7,0,3.3,0.2,4.8-0.1c1-0.2,2.6-1,2.7-1.8
		c0.5-2.9,3-5.9-0.2-8.8c-0.4-0.3-0.3-1.5-0.1-2.2C180.9,124.8,182.4,117,183.6,109.1z M147.1,105.6c0.9-5.5,1.8-10.7,2.7-16
		c0.9-5.3,1-5.3,6.5-5.3c4.6,0,9.1-0.1,13.7,0.1c0.9,0,2.2,0.7,2.4,1.3c2.2,6.5,4.3,13,6.5,19.8
		C168.1,105.6,157.7,105.6,147.1,105.6z"/>
	<path d="M76,135.1c-6.4,0-12.4,5.9-12.5,12.3c-0.1,4.9,3.8,8.8,8.9,8.9c6.5,0.1,12.5-6,12.5-12.5C84.8,138.6,81.2,135.1,76,135.1z
		 M73.1,150.8c-2.6-0.1-4.6-2.1-4.5-4.7c0.1-3.2,3.3-6.1,6.7-5.9c2.6,0.1,4.4,2,4.4,4.4C79.6,147.8,76.3,150.9,73.1,150.8z"/>
	<path d="M158.1,135.1c-6.6-0.1-12.6,5.7-12.6,12.3c0,5.1,3.7,8.8,8.8,8.9c6.4,0,12.4-5.9,12.5-12.2
		C166.8,138.8,163.2,135.2,158.1,135.1z M155.1,150.8c-2.6,0.1-4.7-1.9-4.7-4.5c0-3.1,2.9-6,6.2-6.1c2.8-0.1,4.7,1.7,4.8,4.3
		C161.5,147.6,158.4,150.7,155.1,150.8z"/>
	<path class="st1" d="M43.1,138.3c-0.3,1.4-0.5,2.9-0.7,4.3c-0.2,1.9,0.7,2.9,2.6,2.9c4.3,0,8.5,0,12.4,0c1.9-3.6,3.7-6.8,5.6-10.3
		c-5.4,0-10.9,0-16.3,0C44.6,135.2,43.5,136.3,43.1,138.3z"/>
	<path class="st2" d="M55.3,69.4c-0.4,2.4-0.9,4.8-1.4,7.5c1.3,0,2.4,0,3.4,0c4.4,0,8.7,0,13.1,0c1.8,0,3.4,0.8,3.3,2.8
		c-0.1,1.4-0.8,2.1-1.9,2.4H13.3c-1.6,0-2.9,1.3-3,2.9c0,0,0,0,0,0l0,0c0,0,0,0,0,0.1c0,1.7,1.3,3,3,3H52c-0.4,2.5-0.7,4.7-1.1,7.2
		c1.3,0,2.2,0,3.2,0c9,0,18.1,0,27.1,0c1.9,0,3.3,0.7,3.3,2.8c-0.1,1.9-1.5,2.6-3.2,2.6c-0.8,0-1.6,0-2.3,0c-18.1,0-36.2,0-54.2,0
		c-2,0-3.8,0.4-3.7,2.7c0.1,2,1.8,2.5,3.6,2.4c5.6-0.1,11.3,0,16.9,0c2.4,0,4.8,0,7.3,0c-0.4,2.7-0.8,4.9-1.2,7.4h23.4
		c1.6,0,2.9,1.3,2.9,2.9v0.2c0,1.3-0.9,2.4-2.1,2.8H49.2h-17c-0.2,0-0.4,0-0.6,0.1c0,0-0.1,0-0.1,0c-0.1,0-0.2,0.1-0.3,0.1
		c-1.3,0.3-2.2,1.3-2.2,2.4v0.1c0,1.2,1,2.2,2.4,2.5c0.2,0,0.5,0.1,0.7,0.1h13.2c-0.2,1.8-0.4,3.2-0.6,4.9c0.8,0.1,1.4,0.2,2,0.2
		c27.7,0,55.4,0,83.1,0.1c2.1,0,2.5-1,2.9-2.7c2.6-15,5.4-30,8-45c0.7-4.1,1.4-8.1,2.1-12.3C113.4,69.4,84.4,69.4,55.3,69.4z"/>
</g>
</svg>
